<?xml version="1.0" encoding="UTF-8"?>
<!DOCTYPE svg PUBLIC "-//W3C//DTD SVG 1.1//EN" "http://www.w3.org/Graphics/SVG/1.1/DTD/svg11.dtd">
<svg xmlns="http://www.w3.org/2000/svg" version="1.1" width="200px" height="200px" style="shape-rendering:geometricPrecision; text-rendering:geometricPrecision; image-rendering:optimizeQuality; fill-rule:evenodd; clip-rule:evenodd" xmlns:xlink="http://www.w3.org/1999/xlink">
<g><path style="opacity:0.603" fill="#16100d" d="M 10.5,45.5 C 1.93098,55.281 2.93098,64.1143 13.5,72C 24.0972,78.9928 35.7639,82.8262 48.5,83.5C 48.5,84.1667 48.5,84.8333 48.5,85.5C 34.251,79.7356 21.5843,82.0689 10.5,92.5C 11.982,94.4829 13.6487,96.3163 15.5,98C 19.1099,99.944 22.4432,102.277 25.5,105C 29.3088,108.238 33.6421,110.404 38.5,111.5C 40.8333,112.167 43.1667,112.833 45.5,113.5C 42.5,113.5 39.5,113.5 36.5,113.5C 36.1067,119.678 36.9401,125.678 39,131.5C 40.5,134.333 42.6667,136.5 45.5,138C 61.0544,145.465 77.3878,149.965 94.5,151.5C 98.2491,151.465 101.916,151.131 105.5,150.5C 117.536,150.776 129.536,150.276 141.5,149C 150.742,146.259 155.742,140.092 156.5,130.5C 156.5,130.167 156.5,129.833 156.5,129.5C 159.082,129.975 161.082,129.308 162.5,127.5C 163.833,126.833 165.167,126.167 166.5,125.5C 170.75,124.442 172.084,121.942 170.5,118C 169.551,117.383 168.718,117.549 168,118.5C 167.383,117.551 167.549,116.718 168.5,116C 163.798,115.828 159.132,115.328 154.5,114.5C 159.128,112.519 163.461,110.019 167.5,107C 168.784,106.316 169.951,106.483 171,107.5C 171.483,106.552 171.649,105.552 171.5,104.5C 168.306,105.758 164.973,106.424 161.5,106.5C 160.209,106.737 159.209,106.404 158.5,105.5C 163.211,104.99 167.878,104.156 172.5,103C 177.146,98.0225 182.146,93.3558 187.5,89C 183.769,85.9458 179.435,84.4458 174.5,84.5C 174.528,86.5824 173.861,88.4157 172.5,90C 175.026,89.0956 177.692,88.7623 180.5,89C 177.978,90.3409 175.311,91.1743 172.5,91.5C 171.965,97.5487 168.632,101.382 162.5,103C 160.527,103.495 158.527,103.662 156.5,103.5C 153.201,104.376 149.868,104.543 146.5,104C 145.748,103.329 145.414,102.496 145.5,101.5C 146.667,102.815 148.167,103.481 150,103.5C 154.536,102.852 159.036,102.019 163.5,101C 166.562,99.9392 169.062,98.1059 171,95.5C 171.688,94.6683 171.521,94.0016 170.5,93.5C 169.583,94.1272 168.583,94.4606 167.5,94.5C 172.183,90.4525 173.849,85.4525 172.5,79.5C 174.544,80.7784 176.544,80.6117 178.5,79C 188.464,72.9038 192.964,64.0705 192,52.5C 189.832,45.1642 184.999,42.6642 177.5,45C 187.324,50.2905 187.991,56.6239 179.5,64C 176.395,65.8681 173.062,67.0348 169.5,67.5C 169.366,69.2915 169.699,70.9582 170.5,72.5C 159.398,72.7138 148.398,73.7138 137.5,75.5C 133.459,77.1907 129.459,78.8574 125.5,80.5C 128.498,77.9983 131.832,75.9983 135.5,74.5C 146.332,72.2709 157.332,70.9376 168.5,70.5C 166.363,65.1968 162.697,61.3635 157.5,59C 148.843,59.2951 140.176,59.7951 131.5,60.5C 129.901,60.7678 128.568,60.4345 127.5,59.5C 127.833,59.5 128.167,59.5 128.5,59.5C 136.52,59.052 144.52,58.3854 152.5,57.5C 153.185,49.0237 149.518,43.5237 141.5,41C 135.175,40.5005 128.842,40.3338 122.5,40.5C 116.362,41.4424 110.695,43.4424 105.5,46.5C 104.167,45.8333 103.167,44.8333 102.5,43.5C 103.496,43.4142 104.329,43.7476 105,44.5C 109.004,42.6654 113.17,41.3321 117.5,40.5C 117.286,38.8561 117.62,37.3561 118.5,36C 117.207,35.51 115.873,35.3433 114.5,35.5C 114.657,34.1266 114.49,32.7932 114,31.5C 111.736,34.4335 108.902,36.6001 105.5,38C 103.633,38.7112 102.133,38.2112 101,36.5C 99.9887,37.3366 98.8221,37.67 97.5,37.5C 98.7653,36.5207 100.099,35.5207 101.5,34.5C 102.854,36.1836 104.521,36.6836 106.5,36C 109.011,34.1522 111.511,32.3189 114,30.5C 115.694,32.4292 117.861,33.4292 120.5,33.5C 120.617,35.4835 119.95,37.1502 118.5,38.5C 118.833,38.8333 119.167,39.1667 119.5,39.5C 129.495,36.4575 139.162,37.2909 148.5,42C 152.669,45.8553 154.669,50.6886 154.5,56.5C 161.065,57.6972 166.231,61.0305 170,66.5C 175.753,65.4639 180.086,62.4639 183,57.5C 184.19,50.1794 181.023,46.1794 173.5,45.5C 173.709,44.914 174.043,44.414 174.5,44C 184.148,39.9118 190.648,42.7452 194,52.5C 195.634,67.5594 189.134,77.3928 174.5,82C 180.094,82.9159 185.094,85.0825 189.5,88.5C 183.821,93.6791 178.321,99.0125 173,104.5C 173.568,108.338 172.735,112.005 170.5,115.5C 173.634,117.721 174.134,120.387 172,123.5C 167.474,126.517 162.974,129.517 158.5,132.5C 155.921,144.907 148.254,151.407 135.5,152C 118.194,153.507 100.86,153.841 83.5,153C 69.3152,148.909 55.3152,144.242 41.5,139C 38.5332,136.9 36.6998,134.066 36,130.5C 34.555,124.45 34.055,118.45 34.5,112.5C 25.6309,107.465 17.4642,101.465 10,94.5C 9.1751,92.2992 9.6751,90.4659 11.5,89C 16.1867,86.3008 20.8534,83.6341 25.5,81C 16.2629,78.0843 9.09619,72.5843 4,64.5C 1.10612,56.3133 3.27278,49.98 10.5,45.5 Z"/></g>
<g><path style="opacity:1" fill="#eaeaea" d="M 102.5,43.5 C 100.781,41.4559 99.1139,39.4559 97.5,37.5C 98.8221,37.67 99.9887,37.3366 101,36.5C 102.133,38.2112 103.633,38.7112 105.5,38C 108.902,36.6001 111.736,34.4335 114,31.5C 114.49,32.7932 114.657,34.1266 114.5,35.5C 115.873,35.3433 117.207,35.51 118.5,36C 117.62,37.3561 117.286,38.8561 117.5,40.5C 113.17,41.3321 109.004,42.6654 105,44.5C 104.329,43.7476 103.496,43.4142 102.5,43.5 Z"/></g>
<g><path style="opacity:1" fill="#d06211" d="M 91.5,37.5 C 97.5178,43.5497 100.184,50.883 99.5,59.5C 94.9804,59.0299 90.4804,58.3632 86,57.5C 81.0007,58.9172 76.1674,60.7505 71.5,63C 76.7694,61.8513 82.1028,60.6847 87.5,59.5C 92.3683,59.7398 97.0349,60.7398 101.5,62.5C 102.369,64.717 102.702,67.0504 102.5,69.5C 91.7138,68.3237 81.7138,70.3237 72.5,75.5C 72.1667,75.5 71.8333,75.5 71.5,75.5C 70.475,75.8966 70.3083,76.5632 71,77.5C 74.7615,81.77 78.9281,85.4367 83.5,88.5C 83.9731,89.9063 84.9731,90.573 86.5,90.5C 88.7005,92.6404 91.3672,94.1404 94.5,95C 101.203,95.7131 107.87,95.5464 114.5,94.5C 114.833,94.5 115.167,94.5 115.5,94.5C 115.5,95.5 115.5,96.5 115.5,97.5C 114.833,98.1667 114.167,98.8333 113.5,99.5C 114.5,99.5 115.5,99.5 116.5,99.5C 117.301,101.042 117.634,102.708 117.5,104.5C 115.209,109.188 116.209,113.355 120.5,117C 118.959,118.371 117.625,119.871 116.5,121.5C 112.82,122.56 109.154,123.726 105.5,125C 101.467,128.168 100.633,132.001 103,136.5C 104.734,138.451 106.901,139.451 109.5,139.5C 110.218,141.137 110.384,142.803 110,144.5C 108.668,146.66 107.168,148.66 105.5,150.5C 101.916,151.131 98.2491,151.465 94.5,151.5C 77.3878,149.965 61.0544,145.465 45.5,138C 42.6667,136.5 40.5,134.333 39,131.5C 36.9401,125.678 36.1067,119.678 36.5,113.5C 39.5,113.5 42.5,113.5 45.5,113.5C 47.9237,112.97 50.257,112.136 52.5,111C 47.8932,111.31 43.2266,111.476 38.5,111.5C 33.6421,110.404 29.3088,108.238 25.5,105C 22.4432,102.277 19.1099,99.944 15.5,98C 13.6487,96.3163 11.982,94.4829 10.5,92.5C 21.5843,82.0689 34.251,79.7356 48.5,85.5C 54.3329,88.2537 54.6663,87.7537 49.5,84C 50.8228,83.1841 51.4894,82.0174 51.5,80.5C 52.7899,79.9423 53.6232,78.9423 54,77.5C 55.7614,71.5999 57.0947,65.5999 58,59.5C 61.9913,40.9811 73.158,33.6478 91.5,37.5 Z"/></g>
<g><path style="opacity:0.999" fill="#f7f4f2" d="M 91.5,37.5 C 95.3267,39.246 98.9934,41.246 102.5,43.5C 103.167,44.8333 104.167,45.8333 105.5,46.5C 108.328,51.1581 110.328,56.1581 111.5,61.5C 110.167,61.5 108.833,61.5 107.5,61.5C 104.572,61.4349 101.905,60.7682 99.5,59.5C 100.184,50.883 97.5178,43.5497 91.5,37.5 Z"/></g>
<g><path style="opacity:0.999" fill="#faf9f7" d="M 122.5,40.5 C 125.917,46.3462 127.917,52.6796 128.5,59.5C 128.167,59.5 127.833,59.5 127.5,59.5C 122.817,59.1856 118.317,59.8523 114,61.5C 112.165,55.8193 109.332,50.8193 105.5,46.5C 110.695,43.4424 116.362,41.4424 122.5,40.5 Z"/></g>
<g><path style="opacity:1" fill="#d16311" d="M 122.5,40.5 C 128.842,40.3338 135.175,40.5005 141.5,41C 149.518,43.5237 153.185,49.0237 152.5,57.5C 144.52,58.3854 136.52,59.052 128.5,59.5C 127.917,52.6796 125.917,46.3462 122.5,40.5 Z"/></g>
<g><path style="opacity:1" fill="#f9f2df" d="M 51.5,80.5 C 50.1667,81.1667 49.1667,82.1667 48.5,83.5C 35.7639,82.8262 24.0972,78.9928 13.5,72C 2.93098,64.1143 1.93098,55.281 10.5,45.5C 18.2761,42.5134 26.2761,41.8467 34.5,43.5C 28.6662,45.3341 23.4995,48.3341 19,52.5C 17.877,55.9563 18.7104,58.7897 21.5,61C 32.2048,66.175 43.5381,68.675 55.5,68.5C 54.3602,72.5862 53.0268,76.5862 51.5,80.5 Z"/></g>
<g><path style="opacity:1" fill="#f6f0df" d="M 172.5,79.5 C 172.662,77.4727 172.495,75.4727 172,73.5C 171.617,72.944 171.117,72.6107 170.5,72.5C 169.699,70.9582 169.366,69.2915 169.5,67.5C 173.062,67.0348 176.395,65.8681 179.5,64C 187.991,56.6239 187.324,50.2905 177.5,45C 184.999,42.6642 189.832,45.1642 192,52.5C 192.964,64.0705 188.464,72.9038 178.5,79C 176.544,80.6117 174.544,80.7784 172.5,79.5 Z"/></g>
<g><path style="opacity:0.637" fill="#13100e" d="M 97.5,37.5 C 99.1139,39.4559 100.781,41.4559 102.5,43.5C 98.9934,41.246 95.3267,39.246 91.5,37.5C 73.158,33.6478 61.9913,40.9811 58,59.5C 57.0947,65.5999 55.7614,71.5999 54,77.5C 53.6232,78.9423 52.7899,79.9423 51.5,80.5C 53.0268,76.5862 54.3602,72.5862 55.5,68.5C 43.5381,68.675 32.2048,66.175 21.5,61C 18.7104,58.7897 17.877,55.9563 19,52.5C 23.4995,48.3341 28.6662,45.3341 34.5,43.5C 26.2761,41.8467 18.2761,42.5134 10.5,45.5C 13.2452,42.9624 16.5785,41.4624 20.5,41C 26.7487,40.2087 32.7487,41.042 38.5,43.5C 32.8799,45.3213 27.5466,47.8213 22.5,51C 19.4987,55.0029 20.1653,58.3362 24.5,61C 34.4499,64.8698 44.7833,66.7032 55.5,66.5C 57.1727,38.4519 71.1727,28.7852 97.5,37.5 Z"/></g>
<g><path style="opacity:1" fill="#2a190d" d="M 99.5,59.5 C 101.905,60.7682 104.572,61.4349 107.5,61.5C 107.158,62.3382 106.492,62.6716 105.5,62.5C 104.167,62.5 102.833,62.5 101.5,62.5C 97.0349,60.7398 92.3683,59.7398 87.5,59.5C 82.1028,60.6847 76.7694,61.8513 71.5,63C 76.1674,60.7505 81.0007,58.9172 86,57.5C 90.4804,58.3632 94.9804,59.0299 99.5,59.5 Z"/></g>
<g><path style="opacity:1" fill="#d16311" d="M 135.5,74.5 C 135.035,69.9027 133.702,65.5693 131.5,61.5C 131.5,61.1667 131.5,60.8333 131.5,60.5C 140.176,59.7951 148.843,59.2951 157.5,59C 162.697,61.3635 166.363,65.1968 168.5,70.5C 157.332,70.9376 146.332,72.2709 135.5,74.5 Z"/></g>
<g><path style="opacity:1" fill="#434343" d="M 105.5,46.5 C 109.332,50.8193 112.165,55.8193 114,61.5C 118.317,59.8523 122.817,59.1856 127.5,59.5C 128.568,60.4345 129.901,60.7678 131.5,60.5C 131.5,60.8333 131.5,61.1667 131.5,61.5C 125.407,61.1392 119.407,61.6392 113.5,63C 114.914,64.9935 115.914,67.1602 116.5,69.5C 114.821,68.0003 113.488,66.167 112.5,64C 109.964,63.8138 107.631,63.3138 105.5,62.5C 106.492,62.6716 107.158,62.3382 107.5,61.5C 108.833,61.5 110.167,61.5 111.5,61.5C 110.328,56.1581 108.328,51.1581 105.5,46.5 Z"/></g>
<g><path style="opacity:1" fill="#faf9f8" d="M 131.5,61.5 C 133.702,65.5693 135.035,69.9027 135.5,74.5C 131.832,75.9983 128.498,77.9983 125.5,80.5C 124.5,80.5 123.5,80.5 122.5,80.5C 122.193,75.8719 120.193,72.2052 116.5,69.5C 115.914,67.1602 114.914,64.9935 113.5,63C 119.407,61.6392 125.407,61.1392 131.5,61.5 Z"/></g>
<g><path style="opacity:1" fill="#f9f7f5" d="M 101.5,62.5 C 102.833,62.5 104.167,62.5 105.5,62.5C 107.631,63.3138 109.964,63.8138 112.5,64C 113.488,66.167 114.821,68.0003 116.5,69.5C 116.703,71.0443 117.37,72.3777 118.5,73.5C 118.167,73.8333 117.833,74.1667 117.5,74.5C 113.963,72.7658 110.296,71.4325 106.5,70.5C 105.041,70.5674 103.708,70.2341 102.5,69.5C 102.702,67.0504 102.369,64.717 101.5,62.5 Z"/></g>
<g><path style="opacity:1" fill="#1c1616" d="M 102.5,69.5 C 103.708,70.2341 105.041,70.5674 106.5,70.5C 106.5,71.1667 106.167,71.5 105.5,71.5C 99.8546,70.6129 94.188,70.4462 88.5,71C 83.2274,72.8082 77.8941,74.3082 72.5,75.5C 81.7138,70.3237 91.7138,68.3237 102.5,69.5 Z"/></g>
<g><path style="opacity:1" fill="#f6f7f7" d="M 105.5,71.5 C 110.691,73.1794 115.858,75.1794 121,77.5C 121.731,81.9844 121.231,86.3178 119.5,90.5C 117.833,91.1667 116.167,91.8333 114.5,92.5C 116.11,82.6138 111.944,77.2804 102,76.5C 93.3849,77.7822 89.0516,82.7822 89,91.5C 88.3292,90.7476 87.4959,90.4142 86.5,90.5C 86.0269,89.0937 85.0269,88.427 83.5,88.5C 79.5,84.1667 75.5,79.8333 71.5,75.5C 71.8333,75.5 72.1667,75.5 72.5,75.5C 77.8941,74.3082 83.2274,72.8082 88.5,71C 94.188,70.4462 99.8546,70.6129 105.5,71.5 Z"/></g>
<g><path style="opacity:1" fill="#220a01" d="M 170.5,72.5 C 171.117,72.6107 171.617,72.944 172,73.5C 172.495,75.4727 172.662,77.4727 172.5,79.5C 171.5,79.1667 170.833,78.5 170.5,77.5C 171.494,76.0011 171.494,74.3344 170.5,72.5 Z"/></g>
<g><path style="opacity:1" fill="#d36513" d="M 170.5,72.5 C 171.494,74.3344 171.494,76.0011 170.5,77.5C 169.508,77.6716 168.842,77.3382 168.5,76.5C 164.781,74.7015 160.781,74.2015 156.5,75C 149.944,76.1305 143.611,77.9638 137.5,80.5C 137.5,78.8333 137.5,77.1667 137.5,75.5C 148.398,73.7138 159.398,72.7138 170.5,72.5 Z"/></g>
<g><path style="opacity:1" fill="#2f171b" d="M 71.5,75.5 C 75.5,79.8333 79.5,84.1667 83.5,88.5C 78.9281,85.4367 74.7615,81.77 71,77.5C 70.3083,76.5632 70.475,75.8966 71.5,75.5 Z"/></g>
<g><path style="opacity:1" fill="#f5f5f5" d="M 137.5,75.5 C 137.5,77.1667 137.5,78.8333 137.5,80.5C 133.969,81.7575 130.302,82.5908 126.5,83C 129.5,83.6667 132.5,83.6667 135.5,83C 145.987,78.1271 156.987,75.9604 168.5,76.5C 168.842,77.3382 169.508,77.6716 170.5,77.5C 170.833,78.5 171.5,79.1667 172.5,79.5C 173.849,85.4525 172.183,90.4525 167.5,94.5C 166.059,90.9879 164.559,87.3212 163,83.5C 158.104,78.1322 153.437,78.4656 149,84.5C 145.77,88.625 143.937,93.2917 143.5,98.5C 135.913,99.4582 128.913,97.9582 122.5,94C 121.29,92.9609 120.29,91.7942 119.5,90.5C 121.982,88.4973 122.982,85.8306 122.5,82.5C 124.179,82.7148 125.179,82.0481 125.5,80.5C 129.459,78.8574 133.459,77.1907 137.5,75.5 Z"/></g>
<g><path style="opacity:1" fill="#0d0c0b" d="M 114.5,92.5 C 114.5,93.1667 114.5,93.8333 114.5,94.5C 107.87,95.5464 101.203,95.7131 94.5,95C 91.3672,94.1404 88.7005,92.6404 86.5,90.5C 87.4959,90.4142 88.3292,90.7476 89,91.5C 89.0516,82.7822 93.3849,77.7822 102,76.5C 111.944,77.2804 116.11,82.6138 114.5,92.5 Z"/></g>
<g><path style="opacity:1" fill="#251a16" d="M 168.5,76.5 C 156.987,75.9604 145.987,78.1271 135.5,83C 132.5,83.6667 129.5,83.6667 126.5,83C 130.302,82.5908 133.969,81.7575 137.5,80.5C 143.611,77.9638 149.944,76.1305 156.5,75C 160.781,74.2015 164.781,74.7015 168.5,76.5 Z"/></g>
<g><path style="opacity:1" fill="#0d0c0b" d="M 167.5,94.5 C 163.797,97.5169 159.464,99.1836 154.5,99.5C 150.629,99.815 146.962,99.4816 143.5,98.5C 143.937,93.2917 145.77,88.625 149,84.5C 153.437,78.4656 158.104,78.1322 163,83.5C 164.559,87.3212 166.059,90.9879 167.5,94.5 Z"/></g>
<g><path style="opacity:1" fill="#e1e1e1" d="M 96.5,80.5 C 99.5242,80.3642 101.024,81.6975 101,84.5C 98.5068,85.9455 96.6735,85.2789 95.5,82.5C 95.8627,81.8165 96.1961,81.1499 96.5,80.5 Z"/></g>
<g><path style="opacity:1" fill="#451e06" d="M 51.5,80.5 C 51.4894,82.0174 50.8228,83.1841 49.5,84C 54.6663,87.7537 54.3329,88.2537 48.5,85.5C 48.5,84.8333 48.5,84.1667 48.5,83.5C 49.1667,82.1667 50.1667,81.1667 51.5,80.5 Z"/></g>
<g><path style="opacity:1" fill="#333333" d="M 116.5,69.5 C 120.193,72.2052 122.193,75.8719 122.5,80.5C 123.5,80.5 124.5,80.5 125.5,80.5C 125.179,82.0481 124.179,82.7148 122.5,82.5C 122.982,85.8306 121.982,88.4973 119.5,90.5C 121.231,86.3178 121.731,81.9844 121,77.5C 115.858,75.1794 110.691,73.1794 105.5,71.5C 106.167,71.5 106.5,71.1667 106.5,70.5C 110.296,71.4325 113.963,72.7658 117.5,74.5C 117.833,74.1667 118.167,73.8333 118.5,73.5C 117.37,72.3777 116.703,71.0443 116.5,69.5 Z"/></g>
<g><path style="opacity:1" fill="#d6d6d6" d="M 153.5,84.5 C 155.225,84.8425 155.725,85.8425 155,87.5C 153.961,86.7562 153.461,85.7562 153.5,84.5 Z"/></g>
<g><path style="opacity:1" fill="#1f1003" d="M 46.5,97.5 C 46.5,98.1667 46.1667,98.5 45.5,98.5C 40.3858,95.8899 35.3858,93.0565 30.5,90C 25.7613,89.2738 21.0947,89.6071 16.5,91C 14.9494,94.36 14.4494,94.1934 15,90.5C 19.7809,87.6374 24.9476,86.804 30.5,88C 36.2394,90.592 41.5727,93.7587 46.5,97.5 Z"/></g>
<g><path style="opacity:1" fill="#d8d8d8" d="M 107.5,87.5 C 110.087,88.3074 110.587,89.6407 109,91.5C 107.812,90.4366 107.312,89.1033 107.5,87.5 Z"/></g>
<g><path style="opacity:1" fill="#272d36" d="M 83.5,88.5 C 85.0269,88.427 86.0269,89.0937 86.5,90.5C 84.9731,90.573 83.9731,89.9063 83.5,88.5 Z"/></g>
<g><path style="opacity:1" fill="#f9f9f9" d="M 97.5,89.5 C 99.337,89.6395 99.6704,90.3061 98.5,91.5C 97.7025,91.0431 97.3691,90.3764 97.5,89.5 Z"/></g>
<g><path style="opacity:1" fill="#cf6210" d="M 158.5,105.5 C 158.167,105.5 157.833,105.5 157.5,105.5C 157.167,104.833 156.833,104.167 156.5,103.5C 158.527,103.662 160.527,103.495 162.5,103C 168.632,101.382 171.965,97.5487 172.5,91.5C 175.311,91.1743 177.978,90.3409 180.5,89C 177.692,88.7623 175.026,89.0956 172.5,90C 173.861,88.4157 174.528,86.5824 174.5,84.5C 179.435,84.4458 183.769,85.9458 187.5,89C 182.146,93.3558 177.146,98.0225 172.5,103C 167.878,104.156 163.211,104.99 158.5,105.5 Z"/></g>
<g><path style="opacity:1" fill="#e4e4e4" d="M 159.5,90.5 C 162.861,91.2032 163.194,92.5365 160.5,94.5C 158.358,93.5629 158.024,92.2296 159.5,90.5 Z"/></g>
<g><path style="opacity:1" fill="#eeedec" d="M 115.5,97.5 C 115.5,96.5 115.5,95.5 115.5,94.5C 116.635,92.9122 117.969,92.5788 119.5,93.5C 118.479,95.188 117.145,96.5213 115.5,97.5 Z"/></g>
<g><path style="opacity:1" fill="#3a322e" d="M 119.5,90.5 C 120.29,91.7942 121.29,92.9609 122.5,94C 128.913,97.9582 135.913,99.4582 143.5,98.5C 146.962,99.4816 150.629,99.815 154.5,99.5C 151.713,100.477 148.713,100.81 145.5,100.5C 136.453,101.851 128.286,99.8513 121,94.5C 119.293,96.0375 117.793,97.7041 116.5,99.5C 115.5,99.5 114.5,99.5 113.5,99.5C 114.167,98.8333 114.833,98.1667 115.5,97.5C 117.145,96.5213 118.479,95.188 119.5,93.5C 117.969,92.5788 116.635,92.9122 115.5,94.5C 115.167,94.5 114.833,94.5 114.5,94.5C 114.5,93.8333 114.5,93.1667 114.5,92.5C 116.167,91.8333 117.833,91.1667 119.5,90.5 Z"/></g>
<g><path style="opacity:1" fill="#f3f3f3" d="M 145.5,100.5 C 145.5,100.833 145.5,101.167 145.5,101.5C 145.414,102.496 145.748,103.329 146.5,104C 149.868,104.543 153.201,104.376 156.5,103.5C 156.833,104.167 157.167,104.833 157.5,105.5C 147.131,105.422 136.798,104.755 126.5,103.5C 123.449,103.598 120.449,103.931 117.5,104.5C 117.634,102.708 117.301,101.042 116.5,99.5C 117.793,97.7041 119.293,96.0375 121,94.5C 128.286,99.8513 136.453,101.851 145.5,100.5 Z"/></g>
<g><path style="opacity:1" fill="#56290b" d="M 45.5,98.5 C 46.1667,98.5 46.5,98.1667 46.5,97.5C 49.9079,98.172 52.5745,97.172 54.5,94.5C 54.8333,94.6667 55.1667,94.8333 55.5,95C 53.1166,99.2173 49.7833,100.384 45.5,98.5 Z"/></g>
<g><path style="opacity:1" fill="#251303" d="M 113.5,99.5 C 113.082,100.222 112.416,100.722 111.5,101C 102.833,101.667 94.1667,101.667 85.5,101C 94.8586,100.721 104.192,100.221 113.5,99.5 Z"/></g>
<g><path style="opacity:1" fill="#dd6911" d="M 145.5,101.5 C 145.5,101.167 145.5,100.833 145.5,100.5C 148.713,100.81 151.713,100.477 154.5,99.5C 159.464,99.1836 163.797,97.5169 167.5,94.5C 168.583,94.4606 169.583,94.1272 170.5,93.5C 171.521,94.0016 171.688,94.6683 171,95.5C 169.062,98.1059 166.562,99.9392 163.5,101C 159.036,102.019 154.536,102.852 150,103.5C 148.167,103.481 146.667,102.815 145.5,101.5 Z"/></g>
<g><path style="opacity:1" fill="#0c0a08" d="M 139.5,115.5 C 133.355,114.51 127.022,114.177 120.5,114.5C 118.881,109.602 120.714,106.935 126,106.5C 131.803,107.483 136.637,110.15 140.5,114.5C 140.376,115.107 140.043,115.44 139.5,115.5 Z"/></g>
<g><path style="opacity:1" fill="#f6dbb7" d="M 161.5,106.5 C 164.973,106.424 168.306,105.758 171.5,104.5C 171.649,105.552 171.483,106.552 171,107.5C 169.951,106.483 168.784,106.316 167.5,107C 163.461,110.019 159.128,112.519 154.5,114.5C 159.132,115.328 163.798,115.828 168.5,116C 167.549,116.718 167.383,117.551 168,118.5C 168.718,117.549 169.551,117.383 170.5,118C 172.084,121.942 170.75,124.442 166.5,125.5C 157.21,124.008 147.877,123.175 138.5,123C 130.393,126.812 122.059,129.812 113.5,132C 115.167,132.667 116.833,132.667 118.5,132C 124.932,129.951 131.266,127.618 137.5,125C 146.008,124.129 154.341,124.962 162.5,127.5C 161.082,129.308 159.082,129.975 156.5,129.5C 153.615,127.98 150.448,126.98 147,126.5C 138.486,128.853 130.319,131.853 122.5,135.5C 118.695,136.267 114.861,136.933 111,137.5C 104.008,137.173 102.008,133.84 105,127.5C 109.001,125.574 112.834,123.574 116.5,121.5C 119.167,119.833 121.833,118.167 124.5,116.5C 129.405,115.555 134.405,115.221 139.5,115.5C 140.043,115.44 140.376,115.107 140.5,114.5C 136.637,110.15 131.803,107.483 126,106.5C 120.714,106.935 118.881,109.602 120.5,114.5C 117.856,112.484 117.023,109.817 118,106.5C 118.75,105.874 119.584,105.374 120.5,105C 131.846,105.277 143.179,106.111 154.5,107.5C 157.025,107.497 159.359,107.163 161.5,106.5 Z"/></g>
<g><path style="opacity:1" fill="#3b3633" d="M 157.5,105.5 C 157.833,105.5 158.167,105.5 158.5,105.5C 159.209,106.404 160.209,106.737 161.5,106.5C 159.359,107.163 157.025,107.497 154.5,107.5C 143.179,106.111 131.846,105.277 120.5,105C 119.584,105.374 118.75,105.874 118,106.5C 117.023,109.817 117.856,112.484 120.5,114.5C 121.833,115.167 123.167,115.833 124.5,116.5C 121.833,118.167 119.167,119.833 116.5,121.5C 117.625,119.871 118.959,118.371 120.5,117C 116.209,113.355 115.209,109.188 117.5,104.5C 120.449,103.931 123.449,103.598 126.5,103.5C 136.798,104.755 147.131,105.422 157.5,105.5 Z"/></g>
<g><path style="opacity:1" fill="#8b420b" d="M 45.5,113.5 C 43.1667,112.833 40.8333,112.167 38.5,111.5C 43.2266,111.476 47.8932,111.31 52.5,111C 50.257,112.136 47.9237,112.97 45.5,113.5 Z"/></g>
<g><path style="opacity:1" fill="#94806b" d="M 120.5,114.5 C 127.022,114.177 133.355,114.51 139.5,115.5C 134.405,115.221 129.405,115.555 124.5,116.5C 123.167,115.833 121.833,115.167 120.5,114.5 Z"/></g>
<g><path style="opacity:1" fill="#fbfbfb" d="M 156.5,130.5 C 155.742,140.092 150.742,146.259 141.5,149C 129.536,150.276 117.536,150.776 105.5,150.5C 107.168,148.66 108.668,146.66 110,144.5C 110.384,142.803 110.218,141.137 109.5,139.5C 113.88,138.707 118.213,137.707 122.5,136.5C 129.255,134.291 135.922,131.791 142.5,129C 147.335,128.223 152.002,128.723 156.5,130.5 Z"/></g>
<g><path style="opacity:1" fill="#474036" d="M 166.5,125.5 C 165.167,126.167 163.833,126.833 162.5,127.5C 154.341,124.962 146.008,124.129 137.5,125C 131.266,127.618 124.932,129.951 118.5,132C 116.833,132.667 115.167,132.667 113.5,132C 122.059,129.812 130.393,126.812 138.5,123C 147.877,123.175 157.21,124.008 166.5,125.5 Z"/></g>
<g><path style="opacity:1" fill="#3a3734" d="M 156.5,129.5 C 156.5,129.833 156.5,130.167 156.5,130.5C 152.002,128.723 147.335,128.223 142.5,129C 135.922,131.791 129.255,134.291 122.5,136.5C 122.5,136.167 122.5,135.833 122.5,135.5C 130.319,131.853 138.486,128.853 147,126.5C 150.448,126.98 153.615,127.98 156.5,129.5 Z"/></g>
<g><path style="opacity:1" fill="#1e1714" d="M 116.5,121.5 C 112.834,123.574 109.001,125.574 105,127.5C 102.008,133.84 104.008,137.173 111,137.5C 114.861,136.933 118.695,136.267 122.5,135.5C 122.5,135.833 122.5,136.167 122.5,136.5C 118.213,137.707 113.88,138.707 109.5,139.5C 106.901,139.451 104.734,138.451 103,136.5C 100.633,132.001 101.467,128.168 105.5,125C 109.154,123.726 112.82,122.56 116.5,121.5 Z"/></g>
</svg>
