<?xml version="1.0" encoding="UTF-8"?>
<!DOCTYPE svg PUBLIC "-//W3C//DTD SVG 1.1//EN" "http://www.w3.org/Graphics/SVG/1.1/DTD/svg11.dtd">
<svg xmlns="http://www.w3.org/2000/svg" version="1.1" width="1200px" height="1200px" style="shape-rendering:geometricPrecision; text-rendering:geometricPrecision; image-rendering:optimizeQuality; fill-rule:evenodd; clip-rule:evenodd" xmlns:xlink="http://www.w3.org/1999/xlink">
<g><path style="opacity:1" fill="#fefefe" d="M 391.5,95.5 C 414.908,132.627 436.075,171.294 455,211.5C 455.168,201.816 455.668,192.149 456.5,182.5C 465.931,206.284 476.431,229.618 488,252.5C 499.23,273.803 514.73,291.303 534.5,305C 541.378,308.944 548.711,311.444 556.5,312.5C 564.665,314.533 572.998,315.033 581.5,314C 559.338,286.538 547.171,255.038 545,219.5C 543.74,201.857 543.24,184.19 543.5,166.5C 543.5,165.5 543.5,164.5 543.5,163.5C 543.5,159.167 543.5,154.833 543.5,150.5C 544.167,149.5 544.833,148.5 545.5,147.5C 549.521,172.377 560.521,193.544 578.5,211C 591.118,221.973 604.451,231.973 618.5,241C 641.167,254 663.833,267 686.5,280C 694.972,285.639 703.305,291.472 711.5,297.5C 725.823,264.065 740.657,230.731 756,197.5C 772.768,162.941 791.268,129.608 811.5,97.5C 818.313,88.5684 825.146,79.5684 832,70.5C 836.833,64.3333 842.333,58.8333 848.5,54C 860.833,48 873.167,48 885.5,54C 888.28,55.8123 890.78,57.979 893,60.5C 918.923,100.346 940.089,142.679 956.5,187.5C 979.014,248.889 997.181,311.555 1011,375.5C 1028.31,452.474 1040.47,530.141 1047.5,608.5C 1069.57,676.266 1068.23,743.6 1043.5,810.5C 1023.82,809.035 1004.15,809.202 984.5,811C 969.744,813.067 965.244,820.9 971,834.5C 973.251,836.377 975.751,837.877 978.5,839C 990.028,837.383 1001.69,836.55 1013.5,836.5C 1019.55,836.542 1025.55,836.876 1031.5,837.5C 1023.94,852.698 1015.61,867.364 1006.5,881.5C 990.953,875.04 974.953,869.874 958.5,866C 945.888,865.033 940.388,870.866 942,883.5C 943.377,885.754 944.877,887.92 946.5,890C 960.268,893.922 973.934,898.255 987.5,903C 988.056,903.383 988.389,903.883 988.5,904.5C 944.141,957.671 890.141,998.171 826.5,1026C 716.858,1072.36 603.524,1084.03 486.5,1061C 399.642,1043.32 322.975,1005.65 256.5,948C 241.19,933.864 227.19,918.698 214.5,902.5C 226.732,897.256 239.399,893.09 252.5,890C 259.673,881.571 259.007,873.904 250.5,867C 245.19,865.215 239.856,865.215 234.5,867C 221.575,870.475 208.908,874.642 196.5,879.5C 187.994,865.826 179.994,851.826 172.5,837.5C 177.489,836.834 182.656,836.501 188,836.5C 199.281,836.592 210.448,837.425 221.5,839C 229.122,835.167 231.955,829.001 230,820.5C 226.021,814.155 220.187,810.989 212.5,811C 195.174,809.233 177.841,809.067 160.5,810.5C 139.646,753.335 135.813,695.002 149,635.5C 151.216,625.965 154.05,616.632 157.5,607.5C 167.537,492.146 188.703,378.813 221,267.5C 229.554,238.336 239.388,209.669 250.5,181.5C 266.104,139.624 285.938,99.9578 310,62.5C 323.004,48.465 338.171,45.6317 355.5,54C 359.967,57.4651 364.133,61.2984 368,65.5C 376.079,75.3996 383.912,85.3996 391.5,95.5 Z"/></g>
<g><path style="opacity:0.997" fill="#ec1c24" d="M 811.5,97.5 C 791.268,129.608 772.768,162.941 756,197.5C 740.657,230.731 725.823,264.065 711.5,297.5C 703.305,291.472 694.972,285.639 686.5,280C 663.833,267 641.167,254 618.5,241C 604.451,231.973 591.118,221.973 578.5,211C 560.521,193.544 549.521,172.377 545.5,147.5C 545.142,143.491 544.642,139.491 544,135.5C 543.501,140.489 543.334,145.489 543.5,150.5C 543.5,154.833 543.5,159.167 543.5,163.5C 542.673,158.015 542.173,152.348 542,146.5C 541.5,154.827 541.334,163.16 541.5,171.5C 540.215,197.846 540.381,224.179 542,250.5C 543.521,271.973 548.355,292.639 556.5,312.5C 548.711,311.444 541.378,308.944 534.5,305C 514.73,291.303 499.23,273.803 488,252.5C 476.431,229.618 465.931,206.284 456.5,182.5C 455.668,192.149 455.168,201.816 455,211.5C 436.075,171.294 414.908,132.627 391.5,95.5C 531.775,41.5591 671.775,42.2257 811.5,97.5 Z"/></g>
<g><path style="opacity:1" fill="#f7bad5" d="M 452.5,326.5 C 452.791,334.866 453.457,343.199 454.5,351.5C 432.511,360.661 411.178,371.161 390.5,383C 335.163,414.996 280.829,448.496 227.5,483.5C 234.126,409.31 247.626,336.31 268,264.5C 281.074,217.36 300.407,173.027 326,131.5C 337.938,119.612 349.938,119.612 362,131.5C 378.81,156.356 393.144,182.689 405,210.5C 421.716,248.914 437.549,287.581 452.5,326.5 Z"/></g>
<g><path style="opacity:1" fill="#f7bad5" d="M 858.5,122.5 C 868.001,120.549 875.834,123.216 882,130.5C 900.714,159.262 915.714,189.929 927,222.5C 955.299,307.463 973.466,394.463 981.5,483.5C 928.35,443.412 872.35,407.579 813.5,376C 794.323,366.497 774.657,358.164 754.5,351C 753,348.167 751.5,345.333 750,342.5C 767.945,289.254 789.279,237.254 814,186.5C 822.575,169.678 831.908,153.345 842,137.5C 846.448,131.213 851.948,126.213 858.5,122.5 Z"/></g>
<g><path style="opacity:1" fill="#f9b2b4" d="M 545.5,147.5 C 544.833,148.5 544.167,149.5 543.5,150.5C 543.334,145.489 543.501,140.489 544,135.5C 544.642,139.491 545.142,143.491 545.5,147.5 Z"/></g>
<g><path style="opacity:1" fill="#e17f8a" d="M 543.5,163.5 C 543.5,164.5 543.5,165.5 543.5,166.5C 542.833,168.167 542.167,169.833 541.5,171.5C 541.334,163.16 541.5,154.827 542,146.5C 542.173,152.348 542.673,158.015 543.5,163.5 Z"/></g>
<g><path style="opacity:1" fill="#d7e5f3" d="M 543.5,166.5 C 543.24,184.19 543.74,201.857 545,219.5C 547.171,255.038 559.338,286.538 581.5,314C 572.998,315.033 564.665,314.533 556.5,312.5C 548.355,292.639 543.521,271.973 542,250.5C 540.381,224.179 540.215,197.846 541.5,171.5C 542.167,169.833 542.833,168.167 543.5,166.5 Z"/></g>
<g><path style="opacity:0.994" fill="#ec1c24" d="M 250.5,181.5 C 239.388,209.669 229.554,238.336 221,267.5C 188.703,378.813 167.537,492.146 157.5,607.5C 154.05,616.632 151.216,625.965 149,635.5C 135.813,695.002 139.646,753.335 160.5,810.5C 139.401,813.275 118.735,817.941 98.5,824.5C 50.908,714.162 39.7413,600.162 65,482.5C 93.376,360.992 155.209,260.659 250.5,181.5 Z"/></g>
<g><path style="opacity:0.993" fill="#eb1c24" d="M 956.5,187.5 C 1080.43,297.577 1144.1,436.077 1147.5,603C 1147.1,680.164 1131.43,753.998 1100.5,824.5C 1081.62,818.978 1062.62,814.311 1043.5,810.5C 1068.23,743.6 1069.57,676.266 1047.5,608.5C 1040.47,530.141 1028.31,452.474 1011,375.5C 997.181,311.555 979.014,248.889 956.5,187.5 Z"/></g>
<g><path style="opacity:1" fill="#d5e9f8" d="M 454.5,351.5 C 453.457,343.199 452.791,334.866 452.5,326.5C 450.616,289.08 451.783,251.747 456,214.5C 461.325,281.841 484.325,342.174 525,395.5C 547.851,423.329 575.684,444.495 608.5,459C 585.045,462.203 561.545,465.036 538,467.5C 526.044,465.274 515.21,460.44 505.5,453C 482.362,433.581 467.195,409.081 460,379.5C 458.166,370.15 456.332,360.817 454.5,351.5 Z"/></g>
<g><path style="opacity:1" fill="#a7def7" d="M 297.5,620.5 C 280.413,642.791 276.247,667.458 285,694.5C 298.753,730.256 324.753,748.923 363,750.5C 399.939,749.377 425.939,732.043 441,698.5C 445.876,684.911 447.71,670.911 446.5,656.5C 460.048,660.304 473.715,663.637 487.5,666.5C 483.234,726.882 452.567,767.049 395.5,787C 333.85,800.57 285.35,781.404 250,729.5C 228.424,689.852 226.924,649.519 245.5,608.5C 262.835,612.062 280.168,616.062 297.5,620.5 Z"/></g>
<g><path style="opacity:1" fill="#a7def7" d="M 744.5,656.5 C 741.089,692.507 754.422,720.34 784.5,740C 824.828,759.29 860.328,752.79 891,720.5C 910.655,693.56 914.322,664.56 902,633.5C 899.697,628.721 896.864,624.387 893.5,620.5C 910.35,615.369 927.35,611.369 944.5,608.5C 962.986,649.519 961.486,689.852 940,729.5C 910.637,774.93 868.804,795.43 814.5,791C 763.93,782.754 729.097,754.921 710,707.5C 705.83,694.984 703.33,682.151 702.5,669C 702.755,667.674 703.422,666.674 704.5,666C 717.84,662.832 731.173,659.665 744.5,656.5 Z"/></g>
<g><path style="opacity:1" fill="#231f20" d="M 297.5,620.5 C 347.093,632.982 396.759,644.982 446.5,656.5C 447.71,670.911 445.876,684.911 441,698.5C 425.939,732.043 399.939,749.377 363,750.5C 324.753,748.923 298.753,730.256 285,694.5C 276.247,667.458 280.413,642.791 297.5,620.5 Z"/></g>
<g><path style="opacity:1" fill="#231f20" d="M 893.5,620.5 C 896.864,624.387 899.697,628.721 902,633.5C 914.322,664.56 910.655,693.56 891,720.5C 860.328,752.79 824.828,759.29 784.5,740C 754.422,720.34 741.089,692.507 744.5,656.5C 745.681,654.933 747.347,654.099 749.5,654C 797.553,642.924 845.553,631.757 893.5,620.5 Z"/></g>
<g><path style="opacity:0.982" fill="#231f20" d="M 172.5,837.5 C 157.917,837.894 143.584,840.061 129.5,844C 122.882,845.705 116.549,847.872 110.5,850.5C 77.6952,862.401 47.0285,878.234 18.5,898C 10.043,900.426 3.70966,897.926 -0.5,890.5C -0.5,886.833 -0.5,883.167 -0.5,879.5C 1.26065,876.569 3.59399,874.069 6.5,872C 35.3769,852.728 66.0436,836.895 98.5,824.5C 118.735,817.941 139.401,813.275 160.5,810.5C 177.841,809.067 195.174,809.233 212.5,811C 220.187,810.989 226.021,814.155 230,820.5C 231.955,829.001 229.122,835.167 221.5,839C 210.448,837.425 199.281,836.592 188,836.5C 182.656,836.501 177.489,836.834 172.5,837.5 Z"/></g>
<g><path style="opacity:0.982" fill="#231f20" d="M 1043.5,810.5 C 1062.62,814.311 1081.62,818.978 1100.5,824.5C 1132.96,836.895 1163.62,852.728 1192.5,872C 1195.41,874.069 1197.74,876.569 1199.5,879.5C 1199.5,883.167 1199.5,886.833 1199.5,890.5C 1195.29,897.926 1188.96,900.426 1180.5,898C 1151.97,878.234 1121.3,862.401 1088.5,850.5C 1070.06,843.807 1051.06,839.473 1031.5,837.5C 1025.55,836.876 1019.55,836.542 1013.5,836.5C 1001.69,836.55 990.028,837.383 978.5,839C 975.751,837.877 973.251,836.377 971,834.5C 965.244,820.9 969.744,813.067 984.5,811C 1004.15,809.202 1023.82,809.035 1043.5,810.5 Z"/></g>
<g><path style="opacity:1" fill="#f7bad5" d="M 574.5,823.5 C 589.3,822.16 603.634,823.994 617.5,829C 629.579,835.634 630.579,843.634 620.5,853C 599.134,862.997 577.801,862.997 556.5,853C 546.891,844.878 547.225,837.211 557.5,830C 563.058,827.207 568.725,825.041 574.5,823.5 Z"/></g>
<g><path style="opacity:0.99" fill="#ea1c24" d="M 172.5,837.5 C 179.994,851.826 187.994,865.826 196.5,879.5C 178.113,887.526 160.446,896.859 143.5,907.5C 131.754,889.018 120.754,870.018 110.5,850.5C 116.549,847.872 122.882,845.705 129.5,844C 143.584,840.061 157.917,837.894 172.5,837.5 Z"/></g>
<g><path style="opacity:0.99" fill="#eb1c24" d="M 1031.5,837.5 C 1051.06,839.473 1070.06,843.807 1088.5,850.5C 1078.25,870.018 1067.25,889.018 1055.5,907.5C 1039.64,897.989 1023.31,889.323 1006.5,881.5C 1015.61,867.364 1023.94,852.698 1031.5,837.5 Z"/></g>
<g><path style="opacity:1" fill="#242021" d="M 502.5,864.5 C 506.605,864.234 510.605,864.734 514.5,866C 536.662,886.579 558.662,886.579 580.5,866C 585.382,864.445 590.382,864.112 595.5,865C 600.118,867.95 604.452,871.284 608.5,875C 624.483,883.973 640.15,883.306 655.5,873C 659.913,868.295 665.246,865.462 671.5,864.5C 684.32,867.143 687.82,874.476 682,886.5C 659.782,906.743 634.282,912.577 605.5,904C 599.775,901.431 594.442,898.264 589.5,894.5C 556.764,915.326 525.931,912.66 497,886.5C 492.282,877.359 494.116,870.025 502.5,864.5 Z"/></g>
<g><path style="opacity:0.98" fill="#231f20" d="M 214.5,902.5 C 195.751,909.208 178.084,918.041 161.5,929C 160.748,929.671 160.414,930.504 160.5,931.5C 152.027,936.581 144.027,942.414 136.5,949C 119.964,964.525 105.297,981.525 92.5,1000C 76.9288,1005.43 69.7622,999.928 71,983.5C 90.2301,953.437 114.397,928.104 143.5,907.5C 160.446,896.859 178.113,887.526 196.5,879.5C 208.908,874.642 221.575,870.475 234.5,867C 239.856,865.215 245.19,865.215 250.5,867C 259.007,873.904 259.673,881.571 252.5,890C 239.399,893.09 226.732,897.256 214.5,902.5 Z"/></g>
<g><path style="opacity:0.98" fill="#231f20" d="M 1006.5,881.5 C 1023.31,889.323 1039.64,897.989 1055.5,907.5C 1084.6,928.104 1108.77,953.437 1128,983.5C 1129.24,999.928 1122.07,1005.43 1106.5,1000C 1088.04,972.709 1065.38,949.542 1038.5,930.5C 1023.31,919.236 1006.64,910.569 988.5,904.5C 988.389,903.883 988.056,903.383 987.5,903C 973.934,898.255 960.268,893.922 946.5,890C 944.877,887.92 943.377,885.754 942,883.5C 940.388,870.866 945.888,865.033 958.5,866C 974.953,869.874 990.953,875.04 1006.5,881.5 Z"/></g>
<g><path style="opacity:0.992" fill="#eb1c24" d="M 214.5,902.5 C 227.19,918.698 241.19,933.864 256.5,948C 322.975,1005.65 399.642,1043.32 486.5,1061C 603.524,1084.03 716.858,1072.36 826.5,1026C 890.141,998.171 944.141,957.671 988.5,904.5C 1006.64,910.569 1023.31,919.236 1038.5,930.5C 947.935,1049.5 828.268,1121 679.5,1145C 493.004,1167.73 333.837,1112.9 202,980.5C 187.551,964.562 173.718,948.229 160.5,931.5C 160.414,930.504 160.748,929.671 161.5,929C 178.084,918.041 195.751,909.208 214.5,902.5 Z"/></g>
</svg>
