<?xml version="1.0" encoding="UTF-8"?>
<!DOCTYPE svg PUBLIC "-//W3C//DTD SVG 1.1//EN" "http://www.w3.org/Graphics/SVG/1.1/DTD/svg11.dtd">
<svg xmlns="http://www.w3.org/2000/svg" version="1.1" width="350px" height="350px" style="shape-rendering:geometricPrecision; text-rendering:geometricPrecision; image-rendering:optimizeQuality; fill-rule:evenodd; clip-rule:evenodd" xmlns:xlink="http://www.w3.org/1999/xlink">
<g><path style="opacity:1" fill="#f2c8b8" d="M 116.5,51.5 C 119.4,54.7855 123.067,56.7855 127.5,57.5C 129.099,57.2322 130.432,57.5655 131.5,58.5C 130.761,58.369 130.094,58.5357 129.5,59C 138.353,61.3787 147.353,62.0453 156.5,61C 160.11,60.5283 163.11,59.0283 165.5,56.5C 170.136,54.0295 175.136,52.3628 180.5,51.5C 196.59,50.4336 210.924,54.7669 223.5,64.5C 226.241,68.3086 228.741,72.3086 231,76.5C 229.75,85.9965 231.417,94.9965 236,103.5C 237.579,105.041 239.413,106.208 241.5,107C 244.623,107.206 247.623,107.873 250.5,109C 252.399,111.988 254.399,114.821 256.5,117.5C 261.753,121.426 267.753,123.092 274.5,122.5C 281.671,132.822 289.337,142.822 297.5,152.5C 296.025,162.292 291.358,170.125 283.5,176C 280.216,177.033 277.216,178.533 274.5,180.5C 262.53,185.059 250.863,190.059 239.5,195.5C 229.938,198.296 220.272,200.796 210.5,203C 204.5,203.667 198.5,203.667 192.5,203C 185.9,200.974 181.4,196.808 179,190.5C 178.259,191.641 177.425,191.641 176.5,190.5C 173.897,188.379 171.564,186.046 169.5,183.5C 166.065,181.887 162.398,179.887 158.5,177.5C 158.338,175.176 157.172,173.509 155,172.5C 152.281,173.444 149.448,173.777 146.5,173.5C 147.014,171.488 147.18,169.488 147,167.5C 145.991,169.025 145.491,170.692 145.5,172.5C 143.801,172.66 142.134,172.494 140.5,172C 137.339,170.385 134.172,168.885 131,167.5C 128.23,167.404 127.396,168.404 128.5,170.5C 127.833,170.5 127.167,170.5 126.5,170.5C 126.217,169.711 125.717,169.044 125,168.5C 121.27,169.46 117.437,169.793 113.5,169.5C 113.5,168.167 113.5,166.833 113.5,165.5C 110.402,165.413 110.068,165.913 112.5,167C 109.706,169.484 106.373,170.651 102.5,170.5C 96.2132,170.176 90.2132,168.842 84.5,166.5C 83.0603,164.612 81.3936,162.945 79.5,161.5C 74.1975,160.671 68.8642,160.171 63.5,160C 59.2115,157.708 56.3782,154.208 55,149.5C 51.9405,147.942 49.7738,145.609 48.5,142.5C 49.0096,140.912 50.0096,139.745 51.5,139C 50.6198,137.644 50.2865,136.144 50.5,134.5C 51.4731,132.932 51.6397,131.265 51,129.5C 49.6924,127.359 48.1924,125.359 46.5,123.5C 48.2177,120.527 47.5511,118.36 44.5,117C 46.4641,115.549 47.7974,113.716 48.5,111.5C 49.9663,110.653 50.7996,109.32 51,107.5C 51.1667,105.167 51.3333,102.833 51.5,100.5C 51.6371,96.5527 50.9704,92.886 49.5,89.5C 48.63,86.622 47.2967,83.9553 45.5,81.5C 45.0431,80.7025 44.3764,80.3691 43.5,80.5C 42.1736,78.8049 42.5069,77.4716 44.5,76.5C 50.1445,76.2373 52.8112,73.2373 52.5,67.5C 58.1278,67.8219 63.6278,67.1553 69,65.5C 69.772,65.6448 70.4387,65.9781 71,66.5C 71.3333,63.8333 71.6667,61.1667 72,58.5C 72.3826,57.944 72.8826,57.6107 73.5,57.5C 76.1298,54.8534 78.4631,51.8534 80.5,48.5C 81.5,48 82.5,47.5 83.5,47C 90.5,46.3333 97.5,46.3333 104.5,47C 108.991,47.4382 112.991,48.9382 116.5,51.5 Z"/></g>
<g><path style="opacity:0.988" fill="#fcfcfc" d="M 155.5,-0.5 C 168.167,-0.5 180.833,-0.5 193.5,-0.5C 267.175,10.6699 316.675,51.3366 342,121.5C 345.354,132.786 347.854,144.119 349.5,155.5C 349.5,164.833 349.5,174.167 349.5,183.5C 346.545,181.878 343.878,179.878 341.5,177.5C 343.423,176.692 345.423,176.192 347.5,176C 339.658,178.139 334.825,175.306 333,167.5C 334.579,165.959 336.413,164.792 338.5,164C 335.593,163.146 333.26,163.979 331.5,166.5C 327.981,163.146 324.314,159.98 320.5,157C 317.395,155.132 314.062,153.965 310.5,153.5C 310.5,152.833 310.167,152.5 309.5,152.5C 307.75,151.13 305.75,150.13 303.5,149.5C 302.402,148.603 302.402,147.77 303.5,147C 300.454,147.325 297.787,146.159 295.5,143.5C 294.914,143.709 294.414,144.043 294,144.5C 291.898,142.905 290.398,140.905 289.5,138.5C 292.397,138.319 295.23,138.652 298,139.5C 299.225,139.138 300.391,138.638 301.5,138C 296.829,137.462 292.162,136.962 287.5,136.5C 287.167,135.833 286.833,135.167 286.5,134.5C 289.446,132.007 291.946,132.34 294,135.5C 294.251,133.397 293.251,132.063 291,131.5C 289.234,132.233 287.401,132.567 285.5,132.5C 284.522,132.189 283.855,131.522 283.5,130.5C 285.423,129.692 287.423,129.192 289.5,129C 286.833,128.667 284.167,128.333 281.5,128C 279.494,124.983 277.494,121.983 275.5,119C 276.295,117.418 277.462,117.251 279,118.5C 281.248,117.045 283.748,116.212 286.5,116C 283.653,114.148 281.153,114.648 279,117.5C 277.333,116.167 275.667,116.167 274,117.5C 272.955,116.627 272.122,115.627 271.5,114.5C 271.672,113.508 271.338,112.842 270.5,112.5C 271.677,109.825 273.677,107.992 276.5,107C 274.782,106.654 273.115,106.154 271.5,105.5C 270.071,111.568 268.405,111.235 266.5,104.5C 267.873,104.657 269.207,104.49 270.5,104C 271.451,103.282 271.617,102.449 271,101.5C 269.211,103.229 267.044,103.896 264.5,103.5C 264.67,102.178 264.337,101.011 263.5,100C 264.833,99.3333 266.167,98.6667 267.5,98C 260.967,97.7999 257.301,94.4665 256.5,88C 257.328,87.0853 258.328,86.4186 259.5,86C 257.155,85.7635 255.155,84.9302 253.5,83.5C 253.36,81.8762 254.027,80.7096 255.5,80C 254.552,79.5172 253.552,79.3505 252.5,79.5C 252.662,77.4727 252.495,75.4727 252,73.5C 251.617,72.944 251.117,72.6107 250.5,72.5C 248.483,70.3078 247.316,67.6412 247,64.5C 241.514,60.1572 237.514,54.8239 235,48.5C 234.667,49.5 234.333,50.5 234,51.5C 232.007,50.086 229.84,49.086 227.5,48.5C 226.713,46.8958 225.38,46.2291 223.5,46.5C 211.298,39.3151 197.965,35.6485 183.5,35.5C 161.5,34.1667 139.5,34.1667 117.5,35.5C 113.818,35.6653 110.152,35.4986 106.5,35C 107.543,30.5529 106.876,30.5529 104.5,35C 100.455,36.2183 96.4551,37.5517 92.5,39C 89.4856,39.1276 86.4856,39.1276 83.5,39C 84.624,39.2492 85.624,39.7492 86.5,40.5C 83.3874,41.6871 80.3874,43.0204 77.5,44.5C 78.8866,48.4296 77.8866,51.7629 74.5,54.5C 71.248,51.0969 67.5813,50.7635 63.5,53.5C 64.6605,53.4366 65.9938,53.7699 67.5,54.5C 70.0838,52.0124 71.7505,52.6791 72.5,56.5C 69.8283,58.3914 68.8283,61.0581 69.5,64.5C 67.3364,64.2785 65.6697,63.2785 64.5,61.5C 64.4142,62.4959 64.7476,63.3292 65.5,64C 61.9255,65.7416 58.2588,65.9082 54.5,64.5C 54.6107,65.1174 54.944,65.6174 55.5,66C 54.2625,66.2321 53.2625,66.7321 52.5,67.5C 49.8733,68.1049 47.2066,68.6049 44.5,69C 46.2983,70.5053 48.1316,70.6719 50,69.5C 50.1667,70.1667 50.3333,70.8333 50.5,71.5C 48.631,73.4355 46.631,75.1021 44.5,76.5C 42.2972,76.6036 40.2972,77.2702 38.5,78.5C 37.8333,78.5 37.5,78.8333 37.5,79.5C 31.4113,81.7597 27.578,86.0931 26,92.5C 25.5065,94.1341 25.3398,95.8008 25.5,97.5C 25.9272,101.856 27.5938,105.689 30.5,109C 28.6751,110.466 28.1751,112.299 29,114.5C 29.1183,112.427 30.1183,111.093 32,110.5C 34.0991,111.278 35.5991,112.611 36.5,114.5C 35.3473,115.313 35.3473,116.313 36.5,117.5C 35.8333,118.167 35.1667,118.833 34.5,119.5C 37.4044,120.319 40.0711,119.653 42.5,117.5C 43.0959,118.716 43.2626,120.049 43,121.5C 43.6667,120.833 44.3333,120.167 45,119.5C 44.8765,123.529 46.3765,126.696 49.5,129C 47.6409,130.981 45.3076,131.981 42.5,132C 45.3615,131.97 47.6948,132.803 49.5,134.5C 49.4487,137.541 48.4487,140.208 46.5,142.5C 47.8019,145.466 49.8019,147.799 52.5,149.5C 52.3146,151.196 51.4813,152.529 50,153.5C 49.0623,156.88 49.729,159.88 52,162.5C 50.8676,158.594 51.3676,154.927 53.5,151.5C 56.5903,158.233 61.9237,161.9 69.5,162.5C 69.5674,163.959 69.2341,165.292 68.5,166.5C 70.1765,165.817 70.8432,164.483 70.5,162.5C 72.8568,162.337 75.1902,162.503 77.5,163C 79.5766,164.705 81.91,165.872 84.5,166.5C 84.9528,167.458 85.6195,168.292 86.5,169C 85.8333,170 85.1667,171 84.5,172C 86.0682,170.518 88.0682,169.852 90.5,170C 90.7467,171.813 91.08,173.647 91.5,175.5C 92.2978,173.922 92.7978,172.256 93,170.5C 94.6995,171.406 96.5328,171.739 98.5,171.5C 98.3505,172.552 98.5172,173.552 99,174.5C 101.858,172.822 105.024,171.822 108.5,171.5C 109.776,176.682 110.443,176.682 110.5,171.5C 112.167,171.5 113.833,171.5 115.5,171.5C 115.372,173.655 115.872,175.655 117,177.5C 117.18,175.512 117.014,173.512 116.5,171.5C 120.193,170.944 122.86,172.278 124.5,175.5C 124.833,175.333 125.167,175.167 125.5,175C 122.696,172.399 123.029,170.899 126.5,170.5C 127.167,170.5 127.833,170.5 128.5,170.5C 130.06,168.365 131.727,168.198 133.5,170C 129.643,172.564 127.476,176.064 127,180.5C 128.98,176.862 131.647,173.862 135,171.5C 140.761,173.457 146.261,175.457 151.5,177.5C 152.315,176.571 153.148,175.571 154,174.5C 154.667,177.167 154.667,179.833 154,182.5C 152.293,184.037 150.793,185.704 149.5,187.5C 142.041,191.402 135.041,196.069 128.5,201.5C 127.669,199.527 127.502,197.527 128,195.5C 124.949,197.85 124.783,200.35 127.5,203C 126.315,204.353 124.981,205.52 123.5,206.5C 119.558,205.4 115.558,205.233 111.5,206C 114.956,206.18 118.289,206.847 121.5,208C 115.647,214.352 109.98,220.852 104.5,227.5C 100.542,225.117 99.5417,221.784 101.5,217.5C 101.154,216.304 100.654,216.304 100,217.5C 98.5568,222.212 99.7235,226.045 103.5,229C 99.0692,232.698 95.7359,237.198 93.5,242.5C 91.3921,243.944 89.0588,244.61 86.5,244.5C 86.6219,248.838 86.9553,249.172 87.5,245.5C 88.8734,245.343 90.2068,245.51 91.5,246C 88.3007,249.566 85.4674,253.4 83,257.5C 81.013,255.912 78.8463,255.079 76.5,255C 78.7173,256.268 80.7173,257.768 82.5,259.5C 79.1626,265.509 75.8293,271.509 72.5,277.5C 71.0521,275.333 69.8854,273 69,270.5C 68.6793,274.032 69.8459,277.032 72.5,279.5C 71.657,282.377 69.9903,284.544 67.5,286C 68.5348,287.507 68.3681,289.007 67,290.5C 66.6667,289.167 66.3333,287.833 66,286.5C 65.8109,291.357 64.8109,296.024 63,300.5C 60.9538,300.451 58.7871,300.785 56.5,301.5C 57.8476,301.45 59.3476,301.783 61,302.5C 61.3845,304.197 61.2178,305.863 60.5,307.5C 25.4975,277.503 5.16421,239.503 -0.5,193.5C -0.5,180.833 -0.5,168.167 -0.5,155.5C 10.6699,81.8249 51.3366,32.3249 121.5,7C 132.786,3.64552 144.119,1.14552 155.5,-0.5 Z"/></g>
<g><path style="opacity:1" fill="#202020" d="M 248.5,72.5 C 249.167,72.5 249.833,72.5 250.5,72.5C 251.117,72.6107 251.617,72.944 252,73.5C 252.495,75.4727 252.662,77.4727 252.5,79.5C 253.552,79.3505 254.552,79.5172 255.5,80C 254.027,80.7096 253.36,81.8762 253.5,83.5C 253.158,84.3382 252.492,84.6716 251.5,84.5C 249.361,82.8609 249.027,80.8609 250.5,78.5C 250.023,76.4035 249.357,74.4035 248.5,72.5 Z"/></g>
<g><path style="opacity:1" fill="#946b5b" d="M 82.5,77.5 C 84.9893,77.5394 86.4893,78.5394 87,80.5C 84.9737,80.0853 83.4737,79.0853 82.5,77.5 Z"/></g>
<g><path style="opacity:1" fill="#2b1e18" d="M 44.5,76.5 C 42.5069,77.4716 42.1736,78.8049 43.5,80.5C 41.7988,80.0338 40.2988,80.0338 39,80.5C 38.5357,79.9056 38.369,79.2389 38.5,78.5C 40.2972,77.2702 42.2972,76.6036 44.5,76.5 Z"/></g>
<g><path style="opacity:1" fill="#777777" d="M 268.5,73.5 C 271.598,73.4125 271.932,73.9125 269.5,75C 266.57,76.3179 263.57,76.9846 260.5,77C 263.309,75.9066 265.976,74.7399 268.5,73.5 Z"/></g>
<g><path style="opacity:1" fill="#2d2320" d="M 52.5,67.5 C 52.8112,73.2373 50.1445,76.2373 44.5,76.5C 46.631,75.1021 48.631,73.4355 50.5,71.5C 50.3333,70.8333 50.1667,70.1667 50,69.5C 48.1316,70.6719 46.2983,70.5053 44.5,69C 47.2066,68.6049 49.8733,68.1049 52.5,67.5 Z"/></g>
<g><path style="opacity:1" fill="#372925" d="M 72.5,56.5 C 73.1667,56.5 73.5,56.8333 73.5,57.5C 72.8826,57.6107 72.3826,57.944 72,58.5C 71.6667,61.1667 71.3333,63.8333 71,66.5C 70.4387,65.9781 69.772,65.6448 69,65.5C 63.6278,67.1553 58.1278,67.8219 52.5,67.5C 53.2625,66.7321 54.2625,66.2321 55.5,66C 54.944,65.6174 54.6107,65.1174 54.5,64.5C 58.2588,65.9082 61.9255,65.7416 65.5,64C 64.7476,63.3292 64.4142,62.4959 64.5,61.5C 65.6697,63.2785 67.3364,64.2785 69.5,64.5C 68.8283,61.0581 69.8283,58.3914 72.5,56.5 Z"/></g>
<g><path style="opacity:1" fill="#3f4040" d="M 64.5,61.5 C 58.9192,60.3139 58.5859,59.8139 63.5,60C 64.056,60.3826 64.3893,60.8826 64.5,61.5 Z"/></g>
<g><path style="opacity:1" fill="#5a5e5e" d="M 54.5,64.5 C 51.6418,63.4648 51.1418,61.7982 53,59.5C 53.3519,61.2475 53.8519,62.9142 54.5,64.5 Z"/></g>
<g><path style="opacity:1" fill="#9a857c" d="M 165.5,56.5 C 163.11,59.0283 160.11,60.5283 156.5,61C 147.353,62.0453 138.353,61.3787 129.5,59C 130.094,58.5357 130.761,58.369 131.5,58.5C 143.053,60.3809 154.386,59.7143 165.5,56.5 Z"/></g>
<g><path style="opacity:1" fill="#877169" d="M 116.5,51.5 C 120.335,53.2495 124.001,55.2495 127.5,57.5C 123.067,56.7855 119.4,54.7855 116.5,51.5 Z"/></g>
<g><path style="opacity:1" fill="#626160" d="M 227.5,48.5 C 229.84,49.086 232.007,50.086 234,51.5C 234.333,50.5 234.667,49.5 235,48.5C 237.514,54.8239 241.514,60.1572 247,64.5C 247.316,67.6412 248.483,70.3078 250.5,72.5C 249.833,72.5 249.167,72.5 248.5,72.5C 243.646,62.6448 236.646,54.6448 227.5,48.5 Z"/></g>
<g><path style="opacity:1" fill="#706758" d="M 180.5,51.5 C 193.998,49.0307 206.665,51.5307 218.5,59C 220.424,60.7498 222.091,62.5831 223.5,64.5C 210.924,54.7669 196.59,50.4336 180.5,51.5 Z"/></g>
<g><path style="opacity:1" fill="#676769" d="M 77.5,44.5 C 75.3141,44.4894 74.4808,43.4894 75,41.5C 76.045,42.3734 76.8783,43.3734 77.5,44.5 Z"/></g>
<g><path style="opacity:1" fill="#6f6f6d" d="M 177.5,36.5 C 179.265,35.5386 181.265,35.2053 183.5,35.5C 197.965,35.6485 211.298,39.3151 223.5,46.5C 208.825,40.3324 193.491,36.9991 177.5,36.5 Z"/></g>
<g><path style="opacity:1" fill="#66635e" d="M 117.5,35.5 C 120.059,35.1984 122.393,35.5318 124.5,36.5C 114.388,36.7374 104.388,37.904 94.5,40C 90.0716,40.6967 86.0716,42.3634 82.5,45C 93.031,43.7765 103.364,44.7765 113.5,48C 114.71,49.0391 115.71,50.2058 116.5,51.5C 112.991,48.9382 108.991,47.4382 104.5,47C 97.5,46.3333 90.5,46.3333 83.5,47C 82.5,47.5 81.5,48 80.5,48.5C 78.4631,51.8534 76.1298,54.8534 73.5,57.5C 73.5,56.8333 73.1667,56.5 72.5,56.5C 71.7505,52.6791 70.0838,52.0124 67.5,54.5C 65.9938,53.7699 64.6605,53.4366 63.5,53.5C 67.5813,50.7635 71.248,51.0969 74.5,54.5C 77.8866,51.7629 78.8866,48.4296 77.5,44.5C 80.3874,43.0204 83.3874,41.6871 86.5,40.5C 85.624,39.7492 84.624,39.2492 83.5,39C 86.4856,39.1276 89.4856,39.1276 92.5,39C 96.4551,37.5517 100.455,36.2183 104.5,35C 106.876,30.5529 107.543,30.5529 106.5,35C 110.152,35.4986 113.818,35.6653 117.5,35.5 Z"/></g>
<g><path style="opacity:1" fill="#828280" d="M 117.5,35.5 C 139.5,34.1667 161.5,34.1667 183.5,35.5C 181.265,35.2053 179.265,35.5386 177.5,36.5C 159.833,36.5 142.167,36.5 124.5,36.5C 122.393,35.5318 120.059,35.1984 117.5,35.5 Z"/></g>
<g><path style="opacity:1" fill="#4b2e24" d="M 43.5,80.5 C 44.3764,80.3691 45.0431,80.7025 45.5,81.5C 47.2967,83.9553 48.63,86.622 49.5,89.5C 49.1667,89.5 48.8333,89.5 48.5,89.5C 46.5797,86.6612 44.9131,83.6612 43.5,80.5 Z"/></g>
<g><path style="opacity:1" fill="#49251c" d="M 104.5,83.5 C 105.773,84.0768 105.773,84.7435 104.5,85.5C 103.549,86.3256 102.549,86.4922 101.5,86C 102.571,85.1482 103.571,84.3149 104.5,83.5 Z"/></g>
<g><path style="opacity:1" fill="#eec9ba" d="M 38.5,78.5 C 38.369,79.2389 38.5357,79.9056 39,80.5C 40.2988,80.0338 41.7988,80.0338 43.5,80.5C 44.9131,83.6612 46.5797,86.6612 48.5,89.5C 42.9262,91.4533 36.9262,92.12 30.5,91.5C 29.3789,89.9106 29.5456,88.2439 31,86.5C 33.4659,84.2419 35.6326,81.9086 37.5,79.5C 37.5,78.8333 37.8333,78.5 38.5,78.5 Z"/></g>
<g><path style="opacity:1" fill="#f7f7f6" d="M 124.5,36.5 C 142.167,36.5 159.833,36.5 177.5,36.5C 193.491,36.9991 208.825,40.3324 223.5,46.5C 225.38,46.2291 226.713,46.8958 227.5,48.5C 236.646,54.6448 243.646,62.6448 248.5,72.5C 249.357,74.4035 250.023,76.4035 250.5,78.5C 249.027,80.8609 249.361,82.8609 251.5,84.5C 254.443,88.6318 256.443,93.2984 257.5,98.5C 258.086,98.2907 258.586,97.9574 259,97.5C 261.068,99.3962 262.901,101.396 264.5,103.5C 264.328,104.492 264.662,105.158 265.5,105.5C 266.626,107.5 266.793,109.5 266,111.5C 267.711,110.419 269.211,110.752 270.5,112.5C 271.338,112.842 271.672,113.508 271.5,114.5C 270.957,114.56 270.624,114.893 270.5,115.5C 272.11,117.725 273.443,120.059 274.5,122.5C 267.753,123.092 261.753,121.426 256.5,117.5C 255.018,109.189 250.018,105.022 241.5,105C 236.851,102.545 234.017,98.7116 233,93.5C 232.291,89.1321 232.458,84.7988 233.5,80.5C 232.162,73.805 228.829,68.4716 223.5,64.5C 222.091,62.5831 220.424,60.7498 218.5,59C 206.665,51.5307 193.998,49.0307 180.5,51.5C 175.136,52.3628 170.136,54.0295 165.5,56.5C 154.386,59.7143 143.053,60.3809 131.5,58.5C 130.432,57.5655 129.099,57.2322 127.5,57.5C 124.001,55.2495 120.335,53.2495 116.5,51.5C 115.71,50.2058 114.71,49.0391 113.5,48C 103.364,44.7765 93.031,43.7765 82.5,45C 86.0716,42.3634 90.0716,40.6967 94.5,40C 104.388,37.904 114.388,36.7374 124.5,36.5 Z"/></g>
<g><path style="opacity:1" fill="#595959" d="M 253.5,83.5 C 255.155,84.9302 257.155,85.7635 259.5,86C 258.328,86.4186 257.328,87.0853 256.5,88C 257.301,94.4665 260.967,97.7999 267.5,98C 266.167,98.6667 264.833,99.3333 263.5,100C 264.337,101.011 264.67,102.178 264.5,103.5C 262.901,101.396 261.068,99.3962 259,97.5C 258.586,97.9574 258.086,98.2907 257.5,98.5C 256.443,93.2984 254.443,88.6318 251.5,84.5C 252.492,84.6716 253.158,84.3382 253.5,83.5 Z"/></g>
<g><path style="opacity:1" fill="#1c1816" d="M 37.5,79.5 C 35.6326,81.9086 33.4659,84.2419 31,86.5C 29.5456,88.2439 29.3789,89.9106 30.5,91.5C 31.2341,92.7079 31.5674,94.0413 31.5,95.5C 30.5637,96.9744 29.2303,97.9744 27.5,98.5C 26.8333,98.1667 26.1667,97.8333 25.5,97.5C 25.3398,95.8008 25.5065,94.1341 26,92.5C 27.578,86.0931 31.4113,81.7597 37.5,79.5 Z"/></g>
<g><path style="opacity:1" fill="#8e7d7a" d="M 48.5,89.5 C 48.8333,89.5 49.1667,89.5 49.5,89.5C 49.5,90.8333 49.5,92.1667 49.5,93.5C 43.2079,92.9469 37.2079,93.6136 31.5,95.5C 31.5674,94.0413 31.2341,92.7079 30.5,91.5C 36.9262,92.12 42.9262,91.4533 48.5,89.5 Z"/></g>
<g><path style="opacity:1" fill="#fafafa" d="M 49.5,93.5 C 50.9396,99.5683 50.6062,105.568 48.5,111.5C 46.8523,112.81 45.1856,114.143 43.5,115.5C 37.9609,112.66 33.1275,108.993 29,104.5C 28.187,102.564 27.687,100.564 27.5,98.5C 29.2303,97.9744 30.5637,96.9744 31.5,95.5C 37.2079,93.6136 43.2079,92.9469 49.5,93.5 Z"/></g>
<g><path style="opacity:1" fill="#4a3a35" d="M 49.5,89.5 C 50.9704,92.886 51.6371,96.5527 51.5,100.5C 51.3333,102.833 51.1667,105.167 51,107.5C 50.7996,109.32 49.9663,110.653 48.5,111.5C 50.6062,105.568 50.9396,99.5683 49.5,93.5C 49.5,92.1667 49.5,90.8333 49.5,89.5 Z"/></g>
<g><path style="opacity:1" fill="#3a3939" d="M 266.5,104.5 C 265.833,104.5 265.5,104.833 265.5,105.5C 264.662,105.158 264.328,104.492 264.5,103.5C 267.044,103.896 269.211,103.229 271,101.5C 271.617,102.449 271.451,103.282 270.5,104C 269.207,104.49 267.873,104.657 266.5,104.5 Z"/></g>
<g><path style="opacity:1" fill="#655a4d" d="M 223.5,64.5 C 228.829,68.4716 232.162,73.805 233.5,80.5C 232.458,84.7988 232.291,89.1321 233,93.5C 234.017,98.7116 236.851,102.545 241.5,105C 250.018,105.022 255.018,109.189 256.5,117.5C 254.399,114.821 252.399,111.988 250.5,109C 247.623,107.873 244.623,107.206 241.5,107C 239.413,106.208 237.579,105.041 236,103.5C 231.417,94.9965 229.75,85.9965 231,76.5C 228.741,72.3086 226.241,68.3086 223.5,64.5 Z"/></g>
<g><path style="opacity:1" fill="#b3b3b3" d="M 266.5,104.5 C 268.405,111.235 270.071,111.568 271.5,105.5C 273.115,106.154 274.782,106.654 276.5,107C 273.677,107.992 271.677,109.825 270.5,112.5C 269.211,110.752 267.711,110.419 266,111.5C 266.793,109.5 266.626,107.5 265.5,105.5C 265.5,104.833 265.833,104.5 266.5,104.5 Z"/></g>
<g><path style="opacity:1" fill="#363130" d="M 25.5,97.5 C 26.1667,97.8333 26.8333,98.1667 27.5,98.5C 27.687,100.564 28.187,102.564 29,104.5C 33.1275,108.993 37.9609,112.66 43.5,115.5C 45.1856,114.143 46.8523,112.81 48.5,111.5C 47.7974,113.716 46.4641,115.549 44.5,117C 47.5511,118.36 48.2177,120.527 46.5,123.5C 48.1924,125.359 49.6924,127.359 51,129.5C 51.6397,131.265 51.4731,132.932 50.5,134.5C 50.1667,134.5 49.8333,134.5 49.5,134.5C 47.6948,132.803 45.3615,131.97 42.5,132C 45.3076,131.981 47.6409,130.981 49.5,129C 46.3765,126.696 44.8765,123.529 45,119.5C 44.3333,120.167 43.6667,120.833 43,121.5C 43.2626,120.049 43.0959,118.716 42.5,117.5C 40.0711,119.653 37.4044,120.319 34.5,119.5C 35.1667,118.833 35.8333,118.167 36.5,117.5C 35.3473,116.313 35.3473,115.313 36.5,114.5C 35.5991,112.611 34.0991,111.278 32,110.5C 30.1183,111.093 29.1183,112.427 29,114.5C 28.1751,112.299 28.6751,110.466 30.5,109C 27.5938,105.689 25.9272,101.856 25.5,97.5 Z"/></g>
<g><path style="opacity:1" fill="#edefef" d="M 36.5,114.5 C 41.18,114.459 42.0133,115.792 39,118.5C 38.3378,117.016 37.5045,115.683 36.5,114.5 Z"/></g>
<g><path style="opacity:1" fill="#241915" d="M 137.5,107.5 C 137.5,108.167 137.5,108.833 137.5,109.5C 140.336,118.496 146.503,123.163 156,123.5C 160.76,123.358 165.26,122.192 169.5,120C 171.028,118.352 171.695,116.352 171.5,114C 171.492,112.293 171.158,110.793 170.5,109.5C 170.5,108.833 170.5,108.167 170.5,107.5C 171.126,102.592 170.126,98.0918 167.5,94C 169.807,93.7287 170.974,94.8953 171,97.5C 172.984,104.729 173.65,112.062 173,119.5C 163.724,126.464 153.89,127.298 143.5,122C 137.359,117.908 135.026,112.408 136.5,105.5C 137.298,105.957 137.631,106.624 137.5,107.5 Z"/></g>
<g><path style="opacity:1" fill="#0f0d0f" d="M 162.5,109.5 C 162.5,112.167 162.5,114.833 162.5,117.5C 160.5,117.5 158.5,117.5 156.5,117.5C 156.5,116.5 156.5,115.5 156.5,114.5C 156.5,112.5 156.5,110.5 156.5,108.5C 158.735,108.205 160.735,108.539 162.5,109.5 Z"/></g>
<g><path style="opacity:1" fill="#f8f8f9" d="M 137.5,109.5 C 143.5,109.5 149.5,109.5 155.5,109.5C 155.216,111.415 155.549,113.081 156.5,114.5C 156.5,115.5 156.5,116.5 156.5,117.5C 158.5,117.5 160.5,117.5 162.5,117.5C 162.5,114.833 162.5,112.167 162.5,109.5C 165.167,109.5 167.833,109.5 170.5,109.5C 171.158,110.793 171.492,112.293 171.5,114C 171.695,116.352 171.028,118.352 169.5,120C 165.26,122.192 160.76,123.358 156,123.5C 146.503,123.163 140.336,118.496 137.5,109.5 Z"/></g>
<g><path style="opacity:1" fill="#877672" d="M 137.5,107.5 C 148.5,107.5 159.5,107.5 170.5,107.5C 170.5,108.167 170.5,108.833 170.5,109.5C 167.833,109.5 165.167,109.5 162.5,109.5C 160.735,108.539 158.735,108.205 156.5,108.5C 156.5,110.5 156.5,112.5 156.5,114.5C 155.549,113.081 155.216,111.415 155.5,109.5C 149.5,109.5 143.5,109.5 137.5,109.5C 137.5,108.833 137.5,108.167 137.5,107.5 Z"/></g>
<g><path style="opacity:1" fill="#3c3431" d="M 271.5,114.5 C 272.122,115.627 272.955,116.627 274,117.5C 275.667,116.167 277.333,116.167 279,117.5C 281.153,114.648 283.653,114.148 286.5,116C 283.748,116.212 281.248,117.045 279,118.5C 277.462,117.251 276.295,117.418 275.5,119C 277.494,121.983 279.494,124.983 281.5,128C 284.167,128.333 286.833,128.667 289.5,129C 287.423,129.192 285.423,129.692 283.5,130.5C 283.855,131.522 284.522,132.189 285.5,132.5C 285.328,133.492 285.662,134.158 286.5,134.5C 286.833,135.167 287.167,135.833 287.5,136.5C 287.833,137.5 288.5,138.167 289.5,138.5C 290.398,140.905 291.898,142.905 294,144.5C 294.414,144.043 294.914,143.709 295.5,143.5C 297.787,146.159 300.454,147.325 303.5,147C 302.402,147.77 302.402,148.603 303.5,149.5C 301.844,151.06 299.844,152.06 297.5,152.5C 289.337,142.822 281.671,132.822 274.5,122.5C 273.443,120.059 272.11,117.725 270.5,115.5C 270.624,114.893 270.957,114.56 271.5,114.5 Z"/></g>
<g><path style="opacity:1" fill="#727171" d="M 286.5,134.5 C 285.662,134.158 285.328,133.492 285.5,132.5C 287.401,132.567 289.234,132.233 291,131.5C 293.251,132.063 294.251,133.397 294,135.5C 291.946,132.34 289.446,132.007 286.5,134.5 Z"/></g>
<g><path style="opacity:1" fill="#959295" d="M 287.5,136.5 C 292.162,136.962 296.829,137.462 301.5,138C 300.391,138.638 299.225,139.138 298,139.5C 295.23,138.652 292.397,138.319 289.5,138.5C 288.5,138.167 287.833,137.5 287.5,136.5 Z"/></g>
<g><path style="opacity:1" fill="#301915" d="M 70.5,142.5 C 72.5,142.5 74.5,142.5 76.5,142.5C 77.013,148.068 79.3464,148.568 83.5,144C 88.4482,142.95 93.4482,142.45 98.5,142.5C 98.5,143.833 98.5,145.167 98.5,146.5C 101.397,146.681 104.23,146.348 107,145.5C 109.235,147.371 111.735,148.871 114.5,150C 111.672,150.969 109.338,150.303 107.5,148C 104.167,147.667 100.833,147.333 97.5,147C 96.6195,145.529 95.2861,144.696 93.5,144.5C 87.7953,144.639 82.6286,146.306 78,149.5C 76.0622,147.942 74.5622,145.942 73.5,143.5C 71.3579,145.207 69.0246,146.041 66.5,146C 67.7305,144.595 69.0639,143.429 70.5,142.5 Z"/></g>
<g><path style="opacity:1" fill="#2b201c" d="M 49.5,134.5 C 49.8333,134.5 50.1667,134.5 50.5,134.5C 50.2865,136.144 50.6198,137.644 51.5,139C 50.0096,139.745 49.0096,140.912 48.5,142.5C 49.7738,145.609 51.9405,147.942 55,149.5C 56.3782,154.208 59.2115,157.708 63.5,160C 68.8642,160.171 74.1975,160.671 79.5,161.5C 81.3936,162.945 83.0603,164.612 84.5,166.5C 81.91,165.872 79.5766,164.705 77.5,163C 75.1902,162.503 72.8568,162.337 70.5,162.5C 70.8432,164.483 70.1765,165.817 68.5,166.5C 69.2341,165.292 69.5674,163.959 69.5,162.5C 61.9237,161.9 56.5903,158.233 53.5,151.5C 53.6716,150.508 53.3382,149.842 52.5,149.5C 49.8019,147.799 47.8019,145.466 46.5,142.5C 48.4487,140.208 49.4487,137.541 49.5,134.5 Z"/></g>
<g><path style="opacity:1" fill="#5d5c5d" d="M 52.5,149.5 C 53.3382,149.842 53.6716,150.508 53.5,151.5C 51.3676,154.927 50.8676,158.594 52,162.5C 49.729,159.88 49.0623,156.88 50,153.5C 51.4813,152.529 52.3146,151.196 52.5,149.5 Z"/></g>
<g><path style="opacity:1" fill="#14152c" d="M 309.5,152.5 C 310.167,152.5 310.5,152.833 310.5,153.5C 310.082,154.222 309.416,154.722 308.5,155C 310.813,155.662 313.146,156.162 315.5,156.5C 315.5,157.5 315.5,158.5 315.5,159.5C 316.978,159.238 318.311,159.571 319.5,160.5C 322.595,162.589 324.929,165.256 326.5,168.5C 324.071,168.415 322.071,167.415 320.5,165.5C 320.167,166 319.833,166.5 319.5,167C 322.104,170.546 322.104,174.046 319.5,177.5C 313.946,178.806 308.446,178.806 303,177.5C 302.383,178.449 302.549,179.282 303.5,180C 302.141,183.488 300.474,186.822 298.5,190C 297.993,193.213 297.326,196.38 296.5,199.5C 297.489,200.468 298.156,201.635 298.5,203C 297.946,205.824 297.446,208.657 297,211.5C 294.938,213.36 293.605,215.694 293,218.5C 291.971,223.144 291.138,227.81 290.5,232.5C 289.5,232.5 288.5,232.5 287.5,232.5C 290.255,223.381 292.422,214.048 294,204.5C 295.666,191.17 297.332,177.836 299,164.5C 301.951,162.268 303.618,159.268 304,155.5C 305.719,154.131 307.552,153.131 309.5,152.5 Z"/></g>
<g><path style="opacity:1" fill="#1f2122" d="M 68.5,166.5 C 67.2015,168.099 65.5348,168.599 63.5,168C 65.0249,166.991 66.6916,166.491 68.5,166.5 Z"/></g>
<g><path style="opacity:0.992" fill="#161734" d="M 326.5,168.5 C 328.167,168.5 329.833,168.5 331.5,168.5C 331.34,170.199 331.506,171.866 332,173.5C 333.726,175.591 334.893,177.924 335.5,180.5C 339.921,181.458 343.254,183.958 345.5,188C 346.745,188.791 348.078,189.291 349.5,189.5C 349.5,190.833 349.5,192.167 349.5,193.5C 341.886,249.42 314.552,292.754 267.5,323.5C 265.963,317.019 263.963,310.685 261.5,304.5C 261.66,302.847 262.326,301.514 263.5,300.5C 264.21,302.746 264.71,305.08 265,307.5C 266.74,308.716 267.74,310.382 268,312.5C 268.333,311.167 268.667,309.833 269,308.5C 267.711,301.635 266.878,294.635 266.5,287.5C 267.5,287.5 268.5,287.5 269.5,287.5C 270.449,285.263 271.116,282.929 271.5,280.5C 272.5,280.5 273.5,280.5 274.5,280.5C 274.268,276.196 275.268,272.196 277.5,268.5C 278.352,263.54 280.519,258.873 284,254.5C 283.395,250.253 284.395,246.253 287,242.5C 287.498,239.183 287.665,235.85 287.5,232.5C 288.5,232.5 289.5,232.5 290.5,232.5C 291.138,227.81 291.971,223.144 293,218.5C 293.605,215.694 294.938,213.36 297,211.5C 297.446,208.657 297.946,205.824 298.5,203C 298.156,201.635 297.489,200.468 296.5,199.5C 297.326,196.38 297.993,193.213 298.5,190C 300.474,186.822 302.141,183.488 303.5,180C 302.549,179.282 302.383,178.449 303,177.5C 308.446,178.806 313.946,178.806 319.5,177.5C 322.104,174.046 322.104,170.546 319.5,167C 319.833,166.5 320.167,166 320.5,165.5C 322.071,167.415 324.071,168.415 326.5,168.5 Z"/></g>
<g><path style="opacity:1" fill="#332a26" d="M 126.5,170.5 C 123.029,170.899 122.696,172.399 125.5,175C 125.167,175.167 124.833,175.333 124.5,175.5C 122.86,172.278 120.193,170.944 116.5,171.5C 117.014,173.512 117.18,175.512 117,177.5C 115.872,175.655 115.372,173.655 115.5,171.5C 113.833,171.5 112.167,171.5 110.5,171.5C 110.443,176.682 109.776,176.682 108.5,171.5C 105.024,171.822 101.858,172.822 99,174.5C 98.5172,173.552 98.3505,172.552 98.5,171.5C 96.5328,171.739 94.6995,171.406 93,170.5C 92.7978,172.256 92.2978,173.922 91.5,175.5C 91.08,173.647 90.7467,171.813 90.5,170C 88.0682,169.852 86.0682,170.518 84.5,172C 85.1667,171 85.8333,170 86.5,169C 85.6195,168.292 84.9528,167.458 84.5,166.5C 90.2132,168.842 96.2132,170.176 102.5,170.5C 106.373,170.651 109.706,169.484 112.5,167C 110.068,165.913 110.402,165.413 113.5,165.5C 113.5,166.833 113.5,168.167 113.5,169.5C 117.437,169.793 121.27,169.46 125,168.5C 125.717,169.044 126.217,169.711 126.5,170.5 Z"/></g>
<g><path style="opacity:1" fill="#3a3c3f" d="M 151.5,177.5 C 151.756,179.912 150.756,181.579 148.5,182.5C 147.984,180.267 148.984,178.6 151.5,177.5 Z"/></g>
<g><path style="opacity:1" fill="#0d0e14" d="M 310.5,153.5 C 314.062,153.965 317.395,155.132 320.5,157C 324.314,159.98 327.981,163.146 331.5,166.5C 333.26,163.979 335.593,163.146 338.5,164C 336.413,164.792 334.579,165.959 333,167.5C 334.825,175.306 339.658,178.139 347.5,176C 345.423,176.192 343.423,176.692 341.5,177.5C 343.878,179.878 346.545,181.878 349.5,183.5C 349.5,185.5 349.5,187.5 349.5,189.5C 348.078,189.291 346.745,188.791 345.5,188C 343.254,183.958 339.921,181.458 335.5,180.5C 334.893,177.924 333.726,175.591 332,173.5C 331.506,171.866 331.34,170.199 331.5,168.5C 329.833,168.5 328.167,168.5 326.5,168.5C 324.929,165.256 322.595,162.589 319.5,160.5C 318.311,159.571 316.978,159.238 315.5,159.5C 315.5,158.5 315.5,157.5 315.5,156.5C 313.146,156.162 310.813,155.662 308.5,155C 309.416,154.722 310.082,154.222 310.5,153.5 Z"/></g>
<g><path style="opacity:1" fill="#595856" d="M 138.5,181.5 C 139.713,182.497 139.546,183.497 138,184.5C 137.53,183.423 137.697,182.423 138.5,181.5 Z"/></g>
<g><path style="opacity:1" fill="#2a2422" d="M 158.5,177.5 C 162.398,179.887 166.065,181.887 169.5,183.5C 167.075,183.684 167.075,184.351 169.5,185.5C 168.609,186.59 167.609,186.59 166.5,185.5C 165.702,185.957 165.369,186.624 165.5,187.5C 165.167,187.5 164.833,187.5 164.5,187.5C 164.778,185.654 164.111,184.32 162.5,183.5C 157.874,184.07 153.541,185.403 149.5,187.5C 150.793,185.704 152.293,184.037 154,182.5C 154.667,179.833 154.667,177.167 154,174.5C 153.148,175.571 152.315,176.571 151.5,177.5C 146.261,175.457 140.761,173.457 135,171.5C 131.647,173.862 128.98,176.862 127,180.5C 127.476,176.064 129.643,172.564 133.5,170C 131.727,168.198 130.06,168.365 128.5,170.5C 127.396,168.404 128.23,167.404 131,167.5C 134.172,168.885 137.339,170.385 140.5,172C 142.134,172.494 143.801,172.66 145.5,172.5C 145.491,170.692 145.991,169.025 147,167.5C 147.18,169.488 147.014,171.488 146.5,173.5C 149.448,173.777 152.281,173.444 155,172.5C 157.172,173.509 158.338,175.176 158.5,177.5 Z"/></g>
<g><path style="opacity:1" fill="#a89b99" d="M 158.5,177.5 C 165.423,182.889 164.757,183.723 156.5,180C 154.829,175.898 155.496,175.064 158.5,177.5 Z"/></g>
<g><path style="opacity:1" fill="#1c1013" d="M 274.5,180.5 C 272.911,181.872 271.578,183.539 270.5,185.5C 267.63,186.122 264.796,186.789 262,187.5C 260.579,191.468 261.746,194.135 265.5,195.5C 267.874,198.686 268.874,202.353 268.5,206.5C 265.636,211.564 263.303,216.898 261.5,222.5C 258.809,227.538 256.475,232.871 254.5,238.5C 256.658,243.83 259.825,248.496 264,252.5C 265.073,257.229 266.573,261.562 268.5,265.5C 267.766,266.708 267.433,268.041 267.5,269.5C 266.5,269.5 265.5,269.5 264.5,269.5C 264.666,265.486 264.499,261.486 264,257.5C 263.878,255.563 263.045,254.23 261.5,253.5C 259.456,251.781 257.456,250.114 255.5,248.5C 255.279,245.13 254.279,242.13 252.5,239.5C 253.132,234.993 254.132,230.659 255.5,226.5C 258.459,220.706 261.126,214.706 263.5,208.5C 268.332,196.665 264.666,192.998 252.5,197.5C 251.232,195.613 249.399,194.613 247,194.5C 244.538,195.159 242.038,195.493 239.5,195.5C 250.863,190.059 262.53,185.059 274.5,180.5 Z"/></g>
<g><path style="opacity:1" fill="#14162d" d="M 164.5,187.5 C 164.833,187.5 165.167,187.5 165.5,187.5C 166.52,190.843 168.854,192.843 172.5,193.5C 175.676,197.506 179.009,201.34 182.5,205C 183.448,205.483 184.448,205.649 185.5,205.5C 185.284,207.681 186.117,209.347 188,210.5C 188.495,212.473 188.662,214.473 188.5,216.5C 189.5,216.5 190.5,216.5 191.5,216.5C 191.338,218.527 191.505,220.527 192,222.5C 194.317,225.121 196.15,228.121 197.5,231.5C 201.258,234.677 203.758,238.677 205,243.5C 212.066,251.627 217.066,260.96 220,271.5C 224.093,275.689 227.093,280.689 229,286.5C 230.333,287.167 231.667,287.833 233,288.5C 233.189,293.346 234.189,298.012 236,302.5C 236.667,303.833 237.667,304.833 239,305.5C 239.202,307.256 239.702,308.922 240.5,310.5C 244.807,314.149 249.807,315.815 255.5,315.5C 255.5,314.5 255.5,313.5 255.5,312.5C 256.833,312.5 258.167,312.5 259.5,312.5C 259.294,309.505 259.96,306.838 261.5,304.5C 263.963,310.685 265.963,317.019 267.5,323.5C 266.5,324.167 265.5,324.833 264.5,325.5C 263.91,323.903 262.91,322.569 261.5,321.5C 256.987,319.705 252.32,318.538 247.5,318C 244.804,317.235 242.304,316.068 240,314.5C 239.192,316.579 239.359,318.579 240.5,320.5C 242.84,319.785 245.34,319.452 248,319.5C 248.483,320.448 248.649,321.448 248.5,322.5C 250.103,322.312 251.437,322.812 252.5,324C 250.598,324.199 249.098,325.033 248,326.5C 245.538,326.088 243.205,326.088 241,326.5C 238.904,324.238 236.404,322.572 233.5,321.5C 231.097,319.695 229.43,317.362 228.5,314.5C 226.999,313.248 225.332,312.248 223.5,311.5C 225.727,310.809 228.394,310.476 231.5,310.5C 231.502,303.48 231.835,296.48 232.5,289.5C 231.325,289.281 230.325,289.614 229.5,290.5C 228.652,292.409 228.318,294.409 228.5,296.5C 227.5,296.5 226.5,296.5 225.5,296.5C 225.788,293.134 225.954,289.8 226,286.5C 223.303,282.262 220.469,277.429 217.5,272C 218.136,269.606 218.136,267.106 217.5,264.5C 213.247,265.146 210.414,263.48 209,259.5C 208.667,259.833 208.333,260.167 208,260.5C 207.654,258.782 207.154,257.115 206.5,255.5C 201.544,254.506 196.544,254.173 191.5,254.5C 191.529,246.09 192.029,237.757 193,229.5C 191.837,231.285 191.17,233.285 191,235.5C 188.229,233.367 188.396,231.201 191.5,229C 188.833,227.333 186.167,225.667 183.5,224C 184.863,221.871 184.529,221.371 182.5,222.5C 181.5,218.833 179.167,216.5 175.5,215.5C 175.808,214.692 176.308,214.025 177,213.5C 178.897,215.016 181.064,215.683 183.5,215.5C 183.5,213.833 183.5,212.167 183.5,210.5C 177.117,207.899 170.45,205.899 163.5,204.5C 156.934,206.154 150.267,206.821 143.5,206.5C 143.5,209.167 143.5,211.833 143.5,214.5C 142.167,214.5 140.833,214.5 139.5,214.5C 139.28,209.656 136.947,207.99 132.5,209.5C 131.231,211.695 131.231,213.861 132.5,216C 129.691,216.312 127.024,215.812 124.5,214.5C 124.5,213.5 124.5,212.5 124.5,211.5C 125.5,211.5 126.5,211.5 127.5,211.5C 127.215,207.962 128.882,206.129 132.5,206C 134.257,203.154 136.257,200.488 138.5,198C 142.5,196 146.5,194 150.5,192C 149.833,191.667 149.167,191.333 148.5,191C 152,189.5 155.5,188 159,186.5C 160.62,188.632 162.454,188.965 164.5,187.5 Z"/></g>
<g><path style="opacity:1" fill="#161836" d="M 264.5,325.5 C 242.388,338.315 218.721,346.315 193.5,349.5C 180.833,349.5 168.167,349.5 155.5,349.5C 152.833,348.833 150.167,348.167 147.5,347.5C 144.485,346.239 141.652,344.572 139,342.5C 138.667,343.167 138.333,343.833 138,344.5C 137.829,339.136 137.329,333.802 136.5,328.5C 135.262,332.311 134.596,332.311 134.5,328.5C 131.833,328.5 129.167,328.5 126.5,328.5C 126.833,323.167 127.167,317.833 127.5,312.5C 129.5,312.5 131.5,312.5 133.5,312.5C 133.5,307.167 133.5,301.833 133.5,296.5C 129.241,296.003 125.241,296.669 121.5,298.5C 119.96,296.613 118.293,294.78 116.5,293C 117.471,291.796 118.471,291.296 119.5,291.5C 118.028,288.851 117.028,286.018 116.5,283C 117.455,281.283 118.455,279.616 119.5,278C 118.081,273.987 117.415,269.487 117.5,264.5C 115.5,264.5 113.5,264.5 111.5,264.5C 111.5,267.833 111.5,271.167 111.5,274.5C 109.473,274.662 107.473,274.495 105.5,274C 107.795,273.016 107.461,272.183 104.5,271.5C 103.548,269.955 103.215,268.288 103.5,266.5C 100.996,265.361 98.3297,264.694 95.5,264.5C 95.7529,262.173 95.0863,260.173 93.5,258.5C 93.9767,257.522 94.6433,256.689 95.5,256C 95.1459,254.374 95.1459,252.541 95.5,250.5C 97.5643,250.313 99.5643,249.813 101.5,249C 100.549,248.282 100.383,247.449 101,246.5C 103.385,244.116 105.385,241.45 107,238.5C 110.073,240.688 110.073,242.688 107,244.5C 107.141,246.462 106.974,248.296 106.5,250C 106.833,250.5 107.167,251 107.5,251.5C 108.386,250.675 108.719,249.675 108.5,248.5C 109.5,248.5 110.5,248.5 111.5,248.5C 111.334,244.154 111.501,239.821 112,235.5C 112.692,234.975 113.192,234.308 113.5,233.5C 118.12,232.507 122.786,232.173 127.5,232.5C 127.5,229.833 127.5,227.167 127.5,224.5C 133.325,224.596 133.491,222.929 128,219.5C 127.586,219.957 127.086,220.291 126.5,220.5C 124.885,219.846 123.218,219.346 121.5,219C 123.376,218.082 124.376,216.582 124.5,214.5C 127.024,215.812 129.691,216.312 132.5,216C 131.231,213.861 131.231,211.695 132.5,209.5C 136.947,207.99 139.28,209.656 139.5,214.5C 140.833,214.5 142.167,214.5 143.5,214.5C 143.5,211.833 143.5,209.167 143.5,206.5C 150.267,206.821 156.934,206.154 163.5,204.5C 170.45,205.899 177.117,207.899 183.5,210.5C 183.5,212.167 183.5,213.833 183.5,215.5C 181.064,215.683 178.897,215.016 177,213.5C 176.308,214.025 175.808,214.692 175.5,215.5C 179.167,216.5 181.5,218.833 182.5,222.5C 184.529,221.371 184.863,221.871 183.5,224C 186.167,225.667 188.833,227.333 191.5,229C 188.396,231.201 188.229,233.367 191,235.5C 191.17,233.285 191.837,231.285 193,229.5C 192.029,237.757 191.529,246.09 191.5,254.5C 196.544,254.173 201.544,254.506 206.5,255.5C 207.154,257.115 207.654,258.782 208,260.5C 208.333,260.167 208.667,259.833 209,259.5C 210.414,263.48 213.247,265.146 217.5,264.5C 218.136,267.106 218.136,269.606 217.5,272C 220.469,277.429 223.303,282.262 226,286.5C 225.954,289.8 225.788,293.134 225.5,296.5C 226.5,296.5 227.5,296.5 228.5,296.5C 228.318,294.409 228.652,292.409 229.5,290.5C 230.325,289.614 231.325,289.281 232.5,289.5C 231.835,296.48 231.502,303.48 231.5,310.5C 228.394,310.476 225.727,310.809 223.5,311.5C 225.332,312.248 226.999,313.248 228.5,314.5C 229.43,317.362 231.097,319.695 233.5,321.5C 236.404,322.572 238.904,324.238 241,326.5C 243.205,326.088 245.538,326.088 248,326.5C 249.098,325.033 250.598,324.199 252.5,324C 251.437,322.812 250.103,322.312 248.5,322.5C 248.649,321.448 248.483,320.448 248,319.5C 245.34,319.452 242.84,319.785 240.5,320.5C 239.359,318.579 239.192,316.579 240,314.5C 242.304,316.068 244.804,317.235 247.5,318C 252.32,318.538 256.987,319.705 261.5,321.5C 262.91,322.569 263.91,323.903 264.5,325.5 Z"/></g>
<g><path style="opacity:1" fill="#13152c" d="M 124.5,214.5 C 124.376,216.582 123.376,218.082 121.5,219C 123.218,219.346 124.885,219.846 126.5,220.5C 127.086,220.291 127.586,219.957 128,219.5C 133.491,222.929 133.325,224.596 127.5,224.5C 127.5,227.167 127.5,229.833 127.5,232.5C 122.786,232.173 118.12,232.507 113.5,233.5C 113.192,234.308 112.692,234.975 112,235.5C 111.501,239.821 111.334,244.154 111.5,248.5C 110.5,248.5 109.5,248.5 108.5,248.5C 108.719,249.675 108.386,250.675 107.5,251.5C 107.167,251 106.833,250.5 106.5,250C 106.974,248.296 107.141,246.462 107,244.5C 110.073,242.688 110.073,240.688 107,238.5C 105.385,241.45 103.385,244.116 101,246.5C 100.383,247.449 100.549,248.282 101.5,249C 99.5643,249.813 97.5643,250.313 95.5,250.5C 95.1459,252.541 95.1459,254.374 95.5,256C 94.6433,256.689 93.9767,257.522 93.5,258.5C 95.0863,260.173 95.7529,262.173 95.5,264.5C 98.3297,264.694 100.996,265.361 103.5,266.5C 103.215,268.288 103.548,269.955 104.5,271.5C 107.461,272.183 107.795,273.016 105.5,274C 107.473,274.495 109.473,274.662 111.5,274.5C 111.5,271.167 111.5,267.833 111.5,264.5C 113.5,264.5 115.5,264.5 117.5,264.5C 117.415,269.487 118.081,273.987 119.5,278C 118.455,279.616 117.455,281.283 116.5,283C 117.028,286.018 118.028,288.851 119.5,291.5C 118.471,291.296 117.471,291.796 116.5,293C 118.293,294.78 119.96,296.613 121.5,298.5C 125.241,296.669 129.241,296.003 133.5,296.5C 133.5,301.833 133.5,307.167 133.5,312.5C 131.5,312.5 129.5,312.5 127.5,312.5C 127.167,317.833 126.833,323.167 126.5,328.5C 129.167,328.5 131.833,328.5 134.5,328.5C 134.596,332.311 135.262,332.311 136.5,328.5C 137.329,333.802 137.829,339.136 138,344.5C 138.333,343.833 138.667,343.167 139,342.5C 141.652,344.572 144.485,346.239 147.5,347.5C 140.628,347.059 133.962,345.726 127.5,343.5C 123.538,321.956 116.038,301.956 105,283.5C 100.251,281.426 95.0846,279.26 89.5,277C 88.0764,272.62 85.0764,270.787 80.5,271.5C 80.4056,268.459 81.9056,266.793 85,266.5C 86.9979,260.315 89.1645,254.648 91.5,249.5C 92.8333,248.833 94.1667,248.167 95.5,247.5C 98.5191,243.461 101.019,239.128 103,234.5C 104.171,233.107 105.671,232.273 107.5,232C 108.304,230.229 109.471,228.729 111,227.5C 111.495,225.527 111.662,223.527 111.5,221.5C 115.192,221.676 117.192,220.009 117.5,216.5C 120.108,216.6 122.442,215.933 124.5,214.5 Z"/></g>
<g><path style="opacity:1" fill="#0d0e16" d="M 164.5,187.5 C 162.454,188.965 160.62,188.632 159,186.5C 155.5,188 152,189.5 148.5,191C 149.167,191.333 149.833,191.667 150.5,192C 146.5,194 142.5,196 138.5,198C 136.257,200.488 134.257,203.154 132.5,206C 128.882,206.129 127.215,207.962 127.5,211.5C 126.5,211.5 125.5,211.5 124.5,211.5C 124.5,212.5 124.5,213.5 124.5,214.5C 122.442,215.933 120.108,216.6 117.5,216.5C 117.192,220.009 115.192,221.676 111.5,221.5C 111.662,223.527 111.495,225.527 111,227.5C 109.471,228.729 108.304,230.229 107.5,232C 105.671,232.273 104.171,233.107 103,234.5C 101.019,239.128 98.5191,243.461 95.5,247.5C 94.1667,248.167 92.8333,248.833 91.5,249.5C 89.1645,254.648 86.9979,260.315 85,266.5C 81.9056,266.793 80.4056,268.459 80.5,271.5C 85.0764,270.787 88.0764,272.62 89.5,277C 95.0846,279.26 100.251,281.426 105,283.5C 116.038,301.956 123.538,321.956 127.5,343.5C 124.254,342.946 121.254,341.946 118.5,340.5C 119.162,338.696 119.495,336.696 119.5,334.5C 118.643,330.176 117.976,325.842 117.5,321.5C 116.5,321.5 115.5,321.5 114.5,321.5C 114.5,318.5 114.5,315.5 114.5,312.5C 113.5,312.5 112.5,312.5 111.5,312.5C 112.257,306.589 110.924,301.255 107.5,296.5C 102.053,290.388 95.72,285.388 88.5,281.5C 85.9159,280.607 83.2492,280.274 80.5,280.5C 80.5,281.833 80.5,283.167 80.5,284.5C 78.4086,284.318 76.4086,284.652 74.5,285.5C 72.1211,288.751 71.1211,292.418 71.5,296.5C 69.8762,296.36 68.7096,297.027 68,298.5C 66.3693,302.688 65.5359,307.021 65.5,311.5C 63.2512,310.92 61.5846,309.587 60.5,307.5C 61.2178,305.863 61.3845,304.197 61,302.5C 59.3476,301.783 57.8476,301.45 56.5,301.5C 58.7871,300.785 60.9538,300.451 63,300.5C 64.8109,296.024 65.8109,291.357 66,286.5C 66.3333,287.833 66.6667,289.167 67,290.5C 68.3681,289.007 68.5348,287.507 67.5,286C 69.9903,284.544 71.657,282.377 72.5,279.5C 69.8459,277.032 68.6793,274.032 69,270.5C 69.8854,273 71.0521,275.333 72.5,277.5C 75.8293,271.509 79.1626,265.509 82.5,259.5C 80.7173,257.768 78.7173,256.268 76.5,255C 78.8463,255.079 81.013,255.912 83,257.5C 85.4674,253.4 88.3007,249.566 91.5,246C 90.2068,245.51 88.8734,245.343 87.5,245.5C 86.9553,249.172 86.6219,248.838 86.5,244.5C 89.0588,244.61 91.3921,243.944 93.5,242.5C 95.7359,237.198 99.0692,232.698 103.5,229C 99.7235,226.045 98.5568,222.212 100,217.5C 100.654,216.304 101.154,216.304 101.5,217.5C 99.5417,221.784 100.542,225.117 104.5,227.5C 109.98,220.852 115.647,214.352 121.5,208C 118.289,206.847 114.956,206.18 111.5,206C 115.558,205.233 119.558,205.4 123.5,206.5C 124.981,205.52 126.315,204.353 127.5,203C 124.783,200.35 124.949,197.85 128,195.5C 127.502,197.527 127.669,199.527 128.5,201.5C 135.041,196.069 142.041,191.402 149.5,187.5C 153.541,185.403 157.874,184.07 162.5,183.5C 164.111,184.32 164.778,185.654 164.5,187.5 Z"/></g>
<g><path style="opacity:1" fill="#0c070c" d="M 303.5,149.5 C 305.75,150.13 307.75,151.13 309.5,152.5C 307.552,153.131 305.719,154.131 304,155.5C 303.618,159.268 301.951,162.268 299,164.5C 297.332,177.836 295.666,191.17 294,204.5C 292.422,214.048 290.255,223.381 287.5,232.5C 286.25,232.577 285.417,233.244 285,234.5C 282.69,241.739 280.69,249.073 279,256.5C 271.523,270.452 266.356,285.118 263.5,300.5C 262.326,301.514 261.66,302.847 261.5,304.5C 259.96,306.838 259.294,309.505 259.5,312.5C 258.167,312.5 256.833,312.5 255.5,312.5C 255.5,313.5 255.5,314.5 255.5,315.5C 249.807,315.815 244.807,314.149 240.5,310.5C 239.702,308.922 239.202,307.256 239,305.5C 237.667,304.833 236.667,303.833 236,302.5C 234.189,298.012 233.189,293.346 233,288.5C 231.667,287.833 230.333,287.167 229,286.5C 227.093,280.689 224.093,275.689 220,271.5C 217.066,260.96 212.066,251.627 205,243.5C 203.758,238.677 201.258,234.677 197.5,231.5C 196.15,228.121 194.317,225.121 192,222.5C 191.505,220.527 191.338,218.527 191.5,216.5C 190.5,216.5 189.5,216.5 188.5,216.5C 188.662,214.473 188.495,212.473 188,210.5C 186.117,209.347 185.284,207.681 185.5,205.5C 184.448,205.649 183.448,205.483 182.5,205C 179.009,201.34 175.676,197.506 172.5,193.5C 168.854,192.843 166.52,190.843 165.5,187.5C 165.369,186.624 165.702,185.957 166.5,185.5C 167.609,186.59 168.609,186.59 169.5,185.5C 167.075,184.351 167.075,183.684 169.5,183.5C 171.564,186.046 173.897,188.379 176.5,190.5C 177.425,191.641 178.259,191.641 179,190.5C 181.4,196.808 185.9,200.974 192.5,203C 198.5,203.667 204.5,203.667 210.5,203C 220.272,200.796 229.938,198.296 239.5,195.5C 242.038,195.493 244.538,195.159 247,194.5C 249.399,194.613 251.232,195.613 252.5,197.5C 252.5,197.833 252.5,198.167 252.5,198.5C 246.311,200.226 239.977,201.726 233.5,203C 230.367,203.86 227.7,205.36 225.5,207.5C 224.508,207.328 223.842,207.662 223.5,208.5C 222.542,208.047 221.708,207.381 221,206.5C 220.601,206.728 220.435,207.062 220.5,207.5C 213.294,209.201 205.961,210.367 198.5,211C 195.92,212.481 195.087,214.648 196,217.5C 196.671,218.252 197.504,218.586 198.5,218.5C 198.328,219.492 198.662,220.158 199.5,220.5C 201.812,225.11 204.645,229.443 208,233.5C 210.04,239.235 213.374,244.235 218,248.5C 219.56,254.626 222.393,259.959 226.5,264.5C 226.328,265.492 226.662,266.158 227.5,266.5C 227.959,269.877 228.626,273.211 229.5,276.5C 230.791,276.737 231.791,276.404 232.5,275.5C 233.167,277.167 233.833,278.833 234.5,280.5C 234.833,280.5 235.167,280.5 235.5,280.5C 237.159,285.822 238.825,291.155 240.5,296.5C 241.688,299.558 243.354,302.225 245.5,304.5C 248.911,311.054 252.244,311.054 255.5,304.5C 255.5,303.833 255.5,303.167 255.5,302.5C 263.625,287.025 265.625,270.691 261.5,253.5C 263.045,254.23 263.878,255.563 264,257.5C 264.499,261.486 264.666,265.486 264.5,269.5C 265.5,269.5 266.5,269.5 267.5,269.5C 267.433,268.041 267.766,266.708 268.5,265.5C 270.858,256.736 273.524,248.069 276.5,239.5C 280.502,230.826 283.502,221.826 285.5,212.5C 287.13,210.974 287.963,208.974 288,206.5C 288.498,203.183 288.665,199.85 288.5,196.5C 288.626,192.077 289.293,187.744 290.5,183.5C 290,183.167 289.5,182.833 289,182.5C 286.541,183.978 284.041,185.312 281.5,186.5C 278.279,187.641 275.279,189.308 272.5,191.5C 270.257,192.474 267.924,192.808 265.5,192.5C 265.5,193.5 265.5,194.5 265.5,195.5C 261.746,194.135 260.579,191.468 262,187.5C 264.796,186.789 267.63,186.122 270.5,185.5C 271.578,183.539 272.911,181.872 274.5,180.5C 277.216,178.533 280.216,177.033 283.5,176C 291.358,170.125 296.025,162.292 297.5,152.5C 299.844,152.06 301.844,151.06 303.5,149.5 Z"/></g>
<g><path style="opacity:1" fill="#450b0e" d="M 232.5,254.5 C 232.136,263.3 232.803,271.966 234.5,280.5C 233.833,278.833 233.167,277.167 232.5,275.5C 231.223,268.371 231.223,261.371 232.5,254.5 Z"/></g>
<g><path style="opacity:1" fill="#847f86" d="M 228.5,258.5 C 228.806,261.385 228.473,264.052 227.5,266.5C 226.662,266.158 226.328,265.492 226.5,264.5C 227.167,262.5 227.833,260.5 228.5,258.5 Z"/></g>
<g><path style="opacity:1" fill="#871510" d="M 225.5,207.5 C 225.804,210.522 226.304,213.522 227,216.5C 227.71,217.973 228.876,218.64 230.5,218.5C 230.147,220.635 230.98,221.968 233,222.5C 234.3,221.293 235.8,220.626 237.5,220.5C 237.567,222.401 237.233,224.234 236.5,226C 237.609,228.047 238.276,230.213 238.5,232.5C 239.5,232.5 240.5,232.5 241.5,232.5C 242.463,236.796 242.629,241.129 242,245.5C 239.988,247.682 238.988,250.349 239,253.5C 237.984,254.634 237.317,254.301 237,252.5C 236.333,253.167 235.667,253.833 235,254.5C 234.632,258.85 234.132,263.183 233.5,267.5C 234.912,271.717 235.579,276.05 235.5,280.5C 235.167,280.5 234.833,280.5 234.5,280.5C 232.803,271.966 232.136,263.3 232.5,254.5C 233.148,252.914 233.648,251.247 234,249.5C 235.011,248.663 236.178,248.33 237.5,248.5C 237.312,246.897 237.812,245.563 239,244.5C 239.933,239.549 239.266,234.882 237,230.5C 233.333,226.5 229.667,222.5 226,218.5C 224.443,215.334 223.61,212 223.5,208.5C 223.842,207.662 224.508,207.328 225.5,207.5 Z"/></g>
<g><path style="opacity:1" fill="#9a1003" d="M 263.5,208.5 C 261.126,214.706 258.459,220.706 255.5,226.5C 253.926,226.937 252.759,227.937 252,229.5C 251.541,233.339 251.041,237.172 250.5,241C 250.355,244.917 252.022,247.417 255.5,248.5C 255.34,250.199 255.506,251.866 256,253.5C 260.408,256.192 262.242,260.192 261.5,265.5C 260.975,271.831 260.475,278.165 260,284.5C 257.048,290.083 255.548,296.083 255.5,302.5C 255.5,303.167 255.5,303.833 255.5,304.5C 253.723,304.786 252.056,305.453 250.5,306.5C 248.823,305.813 247.156,305.146 245.5,304.5C 244.941,302.321 244.274,300.154 243.5,298C 245.178,296.068 245.678,293.902 245,291.5C 240.873,288.524 237.707,284.858 235.5,280.5C 235.579,276.05 234.912,271.717 233.5,267.5C 234.132,263.183 234.632,258.85 235,254.5C 235.667,253.833 236.333,253.167 237,252.5C 237.317,254.301 237.984,254.634 239,253.5C 238.988,250.349 239.988,247.682 242,245.5C 242.629,241.129 242.463,236.796 241.5,232.5C 240.5,232.5 239.5,232.5 238.5,232.5C 238.276,230.213 237.609,228.047 236.5,226C 237.233,224.234 237.567,222.401 237.5,220.5C 235.8,220.626 234.3,221.293 233,222.5C 230.98,221.968 230.147,220.635 230.5,218.5C 228.876,218.64 227.71,217.973 227,216.5C 226.304,213.522 225.804,210.522 225.5,207.5C 228.959,206.426 232.459,205.426 236,204.5C 237.713,205.137 237.879,206.137 236.5,207.5C 237.325,208.386 238.325,208.719 239.5,208.5C 239.5,206.833 239.5,205.167 239.5,203.5C 243.167,203.5 246.833,203.5 250.5,203.5C 250.5,202.5 250.5,201.5 250.5,200.5C 252.46,199.862 254.293,199.862 256,200.5C 256.717,199.956 257.217,199.289 257.5,198.5C 261.208,196.564 263.541,197.73 264.5,202C 263.713,204.099 263.38,206.266 263.5,208.5 Z"/></g>
<g><path style="opacity:1" fill="#e4e4e6" d="M 261.5,222.5 C 261.339,227.634 260.005,232.301 257.5,236.5C 257.406,238.912 258.406,240.745 260.5,242C 260.043,242.414 259.709,242.914 259.5,243.5C 263.985,248.072 268.151,248.072 272,243.5C 272.333,244.167 272.667,244.833 273,245.5C 273.651,243.765 273.485,242.098 272.5,240.5C 273.689,239.571 275.022,239.238 276.5,239.5C 273.524,248.069 270.858,256.736 268.5,265.5C 266.573,261.562 265.073,257.229 264,252.5C 259.825,248.496 256.658,243.83 254.5,238.5C 256.475,232.871 258.809,227.538 261.5,222.5 Z"/></g>
<g><path style="opacity:1" fill="#6d120f" d="M 255.5,226.5 C 254.132,230.659 253.132,234.993 252.5,239.5C 254.279,242.13 255.279,245.13 255.5,248.5C 252.022,247.417 250.355,244.917 250.5,241C 251.041,237.172 251.541,233.339 252,229.5C 252.759,227.937 253.926,226.937 255.5,226.5 Z"/></g>
<g><path style="opacity:1" fill="#23161c" d="M 223.5,208.5 C 223.61,212 224.443,215.334 226,218.5C 229.667,222.5 233.333,226.5 237,230.5C 239.266,234.882 239.933,239.549 239,244.5C 237.812,245.563 237.312,246.897 237.5,248.5C 236.178,248.33 235.011,248.663 234,249.5C 233.648,251.247 233.148,252.914 232.5,254.5C 231.223,261.371 231.223,268.371 232.5,275.5C 231.791,276.404 230.791,276.737 229.5,276.5C 228.626,273.211 227.959,269.877 227.5,266.5C 228.473,264.052 228.806,261.385 228.5,258.5C 229.114,252.273 231.614,246.94 236,242.5C 236.667,240.5 236.667,238.5 236,236.5C 231.817,230.138 227.15,224.138 222,218.5C 221.187,216.564 220.687,214.564 220.5,212.5C 218.167,213.167 215.833,213.833 213.5,214.5C 215.455,213.553 215.789,212.219 214.5,210.5C 216.444,209.199 218.444,208.199 220.5,207.5C 220.435,207.062 220.601,206.728 221,206.5C 221.708,207.381 222.542,208.047 223.5,208.5 Z"/></g>
<g><path style="opacity:1" fill="#f6f5f5" d="M 228.5,258.5 C 227.833,260.5 227.167,262.5 226.5,264.5C 222.393,259.959 219.56,254.626 218,248.5C 213.374,244.235 210.04,239.235 208,233.5C 204.645,229.443 201.812,225.11 199.5,220.5C 199.5,219.167 199.5,217.833 199.5,216.5C 204.032,216.818 208.366,216.485 212.5,215.5C 212.5,214.833 212.833,214.5 213.5,214.5C 215.833,213.833 218.167,213.167 220.5,212.5C 220.687,214.564 221.187,216.564 222,218.5C 227.15,224.138 231.817,230.138 236,236.5C 236.667,238.5 236.667,240.5 236,242.5C 231.614,246.94 229.114,252.273 228.5,258.5 Z"/></g>
<g><path style="opacity:1" fill="#8a8b90" d="M 212.5,215.5 C 208.366,216.485 204.032,216.818 199.5,216.5C 199.5,217.833 199.5,219.167 199.5,220.5C 198.662,220.158 198.328,219.492 198.5,218.5C 197.374,217.142 197.374,215.808 198.5,214.5C 203.1,215.443 207.767,215.777 212.5,215.5 Z"/></g>
<g><path style="opacity:1" fill="#40403f" d="M 287.5,196.5 C 287.833,196.5 288.167,196.5 288.5,196.5C 288.665,199.85 288.498,203.183 288,206.5C 287.963,208.974 287.13,210.974 285.5,212.5C 286.969,207.284 287.635,201.95 287.5,196.5 Z"/></g>
<g><path style="opacity:1" fill="#121220" d="M 220.5,207.5 C 218.444,208.199 216.444,209.199 214.5,210.5C 215.789,212.219 215.455,213.553 213.5,214.5C 212.833,214.5 212.5,214.833 212.5,215.5C 207.767,215.777 203.1,215.443 198.5,214.5C 197.374,215.808 197.374,217.142 198.5,218.5C 197.504,218.586 196.671,218.252 196,217.5C 195.087,214.648 195.92,212.481 198.5,211C 205.961,210.367 213.294,209.201 220.5,207.5 Z"/></g>
<g><path style="opacity:1" fill="#7b1510" d="M 252.5,198.5 C 254.167,198.5 255.833,198.5 257.5,198.5C 257.217,199.289 256.717,199.956 256,200.5C 254.293,199.862 252.46,199.862 250.5,200.5C 250.5,201.5 250.5,202.5 250.5,203.5C 246.833,203.5 243.167,203.5 239.5,203.5C 239.5,205.167 239.5,206.833 239.5,208.5C 238.325,208.719 237.325,208.386 236.5,207.5C 237.879,206.137 237.713,205.137 236,204.5C 232.459,205.426 228.959,206.426 225.5,207.5C 227.7,205.36 230.367,203.86 233.5,203C 239.977,201.726 246.311,200.226 252.5,198.5 Z"/></g>
<g><path style="opacity:1" fill="#5d1311" d="M 263.5,208.5 C 263.38,206.266 263.713,204.099 264.5,202C 263.541,197.73 261.208,196.564 257.5,198.5C 255.833,198.5 254.167,198.5 252.5,198.5C 252.5,198.167 252.5,197.833 252.5,197.5C 264.666,192.998 268.332,196.665 263.5,208.5 Z"/></g>
<g><path style="opacity:1" fill="#22232a" d="M 281.5,186.5 C 280.4,187.605 279.733,188.938 279.5,190.5C 276.181,192.142 272.847,193.809 269.5,195.5C 269.481,199.262 269.148,202.928 268.5,206.5C 268.874,202.353 267.874,198.686 265.5,195.5C 265.5,194.5 265.5,193.5 265.5,192.5C 267.924,192.808 270.257,192.474 272.5,191.5C 275.279,189.308 278.279,187.641 281.5,186.5 Z"/></g>
<g><path style="opacity:1" fill="#c8c6c9" d="M 288.5,196.5 C 288.167,196.5 287.833,196.5 287.5,196.5C 287.823,192.774 287.489,189.107 286.5,185.5C 283.961,186.931 281.628,188.597 279.5,190.5C 279.733,188.938 280.4,187.605 281.5,186.5C 284.041,185.312 286.541,183.978 289,182.5C 289.5,182.833 290,183.167 290.5,183.5C 289.293,187.744 288.626,192.077 288.5,196.5 Z"/></g>
<g><path style="opacity:1" fill="#f7f6f6" d="M 287.5,196.5 C 287.635,201.95 286.969,207.284 285.5,212.5C 283.502,221.826 280.502,230.826 276.5,239.5C 275.022,239.238 273.689,239.571 272.5,240.5C 273.485,242.098 273.651,243.765 273,245.5C 272.667,244.833 272.333,244.167 272,243.5C 268.151,248.072 263.985,248.072 259.5,243.5C 259.709,242.914 260.043,242.414 260.5,242C 258.406,240.745 257.406,238.912 257.5,236.5C 260.005,232.301 261.339,227.634 261.5,222.5C 263.303,216.898 265.636,211.564 268.5,206.5C 269.148,202.928 269.481,199.262 269.5,195.5C 272.847,193.809 276.181,192.142 279.5,190.5C 281.628,188.597 283.961,186.931 286.5,185.5C 287.489,189.107 287.823,192.774 287.5,196.5 Z"/></g>
<g><path style="opacity:0.992" fill="#15172f" d="M 118.5,340.5 C 98.6335,334.583 80.9669,324.917 65.5,311.5C 65.5359,307.021 66.3693,302.688 68,298.5C 68.7096,297.027 69.8762,296.36 71.5,296.5C 71.1211,292.418 72.1211,288.751 74.5,285.5C 76.4086,284.652 78.4086,284.318 80.5,284.5C 80.5,283.167 80.5,281.833 80.5,280.5C 83.2492,280.274 85.9159,280.607 88.5,281.5C 95.72,285.388 102.053,290.388 107.5,296.5C 110.924,301.255 112.257,306.589 111.5,312.5C 112.5,312.5 113.5,312.5 114.5,312.5C 114.5,315.5 114.5,318.5 114.5,321.5C 115.5,321.5 116.5,321.5 117.5,321.5C 117.976,325.842 118.643,330.176 119.5,334.5C 119.495,336.696 119.162,338.696 118.5,340.5 Z"/></g>
<g><path style="opacity:1" fill="#871510" d="M 235.5,280.5 C 237.707,284.858 240.873,288.524 245,291.5C 245.678,293.902 245.178,296.068 243.5,298C 244.274,300.154 244.941,302.321 245.5,304.5C 243.354,302.225 241.688,299.558 240.5,296.5C 238.825,291.155 237.159,285.822 235.5,280.5 Z"/></g>
<g><path style="opacity:1" fill="#791413" d="M 255.5,248.5 C 257.456,250.114 259.456,251.781 261.5,253.5C 265.625,270.691 263.625,287.025 255.5,302.5C 255.548,296.083 257.048,290.083 260,284.5C 260.475,278.165 260.975,271.831 261.5,265.5C 262.242,260.192 260.408,256.192 256,253.5C 255.506,251.866 255.34,250.199 255.5,248.5 Z"/></g>
<g><path style="opacity:1" fill="#12172c" d="M 287.5,232.5 C 287.665,235.85 287.498,239.183 287,242.5C 284.395,246.253 283.395,250.253 284,254.5C 280.519,258.873 278.352,263.54 277.5,268.5C 275.268,272.196 274.268,276.196 274.5,280.5C 273.5,280.5 272.5,280.5 271.5,280.5C 271.116,282.929 270.449,285.263 269.5,287.5C 268.5,287.5 267.5,287.5 266.5,287.5C 266.878,294.635 267.711,301.635 269,308.5C 268.667,309.833 268.333,311.167 268,312.5C 267.74,310.382 266.74,308.716 265,307.5C 264.71,305.08 264.21,302.746 263.5,300.5C 266.356,285.118 271.523,270.452 279,256.5C 280.69,249.073 282.69,241.739 285,234.5C 285.417,233.244 286.25,232.577 287.5,232.5 Z"/></g>
<g><path style="opacity:1" fill="#6a1514" d="M 245.5,304.5 C 247.156,305.146 248.823,305.813 250.5,306.5C 252.056,305.453 253.723,304.786 255.5,304.5C 252.244,311.054 248.911,311.054 245.5,304.5 Z"/></g>
<g><path style="opacity:1" fill="#2ba099" d="M 183.5,306.5 C 190.167,306.5 196.833,306.5 203.5,306.5C 203.784,308.415 203.451,310.081 202.5,311.5C 202.5,310.167 202.5,308.833 202.5,307.5C 196.491,307.334 190.491,307.501 184.5,308C 183.833,309.333 183.167,310.667 182.5,312C 184.107,313.049 184.773,314.549 184.5,316.5C 188.5,316.5 192.5,316.5 196.5,316.5C 196.157,314.517 196.824,313.183 198.5,312.5C 198.5,314.167 198.5,315.833 198.5,317.5C 192.833,317.5 187.167,317.5 181.5,317.5C 181.553,316.18 181.553,314.847 181.5,313.5C 180.311,312.571 178.978,312.238 177.5,312.5C 177.421,311.07 177.754,309.736 178.5,308.5C 180.291,307.83 181.958,307.163 183.5,306.5 Z"/></g>
<g><path style="opacity:1" fill="#5081b3" d="M 159.5,306.5 C 159.607,308.903 158.607,310.736 156.5,312C 157.899,312.595 159.232,312.428 160.5,311.5C 160.833,312 161.167,312.5 161.5,313C 160.571,314.077 159.904,315.244 159.5,316.5C 159.5,316.833 159.5,317.167 159.5,317.5C 155.5,317.5 151.5,317.5 147.5,317.5C 146.425,313.062 148.092,311.062 152.5,311.5C 152.5,309.833 152.5,308.167 152.5,306.5C 154.833,306.5 157.167,306.5 159.5,306.5 Z"/></g>
<g><path style="opacity:1" fill="#4095b8" d="M 159.5,306.5 C 162.167,306.5 164.833,306.5 167.5,306.5C 166.737,307.268 165.737,307.768 164.5,308C 165.729,309.529 167.229,310.696 169,311.5C 169.483,312.448 169.649,313.448 169.5,314.5C 166.266,315.576 162.932,316.243 159.5,316.5C 159.904,315.244 160.571,314.077 161.5,313C 161.167,312.5 160.833,312 160.5,311.5C 159.232,312.428 157.899,312.595 156.5,312C 158.607,310.736 159.607,308.903 159.5,306.5 Z"/></g>
<g><path style="opacity:1" fill="#22b597" d="M 202.5,311.5 C 201.432,312.434 200.099,312.768 198.5,312.5C 196.824,313.183 196.157,314.517 196.5,316.5C 192.5,316.5 188.5,316.5 184.5,316.5C 184.773,314.549 184.107,313.049 182.5,312C 183.167,310.667 183.833,309.333 184.5,308C 190.491,307.501 196.491,307.334 202.5,307.5C 202.5,308.833 202.5,310.167 202.5,311.5 Z"/></g>
<g><path style="opacity:1" fill="#379fab" d="M 167.5,306.5 C 172.833,306.5 178.167,306.5 183.5,306.5C 181.958,307.163 180.291,307.83 178.5,308.5C 177.754,309.736 177.421,311.07 177.5,312.5C 178.978,312.238 180.311,312.571 181.5,313.5C 181.553,314.847 181.553,316.18 181.5,317.5C 174.167,317.5 166.833,317.5 159.5,317.5C 159.5,317.167 159.5,316.833 159.5,316.5C 162.932,316.243 166.266,315.576 169.5,314.5C 169.649,313.448 169.483,312.448 169,311.5C 167.229,310.696 165.729,309.529 164.5,308C 165.737,307.768 166.737,307.268 167.5,306.5 Z"/></g>
<g><path style="opacity:1" fill="#4b8fbb" d="M 168.5,329.5 C 172.833,329.5 177.167,329.5 181.5,329.5C 180.068,331.799 180.734,333.465 183.5,334.5C 184.309,336.071 184.643,337.738 184.5,339.5C 181.5,339.5 178.5,339.5 175.5,339.5C 175.773,337.549 175.107,336.049 173.5,335C 174.167,334.667 174.833,334.333 175.5,334C 174.207,333.51 172.873,333.343 171.5,333.5C 171.5,332.5 171.5,331.5 171.5,330.5C 170.209,330.737 169.209,330.404 168.5,329.5 Z"/></g>
<g><path style="opacity:1" fill="#6178cd" d="M 165.5,329.5 C 167.562,332.35 168.562,335.35 168.5,338.5C 163.565,339.448 158.565,339.781 153.5,339.5C 153.5,337.833 153.5,336.167 153.5,334.5C 151.833,334.5 150.167,334.5 148.5,334.5C 148.5,332.833 148.5,331.167 148.5,329.5C 154.167,329.5 159.833,329.5 165.5,329.5 Z"/></g>
<g><path style="opacity:1" fill="#276177" d="M 165.5,329.5 C 165.5,329.167 165.5,328.833 165.5,328.5C 176.5,328.5 187.5,328.5 198.5,328.5C 198.5,330.5 198.5,332.5 198.5,334.5C 197.549,333.081 197.216,331.415 197.5,329.5C 196.167,329.5 194.833,329.5 193.5,329.5C 189.5,329.5 185.5,329.5 181.5,329.5C 177.167,329.5 172.833,329.5 168.5,329.5C 167.5,329.5 166.5,329.5 165.5,329.5 Z"/></g>
<g><path style="opacity:1" fill="#4977ad" d="M 165.5,329.5 C 166.5,329.5 167.5,329.5 168.5,329.5C 169.209,330.404 170.209,330.737 171.5,330.5C 171.5,331.5 171.5,332.5 171.5,333.5C 172.873,333.343 174.207,333.51 175.5,334C 174.833,334.333 174.167,334.667 173.5,335C 175.107,336.049 175.773,337.549 175.5,339.5C 178.5,339.5 181.5,339.5 184.5,339.5C 186.833,339.5 189.167,339.5 191.5,339.5C 193.833,339.5 196.167,339.5 198.5,339.5C 185.677,340.495 172.677,340.829 159.5,340.5C 157.265,340.795 155.265,340.461 153.5,339.5C 158.565,339.781 163.565,339.448 168.5,338.5C 168.562,335.35 167.562,332.35 165.5,329.5 Z"/></g>
<g><path style="opacity:1" fill="#24265d" d="M 165.5,328.5 C 165.5,328.833 165.5,329.167 165.5,329.5C 159.833,329.5 154.167,329.5 148.5,329.5C 148.5,331.167 148.5,332.833 148.5,334.5C 150.167,334.5 151.833,334.5 153.5,334.5C 153.5,336.167 153.5,337.833 153.5,339.5C 155.265,340.461 157.265,340.795 159.5,340.5C 157.205,342.385 154.538,342.885 151.5,342C 149.692,338.696 147.692,335.53 145.5,332.5C 145.919,331.328 146.585,330.328 147.5,329.5C 153.463,328.504 159.463,328.171 165.5,328.5 Z"/></g>
<g><path style="opacity:1" fill="#3d9ab4" d="M 181.5,329.5 C 185.5,329.5 189.5,329.5 193.5,329.5C 193.542,333.009 192.876,336.342 191.5,339.5C 189.167,339.5 186.833,339.5 184.5,339.5C 184.643,337.738 184.309,336.071 183.5,334.5C 180.734,333.465 180.068,331.799 181.5,329.5 Z"/></g>
<g><path style="opacity:1" fill="#34a1a7" d="M 193.5,329.5 C 194.833,329.5 196.167,329.5 197.5,329.5C 197.216,331.415 197.549,333.081 198.5,334.5C 198.5,336.167 198.5,337.833 198.5,339.5C 196.167,339.5 193.833,339.5 191.5,339.5C 192.876,336.342 193.542,333.009 193.5,329.5 Z"/></g>
</svg>
