<?xml version="1.0" encoding="UTF-8"?>
<!DOCTYPE svg PUBLIC "-//W3C//DTD SVG 1.1//EN" "http://www.w3.org/Graphics/SVG/1.1/DTD/svg11.dtd">
<svg xmlns="http://www.w3.org/2000/svg" version="1.1" width="172px" height="172px" style="shape-rendering:geometricPrecision; text-rendering:geometricPrecision; image-rendering:optimizeQuality; fill-rule:evenodd; clip-rule:evenodd" xmlns:xlink="http://www.w3.org/1999/xlink">
<g><path style="opacity:0.978" fill="#f6b203" d="M 72.5,-0.5 C 81.1667,-0.5 89.8333,-0.5 98.5,-0.5C 138.5,8.16667 162.833,32.5 171.5,72.5C 171.5,81.1667 171.5,89.8333 171.5,98.5C 170.035,106.561 167.368,114.228 163.5,121.5C 165.792,108.717 162.792,97.384 154.5,87.5C 152.68,85.5516 150.346,84.5516 147.5,84.5C 148.49,80.5048 149.49,76.5048 150.5,72.5C 150.333,70.8333 150.167,69.1667 150,67.5C 149.667,68.5 149.333,69.5 149,70.5C 148.95,68.256 148.117,66.5893 146.5,65.5C 143.065,61.5621 139.398,57.7288 135.5,54C 133.35,52.5886 131.016,51.7553 128.5,51.5C 119.891,29.3015 105.558,24.9682 85.5,38.5C 78.7543,31.9566 70.7543,28.4566 61.5,28C 46.9519,33.8821 36.2852,43.8821 29.5,58C 21.157,59.218 13.9904,62.718 8,68.5C 5.74848,74.0723 6.24848,79.4057 9.5,84.5C 5.61995,92.0151 3.28661,100.015 2.5,108.5C 1.28794,105.22 0.287939,101.887 -0.5,98.5C -0.5,89.8333 -0.5,81.1667 -0.5,72.5C 8.16667,32.5 32.5,8.16667 72.5,-0.5 Z"/></g>
<g><path style="opacity:1" fill="#1c0f07" d="M 128.5,51.5 C 128.44,52.0431 128.107,52.3764 127.5,52.5C 126.818,51.7573 126.151,51.0906 125.5,50.5C 122.398,40.2233 115.564,34.5566 105,33.5C 102.134,33.2999 99.6345,33.9666 97.5,35.5C 93.3089,36.2622 89.6422,38.0956 86.5,41C 88.6966,43.4214 90.03,46.2548 90.5,49.5C 90.7373,50.791 90.404,51.791 89.5,52.5C 81.0507,47.9711 72.0507,46.1378 62.5,47C 61.944,47.3826 61.6107,47.8826 61.5,48.5C 57.1554,50.0068 53.1554,52.1735 49.5,55C 47.393,56.2635 46.393,58.0968 46.5,60.5C 45.1919,58.3619 45.5252,56.3619 47.5,54.5C 51.6017,50.4593 56.2684,47.4593 61.5,45.5C 70.5216,43.9136 79.1883,45.2469 87.5,49.5C 87.8333,49.1667 88.1667,48.8333 88.5,48.5C 82.145,35.662 72.145,30.3287 58.5,32.5C 46.1905,38.3072 37.5239,47.4738 32.5,60C 33.869,63.714 34.5357,67.5474 34.5,71.5C 34.5654,71.9382 34.3988,72.2716 34,72.5C 32.675,68.8611 31.5083,65.1944 30.5,61.5C 21.7624,61.4788 14.5957,64.8121 9,71.5C 8.0772,77.3299 9.74387,82.3299 14,86.5C 15.8333,88.3333 17.6667,90.1667 19.5,92C 22.5722,92.5784 25.2388,93.745 27.5,95.5C 20.069,96.0346 14.569,93.0346 11,86.5C 3.8525,99.987 3.68583,113.654 10.5,127.5C 6.5057,121.831 3.83904,115.498 2.5,108.5C 3.28661,100.015 5.61995,92.0151 9.5,84.5C 6.24848,79.4057 5.74848,74.0723 8,68.5C 13.9904,62.718 21.157,59.218 29.5,58C 36.2852,43.8821 46.9519,33.8821 61.5,28C 70.7543,28.4566 78.7543,31.9566 85.5,38.5C 105.558,24.9682 119.891,29.3015 128.5,51.5 Z"/></g>
<g><path style="opacity:1" fill="#a05e09" d="M 61.5,45.5 C 60.8826,45.3893 60.3826,45.056 60,44.5C 59.3583,40.5092 58.8583,36.5092 58.5,32.5C 72.145,30.3287 82.145,35.662 88.5,48.5C 88.1667,48.8333 87.8333,49.1667 87.5,49.5C 79.1883,45.2469 70.5216,43.9136 61.5,45.5 Z"/></g>
<g><path style="opacity:1" fill="#a25f07" d="M 125.5,50.5 C 123.047,51.6451 120.713,51.3117 118.5,49.5C 113.025,48.5111 107.358,48.1778 101.5,48.5C 99.4371,44.3323 98.1038,39.9989 97.5,35.5C 99.6345,33.9666 102.134,33.2999 105,33.5C 115.564,34.5566 122.398,40.2233 125.5,50.5 Z"/></g>
<g><path style="opacity:1" fill="#773e07" d="M 97.5,35.5 C 98.1038,39.9989 99.4371,44.3323 101.5,48.5C 107.358,48.1778 113.025,48.5111 118.5,49.5C 110.4,49.1134 102.4,49.7801 94.5,51.5C 92.8857,51.1971 91.5523,50.5305 90.5,49.5C 90.03,46.2548 88.6966,43.4214 86.5,41C 89.6422,38.0956 93.3089,36.2622 97.5,35.5 Z"/></g>
<g><path style="opacity:1" fill="#773d05" d="M 58.5,32.5 C 58.8583,36.5092 59.3583,40.5092 60,44.5C 60.3826,45.056 60.8826,45.3893 61.5,45.5C 56.2684,47.4593 51.6017,50.4593 47.5,54.5C 46.5041,54.4142 45.6708,54.7476 45,55.5C 44.5004,62.4921 44.3337,69.4921 44.5,76.5C 41.1667,74.8333 37.8333,73.1667 34.5,71.5C 34.5357,67.5474 33.869,63.714 32.5,60C 37.5239,47.4738 46.1905,38.3072 58.5,32.5 Z"/></g>
<g><path style="opacity:1" fill="#edc283" d="M 89.5,52.5 C 90.5736,53.8846 91.9069,55.0513 93.5,56C 85.8198,56.4027 78.1532,56.9027 70.5,57.5C 67.5,57.5 64.5,57.5 61.5,57.5C 61.5,54.5 61.5,51.5 61.5,48.5C 61.6107,47.8826 61.944,47.3826 62.5,47C 72.0507,46.1378 81.0507,47.9711 89.5,52.5 Z"/></g>
<g><path style="opacity:1" fill="#b4864f" d="M 61.5,48.5 C 61.5,51.5 61.5,54.5 61.5,57.5C 64.5,57.5 67.5,57.5 70.5,57.5C 64.6465,59.76 58.9799,62.5934 53.5,66C 60.0015,63.5965 66.6682,61.4298 73.5,59.5C 74.5,59.8333 75.1667,60.5 75.5,61.5C 70.0828,62.1945 65.0828,63.8612 60.5,66.5C 55.8661,67.3142 51.5328,68.9809 47.5,71.5C 46.5108,67.8927 46.1774,64.226 46.5,60.5C 46.393,58.0968 47.393,56.2635 49.5,55C 53.1554,52.1735 57.1554,50.0068 61.5,48.5 Z"/></g>
<g><path style="opacity:1" fill="#2b1d16" d="M 90.5,49.5 C 91.5523,50.5305 92.8857,51.1971 94.5,51.5C 102.4,49.7801 110.4,49.1134 118.5,49.5C 120.713,51.3117 123.047,51.6451 125.5,50.5C 126.151,51.0906 126.818,51.7573 127.5,52.5C 128.107,52.3764 128.44,52.0431 128.5,51.5C 131.016,51.7553 133.35,52.5886 135.5,54C 139.398,57.7288 143.065,61.5621 146.5,65.5C 147.126,68.6379 148.126,71.6379 149.5,74.5C 147.628,76.7553 146.461,79.4219 146,82.5C 141.2,85.58 136.7,89.08 132.5,93C 134.547,97.6025 137.214,101.769 140.5,105.5C 139.833,105.5 139.5,105.833 139.5,106.5C 139.167,106.5 138.833,106.5 138.5,106.5C 135.804,105.431 133.804,106.431 132.5,109.5C 131.833,109.5 131.167,109.5 130.5,109.5C 132.144,107.519 133.81,105.519 135.5,103.5C 134.479,101.812 133.145,100.479 131.5,99.5C 129.684,97.8634 127.684,96.3634 125.5,95C 118.167,94.6667 110.833,94.3333 103.5,94C 108.351,93.8255 113.018,93.3255 117.5,92.5C 123.674,92.2906 129.674,91.1239 135.5,89C 137.844,86.4189 137.177,84.5855 133.5,83.5C 132.737,82.7321 131.737,82.2321 130.5,82C 130.728,81.6012 131.062,81.4346 131.5,81.5C 137.83,81.3326 143.164,78.9992 147.5,74.5C 146.687,73.1861 145.687,72.0195 144.5,71C 141.429,69.7043 138.429,68.5377 135.5,67.5C 136.167,67.5 136.5,67.1667 136.5,66.5C 139.777,67.5378 142.943,68.8711 146,70.5C 145.931,66.4296 143.764,64.2629 139.5,64C 129.788,63.1759 120.121,63.5093 110.5,65C 106.821,65.2814 103.488,66.4481 100.5,68.5C 101.5,69.8333 102.5,71.1667 103.5,72.5C 113.06,65.8543 123.393,63.8543 134.5,66.5C 128,66.1527 122.334,66.8193 117.5,68.5C 116.766,69.7079 116.433,71.0413 116.5,72.5C 115.833,72.5 115.167,72.5 114.5,72.5C 114.5,71.5 114.5,70.5 114.5,69.5C 108.021,70.0478 104.021,73.3811 102.5,79.5C 103.025,80.1924 103.692,80.6924 104.5,81C 108.486,81.4988 112.486,81.6655 116.5,81.5C 115.118,82.2773 113.118,82.944 110.5,83.5C 109.833,83.5 109.167,83.5 108.5,83.5C 106.444,82.7839 104.277,82.1172 102,81.5C 100.707,87.5794 96.8735,90.4128 90.5,90C 86.09,93.8718 81.09,96.7051 75.5,98.5C 73.6214,98.6068 73.2881,98.1068 74.5,97C 77.5266,95.4867 80.5266,93.9867 83.5,92.5C 84.9733,91.928 86.3066,91.0946 87.5,90C 79.0365,89.6732 70.7032,88.5066 62.5,86.5C 60.9724,85.6908 59.3057,85.0241 57.5,84.5C 57.9169,83.8761 58.5836,83.5427 59.5,83.5C 62.1298,84.3779 64.7965,85.0445 67.5,85.5C 76.6631,87.8322 85.9964,88.6655 95.5,88C 98.4832,86.92 99.8165,85.0867 99.5,82.5C 98.5,83 97.5,83.5 96.5,84C 88.3225,84.8228 80.3225,84.6561 72.5,83.5C 76.8274,83.9843 80.8274,83.3177 84.5,81.5C 90.1949,83.2306 95.6949,82.564 101,79.5C 102.825,71.4951 99.6579,67.4951 91.5,67.5C 92.4916,67.6716 93.1583,67.3382 93.5,66.5C 95.0603,66.5191 96.5603,66.8524 98,67.5C 99.726,66.3521 99.5593,65.1855 97.5,64C 92.7034,63.1469 87.8701,62.6469 83,62.5C 75.3096,62.8718 67.8096,64.2052 60.5,66.5C 65.0828,63.8612 70.0828,62.1945 75.5,61.5C 78.1364,61.036 80.8031,60.7027 83.5,60.5C 88.5447,61.1518 93.5447,61.6518 98.5,62C 97.5,61 96.5,60 95.5,59C 87.9882,58.1782 80.6549,58.3448 73.5,59.5C 66.6682,61.4298 60.0015,63.5965 53.5,66C 58.9799,62.5934 64.6465,59.76 70.5,57.5C 78.1532,56.9027 85.8198,56.4027 93.5,56C 91.9069,55.0513 90.5736,53.8846 89.5,52.5C 90.404,51.791 90.7373,50.791 90.5,49.5 Z"/></g>
<g><path style="opacity:1" fill="#e8c083" d="M 105.5,51.5 C 112.099,51.0071 118.432,52.0071 124.5,54.5C 129.696,52.5032 134.03,53.6698 137.5,58C 128.822,58.4128 120.156,58.9128 111.5,59.5C 107.457,57.9919 105.457,55.3252 105.5,51.5 Z"/></g>
<g><path style="opacity:1" fill="#b58750" d="M 105.5,51.5 C 105.457,55.3252 107.457,57.9919 111.5,59.5C 108.086,60.3336 104.586,61.3336 101,62.5C 98.1513,59.984 95.6513,57.1507 93.5,54C 97.427,52.842 101.427,52.0087 105.5,51.5 Z"/></g>
<g><path style="opacity:1" fill="#e7c08a" d="M 73.5,59.5 C 80.6549,58.3448 87.9882,58.1782 95.5,59C 96.5,60 97.5,61 98.5,62C 93.5447,61.6518 88.5447,61.1518 83.5,60.5C 80.8031,60.7027 78.1364,61.036 75.5,61.5C 75.1667,60.5 74.5,59.8333 73.5,59.5 Z"/></g>
<g><path style="opacity:1" fill="#d1ad7e" d="M 120.5,59.5 C 127.704,58.945 134.704,59.7783 141.5,62C 128.126,60.6047 114.96,61.7714 102,65.5C 100.102,64.6476 100.269,63.9809 102.5,63.5C 108.632,62.1518 114.632,60.8184 120.5,59.5 Z"/></g>
<g><path style="opacity:1" fill="#ae8554" d="M 136.5,66.5 C 135.833,66.5 135.167,66.5 134.5,66.5C 123.393,63.8543 113.06,65.8543 103.5,72.5C 102.5,71.1667 101.5,69.8333 100.5,68.5C 103.488,66.4481 106.821,65.2814 110.5,65C 120.121,63.5093 129.788,63.1759 139.5,64C 143.764,64.2629 145.931,66.4296 146,70.5C 142.943,68.8711 139.777,67.5378 136.5,66.5 Z"/></g>
<g><path style="opacity:1" fill="#100c0b" d="M 93.5,66.5 C 93.1583,67.3382 92.4916,67.6716 91.5,67.5C 89.396,67.2011 87.396,67.5344 85.5,68.5C 88.1406,73.0119 87.8073,77.3452 84.5,81.5C 80.8274,83.3177 76.8274,83.9843 72.5,83.5C 71.1667,83.5 69.8333,83.5 68.5,83.5C 65.1,81.963 61.7667,80.1297 58.5,78C 54.8659,77.8444 51.5326,76.8444 48.5,75C 51.4601,75.3201 54.4601,75.3201 57.5,75C 60.5709,70.2885 64.9042,67.2885 70.5,66C 78.1816,65.4593 85.8483,65.6259 93.5,66.5 Z"/></g>
<g><path style="opacity:1" fill="#0a0808" d="M 134.5,66.5 C 135.167,66.5 135.833,66.5 136.5,66.5C 136.5,67.1667 136.167,67.5 135.5,67.5C 134.127,67.3433 132.793,67.51 131.5,68C 135.458,72.5714 135.458,77.0714 131.5,81.5C 131.062,81.4346 130.728,81.6012 130.5,82C 131.737,82.2321 132.737,82.7321 133.5,83.5C 125.805,84.6594 118.138,84.6594 110.5,83.5C 113.118,82.944 115.118,82.2773 116.5,81.5C 115.072,78.6967 114.405,75.6967 114.5,72.5C 115.167,72.5 115.833,72.5 116.5,72.5C 118.252,72.5824 119.252,71.7491 119.5,70C 119.164,68.9701 118.497,68.4701 117.5,68.5C 122.334,66.8193 128,66.1527 134.5,66.5 Z"/></g>
<g><path style="opacity:1" fill="#efefef" d="M 91.5,67.5 C 99.6579,67.4951 102.825,71.4951 101,79.5C 95.6949,82.564 90.1949,83.2306 84.5,81.5C 87.8073,77.3452 88.1406,73.0119 85.5,68.5C 87.396,67.5344 89.396,67.2011 91.5,67.5 Z"/></g>
<g><path style="opacity:1" fill="#e9e7e8" d="M 135.5,67.5 C 138.429,68.5377 141.429,69.7043 144.5,71C 145.687,72.0195 146.687,73.1861 147.5,74.5C 143.164,78.9992 137.83,81.3326 131.5,81.5C 135.458,77.0714 135.458,72.5714 131.5,68C 132.793,67.51 134.127,67.3433 135.5,67.5 Z"/></g>
<g><path style="opacity:1" fill="#e8eaea" d="M 71.5,68.5 C 72.5,68.5 73.5,68.5 74.5,68.5C 74.5,69.5 74.5,70.5 74.5,71.5C 73.5,71.5 72.5,71.5 71.5,71.5C 71.5,70.5 71.5,69.5 71.5,68.5 Z"/></g>
<g><path style="opacity:1" fill="#e9e7e8" d="M 114.5,72.5 C 114.405,75.6967 115.072,78.6967 116.5,81.5C 112.486,81.6655 108.486,81.4988 104.5,81C 103.692,80.6924 103.025,80.1924 102.5,79.5C 104.021,73.3811 108.021,70.0478 114.5,69.5C 114.5,70.5 114.5,71.5 114.5,72.5 Z"/></g>
<g><path style="opacity:1" fill="#d9d9d7" d="M 117.5,68.5 C 118.497,68.4701 119.164,68.9701 119.5,70C 119.252,71.7491 118.252,72.5824 116.5,72.5C 116.433,71.0413 116.766,69.7079 117.5,68.5 Z"/></g>
<g><path style="opacity:1" fill="#a25f07" d="M 34.5,71.5 C 37.8333,73.1667 41.1667,74.8333 44.5,76.5C 44.6659,81.5111 44.4993,86.5111 44,91.5C 35.7494,103.936 35.4161,116.603 43,129.5C 45.9563,132.227 49.4563,133.727 53.5,134C 65.755,136.203 78.0883,137.703 90.5,138.5C 98.5069,138.334 106.507,138.5 114.5,139C 113.437,140.188 112.103,140.688 110.5,140.5C 109.903,139.861 109.07,139.528 108,139.5C 99.521,141.03 91.021,142.363 82.5,143.5C 80.901,143.232 79.5676,143.566 78.5,144.5C 64.4819,145.239 50.8153,143.573 37.5,139.5C 34.502,136.333 31.6686,133 29,129.5C 28.0266,127.608 27.3599,125.608 27,123.5C 26.434,114.153 26.6007,104.82 27.5,95.5C 25.2388,93.745 22.5722,92.5784 19.5,92C 17.6667,90.1667 15.8333,88.3333 14,86.5C 9.74387,82.3299 8.0772,77.3299 9,71.5C 14.5957,64.8121 21.7624,61.4788 30.5,61.5C 31.5083,65.1944 32.675,68.8611 34,72.5C 34.3988,72.2716 34.5654,71.9382 34.5,71.5 Z"/></g>
<g><path style="opacity:1" fill="#1e0f06" d="M 26.5,85.5 C 26.3528,81.0332 26.1862,76.3665 26,71.5C 23.6194,70.565 21.1194,70.2317 18.5,70.5C 21.4545,66.6649 24.6211,66.6649 28,70.5C 28.9075,75.6887 28.4075,80.6887 26.5,85.5 Z"/></g>
<g><path style="opacity:1" fill="#743d08" d="M 18.5,70.5 C 21.1194,70.2317 23.6194,70.565 26,71.5C 26.1862,76.3665 26.3528,81.0332 26.5,85.5C 26.44,86.0431 26.1067,86.3764 25.5,86.5C 22.3898,81.5012 20.0564,76.1679 18.5,70.5 Z"/></g>
<g><path style="opacity:1" fill="#d4d0d3" d="M 66.5,68.5 C 67.3764,68.3691 68.0431,68.7025 68.5,69.5C 67.1357,73.1516 67.4691,76.6516 69.5,80C 65.3888,80.0725 61.7221,78.7391 58.5,76C 60.5856,72.8062 63.2523,70.3062 66.5,68.5 Z"/></g>
<g><path style="opacity:1" fill="#b28652" d="M 93.5,66.5 C 85.8483,65.6259 78.1816,65.4593 70.5,66C 64.9042,67.2885 60.5709,70.2885 57.5,75C 54.4601,75.3201 51.4601,75.3201 48.5,75C 51.5326,76.8444 54.8659,77.8444 58.5,78C 61.7667,80.1297 65.1,81.963 68.5,83.5C 67.6618,83.8417 67.3284,84.5084 67.5,85.5C 64.7965,85.0445 62.1298,84.3779 59.5,83.5C 58.5836,83.5427 57.9169,83.8761 57.5,84.5C 53.9795,82.7709 50.3128,81.4375 46.5,80.5C 46.3367,78.1432 46.5034,75.8098 47,73.5C 51.514,70.9945 56.014,68.6611 60.5,66.5C 67.8096,64.2052 75.3096,62.8718 83,62.5C 87.8701,62.6469 92.7034,63.1469 97.5,64C 99.5593,65.1855 99.726,66.3521 98,67.5C 96.5603,66.8524 95.0603,66.5191 93.5,66.5 Z"/></g>
<g><path style="opacity:1" fill="#eec282" d="M 46.5,80.5 C 50.3128,81.4375 53.9795,82.7709 57.5,84.5C 59.3057,85.0241 60.9724,85.6908 62.5,86.5C 69.3955,88.8174 76.3955,90.8174 83.5,92.5C 80.5266,93.9867 77.5266,95.4867 74.5,97C 73.2881,98.1068 73.6214,98.6068 75.5,98.5C 80.2653,98.4727 84.5986,96.6394 88.5,93C 90,92.8333 91.5,92.6667 93,92.5C 99.3746,94.5217 105.875,95.855 112.5,96.5C 114.188,98.3867 116.188,99.5534 118.5,100C 117.619,99.2917 116.953,98.4584 116.5,97.5C 117.274,96.8529 118.274,96.5195 119.5,96.5C 123.609,97.1938 127.609,98.1938 131.5,99.5C 133.145,100.479 134.479,101.812 135.5,103.5C 133.81,105.519 132.144,107.519 130.5,109.5C 128.931,112.228 126.598,114.062 123.5,115C 109.424,115.92 95.424,115.253 81.5,113C 79.2746,112.439 77.2746,111.439 75.5,110C 72.5671,105.231 68.5671,101.731 63.5,99.5C 52.7093,98.8075 49.5426,103.474 54,113.5C 58.9378,123.068 66.7711,128.902 77.5,131C 91.132,132.994 104.799,134.661 118.5,136C 117.207,136.49 115.873,136.657 114.5,136.5C 94.7225,137.101 75.0559,135.934 55.5,133C 43.7775,130.761 38.4442,123.594 39.5,111.5C 39.4078,104.36 41.5745,98.0266 46,92.5C 46.4988,88.5138 46.6655,84.5138 46.5,80.5 Z"/></g>
<g><path style="opacity:1" fill="#d5b68d" d="M 143.5,79.5 C 144.645,80.7927 144.311,81.9593 142.5,83C 140.5,83.6667 138.5,83.6667 136.5,83C 139.069,82.1016 141.402,80.935 143.5,79.5 Z"/></g>
<g><path style="opacity:1" fill="#deb984" d="M 67.5,85.5 C 67.3284,84.5084 67.6618,83.8417 68.5,83.5C 69.8333,83.5 71.1667,83.5 72.5,83.5C 80.3225,84.6561 88.3225,84.8228 96.5,84C 97.5,83.5 98.5,83 99.5,82.5C 99.8165,85.0867 98.4832,86.92 95.5,88C 85.9964,88.6655 76.6631,87.8322 67.5,85.5 Z"/></g>
<g><path style="opacity:1" fill="#ae8759" d="M 62.5,86.5 C 70.7032,88.5066 79.0365,89.6732 87.5,90C 86.3066,91.0946 84.9733,91.928 83.5,92.5C 76.3955,90.8174 69.3955,88.8174 62.5,86.5 Z"/></g>
<g><path style="opacity:1" fill="#efc483" d="M 108.5,83.5 C 109.167,83.5 109.833,83.5 110.5,83.5C 118.138,84.6594 125.805,84.6594 133.5,83.5C 137.177,84.5855 137.844,86.4189 135.5,89C 129.674,91.1239 123.674,92.2906 117.5,92.5C 114.482,92.6646 111.482,92.498 108.5,92C 105.928,88.974 105.928,86.1407 108.5,83.5 Z"/></g>
<g><path style="opacity:1" fill="#b38751" d="M 108.5,83.5 C 105.928,86.1407 105.928,88.974 108.5,92C 111.482,92.498 114.482,92.6646 117.5,92.5C 113.018,93.3255 108.351,93.8255 103.5,94C 110.833,94.3333 118.167,94.6667 125.5,95C 127.684,96.3634 129.684,97.8634 131.5,99.5C 127.609,98.1938 123.609,97.1938 119.5,96.5C 118.274,96.5195 117.274,96.8529 116.5,97.5C 115.518,96.8592 114.518,96.1925 113.5,95.5C 112.893,95.6236 112.56,95.9569 112.5,96.5C 105.875,95.855 99.3746,94.5217 93,92.5C 91.5,92.6667 90,92.8333 88.5,93C 84.5986,96.6394 80.2653,98.4727 75.5,98.5C 81.09,96.7051 86.09,93.8718 90.5,90C 96.8735,90.4128 100.707,87.5794 102,81.5C 104.277,82.1172 106.444,82.7839 108.5,83.5 Z"/></g>
<g><path style="opacity:1" fill="#997a51" d="M 127.5,93.5 C 130.318,93.4952 131.485,94.8285 131,97.5C 129.373,96.4677 128.207,95.1344 127.5,93.5 Z"/></g>
<g><path style="opacity:1" fill="#783d03" d="M 27.5,95.5 C 26.6007,104.82 26.434,114.153 27,123.5C 27.3599,125.608 28.0266,127.608 29,129.5C 31.6686,133 34.502,136.333 37.5,139.5C 35.1432,139.663 32.8098,139.497 30.5,139C 23.17,135.85 16.5033,132.017 10.5,127.5C 3.68583,113.654 3.8525,99.987 11,86.5C 14.569,93.0346 20.069,96.0346 27.5,95.5 Z"/></g>
<g><path style="opacity:1" fill="#2e1910" d="M 116.5,97.5 C 116.953,98.4584 117.619,99.2917 118.5,100C 116.188,99.5534 114.188,98.3867 112.5,96.5C 112.56,95.9569 112.893,95.6236 113.5,95.5C 114.518,96.1925 115.518,96.8592 116.5,97.5 Z"/></g>
<g><path style="opacity:1" fill="#311f15" d="M 47.5,54.5 C 45.5252,56.3619 45.1919,58.3619 46.5,60.5C 46.1774,64.226 46.5108,67.8927 47.5,71.5C 51.5328,68.9809 55.8661,67.3142 60.5,66.5C 56.014,68.6611 51.514,70.9945 47,73.5C 46.5034,75.8098 46.3367,78.1432 46.5,80.5C 46.6655,84.5138 46.4988,88.5138 46,92.5C 41.5745,98.0266 39.4078,104.36 39.5,111.5C 38.4442,123.594 43.7775,130.761 55.5,133C 75.0559,135.934 94.7225,137.101 114.5,136.5C 106.5,137.167 98.5,137.833 90.5,138.5C 78.0883,137.703 65.755,136.203 53.5,134C 49.4563,133.727 45.9563,132.227 43,129.5C 35.4161,116.603 35.7494,103.936 44,91.5C 44.4993,86.5111 44.6659,81.5111 44.5,76.5C 44.3337,69.4921 44.5004,62.4921 45,55.5C 45.6708,54.7476 46.5041,54.4142 47.5,54.5 Z"/></g>
<g><path style="opacity:1" fill="#ecad15" d="M 146.5,65.5 C 148.117,66.5893 148.95,68.256 149,70.5C 149.333,69.5 149.667,68.5 150,67.5C 150.167,69.1667 150.333,70.8333 150.5,72.5C 149.49,76.5048 148.49,80.5048 147.5,84.5C 150.346,84.5516 152.68,85.5516 154.5,87.5C 145.021,85.1586 141.855,88.8253 145,98.5C 147.201,102.066 148.701,105.9 149.5,110C 146.439,124.127 139.106,135.461 127.5,144C 123.431,147.063 119.098,149.73 114.5,152C 113.5,152.667 112.5,152.667 111.5,152C 109.461,149.626 107.128,147.626 104.5,146C 115.922,140.878 126.422,134.378 136,126.5C 141.392,120.374 142.892,113.374 140.5,105.5C 137.214,101.769 134.547,97.6025 132.5,93C 136.7,89.08 141.2,85.58 146,82.5C 146.461,79.4219 147.628,76.7553 149.5,74.5C 148.126,71.6379 147.126,68.6379 146.5,65.5 Z"/></g>
<g><path style="opacity:1" fill="#352319" d="M 47.5,100.5 C 48.0431,100.56 48.3764,100.893 48.5,101.5C 44.1408,109.436 44.8075,116.936 50.5,124C 50.1667,124.167 49.8333,124.333 49.5,124.5C 42.6662,117.003 41.9995,109.003 47.5,100.5 Z"/></g>
<g><path style="opacity:1" fill="#783e07" d="M 149.5,88.5 C 149.077,89.2646 148.743,90.0979 148.5,91C 156.234,103.978 156.401,117.145 149,130.5C 139.909,142.013 129.909,152.68 119,162.5C 118.517,163.448 118.351,164.448 118.5,165.5C 118.167,165.5 117.833,165.5 117.5,165.5C 116.662,162.314 115.662,159.147 114.5,156C 120.981,151.587 127.314,146.92 133.5,142C 143.142,133.708 149.142,123.374 151.5,111C 151.333,109.167 151.167,107.333 151,105.5C 147.271,100.726 145.938,95.3929 147,89.5C 147.671,88.7476 148.504,88.4142 149.5,88.5 Z"/></g>
<g><path style="opacity:1" fill="#2e180d" d="M 10.5,127.5 C 16.5033,132.017 23.17,135.85 30.5,139C 32.8098,139.497 35.1432,139.663 37.5,139.5C 50.8153,143.573 64.4819,145.239 78.5,144.5C 82.449,144.693 82.449,145.193 78.5,146C 76.1667,146.167 73.8333,146.333 71.5,146.5C 65.8355,145.799 60.1688,145.633 54.5,146C 66.6466,147.476 78.6466,147.976 90.5,147.5C 72.5994,149.625 54.9327,148.458 37.5,144C 30.0298,140.262 22.3631,137.095 14.5,134.5C 12.412,132.664 11.0787,130.331 10.5,127.5 Z"/></g>
<g><path style="opacity:1" fill="#a05e08" d="M 149.5,88.5 C 153.754,89.5852 156.587,92.2518 158,96.5C 162.531,107.555 162.531,118.555 158,129.5C 153.978,135.674 149.811,141.674 145.5,147.5C 137.708,155.235 128.708,161.235 118.5,165.5C 118.351,164.448 118.517,163.448 119,162.5C 129.909,152.68 139.909,142.013 149,130.5C 156.401,117.145 156.234,103.978 148.5,91C 148.743,90.0979 149.077,89.2646 149.5,88.5 Z"/></g>
<g><path style="opacity:1" fill="#2d160a" d="M 110.5,140.5 C 102.621,142.469 94.621,143.802 86.5,144.5C 84.9549,144.489 83.6216,144.156 82.5,143.5C 91.021,142.363 99.521,141.03 108,139.5C 109.07,139.528 109.903,139.861 110.5,140.5 Z"/></g>
<g><path style="opacity:1" fill="#925915" d="M 14.5,134.5 C 22.3631,137.095 30.0298,140.262 37.5,144C 54.9327,148.458 72.5994,149.625 90.5,147.5C 92.941,146.244 95.2743,146.244 97.5,147.5C 94.5789,148.481 91.5789,149.315 88.5,150C 68.9362,151.524 49.6028,150.191 30.5,146C 26.5671,143.864 22.5671,142.031 18.5,140.5C 16.7745,138.772 15.4411,136.772 14.5,134.5 Z"/></g>
<g><path style="opacity:1" fill="#1e1007" d="M 154.5,87.5 C 162.792,97.384 165.792,108.717 163.5,121.5C 159.486,131.523 153.486,140.19 145.5,147.5C 149.811,141.674 153.978,135.674 158,129.5C 162.531,118.555 162.531,107.555 158,96.5C 156.587,92.2518 153.754,89.5852 149.5,88.5C 148.504,88.4142 147.671,88.7476 147,89.5C 145.938,95.3929 147.271,100.726 151,105.5C 151.167,107.333 151.333,109.167 151.5,111C 149.142,123.374 143.142,133.708 133.5,142C 127.314,146.92 120.981,151.587 114.5,156C 115.662,159.147 116.662,162.314 117.5,165.5C 117.158,166.338 116.492,166.672 115.5,166.5C 113.763,159.194 110.096,153.027 104.5,148C 98.1336,150.32 91.467,151.82 84.5,152.5C 70.1316,153.935 55.7983,153.601 41.5,151.5C 35.3916,150.128 29.3916,148.128 23.5,145.5C 21.5,144.167 19.8333,142.5 18.5,140.5C 22.5671,142.031 26.5671,143.864 30.5,146C 49.6028,150.191 68.9362,151.524 88.5,150C 91.5789,149.315 94.5789,148.481 97.5,147.5C 101.74,144.882 106.074,142.548 110.5,140.5C 112.103,140.688 113.437,140.188 114.5,139C 106.507,138.5 98.5069,138.334 90.5,138.5C 98.5,137.833 106.5,137.167 114.5,136.5C 115.873,136.657 117.207,136.49 118.5,136C 104.799,134.661 91.132,132.994 77.5,131C 66.7711,128.902 58.9378,123.068 54,113.5C 49.5426,103.474 52.7093,98.8075 63.5,99.5C 61.8333,100.167 60.1667,100.833 58.5,101.5C 57.5084,101.328 56.8417,101.662 56.5,102.5C 55.2521,103.334 54.5854,104.667 54.5,106.5C 55.3818,114.38 59.3818,120.046 66.5,123.5C 68.7005,125.64 71.3672,127.14 74.5,128C 81.0849,129.49 87.7516,130.323 94.5,130.5C 102.479,133.204 110.812,134.037 119.5,133C 124.562,132.638 128.562,130.472 131.5,126.5C 132.794,125.71 133.961,124.71 135,123.5C 135.901,120.929 137.234,118.596 139,116.5C 139.749,115.365 139.583,114.365 138.5,113.5C 137.893,113.624 137.56,113.957 137.5,114.5C 136.833,114.5 136.5,114.167 136.5,113.5C 138.312,111.539 139.312,109.206 139.5,106.5C 139.5,105.833 139.833,105.5 140.5,105.5C 142.892,113.374 141.392,120.374 136,126.5C 126.422,134.378 115.922,140.878 104.5,146C 107.128,147.626 109.461,149.626 111.5,152C 112.5,152.667 113.5,152.667 114.5,152C 119.098,149.73 123.431,147.063 127.5,144C 139.106,135.461 146.439,124.127 149.5,110C 148.701,105.9 147.201,102.066 145,98.5C 141.855,88.8253 145.021,85.1586 154.5,87.5 Z"/></g>
<g><path style="opacity:1" fill="#6f3d10" d="M 110.5,140.5 C 106.074,142.548 101.74,144.882 97.5,147.5C 95.2743,146.244 92.941,146.244 90.5,147.5C 78.6466,147.976 66.6466,147.476 54.5,146C 60.1688,145.633 65.8355,145.799 71.5,146.5C 73.8333,146.333 76.1667,146.167 78.5,146C 82.449,145.193 82.449,144.693 78.5,144.5C 79.5676,143.566 80.901,143.232 82.5,143.5C 83.6216,144.156 84.9549,144.489 86.5,144.5C 94.621,143.802 102.621,142.469 110.5,140.5 Z"/></g>
<g><path style="opacity:1" fill="#88070c" d="M 131.5,126.5 C 128.562,130.472 124.562,132.638 119.5,133C 110.812,134.037 102.479,133.204 94.5,130.5C 102.491,131.266 110.491,131.433 118.5,131C 122.668,128.911 127.002,127.411 131.5,126.5 Z"/></g>
<g><path style="opacity:1" fill="#de2b23" d="M 58.5,101.5 C 60.8568,101.337 63.1902,101.503 65.5,102C 69.1396,105.64 72.8063,109.306 76.5,113C 78.0249,114.009 79.6916,114.509 81.5,114.5C 82.6808,116.067 84.3474,116.901 86.5,117C 83.0196,117.463 79.6863,116.963 76.5,115.5C 72.5275,113.178 68.5275,110.845 64.5,108.5C 63.8933,108.624 63.56,108.957 63.5,109.5C 64.5434,112.056 66.2101,114.223 68.5,116C 82.9482,124.862 98.6149,128.529 115.5,127C 124.503,125.668 131.837,121.501 137.5,114.5C 137.56,113.957 137.893,113.624 138.5,113.5C 139.583,114.365 139.749,115.365 139,116.5C 137.234,118.596 135.901,120.929 135,123.5C 133.961,124.71 132.794,125.71 131.5,126.5C 127.002,127.411 122.668,128.911 118.5,131C 110.491,131.433 102.491,131.266 94.5,130.5C 93.7703,128.955 92.437,128.122 90.5,128C 82.309,127.26 74.309,125.76 66.5,123.5C 63.922,120.052 61.0886,116.719 58,113.5C 56.7633,109.94 56.2633,106.273 56.5,102.5C 56.8417,101.662 57.5084,101.328 58.5,101.5 Z"/></g>
<g><path style="opacity:1" fill="#8a090d" d="M 66.5,123.5 C 74.309,125.76 82.309,127.26 90.5,128C 92.437,128.122 93.7703,128.955 94.5,130.5C 87.7516,130.323 81.0849,129.49 74.5,128C 71.3672,127.14 68.7005,125.64 66.5,123.5 Z"/></g>
<g><path style="opacity:1" fill="#2b0905" d="M 63.5,109.5 C 67.3218,112.987 71.6551,115.653 76.5,117.5C 82.7775,120.47 89.4442,122.637 96.5,124C 100.824,124.582 105.157,125.082 109.5,125.5C 112.785,125.553 115.785,124.886 118.5,123.5C 119.791,123.737 120.791,123.404 121.5,122.5C 123.564,122.313 125.564,121.813 127.5,121C 130.665,118.665 133.665,116.165 136.5,113.5C 136.5,114.167 136.833,114.5 137.5,114.5C 131.837,121.501 124.503,125.668 115.5,127C 98.6149,128.529 82.9482,124.862 68.5,116C 66.2101,114.223 64.5434,112.056 63.5,109.5 Z"/></g>
<g><path style="opacity:1" fill="#de2d24" d="M 138.5,106.5 C 134.089,113.246 128.423,118.58 121.5,122.5C 120.791,123.404 119.791,123.737 118.5,123.5C 112.491,123.666 106.491,123.499 100.5,123C 95.2889,121.241 89.9555,119.908 84.5,119C 88.7901,118.077 93.1234,117.577 97.5,117.5C 107.208,117.744 116.874,117.244 126.5,116C 128.706,113.963 130.706,111.797 132.5,109.5C 133.804,106.431 135.804,105.431 138.5,106.5 Z"/></g>
<g><path style="opacity:1" fill="#c72520" d="M 81.5,114.5 C 86.9542,115.508 92.2876,116.508 97.5,117.5C 93.1234,117.577 88.7901,118.077 84.5,119C 89.9555,119.908 95.2889,121.241 100.5,123C 106.491,123.499 112.491,123.666 118.5,123.5C 115.785,124.886 112.785,125.553 109.5,125.5C 105.157,125.082 100.824,124.582 96.5,124C 89.4442,122.637 82.7775,120.47 76.5,117.5C 76.5,116.833 76.5,116.167 76.5,115.5C 79.6863,116.963 83.0196,117.463 86.5,117C 84.3474,116.901 82.6808,116.067 81.5,114.5 Z"/></g>
<g><path style="opacity:1" fill="#870a0f" d="M 138.5,106.5 C 138.833,106.5 139.167,106.5 139.5,106.5C 139.312,109.206 138.312,111.539 136.5,113.5C 133.665,116.165 130.665,118.665 127.5,121C 125.564,121.813 123.564,122.313 121.5,122.5C 128.423,118.58 134.089,113.246 138.5,106.5 Z"/></g>
<g><path style="opacity:1" fill="#8b0a0d" d="M 63.5,109.5 C 63.56,108.957 63.8933,108.624 64.5,108.5C 68.5275,110.845 72.5275,113.178 76.5,115.5C 76.5,116.167 76.5,116.833 76.5,117.5C 71.6551,115.653 67.3218,112.987 63.5,109.5 Z"/></g>
<g><path style="opacity:1" fill="#8c090c" d="M 56.5,102.5 C 56.2633,106.273 56.7633,109.94 58,113.5C 61.0886,116.719 63.922,120.052 66.5,123.5C 59.3818,120.046 55.3818,114.38 54.5,106.5C 54.5854,104.667 55.2521,103.334 56.5,102.5 Z"/></g>
<g><path style="opacity:1" fill="#451c17" d="M 63.5,99.5 C 68.5671,101.731 72.5671,105.231 75.5,110C 77.2746,111.439 79.2746,112.439 81.5,113C 95.424,115.253 109.424,115.92 123.5,115C 126.598,114.062 128.931,112.228 130.5,109.5C 131.167,109.5 131.833,109.5 132.5,109.5C 130.706,111.797 128.706,113.963 126.5,116C 116.874,117.244 107.208,117.744 97.5,117.5C 92.2876,116.508 86.9542,115.508 81.5,114.5C 79.6916,114.509 78.0249,114.009 76.5,113C 72.8063,109.306 69.1396,105.64 65.5,102C 63.1902,101.503 60.8568,101.337 58.5,101.5C 60.1667,100.833 61.8333,100.167 63.5,99.5 Z"/></g>
<g><path style="opacity:0.967" fill="#a45f02" d="M 23.5,145.5 C 29.3916,148.128 35.3916,150.128 41.5,151.5C 43.9542,152.621 46.6209,153.454 49.5,154C 60.5,154.667 71.5,154.667 82.5,154C 83.4158,153.722 84.0825,153.222 84.5,152.5C 91.467,151.82 98.1336,150.32 104.5,148C 110.096,153.027 113.763,159.194 115.5,166.5C 109.874,168.652 104.207,170.319 98.5,171.5C 89.8333,171.5 81.1667,171.5 72.5,171.5C 53.2074,168.354 36.874,159.688 23.5,145.5 Z"/></g>
<g><path style="opacity:1" fill="#733e0c" d="M 41.5,151.5 C 55.7983,153.601 70.1316,153.935 84.5,152.5C 84.0825,153.222 83.4158,153.722 82.5,154C 71.5,154.667 60.5,154.667 49.5,154C 46.6209,153.454 43.9542,152.621 41.5,151.5 Z"/></g>
</svg>
