<?xml version="1.0" encoding="UTF-8"?>
<!DOCTYPE svg PUBLIC "-//W3C//DTD SVG 1.1//EN" "http://www.w3.org/Graphics/SVG/1.1/DTD/svg11.dtd">
<svg xmlns="http://www.w3.org/2000/svg" version="1.1" width="219px" height="219px" style="shape-rendering:geometricPrecision; text-rendering:geometricPrecision; image-rendering:optimizeQuality; fill-rule:evenodd; clip-rule:evenodd" xmlns:xlink="http://www.w3.org/1999/xlink">
<g><path style="opacity:1" fill="#b5a08f" d="M 94.5,-0.5 C 100.167,-0.5 105.833,-0.5 111.5,-0.5C 111.5,2.16667 111.5,4.83333 111.5,7.5C 119.174,7.33365 126.841,7.50031 134.5,8C 136.457,9.74558 137.457,11.9122 137.5,14.5C 133.691,12.5959 129.691,11.2626 125.5,10.5C 122.493,10.2544 119.993,11.2544 118,13.5C 115.914,13.0806 114.414,11.9139 113.5,10C 111.608,9.02655 109.608,8.35989 107.5,8C 106.695,6.02826 105.361,4.52826 103.5,3.5C 96.1142,2.29838 88.7808,2.63171 81.5,4.5C 80.1667,5.83333 78.8333,7.16667 77.5,8.5C 76.6915,12.262 75.3582,15.762 73.5,19C 71.246,19.6237 69.5794,20.957 68.5,23C 65.348,23.3949 62.348,24.2282 59.5,25.5C 59.8565,24.1301 60.6898,23.1301 62,22.5C 66.7556,21.6363 70.4223,19.3029 73,15.5C 73.4983,12.1832 73.665,8.8499 73.5,5.5C 80.2873,2.74283 87.2873,0.742828 94.5,-0.5 Z"/></g>
<g><path style="opacity:0.967" fill="#a79c91" d="M 111.5,-0.5 C 115.5,-0.5 119.5,-0.5 123.5,-0.5C 143.217,2.52689 160.883,10.1936 176.5,22.5C 175.883,22.6107 175.383,22.944 175,23.5C 171.251,22.2596 167.585,20.9262 164,19.5C 160.686,21.4055 159.186,20.0721 159.5,15.5C 153.5,15.5 147.5,15.5 141.5,15.5C 139.901,15.7678 138.568,15.4345 137.5,14.5C 137.457,11.9122 136.457,9.74558 134.5,8C 126.841,7.50031 119.174,7.33365 111.5,7.5C 111.5,4.83333 111.5,2.16667 111.5,-0.5 Z"/></g>
<g><path style="opacity:1" fill="#a76e5a" d="M 103.5,17.5 C 104.806,18.4674 105.473,19.8007 105.5,21.5C 107.483,21.1568 108.817,21.8235 109.5,23.5C 105.248,26.5583 105.582,27.5583 110.5,26.5C 112.357,27.7537 114.357,27.7537 116.5,26.5C 117.386,27.325 117.719,28.325 117.5,29.5C 112.559,28.9715 108.892,30.8049 106.5,35C 106.755,36.3261 107.422,37.3261 108.5,38C 107.473,38.5133 106.473,39.0133 105.5,39.5C 105.813,36.7531 105.48,34.0865 104.5,31.5C 102.568,29.5832 100.901,27.5832 99.5,25.5C 98.4537,23.1183 98.4537,20.7849 99.5,18.5C 100.708,17.7659 102.041,17.4326 103.5,17.5 Z"/></g>
<g><path style="opacity:1" fill="#cd8d72" d="M 155.5,31.5 C 152.92,32.1328 150.253,32.4662 147.5,32.5C 144.036,30.6827 140.702,28.6827 137.5,26.5C 136.479,27.0016 136.312,27.6683 137,28.5C 140.195,29.8514 142.028,32.1847 142.5,35.5C 134.09,35.6552 129.423,31.6552 128.5,23.5C 126.048,23.3764 124.048,22.3764 122.5,20.5C 117.976,20.9345 113.643,21.9345 109.5,23.5C 108.817,21.8235 107.483,21.1568 105.5,21.5C 105.473,19.8007 104.806,18.4674 103.5,17.5C 107.658,19.2289 111.991,19.7289 116.5,19C 119.226,16.9702 122.226,15.4702 125.5,14.5C 127.956,14.7527 129.956,15.7527 131.5,17.5C 134.447,18.3214 137.447,18.8214 140.5,19C 142.759,22.9549 146.092,25.1215 150.5,25.5C 150.837,28.5256 152.504,30.5256 155.5,31.5 Z"/></g>
<g><path style="opacity:0.994" fill="#a39a8f" d="M 73.5,5.5 C 73.665,8.8499 73.4983,12.1832 73,15.5C 70.4223,19.3029 66.7556,21.6363 62,22.5C 60.6898,23.1301 59.8565,24.1301 59.5,25.5C 57.3862,26.784 56.3862,28.784 56.5,31.5C 54.3364,31.7215 52.6697,32.7215 51.5,34.5C 44.3798,37.0948 41.0465,42.0948 41.5,49.5C 41,51.5 40.5,53.5 40,55.5C 38.5707,55.5302 37.0707,55.1969 35.5,54.5C 35.3829,50.7507 34.7162,47.084 33.5,43.5C 34.8112,39.5932 35.4778,35.5932 35.5,31.5C 34.1667,31.5 32.8333,31.5 31.5,31.5C 43.1778,19.1701 57.1778,10.5034 73.5,5.5 Z"/></g>
<g><path style="opacity:1" fill="#ecbea6" d="M 137.5,14.5 C 138.568,15.4345 139.901,15.7678 141.5,15.5C 144.112,17.1454 146.779,18.8121 149.5,20.5C 152.626,24.4703 155.959,28.137 159.5,31.5C 158.167,31.5 156.833,31.5 155.5,31.5C 152.504,30.5256 150.837,28.5256 150.5,25.5C 146.092,25.1215 142.759,22.9549 140.5,19C 137.447,18.8214 134.447,18.3214 131.5,17.5C 129.956,15.7527 127.956,14.7527 125.5,14.5C 122.226,15.4702 119.226,16.9702 116.5,19C 111.991,19.7289 107.658,19.2289 103.5,17.5C 102.041,17.4326 100.708,17.7659 99.5,18.5C 97.1445,19.5751 94.8111,19.5751 92.5,18.5C 92.6667,18.1667 92.8333,17.8333 93,17.5C 97.0854,16.0092 101.252,14.6759 105.5,13.5C 102.942,11.8799 102.942,10.3799 105.5,9C 103.283,6.93716 100.617,5.77049 97.5,5.5C 93.6619,7.03441 89.6619,7.86775 85.5,8C 84.7798,10.4908 84.1131,12.9908 83.5,15.5C 79.7483,16.0687 76.915,18.0687 75,21.5C 74.3486,23.235 74.5153,24.9017 75.5,26.5C 71.3587,26.9694 67.3587,27.3027 63.5,27.5C 62.5,27.5 61.5,27.5 60.5,27.5C 60.8956,32.4838 58.5623,35.1505 53.5,35.5C 53.5,36.8333 53.5,38.1667 53.5,39.5C 52.6236,39.3691 51.9569,39.7025 51.5,40.5C 52.5582,43.7962 51.2249,45.4628 47.5,45.5C 46.8671,40.9823 48.2005,37.3156 51.5,34.5C 52.6697,32.7215 54.3364,31.7215 56.5,31.5C 56.3862,28.784 57.3862,26.784 59.5,25.5C 62.348,24.2282 65.348,23.3949 68.5,23C 69.5794,20.957 71.246,19.6237 73.5,19C 75.3582,15.762 76.6915,12.262 77.5,8.5C 78.8333,7.16667 80.1667,5.83333 81.5,4.5C 88.7808,2.63171 96.1142,2.29838 103.5,3.5C 105.361,4.52826 106.695,6.02826 107.5,8C 109.608,8.35989 111.608,9.02655 113.5,10C 114.414,11.9139 115.914,13.0806 118,13.5C 119.993,11.2544 122.493,10.2544 125.5,10.5C 129.691,11.2626 133.691,12.5959 137.5,14.5 Z"/></g>
<g><path style="opacity:1" fill="#edb395" d="M 99.5,18.5 C 98.4537,20.7849 98.4537,23.1183 99.5,25.5C 99.1667,25.5 98.8333,25.5 98.5,25.5C 95.9009,25.5494 93.7342,26.5494 92,28.5C 92.6873,25.9486 93.854,23.4486 95.5,21C 92.1423,22.2197 89.1423,21.553 86.5,19C 92.718,18.5704 93.0513,17.0704 87.5,14.5C 86.4163,14.685 85.4163,15.0183 84.5,15.5C 84.1667,15.5 83.8333,15.5 83.5,15.5C 84.1131,12.9908 84.7798,10.4908 85.5,8C 89.6619,7.86775 93.6619,7.03441 97.5,5.5C 100.617,5.77049 103.283,6.93716 105.5,9C 102.942,10.3799 102.942,11.8799 105.5,13.5C 101.252,14.6759 97.0854,16.0092 93,17.5C 92.8333,17.8333 92.6667,18.1667 92.5,18.5C 94.8111,19.5751 97.1445,19.5751 99.5,18.5 Z"/></g>
<g><path style="opacity:1" fill="#c08b76" d="M 98.5,25.5 C 98.5,26.5 98.5,27.5 98.5,28.5C 95.2613,28.4129 92.2613,29.0795 89.5,30.5C 89.0807,27.6755 90.0807,25.5088 92.5,24C 90.1316,23.1436 87.7983,22.3103 85.5,21.5C 84.6449,24.6884 84.3116,27.6884 84.5,30.5C 82.8828,31.038 81.2161,31.3713 79.5,31.5C 78.8611,33.7604 77.6945,35.7604 76,37.5C 75.3645,36.0337 74.5312,34.7003 73.5,33.5C 74.8532,32.4763 75.5198,31.143 75.5,29.5C 72.7743,29.2639 70.441,30.0972 68.5,32C 69.448,32.4828 70.448,32.6495 71.5,32.5C 71.189,36.1702 69.5223,39.1702 66.5,41.5C 65.8182,40.7573 65.1515,40.0906 64.5,39.5C 65.287,37.8958 66.6203,37.2291 68.5,37.5C 68.5198,35.857 67.8532,34.5237 66.5,33.5C 68.3704,29.2903 71.7037,27.2903 76.5,27.5C 78.1091,24.1064 80.7757,22.7731 84.5,23.5C 84.5,20.8333 84.5,18.1667 84.5,15.5C 85.4163,15.0183 86.4163,14.685 87.5,14.5C 93.0513,17.0704 92.718,18.5704 86.5,19C 89.1423,21.553 92.1423,22.2197 95.5,21C 93.854,23.4486 92.6873,25.9486 92,28.5C 93.7342,26.5494 95.9009,25.5494 98.5,25.5 Z"/></g>
<g><path style="opacity:1" fill="#ad9982" d="M 141.5,15.5 C 147.5,15.5 153.5,15.5 159.5,15.5C 159.186,20.0721 160.686,21.4055 164,19.5C 167.585,20.9262 171.251,22.2596 175,23.5C 175.383,22.944 175.883,22.6107 176.5,22.5C 185.874,29.5405 193.874,37.8738 200.5,47.5C 194.833,47.5 189.167,47.5 183.5,47.5C 180.843,47.838 178.51,47.1713 176.5,45.5C 175.513,48.7683 175.18,52.1016 175.5,55.5C 173.907,54.6521 172.74,53.3187 172,51.5C 171.161,47.1366 169.661,43.1366 167.5,39.5C 166.325,39.719 165.325,39.3857 164.5,38.5C 163.534,35.5314 161.867,33.198 159.5,31.5C 155.959,28.137 152.626,24.4703 149.5,20.5C 146.779,18.8121 144.112,17.1454 141.5,15.5 Z"/></g>
<g><path style="opacity:1" fill="#c8907b" d="M 63.5,27.5 C 66.684,27.3322 67.184,28.6655 65,31.5C 61.5444,34.802 57.711,37.4687 53.5,39.5C 53.5,38.1667 53.5,36.8333 53.5,35.5C 58.5623,35.1505 60.8956,32.4838 60.5,27.5C 61.5,27.5 62.5,27.5 63.5,27.5 Z"/></g>
<g><path style="opacity:1" fill="#f1b497" d="M 155.5,31.5 C 156.833,31.5 158.167,31.5 159.5,31.5C 161.867,33.198 163.534,35.5314 164.5,38.5C 165.325,39.3857 166.325,39.719 167.5,39.5C 169.661,43.1366 171.161,47.1366 172,51.5C 172.74,53.3187 173.907,54.6521 175.5,55.5C 176.084,60.2961 175.751,65.1294 174.5,70C 174.424,72.7561 175.757,73.9228 178.5,73.5C 178.5,74.8333 178.5,76.1667 178.5,77.5C 182.001,79.4605 185.668,81.2938 189.5,83C 191.037,84.1096 191.703,85.6096 191.5,87.5C 188.14,87.3841 184.807,87.0508 181.5,86.5C 178.544,85.8629 175.544,85.3629 172.5,85C 171.594,83.3005 171.261,81.4672 171.5,79.5C 169.259,79.0461 167.259,79.0461 165.5,79.5C 162.315,79.0196 159.481,79.6863 157,81.5C 156.25,80.8742 155.416,80.3742 154.5,80C 155.458,78.8525 155.125,77.8525 153.5,77C 151.618,76.8019 149.952,76.3019 148.5,75.5C 148.229,73.5695 147.229,72.2362 145.5,71.5C 147.401,71.5668 149.234,71.2335 151,70.5C 151.667,71.1667 152.333,71.8333 153,72.5C 154.225,72.1377 155.391,71.6377 156.5,71C 155.584,70.7216 154.918,70.2216 154.5,69.5C 155.552,69.6495 156.552,69.4828 157.5,69C 153.255,65.7327 153.755,64.8994 159,66.5C 163.314,64.9061 162.814,64.2394 157.5,64.5C 157.5,63.1667 157.5,61.8333 157.5,60.5C 155.62,60.7709 154.287,60.1042 153.5,58.5C 153.33,57.1779 153.663,56.0113 154.5,55C 151.842,51.3425 148.842,48.0092 145.5,45C 141.503,44.498 137.836,43.1647 134.5,41C 135.167,40 135.833,39 136.5,38C 132.992,36.4999 129.492,34.9999 126,33.5C 125.235,33.5699 124.735,33.9033 124.5,34.5C 123.5,34.5 122.5,34.5 121.5,34.5C 116.347,31.2734 116.513,30.2734 122,31.5C 123.662,31.6125 124.829,30.9458 125.5,29.5C 121.156,25.5312 116.156,24.5312 110.5,26.5C 105.582,27.5583 105.248,26.5583 109.5,23.5C 113.643,21.9345 117.976,20.9345 122.5,20.5C 124.048,22.3764 126.048,23.3764 128.5,23.5C 129.423,31.6552 134.09,35.6552 142.5,35.5C 142.028,32.1847 140.195,29.8514 137,28.5C 136.312,27.6683 136.479,27.0016 137.5,26.5C 140.702,28.6827 144.036,30.6827 147.5,32.5C 150.253,32.4662 152.92,32.1328 155.5,31.5 Z"/></g>
<g><path style="opacity:1" fill="#996957" d="M 84.5,30.5 C 86.5483,36.2441 85.215,41.0774 80.5,45C 80.6448,45.772 80.9781,46.4387 81.5,47C 79.6583,48.3455 78.6583,50.1789 78.5,52.5C 76.5165,52.3832 74.8498,53.0499 73.5,54.5C 73.1667,54.1667 72.8333,53.8333 72.5,53.5C 73.2974,51.8685 74.2974,50.3685 75.5,49C 75.1667,48 74.8333,47 74.5,46C 76.2084,43.4461 78.5417,41.9461 81.5,41.5C 81.5,40.5 81.5,39.5 81.5,38.5C 79.0987,39.0488 76.7654,39.8822 74.5,41C 72.3517,43.0749 72.0183,45.4082 73.5,48C 72.9056,48.4643 72.2389,48.631 71.5,48.5C 71.3404,46.847 70.6737,45.5137 69.5,44.5C 69.6309,43.6236 69.2975,42.9569 68.5,42.5C 63.7825,45.9484 62.4492,44.9484 64.5,39.5C 65.1515,40.0906 65.8182,40.7573 66.5,41.5C 69.5223,39.1702 71.189,36.1702 71.5,32.5C 70.448,32.6495 69.448,32.4828 68.5,32C 70.441,30.0972 72.7743,29.2639 75.5,29.5C 75.5198,31.143 74.8532,32.4763 73.5,33.5C 74.5312,34.7003 75.3645,36.0337 76,37.5C 77.6945,35.7604 78.8611,33.7604 79.5,31.5C 81.2161,31.3713 82.8828,31.038 84.5,30.5 Z"/></g>
<g><path style="opacity:0.977" fill="#a0968c" d="M 31.5,31.5 C 32.8333,31.5 34.1667,31.5 35.5,31.5C 35.4778,35.5932 34.8112,39.5932 33.5,43.5C 34.7162,47.084 35.3829,50.7507 35.5,54.5C 34.8485,53.9094 34.1818,53.2427 33.5,52.5C 32.914,52.7093 32.414,53.0426 32,53.5C 31.5017,56.8168 31.335,60.1501 31.5,63.5C 26.1667,63.5 20.8333,63.5 15.5,63.5C 15.5,74.1667 15.5,84.8333 15.5,95.5C 17.5,95.5 19.5,95.5 21.5,95.5C 21.3915,97.5138 22.0582,99.1805 23.5,100.5C 20.8199,106.887 18.1532,113.22 15.5,119.5C 15.5,116.833 15.5,114.167 15.5,111.5C 10.1667,111.5 4.83333,111.5 -0.5,111.5C -0.5,105.833 -0.5,100.167 -0.5,94.5C 3.00863,69.8155 13.6753,48.8155 31.5,31.5 Z"/></g>
<g><path style="opacity:1" fill="#dea791" d="M 83.5,15.5 C 83.8333,15.5 84.1667,15.5 84.5,15.5C 84.5,18.1667 84.5,20.8333 84.5,23.5C 80.7757,22.7731 78.1091,24.1064 76.5,27.5C 71.7037,27.2903 68.3704,29.2903 66.5,33.5C 67.8532,34.5237 68.5198,35.857 68.5,37.5C 66.6203,37.2291 65.287,37.8958 64.5,39.5C 62.4492,44.9484 63.7825,45.9484 68.5,42.5C 69.2975,42.9569 69.6309,43.6236 69.5,44.5C 66.5468,45.7872 64.2135,47.7872 62.5,50.5C 58.3221,52.001 54.9887,54.6677 52.5,58.5C 53.5,59.1667 54.5,59.8333 55.5,60.5C 51.8664,62.4575 49.8664,65.4575 49.5,69.5C 47.9724,68.1979 46.9724,66.5313 46.5,64.5C 46.0557,62.8868 45.0557,61.7202 43.5,61C 44.1909,58.0198 45.1909,55.1865 46.5,52.5C 47.4682,50.3926 47.8016,48.0593 47.5,45.5C 51.2249,45.4628 52.5582,43.7962 51.5,40.5C 51.9569,39.7025 52.6236,39.3691 53.5,39.5C 57.711,37.4687 61.5444,34.802 65,31.5C 67.184,28.6655 66.684,27.3322 63.5,27.5C 67.3587,27.3027 71.3587,26.9694 75.5,26.5C 74.5153,24.9017 74.3486,23.235 75,21.5C 76.915,18.0687 79.7483,16.0687 83.5,15.5 Z"/></g>
<g><path style="opacity:1" fill="#a26755" d="M 121.5,34.5 C 122.5,34.5 123.5,34.5 124.5,34.5C 125.097,34.7352 125.43,35.2352 125.5,36C 124.172,38.1665 122.506,39.9999 120.5,41.5C 127.691,42.5479 128.358,45.2146 122.5,49.5C 125.428,50.4841 128.428,50.8174 131.5,50.5C 131.167,51.1667 130.833,51.8333 130.5,52.5C 127.518,52.1044 124.851,52.7711 122.5,54.5C 122.5,56.5 122.5,58.5 122.5,60.5C 121.12,58.3345 119.453,58.0012 117.5,59.5C 115.903,56.559 116.237,53.8923 118.5,51.5C 117.68,49.8888 116.346,49.2222 114.5,49.5C 115.619,47.5161 115.286,45.6828 113.5,44C 114.833,42 114.833,40 113.5,38C 113.854,35.7356 114.854,33.9022 116.5,32.5C 117.85,33.9501 119.516,34.6168 121.5,34.5 Z"/></g>
<g><path style="opacity:0.993" fill="#a99279" d="M 183.5,47.5 C 189.167,47.5 194.833,47.5 200.5,47.5C 209.669,62.014 215.669,77.6806 218.5,94.5C 218.5,104.167 218.5,113.833 218.5,123.5C 217.732,125.715 217.065,128.048 216.5,130.5C 214.396,130.799 212.396,130.466 210.5,129.5C 211.167,128.833 211.833,128.167 212.5,127.5C 212,127.167 211.5,126.833 211,126.5C 209.56,127.148 208.06,127.481 206.5,127.5C 207.234,126.292 207.567,124.959 207.5,123.5C 207.83,117.132 207.496,110.798 206.5,104.5C 203.833,102.5 202.5,99.8333 202.5,96.5C 201.5,96.5 200.5,96.5 199.5,96.5C 198.833,94.5 198.167,92.5 197.5,90.5C 196.5,90.5 195.5,90.5 194.5,90.5C 194.124,86.091 192.457,82.4243 189.5,79.5C 190.141,78.5178 190.807,77.5178 191.5,76.5C 194.497,75.7518 197.497,75.0851 200.5,74.5C 201.386,73.675 201.719,72.675 201.5,71.5C 199.167,71.5 196.833,71.5 194.5,71.5C 194.5,68.8333 194.5,66.1667 194.5,63.5C 196.924,63.8076 199.257,63.4742 201.5,62.5C 198.538,60.3454 195.538,58.1788 192.5,56C 195.028,55.3311 195.028,54.4978 192.5,53.5C 191.669,59.8072 191.169,66.1406 191,72.5C 188.915,70.8308 187.749,68.6641 187.5,66C 188.419,62.9029 188.753,59.9029 188.5,57C 186.569,54.6956 184.236,52.8622 181.5,51.5C 182.853,50.4763 183.52,49.143 183.5,47.5 Z"/></g>
<g><path style="opacity:1" fill="#ae7665" d="M 105.5,39.5 C 104.2,40.601 103.7,41.9343 104,43.5C 106.239,42.1308 108.073,42.6308 109.5,45C 104.796,45.8023 103.796,47.9689 106.5,51.5C 106.132,53.1753 105.132,54.1753 103.5,54.5C 102.962,52.8828 102.629,51.2161 102.5,49.5C 101.5,49.5 100.5,49.5 99.5,49.5C 100.159,46.5448 100.492,43.5448 100.5,40.5C 102.216,40.3713 103.883,40.038 105.5,39.5 Z"/></g>
<g><path style="opacity:1" fill="#e4a48a" d="M 124.5,34.5 C 124.735,33.9033 125.235,33.5699 126,33.5C 129.492,34.9999 132.992,36.4999 136.5,38C 135.833,39 135.167,40 134.5,41C 137.836,43.1647 141.503,44.498 145.5,45C 148.842,48.0092 151.842,51.3425 154.5,55C 153.663,56.0113 153.33,57.1779 153.5,58.5C 152.065,57.2102 151.065,55.5435 150.5,53.5C 150.431,55.2781 150.097,57.1114 149.5,59C 143.497,60.6687 138.831,59.002 135.5,54C 137.669,53.5706 139.669,54.0706 141.5,55.5C 142.672,55.0814 143.672,54.4147 144.5,53.5C 141.582,52.1302 138.582,51.1302 135.5,50.5C 134.295,49.3143 132.961,49.3143 131.5,50.5C 128.428,50.8174 125.428,50.4841 122.5,49.5C 128.358,45.2146 127.691,42.5479 120.5,41.5C 122.506,39.9999 124.172,38.1665 125.5,36C 125.43,35.2352 125.097,34.7352 124.5,34.5 Z"/></g>
<g><path style="opacity:1" fill="#d89a7c" d="M 142.5,36.5 C 144.764,37.2186 147.097,37.552 149.5,37.5C 149.33,38.8221 149.663,39.9887 150.5,41C 152.436,41.813 154.436,42.313 156.5,42.5C 156.5,43.8333 156.5,45.1667 156.5,46.5C 159.458,46.9461 161.792,48.4461 163.5,51C 164.615,54.0097 166.281,56.6763 168.5,59C 167.167,59.6667 165.833,59.6667 164.5,59C 160.133,50.2593 153.467,44.2593 144.5,41C 143.418,39.6703 142.751,38.1703 142.5,36.5 Z"/></g>
<g><path style="opacity:1" fill="#a89686" d="M 51.5,34.5 C 48.2005,37.3156 46.8671,40.9823 47.5,45.5C 47.8016,48.0593 47.4682,50.3926 46.5,52.5C 45.5041,52.4142 44.6708,52.7476 44,53.5C 43.321,56.5499 42.4877,59.5499 41.5,62.5C 40.3112,63.4287 38.9778,63.762 37.5,63.5C 36.5329,75.537 35.1996,87.537 33.5,99.5C 29.2162,102.445 26.5495,106.445 25.5,111.5C 24.1667,111.5 22.8333,111.5 21.5,111.5C 21.2011,113.604 21.5344,115.604 22.5,117.5C 23.4168,116.873 24.4168,116.539 25.5,116.5C 24.3778,117.947 22.8778,118.947 21,119.5C 20.2716,122.23 20.4383,124.897 21.5,127.5C 19.0715,130.195 19.0715,132.861 21.5,135.5C 20.9441,140.695 21.9441,145.528 24.5,150C 24.0426,150.414 23.7093,150.914 23.5,151.5C 26.0865,152.48 28.7531,152.813 31.5,152.5C 31.5,153.5 31.5,154.5 31.5,155.5C 28.8333,155.5 26.1667,155.5 23.5,155.5C 23.6309,154.624 23.2975,153.957 22.5,153.5C 20.5,152.833 18.5,152.167 16.5,151.5C 15.52,148.914 15.1866,146.247 15.5,143.5C 13.5,143.5 11.5,143.5 9.5,143.5C 9.92701,140.212 9.26034,137.212 7.5,134.5C 9.81967,133.023 11.153,131.19 11.5,129C 10.8333,128.667 10.1667,128.333 9.5,128C 11.4727,127.505 13.4727,127.338 15.5,127.5C 15.5,124.833 15.5,122.167 15.5,119.5C 18.1532,113.22 20.8199,106.887 23.5,100.5C 26.6116,101.003 29.1116,99.6693 31,96.5C 30.9144,86.519 31.7477,76.6857 33.5,67C 33.1918,65.5405 32.5251,64.3739 31.5,63.5C 31.335,60.1501 31.5017,56.8168 32,53.5C 32.414,53.0426 32.914,52.7093 33.5,52.5C 34.1818,53.2427 34.8485,53.9094 35.5,54.5C 37.0707,55.1969 38.5707,55.5302 40,55.5C 40.5,53.5 41,51.5 41.5,49.5C 41.0465,42.0948 44.3798,37.0948 51.5,34.5 Z"/></g>
<g><path style="opacity:1" fill="#7e4a3b" d="M 98.5,25.5 C 98.8333,25.5 99.1667,25.5 99.5,25.5C 100.901,27.5832 102.568,29.5832 104.5,31.5C 105.48,34.0865 105.813,36.7531 105.5,39.5C 103.883,40.038 102.216,40.3713 100.5,40.5C 100.492,43.5448 100.159,46.5448 99.5,49.5C 100.5,49.5 101.5,49.5 102.5,49.5C 102.629,51.2161 102.962,52.8828 103.5,54.5C 101.883,53.962 100.216,53.6287 98.5,53.5C 98.366,55.2915 98.6993,56.9582 99.5,58.5C 97.4896,60.0231 97.1563,61.8564 98.5,64C 97.5838,64.3742 96.7504,64.8742 96,65.5C 96.4427,62.0081 96.2761,58.6748 95.5,55.5C 94.9033,55.2648 94.5699,54.7648 94.5,54C 95.8847,52.4029 96.5514,50.5695 96.5,48.5C 92.5809,47.0151 92.9143,46.0151 97.5,45.5C 97.9167,42.9208 97.25,40.7542 95.5,39C 98.7892,37.5897 100.456,35.0897 100.5,31.5C 95.5575,32.3837 91.2242,34.717 87.5,38.5C 88.0891,40.3733 87.4224,42.04 85.5,43.5C 85.0772,47.5112 83.4106,50.8446 80.5,53.5C 81.5884,54.9344 82.9217,55.9344 84.5,56.5C 83.4125,57.9998 82.0792,59.3331 80.5,60.5C 83.3381,61.5123 84.6714,63.5123 84.5,66.5C 83.5,66.5 82.5,66.5 81.5,66.5C 80.5655,67.5676 80.2322,68.901 80.5,70.5C 76.5564,70.1156 75.5564,68.1156 77.5,64.5C 78.0283,63.2794 78.695,62.1127 79.5,61C 76.8333,61 74.1667,61 71.5,61C 72.0443,57.6238 74.0443,55.7905 77.5,55.5C 78.3857,54.675 78.719,53.675 78.5,52.5C 78.6583,50.1789 79.6583,48.3455 81.5,47C 80.9781,46.4387 80.6448,45.772 80.5,45C 85.215,41.0774 86.5483,36.2441 84.5,30.5C 84.3116,27.6884 84.6449,24.6884 85.5,21.5C 87.7983,22.3103 90.1316,23.1436 92.5,24C 90.0807,25.5088 89.0807,27.6755 89.5,30.5C 92.2613,29.0795 95.2613,28.4129 98.5,28.5C 98.5,27.5 98.5,26.5 98.5,25.5 Z"/></g>
<g><path style="opacity:1" fill="#b18070" d="M 96.5,48.5 C 93.8333,48.1667 91.1667,47.8333 88.5,47.5C 88.5674,50.766 86.9008,52.266 83.5,52C 84.3802,53.3561 84.7135,54.8561 84.5,56.5C 82.9217,55.9344 81.5884,54.9344 80.5,53.5C 83.4106,50.8446 85.0772,47.5112 85.5,43.5C 87.4224,42.04 88.0891,40.3733 87.5,38.5C 91.2242,34.717 95.5575,32.3837 100.5,31.5C 100.456,35.0897 98.7892,37.5897 95.5,39C 97.25,40.7542 97.9167,42.9208 97.5,45.5C 92.9143,46.0151 92.5809,47.0151 96.5,48.5 Z"/></g>
<g><path style="opacity:1" fill="#854635" d="M 135.5,50.5 C 134.175,54.0394 134.842,57.206 137.5,60C 136.027,60.7096 135.36,61.8762 135.5,63.5C 134.5,63.5 133.5,63.5 132.5,63.5C 132.583,59.6648 131.917,55.9981 130.5,52.5C 130.833,51.8333 131.167,51.1667 131.5,50.5C 132.961,49.3143 134.295,49.3143 135.5,50.5 Z"/></g>
<g><path style="opacity:1" fill="#844731" d="M 114.5,49.5 C 116.346,49.2222 117.68,49.8888 118.5,51.5C 116.237,53.8923 115.903,56.559 117.5,59.5C 117.762,60.9778 117.429,62.3112 116.5,63.5C 115.914,63.2907 115.414,62.9574 115,62.5C 114.762,58.7778 114.262,55.1111 113.5,51.5C 113.863,50.8165 114.196,50.1499 114.5,49.5 Z"/></g>
<g><path style="opacity:1" fill="#d19b86" d="M 96.5,48.5 C 96.5514,50.5695 95.8847,52.4029 94.5,54C 94.5699,54.7648 94.9033,55.2648 95.5,55.5C 95.1336,57.905 94.4669,60.2383 93.5,62.5C 93.8008,64.4216 94.4675,66.0883 95.5,67.5C 95.3893,68.1174 95.056,68.6174 94.5,69C 90.0669,69.4181 85.7335,70.2514 81.5,71.5C 81.5,69.8333 81.5,68.1667 81.5,66.5C 82.5,66.5 83.5,66.5 84.5,66.5C 84.6714,63.5123 83.3381,61.5123 80.5,60.5C 82.0792,59.3331 83.4125,57.9998 84.5,56.5C 84.7135,54.8561 84.3802,53.3561 83.5,52C 86.9008,52.266 88.5674,50.766 88.5,47.5C 91.1667,47.8333 93.8333,48.1667 96.5,48.5 Z"/></g>
<g><path style="opacity:1" fill="#d59a83" d="M 121.5,34.5 C 119.516,34.6168 117.85,33.9501 116.5,32.5C 114.854,33.9022 113.854,35.7356 113.5,38C 114.833,40 114.833,42 113.5,44C 115.286,45.6828 115.619,47.5161 114.5,49.5C 114.196,50.1499 113.863,50.8165 113.5,51.5C 114.262,55.1111 114.762,58.7778 115,62.5C 115.414,62.9574 115.914,63.2907 116.5,63.5C 117.429,62.3112 117.762,60.9778 117.5,59.5C 119.453,58.0012 121.12,58.3345 122.5,60.5C 122.5,58.5 122.5,56.5 122.5,54.5C 124.851,52.7711 127.518,52.1044 130.5,52.5C 131.917,55.9981 132.583,59.6648 132.5,63.5C 132.5,63.8333 132.5,64.1667 132.5,64.5C 130.712,64.0295 128.878,63.6962 127,63.5C 120.233,65.0852 113.399,65.5852 106.5,65C 108.441,63.0972 110.774,62.2639 113.5,62.5C 113.5,61.5 113.5,60.5 113.5,59.5C 112.167,59.5 110.833,59.5 109.5,59.5C 107.8,59.3739 106.3,58.7073 105,57.5C 103.234,58.2335 101.401,58.5668 99.5,58.5C 98.6993,56.9582 98.366,55.2915 98.5,53.5C 100.216,53.6287 101.883,53.962 103.5,54.5C 105.132,54.1753 106.132,53.1753 106.5,51.5C 103.796,47.9689 104.796,45.8023 109.5,45C 108.073,42.6308 106.239,42.1308 104,43.5C 103.7,41.9343 104.2,40.601 105.5,39.5C 106.473,39.0133 107.473,38.5133 108.5,38C 107.422,37.3261 106.755,36.3261 106.5,35C 108.892,30.8049 112.559,28.9715 117.5,29.5C 117.719,28.325 117.386,27.325 116.5,26.5C 114.357,27.7537 112.357,27.7537 110.5,26.5C 116.156,24.5312 121.156,25.5312 125.5,29.5C 124.829,30.9458 123.662,31.6125 122,31.5C 116.513,30.2734 116.347,31.2734 121.5,34.5 Z"/></g>
<g><path style="opacity:1" fill="#ce9c89" d="M 78.5,52.5 C 78.719,53.675 78.3857,54.675 77.5,55.5C 74.0443,55.7905 72.0443,57.6238 71.5,61C 74.1667,61 76.8333,61 79.5,61C 78.695,62.1127 78.0283,63.2794 77.5,64.5C 72.6045,63.9139 69.4378,65.9139 68,70.5C 67.51,69.2068 67.3433,67.8734 67.5,66.5C 68.1408,65.5178 68.8075,64.5178 69.5,63.5C 68.9781,62.3926 68.6448,61.2259 68.5,60C 68.6652,55.6994 69.6652,51.8661 71.5,48.5C 72.2389,48.631 72.9056,48.4643 73.5,48C 72.0183,45.4082 72.3517,43.0749 74.5,41C 76.7654,39.8822 79.0987,39.0488 81.5,38.5C 81.5,39.5 81.5,40.5 81.5,41.5C 78.5417,41.9461 76.2084,43.4461 74.5,46C 74.8333,47 75.1667,48 75.5,49C 74.2974,50.3685 73.2974,51.8685 72.5,53.5C 72.8333,53.8333 73.1667,54.1667 73.5,54.5C 74.8498,53.0499 76.5165,52.3832 78.5,52.5 Z"/></g>
<g><path style="opacity:1" fill="#a76e5a" d="M 95.5,55.5 C 96.2761,58.6748 96.4427,62.0081 96,65.5C 96.7504,64.8742 97.5838,64.3742 98.5,64C 97.1563,61.8564 97.4896,60.0231 99.5,58.5C 101.401,58.5668 103.234,58.2335 105,57.5C 106.3,58.7073 107.8,59.3739 109.5,59.5C 105.807,63.6854 101.14,66.3521 95.5,67.5C 94.4675,66.0883 93.8008,64.4216 93.5,62.5C 94.4669,60.2383 95.1336,57.905 95.5,55.5 Z"/></g>
<g><path style="opacity:1" fill="#a58e73" d="M 183.5,47.5 C 183.52,49.143 182.853,50.4763 181.5,51.5C 184.236,52.8622 186.569,54.6956 188.5,57C 188.753,59.9029 188.419,62.9029 187.5,66C 187.749,68.6641 188.915,70.8308 191,72.5C 191.169,66.1406 191.669,59.8072 192.5,53.5C 195.028,54.4978 195.028,55.3311 192.5,56C 195.538,58.1788 198.538,60.3454 201.5,62.5C 199.257,63.4742 196.924,63.8076 194.5,63.5C 194.5,66.1667 194.5,68.8333 194.5,71.5C 196.833,71.5 199.167,71.5 201.5,71.5C 201.719,72.675 201.386,73.675 200.5,74.5C 197.497,75.0851 194.497,75.7518 191.5,76.5C 190.807,77.5178 190.141,78.5178 189.5,79.5C 188.325,79.719 187.325,79.3857 186.5,78.5C 181.965,74.1534 178.965,68.9867 177.5,63C 178.252,60.8463 178.419,58.6797 178,56.5C 177.329,55.7476 176.496,55.4142 175.5,55.5C 175.18,52.1016 175.513,48.7683 176.5,45.5C 178.51,47.1713 180.843,47.838 183.5,47.5 Z"/></g>
<g><path style="opacity:1" fill="#bf8067" d="M 135.5,50.5 C 138.582,51.1302 141.582,52.1302 144.5,53.5C 143.672,54.4147 142.672,55.0814 141.5,55.5C 139.669,54.0706 137.669,53.5706 135.5,54C 138.831,59.002 143.497,60.6687 149.5,59C 150.097,57.1114 150.431,55.2781 150.5,53.5C 151.065,55.5435 152.065,57.2102 153.5,58.5C 154.287,60.1042 155.62,60.7709 157.5,60.5C 157.5,61.8333 157.5,63.1667 157.5,64.5C 162.814,64.2394 163.314,64.9061 159,66.5C 153.755,64.8994 153.255,65.7327 157.5,69C 156.552,69.4828 155.552,69.6495 154.5,69.5C 152.113,67.9082 150.78,65.5749 150.5,62.5C 144.633,60.5869 142.466,62.5869 144,68.5C 140.55,67.6169 137.05,66.7836 133.5,66C 132.944,65.6174 132.611,65.1174 132.5,64.5C 132.5,64.1667 132.5,63.8333 132.5,63.5C 133.5,63.5 134.5,63.5 135.5,63.5C 135.36,61.8762 136.027,60.7096 137.5,60C 134.842,57.206 134.175,54.0394 135.5,50.5 Z"/></g>
<g><path style="opacity:1" fill="#d29881" d="M 145.5,71.5 C 147.229,72.2362 148.229,73.5695 148.5,75.5C 143.463,74.9167 138.463,73.9167 133.5,72.5C 130.899,73.4203 128.232,74.087 125.5,74.5C 118.913,72.7878 112.247,72.2878 105.5,73C 102.968,75.4146 99.9684,76.0813 96.5,75C 98.1667,73.8333 99.8333,72.6667 101.5,71.5C 101,71.1667 100.5,70.8333 100,70.5C 97.7438,72.0855 95.2438,72.7521 92.5,72.5C 92.5,73.5 92.5,74.5 92.5,75.5C 88.2292,76.8181 83.8958,77.9848 79.5,79C 78.6198,80.3561 78.2865,81.8561 78.5,83.5C 75.1501,83.335 71.8168,83.5017 68.5,84C 67.944,84.3826 67.6107,84.8826 67.5,85.5C 65.7839,85.6287 64.1172,85.962 62.5,86.5C 62.9443,84.8868 63.9443,83.7202 65.5,83C 69.1201,81.9424 72.7868,81.4424 76.5,81.5C 74.4904,80.9347 72.8237,79.9347 71.5,78.5C 73.7191,77.016 75.7191,75.3493 77.5,73.5C 80.5109,75.503 83.8442,76.503 87.5,76.5C 87.5,75.5 87.5,74.5 87.5,73.5C 91.6906,71.9162 96.0239,70.5829 100.5,69.5C 106.778,71.3514 113.111,71.6847 119.5,70.5C 120.853,69.4763 121.52,68.143 121.5,66.5C 135.709,66.9409 135.709,68.7742 121.5,72C 121.833,72.3333 122.167,72.6667 122.5,73C 130.105,71.5754 137.772,71.0754 145.5,71.5 Z"/></g>
<g><path style="opacity:1" fill="#b27d67" d="M 77.5,64.5 C 75.5564,68.1156 76.5564,70.1156 80.5,70.5C 80.2322,68.901 80.5655,67.5676 81.5,66.5C 81.5,68.1667 81.5,69.8333 81.5,71.5C 78.1501,71.335 74.8168,71.5017 71.5,72C 70.0267,72.7096 69.3601,73.8762 69.5,75.5C 68.5,75.5 67.5,75.5 66.5,75.5C 66.19,72.2869 66.5233,69.2869 67.5,66.5C 67.3433,67.8734 67.51,69.2068 68,70.5C 69.4378,65.9139 72.6045,63.9139 77.5,64.5 Z"/></g>
<g><path style="opacity:1" fill="#9e9686" d="M 31.5,63.5 C 32.5251,64.3739 33.1918,65.5405 33.5,67C 31.7477,76.6857 30.9144,86.519 31,96.5C 29.1116,99.6693 26.6116,101.003 23.5,100.5C 22.0582,99.1805 21.3915,97.5138 21.5,95.5C 19.5,95.5 17.5,95.5 15.5,95.5C 15.5,84.8333 15.5,74.1667 15.5,63.5C 20.8333,63.5 26.1667,63.5 31.5,63.5 Z"/></g>
<g><path style="opacity:1" fill="#855143" d="M 69.5,44.5 C 70.6737,45.5137 71.3404,46.847 71.5,48.5C 69.6652,51.8661 68.6652,55.6994 68.5,60C 68.6448,61.2259 68.9781,62.3926 69.5,63.5C 68.8075,64.5178 68.1408,65.5178 67.5,66.5C 66.5233,69.2869 66.19,72.2869 66.5,75.5C 65.4412,77.5554 63.7746,78.8888 61.5,79.5C 59.712,79.7852 58.0453,79.4519 56.5,78.5C 57.8333,76.8333 59.1667,75.1667 60.5,73.5C 58.9686,72.3869 57.9686,70.8869 57.5,69C 58.8857,65.7732 60.8857,62.9399 63.5,60.5C 64.6491,60.2089 65.3158,59.3756 65.5,58C 64.1347,55.6257 63.1347,53.1257 62.5,50.5C 64.2135,47.7872 66.5468,45.7872 69.5,44.5 Z"/></g>
<g><path style="opacity:1" fill="#c99183" d="M 63.5,60.5 C 60.8857,62.9399 58.8857,65.7732 57.5,69C 57.9686,70.8869 58.9686,72.3869 60.5,73.5C 59.1667,75.1667 57.8333,76.8333 56.5,78.5C 58.0453,79.4519 59.712,79.7852 61.5,79.5C 59.7354,80.4614 57.7354,80.7947 55.5,80.5C 54.4245,78.8427 53.7579,77.0093 53.5,75C 55,69.1674 56.5,63.3341 58,57.5C 58.6667,55.5 60,54.1667 62,53.5C 62.0442,55.7597 61.2108,57.7597 59.5,59.5C 59.6667,59.8333 59.8333,60.1667 60,60.5C 61.5545,58.0728 62.7211,58.0728 63.5,60.5 Z"/></g>
<g><path style="opacity:1" fill="#f1b99f" d="M 109.5,59.5 C 110.833,59.5 112.167,59.5 113.5,59.5C 113.5,60.5 113.5,61.5 113.5,62.5C 110.774,62.2639 108.441,63.0972 106.5,65C 113.399,65.5852 120.233,65.0852 127,63.5C 128.878,63.6962 130.712,64.0295 132.5,64.5C 132.611,65.1174 132.944,65.6174 133.5,66C 137.05,66.7836 140.55,67.6169 144,68.5C 142.466,62.5869 144.633,60.5869 150.5,62.5C 150.78,65.5749 152.113,67.9082 154.5,69.5C 154.918,70.2216 155.584,70.7216 156.5,71C 155.391,71.6377 154.225,72.1377 153,72.5C 152.333,71.8333 151.667,71.1667 151,70.5C 149.234,71.2335 147.401,71.5668 145.5,71.5C 137.772,71.0754 130.105,71.5754 122.5,73C 122.167,72.6667 121.833,72.3333 121.5,72C 135.709,68.7742 135.709,66.9409 121.5,66.5C 121.52,68.143 120.853,69.4763 119.5,70.5C 113.111,71.6847 106.778,71.3514 100.5,69.5C 96.0239,70.5829 91.6906,71.9162 87.5,73.5C 87.5,74.5 87.5,75.5 87.5,76.5C 83.8442,76.503 80.5109,75.503 77.5,73.5C 75.7191,75.3493 73.7191,77.016 71.5,78.5C 72.8237,79.9347 74.4904,80.9347 76.5,81.5C 72.7868,81.4424 69.1201,81.9424 65.5,83C 63.9443,83.7202 62.9443,84.8868 62.5,86.5C 61.3285,87.3446 59.9952,88.0113 58.5,88.5C 57.9569,88.44 57.6236,88.1067 57.5,87.5C 60.4621,84.6121 59.7954,83.2787 55.5,83.5C 55.5,82.5 55.5,81.5 55.5,80.5C 57.7354,80.7947 59.7354,80.4614 61.5,79.5C 63.7746,78.8888 65.4412,77.5554 66.5,75.5C 67.5,75.5 68.5,75.5 69.5,75.5C 69.3601,73.8762 70.0267,72.7096 71.5,72C 74.8168,71.5017 78.1501,71.335 81.5,71.5C 85.7335,70.2514 90.0669,69.4181 94.5,69C 95.056,68.6174 95.3893,68.1174 95.5,67.5C 101.14,66.3521 105.807,63.6854 109.5,59.5 Z"/></g>
<g><path style="opacity:1" fill="#b2806d" d="M 46.5,64.5 C 46.9724,66.5313 47.9724,68.1979 49.5,69.5C 47.8628,71.9233 47.3628,74.59 48,77.5C 49.1353,77.727 50.302,78.0604 51.5,78.5C 49.2178,80.6381 48.5511,82.9714 49.5,85.5C 49.0472,86.4584 48.3805,87.2917 47.5,88C 45.0796,88.2904 42.7463,88.7904 40.5,89.5C 39.9033,89.2648 39.5699,88.7648 39.5,88C 40.77,82.5722 41.6033,77.0722 42,71.5C 42.9042,68.7666 44.4042,66.4333 46.5,64.5 Z"/></g>
<g><path style="opacity:1" fill="#9b6455" d="M 62.5,50.5 C 63.1347,53.1257 64.1347,55.6257 65.5,58C 65.3158,59.3756 64.6491,60.2089 63.5,60.5C 62.7211,58.0728 61.5545,58.0728 60,60.5C 59.8333,60.1667 59.6667,59.8333 59.5,59.5C 61.2108,57.7597 62.0442,55.7597 62,53.5C 60,54.1667 58.6667,55.5 58,57.5C 56.5,63.3341 55,69.1674 53.5,75C 53.7579,77.0093 54.4245,78.8427 55.5,80.5C 53.5398,82.1563 51.5398,83.823 49.5,85.5C 48.5511,82.9714 49.2178,80.6381 51.5,78.5C 50.302,78.0604 49.1353,77.727 48,77.5C 47.3628,74.59 47.8628,71.9233 49.5,69.5C 49.8664,65.4575 51.8664,62.4575 55.5,60.5C 54.5,59.8333 53.5,59.1667 52.5,58.5C 54.9887,54.6677 58.3221,52.001 62.5,50.5 Z"/></g>
<g><path style="opacity:1" fill="#895649" d="M 148.5,75.5 C 149.952,76.3019 151.618,76.8019 153.5,77C 155.125,77.8525 155.458,78.8525 154.5,80C 155.416,80.3742 156.25,80.8742 157,81.5C 159.481,79.6863 162.315,79.0196 165.5,79.5C 165.369,80.3764 165.702,81.0431 166.5,81.5C 169.428,80.0791 170.762,81.0791 170.5,84.5C 169.5,84.5 168.5,84.5 167.5,84.5C 167.026,88.1569 165.693,88.3236 163.5,85C 160.177,84.068 157.177,84.568 154.5,86.5C 154.026,82.8431 152.693,82.6764 150.5,86C 145.509,87.5032 140.509,87.6699 135.5,86.5C 134.833,86.5 134.167,86.5 133.5,86.5C 128.469,84.7814 128.469,83.1147 133.5,81.5C 134.681,79.802 134.681,78.1353 133.5,76.5C 130.09,78.4789 126.423,78.9789 122.5,78C 120.671,74.3942 118.338,73.8942 115.5,76.5C 113.028,75.0083 110.361,74.3416 107.5,74.5C 107.192,76.924 107.526,79.2573 108.5,81.5C 113.147,80.2209 117.814,80.2209 122.5,81.5C 123.167,82.1667 123.833,82.8333 124.5,83.5C 118.525,83.3977 112.525,83.731 106.5,84.5C 105.784,83.689 104.95,83.0223 104,82.5C 97.2862,87.1118 89.7862,89.1118 81.5,88.5C 81.5,88.1667 81.5,87.8333 81.5,87.5C 83.0481,87.1788 83.7148,86.1788 83.5,84.5C 87.4736,83.5206 91.4736,82.5206 95.5,81.5C 93.9368,79.5984 91.9368,78.5984 89.5,78.5C 86.1539,79.1705 82.8206,79.8372 79.5,80.5C 79.5,81.8333 79.5,83.1667 79.5,84.5C 75.5191,85.0209 71.5191,85.3542 67.5,85.5C 67.6107,84.8826 67.944,84.3826 68.5,84C 71.8168,83.5017 75.1501,83.335 78.5,83.5C 78.2865,81.8561 78.6198,80.3561 79.5,79C 83.8958,77.9848 88.2292,76.8181 92.5,75.5C 92.5,74.5 92.5,73.5 92.5,72.5C 95.2438,72.7521 97.7438,72.0855 100,70.5C 100.5,70.8333 101,71.1667 101.5,71.5C 99.8333,72.6667 98.1667,73.8333 96.5,75C 99.9684,76.0813 102.968,75.4146 105.5,73C 112.247,72.2878 118.913,72.7878 125.5,74.5C 128.232,74.087 130.899,73.4203 133.5,72.5C 138.463,73.9167 143.463,74.9167 148.5,75.5 Z"/></g>
<g><path style="opacity:1" fill="#c18f83" d="M 137.5,79.5 C 141.547,79.3316 144.88,80.6649 147.5,83.5C 146.833,83.8333 146.167,84.1667 145.5,84.5C 142.438,82.616 139.105,81.4494 135.5,81C 136.416,80.7216 137.082,80.2216 137.5,79.5 Z"/></g>
<g><path style="opacity:1" fill="#6a4035" d="M 133.5,86.5 C 130.203,86.3287 129.869,86.9954 132.5,88.5C 128.365,89.8738 124.365,89.5404 120.5,87.5C 118.075,88.8996 118.408,90.0662 121.5,91C 118.5,93.003 115.167,93.8364 111.5,93.5C 112.082,86.8765 110.416,86.0432 106.5,91C 102.26,93.3502 98.4268,92.8502 95,89.5C 90.1298,92.4371 84.9632,93.1038 79.5,91.5C 80.6119,90.7348 81.2786,89.7348 81.5,88.5C 89.7862,89.1118 97.2862,87.1118 104,82.5C 104.95,83.0223 105.784,83.689 106.5,84.5C 112.525,83.731 118.525,83.3977 124.5,83.5C 123.833,82.8333 123.167,82.1667 122.5,81.5C 117.814,80.2209 113.147,80.2209 108.5,81.5C 107.526,79.2573 107.192,76.924 107.5,74.5C 110.361,74.3416 113.028,75.0083 115.5,76.5C 118.338,73.8942 120.671,74.3942 122.5,78C 126.423,78.9789 130.09,78.4789 133.5,76.5C 134.681,78.1353 134.681,79.802 133.5,81.5C 128.469,83.1147 128.469,84.7814 133.5,86.5 Z"/></g>
<g><path style="opacity:1" fill="#75483d" d="M 81.5,87.5 C 78.7764,88.3898 76.443,89.8898 74.5,92C 76.2205,92.7393 77.8872,93.5726 79.5,94.5C 78.6721,95.4147 77.6721,96.0814 76.5,96.5C 75.0052,95.2947 73.6719,95.2947 72.5,96.5C 70.2537,95.7904 67.9204,95.2904 65.5,95C 67.4136,93.5867 68.7469,91.7534 69.5,89.5C 65.9222,88.4591 62.5888,89.1258 59.5,91.5C 62.0578,93.1201 62.0578,94.6201 59.5,96C 54.2747,96.7635 49.108,97.5968 44,98.5C 43.3877,100.237 44.0543,101.237 46,101.5C 49.3499,100.025 52.8499,99.3584 56.5,99.5C 57.0867,105.193 54.5867,108.526 49,109.5C 46.1204,106.687 44.6204,107.354 44.5,111.5C 43.1667,111.5 41.8333,111.5 40.5,111.5C 41.9595,117.326 39.9595,121.326 34.5,123.5C 37.8252,124.504 38.1586,125.838 35.5,127.5C 32.1667,127.5 28.8333,127.5 25.5,127.5C 25.4824,130.736 24.4824,133.403 22.5,135.5C 22.1667,135.5 21.8333,135.5 21.5,135.5C 19.0715,132.861 19.0715,130.195 21.5,127.5C 20.4383,124.897 20.2716,122.23 21,119.5C 22.8778,118.947 24.3778,117.947 25.5,116.5C 26.3414,114.188 27.3414,111.855 28.5,109.5C 31.1943,107.486 34.1943,105.986 37.5,105C 40.2966,100.374 43.6299,96.2071 47.5,92.5C 49.0453,91.5481 50.712,91.2148 52.5,91.5C 52.5,92.5 52.5,93.5 52.5,94.5C 56.653,94.7985 58.653,92.7985 58.5,88.5C 59.9952,88.0113 61.3285,87.3446 62.5,86.5C 64.1172,85.962 65.7839,85.6287 67.5,85.5C 71.5191,85.3542 75.5191,85.0209 79.5,84.5C 79.5,83.1667 79.5,81.8333 79.5,80.5C 82.8206,79.8372 86.1539,79.1705 89.5,78.5C 91.9368,78.5984 93.9368,79.5984 95.5,81.5C 91.4736,82.5206 87.4736,83.5206 83.5,84.5C 83.7148,86.1788 83.0481,87.1788 81.5,87.5 Z"/></g>
<g><path style="opacity:1" fill="#c4a08d" d="M 46.5,52.5 C 45.1909,55.1865 44.1909,58.0198 43.5,61C 45.0557,61.7202 46.0557,62.8868 46.5,64.5C 44.4042,66.4333 42.9042,68.7666 42,71.5C 41.6033,77.0722 40.77,82.5722 39.5,88C 39.5699,88.7648 39.9033,89.2648 40.5,89.5C 39.0553,92.1182 37.3887,94.6182 35.5,97C 36.4061,98.6995 36.7394,100.533 36.5,102.5C 33.4124,102.197 31.7458,103.53 31.5,106.5C 30.5,106.5 29.5,106.5 28.5,106.5C 28.5,107.5 28.5,108.5 28.5,109.5C 27.3414,111.855 26.3414,114.188 25.5,116.5C 24.4168,116.539 23.4168,116.873 22.5,117.5C 21.5344,115.604 21.2011,113.604 21.5,111.5C 22.8333,111.5 24.1667,111.5 25.5,111.5C 26.5495,106.445 29.2162,102.445 33.5,99.5C 35.1996,87.537 36.5329,75.537 37.5,63.5C 38.9778,63.762 40.3112,63.4287 41.5,62.5C 42.4877,59.5499 43.321,56.5499 44,53.5C 44.6708,52.7476 45.5041,52.4142 46.5,52.5 Z"/></g>
<g><path style="opacity:1" fill="#d8a591" d="M 55.5,80.5 C 55.5,81.5 55.5,82.5 55.5,83.5C 59.7954,83.2787 60.4621,84.6121 57.5,87.5C 57.6236,88.1067 57.9569,88.44 58.5,88.5C 58.653,92.7985 56.653,94.7985 52.5,94.5C 52.5,93.5 52.5,92.5 52.5,91.5C 50.712,91.2148 49.0453,91.5481 47.5,92.5C 43.6299,96.2071 40.2966,100.374 37.5,105C 34.1943,105.986 31.1943,107.486 28.5,109.5C 28.5,108.5 28.5,107.5 28.5,106.5C 29.5,106.5 30.5,106.5 31.5,106.5C 31.7458,103.53 33.4124,102.197 36.5,102.5C 36.7394,100.533 36.4061,98.6995 35.5,97C 37.3887,94.6182 39.0553,92.1182 40.5,89.5C 42.7463,88.7904 45.0796,88.2904 47.5,88C 48.3805,87.2917 49.0472,86.4584 49.5,85.5C 51.5398,83.823 53.5398,82.1563 55.5,80.5 Z"/></g>
<g><path style="opacity:1" fill="#ab7766" d="M 181.5,86.5 C 183.755,88.3803 186.422,89.3803 189.5,89.5C 189.5,91.1667 189.5,92.8333 189.5,94.5C 191.179,94.2852 192.179,94.9519 192.5,96.5C 190.173,96.7529 188.173,96.0863 186.5,94.5C 187.167,93.8333 187.833,93.1667 188.5,92.5C 185.411,91.7011 182.744,90.2011 180.5,88C 176.152,87.5845 171.819,87.7512 167.5,88.5C 167.715,90.1788 167.048,91.1788 165.5,91.5C 161.609,90.4982 157.609,89.6648 153.5,89C 152.833,88.6667 152.167,88.3333 151.5,88C 152.737,87.7679 153.737,87.2679 154.5,86.5C 157.177,84.568 160.177,84.068 163.5,85C 165.693,88.3236 167.026,88.1569 167.5,84.5C 168.5,84.5 169.5,84.5 170.5,84.5C 170.762,81.0791 169.428,80.0791 166.5,81.5C 165.702,81.0431 165.369,80.3764 165.5,79.5C 167.259,79.0461 169.259,79.0461 171.5,79.5C 171.261,81.4672 171.594,83.3005 172.5,85C 175.544,85.3629 178.544,85.8629 181.5,86.5 Z"/></g>
<g><path style="opacity:1" fill="#553128" d="M 133.5,86.5 C 134.167,86.5 134.833,86.5 135.5,86.5C 138.355,88.2501 141.689,89.0835 145.5,89C 146.966,92.535 149.633,94.3683 153.5,94.5C 155.223,97.0597 157.39,99.0597 160,100.5C 160.494,98.8659 160.66,97.1992 160.5,95.5C 161.5,95.5 162.5,95.5 163.5,95.5C 163.735,99.8035 166.069,101.47 170.5,100.5C 170.366,102.292 170.699,103.958 171.5,105.5C 165.262,104.642 159.262,102.976 153.5,100.5C 151.884,99.8848 150.551,98.8848 149.5,97.5C 150.376,96.7492 151.376,96.2492 152.5,96C 145.297,95.7818 138.13,95.2818 131,94.5C 129.274,93.3521 129.441,92.1855 131.5,91C 126.941,89.8917 122.941,90.725 119.5,93.5C 111.768,95.4938 103.768,96.6605 95.5,97C 90.9632,100.116 85.9632,102.283 80.5,103.5C 79.3128,104.519 78.3128,105.686 77.5,107C 74.2784,107.35 71.6117,108.684 69.5,111C 67.4024,111.678 65.4024,111.511 63.5,110.5C 63.5889,107.216 64.9222,104.716 67.5,103C 67.0426,102.586 66.7093,102.086 66.5,101.5C 68.6724,99.8281 70.6724,98.1614 72.5,96.5C 73.6719,95.2947 75.0052,95.2947 76.5,96.5C 77.6721,96.0814 78.6721,95.4147 79.5,94.5C 77.8872,93.5726 76.2205,92.7393 74.5,92C 76.443,89.8898 78.7764,88.3898 81.5,87.5C 81.5,87.8333 81.5,88.1667 81.5,88.5C 81.2786,89.7348 80.6119,90.7348 79.5,91.5C 84.9632,93.1038 90.1298,92.4371 95,89.5C 98.4268,92.8502 102.26,93.3502 106.5,91C 110.416,86.0432 112.082,86.8765 111.5,93.5C 115.167,93.8364 118.5,93.003 121.5,91C 118.408,90.0662 118.075,88.8996 120.5,87.5C 124.365,89.5404 128.365,89.8738 132.5,88.5C 129.869,86.9954 130.203,86.3287 133.5,86.5 Z"/></g>
<g><path style="opacity:1" fill="#381d0f" d="M 171.5,105.5 C 173.175,107.193 174.508,109.193 175.5,111.5C 176.205,109.328 177.205,107.328 178.5,105.5C 182.378,107.401 182.378,109.234 178.5,111C 181.374,114.353 183.041,118.187 183.5,122.5C 184.822,122.33 185.989,122.663 187,123.5C 187.495,125.473 187.662,127.473 187.5,129.5C 186.5,129.5 185.5,129.5 184.5,129.5C 184.672,128.508 184.338,127.842 183.5,127.5C 183.108,125.821 182.608,124.154 182,122.5C 180.513,121.845 179.347,120.845 178.5,119.5C 173.524,117.588 168.858,115.088 164.5,112C 162.866,111.506 161.199,111.34 159.5,111.5C 159.5,110.5 159.5,109.5 159.5,108.5C 153.012,106.627 146.679,104.293 140.5,101.5C 138.502,100.852 136.502,100.019 134.5,99C 131.179,98.7906 128.012,98.6239 125,98.5C 122.177,102.65 119.177,106.65 116,110.5C 115.1,108.602 113.934,106.936 112.5,105.5C 111.719,106.729 111.219,108.062 111,109.5C 109.128,106.418 106.795,103.751 104,101.5C 101.491,100.259 98.6581,100.259 95.5,101.5C 97.9255,99.634 100.759,98.634 104,98.5C 108.252,100.265 112.252,102.599 116,105.5C 117.417,100.633 120.25,96.9667 124.5,94.5C 122.955,93.5481 121.288,93.2148 119.5,93.5C 122.941,90.725 126.941,89.8917 131.5,91C 129.441,92.1855 129.274,93.3521 131,94.5C 138.13,95.2818 145.297,95.7818 152.5,96C 151.376,96.2492 150.376,96.7492 149.5,97.5C 150.551,98.8848 151.884,99.8848 153.5,100.5C 159.262,102.976 165.262,104.642 171.5,105.5 Z"/></g>
<g><path style="opacity:1" fill="#ca9f86" d="M 175.5,55.5 C 176.496,55.4142 177.329,55.7476 178,56.5C 178.419,58.6797 178.252,60.8463 177.5,63C 178.965,68.9867 181.965,74.1534 186.5,78.5C 187.325,79.3857 188.325,79.719 189.5,79.5C 192.457,82.4243 194.124,86.091 194.5,90.5C 195.5,90.5 196.5,90.5 197.5,90.5C 198.167,92.5 198.833,94.5 199.5,96.5C 200.5,96.5 201.5,96.5 202.5,96.5C 202.5,99.8333 203.833,102.5 206.5,104.5C 207.496,110.798 207.83,117.132 207.5,123.5C 206.609,122.739 205.942,121.739 205.5,120.5C 206.52,118.568 206.687,116.568 206,114.5C 204.178,111.691 202.011,109.191 199.5,107C 201.158,106.275 201.658,105.108 201,103.5C 198.293,100.902 195.46,98.5688 192.5,96.5C 192.179,94.9519 191.179,94.2852 189.5,94.5C 189.5,92.8333 189.5,91.1667 189.5,89.5C 186.422,89.3803 183.755,88.3803 181.5,86.5C 184.807,87.0508 188.14,87.3841 191.5,87.5C 191.703,85.6096 191.037,84.1096 189.5,83C 185.668,81.2938 182.001,79.4605 178.5,77.5C 178.5,76.1667 178.5,74.8333 178.5,73.5C 175.757,73.9228 174.424,72.7561 174.5,70C 175.751,65.1294 176.084,60.2961 175.5,55.5 Z"/></g>
<g><path style="opacity:1" fill="#41260e" d="M 140.5,101.5 C 135.777,101.84 131.11,102.507 126.5,103.5C 126.401,106.121 126.067,108.788 125.5,111.5C 124.833,110.833 124.167,110.167 123.5,109.5C 124.045,113.626 122.045,115.626 117.5,115.5C 117.5,116.833 117.5,118.167 117.5,119.5C 117.5,120.5 117.5,121.5 117.5,122.5C 116.167,122.5 114.833,122.5 113.5,122.5C 113.369,118.715 112.702,115.048 111.5,111.5C 108.618,111.392 106.285,110.226 104.5,108C 103.62,106.644 103.286,105.144 103.5,103.5C 100.794,103.425 98.1272,103.092 95.5,102.5C 94.5,102.5 93.5,102.5 92.5,102.5C 93.209,101.596 94.209,101.263 95.5,101.5C 98.6581,100.259 101.491,100.259 104,101.5C 106.795,103.751 109.128,106.418 111,109.5C 111.219,108.062 111.719,106.729 112.5,105.5C 113.934,106.936 115.1,108.602 116,110.5C 119.177,106.65 122.177,102.65 125,98.5C 128.012,98.6239 131.179,98.7906 134.5,99C 136.502,100.019 138.502,100.852 140.5,101.5 Z"/></g>
<g><path style="opacity:1" fill="#301308" d="M 119.5,93.5 C 121.288,93.2148 122.955,93.5481 124.5,94.5C 120.25,96.9667 117.417,100.633 116,105.5C 112.252,102.599 108.252,100.265 104,98.5C 100.759,98.634 97.9255,99.634 95.5,101.5C 94.209,101.263 93.209,101.596 92.5,102.5C 90.2359,104.681 87.5692,106.015 84.5,106.5C 80.7412,109.713 76.4078,111.879 71.5,113C 69.7006,115.791 67.3672,117.958 64.5,119.5C 63.6143,120.325 63.281,121.325 63.5,122.5C 62.448,122.351 61.448,122.517 60.5,123C 58.4736,124.594 56.4736,126.094 54.5,127.5C 54.1667,127.5 53.8333,127.5 53.5,127.5C 52.8333,127.5 52.1667,127.5 51.5,127.5C 52.2288,125.265 53.5621,123.431 55.5,122C 55.3552,121.228 55.0219,120.561 54.5,120C 57.3882,116.615 60.3882,113.448 63.5,110.5C 65.4024,111.511 67.4024,111.678 69.5,111C 71.6117,108.684 74.2784,107.35 77.5,107C 78.3128,105.686 79.3128,104.519 80.5,103.5C 85.9632,102.283 90.9632,100.116 95.5,97C 103.768,96.6605 111.768,95.4938 119.5,93.5 Z"/></g>
<g><path style="opacity:1" fill="#683e32" d="M 154.5,86.5 C 153.737,87.2679 152.737,87.7679 151.5,88C 152.167,88.3333 152.833,88.6667 153.5,89C 157.609,89.6648 161.609,90.4982 165.5,91.5C 166.708,92.782 168.042,92.782 169.5,91.5C 168.494,90.6043 168.494,89.9377 169.5,89.5C 174.131,90.6851 178.798,91.6851 183.5,92.5C 184.774,93.3594 184.608,94.0261 183,94.5C 180.901,93.7135 178.734,93.3801 176.5,93.5C 176.5,94.5 176.5,95.5 176.5,96.5C 177.5,96.5 178.5,96.5 179.5,96.5C 179.406,99.5406 180.906,101.207 184,101.5C 188.239,97.1948 191.072,98.0281 192.5,104C 189.808,104.43 187.141,104.263 184.5,103.5C 184.215,105.288 184.548,106.955 185.5,108.5C 187.599,106.48 189.933,106.146 192.5,107.5C 192.291,108.086 191.957,108.586 191.5,109C 192.77,109.9 193.77,111.066 194.5,112.5C 196.059,113.074 197.559,113.74 199,114.5C 199.333,113.5 199.667,112.5 200,111.5C 200.808,113.579 200.641,115.579 199.5,117.5C 197.724,115.553 195.724,115.22 193.5,116.5C 193.993,119.478 195.493,121.811 198,123.5C 197.983,127.475 197.816,131.475 197.5,135.5C 196.209,135.263 195.209,135.596 194.5,136.5C 190.303,136.806 188.303,134.806 188.5,130.5C 186.901,130.768 185.568,130.434 184.5,129.5C 185.5,129.5 186.5,129.5 187.5,129.5C 187.662,127.473 187.495,125.473 187,123.5C 185.989,122.663 184.822,122.33 183.5,122.5C 183.041,118.187 181.374,114.353 178.5,111C 182.378,109.234 182.378,107.401 178.5,105.5C 177.205,107.328 176.205,109.328 175.5,111.5C 174.508,109.193 173.175,107.193 171.5,105.5C 170.699,103.958 170.366,102.292 170.5,100.5C 166.069,101.47 163.735,99.8035 163.5,95.5C 162.5,95.5 161.5,95.5 160.5,95.5C 160.66,97.1992 160.494,98.8659 160,100.5C 157.39,99.0597 155.223,97.0597 153.5,94.5C 149.633,94.3683 146.966,92.535 145.5,89C 141.689,89.0835 138.355,88.2501 135.5,86.5C 140.509,87.6699 145.509,87.5032 150.5,86C 152.693,82.6764 154.026,82.8431 154.5,86.5 Z"/></g>
<g><path style="opacity:1" fill="#885a49" d="M 192.5,96.5 C 195.46,98.5688 198.293,100.902 201,103.5C 201.658,105.108 201.158,106.275 199.5,107C 202.011,109.191 204.178,111.691 206,114.5C 206.687,116.568 206.52,118.568 205.5,120.5C 205.942,121.739 206.609,122.739 207.5,123.5C 207.567,124.959 207.234,126.292 206.5,127.5C 204.857,127.48 203.524,128.147 202.5,129.5C 201.974,134.363 199.307,136.697 194.5,136.5C 195.209,135.596 196.209,135.263 197.5,135.5C 197.816,131.475 197.983,127.475 198,123.5C 195.493,121.811 193.993,119.478 193.5,116.5C 195.724,115.22 197.724,115.553 199.5,117.5C 200.641,115.579 200.808,113.579 200,111.5C 199.667,112.5 199.333,113.5 199,114.5C 197.559,113.74 196.059,113.074 194.5,112.5C 193.77,111.066 192.77,109.9 191.5,109C 191.957,108.586 192.291,108.086 192.5,107.5C 189.933,106.146 187.599,106.48 185.5,108.5C 184.548,106.955 184.215,105.288 184.5,103.5C 187.141,104.263 189.808,104.43 192.5,104C 191.072,98.0281 188.239,97.1948 184,101.5C 180.906,101.207 179.406,99.5406 179.5,96.5C 178.5,96.5 177.5,96.5 176.5,96.5C 176.5,95.5 176.5,94.5 176.5,93.5C 178.734,93.3801 180.901,93.7135 183,94.5C 184.608,94.0261 184.774,93.3594 183.5,92.5C 178.798,91.6851 174.131,90.6851 169.5,89.5C 168.494,89.9377 168.494,90.6043 169.5,91.5C 168.042,92.782 166.708,92.782 165.5,91.5C 167.048,91.1788 167.715,90.1788 167.5,88.5C 171.819,87.7512 176.152,87.5845 180.5,88C 182.744,90.2011 185.411,91.7011 188.5,92.5C 187.833,93.1667 187.167,93.8333 186.5,94.5C 188.173,96.0863 190.173,96.7529 192.5,96.5 Z"/></g>
<g><path style="opacity:0.971" fill="#9f9385" d="M -0.5,111.5 C 4.83333,111.5 10.1667,111.5 15.5,111.5C 15.5,114.167 15.5,116.833 15.5,119.5C 15.5,122.167 15.5,124.833 15.5,127.5C 13.4727,127.338 11.4727,127.505 9.5,128C 10.1667,128.333 10.8333,128.667 11.5,129C 11.153,131.19 9.81967,133.023 7.5,134.5C 9.26034,137.212 9.92701,140.212 9.5,143.5C 11.5,143.5 13.5,143.5 15.5,143.5C 15.1866,146.247 15.52,148.914 16.5,151.5C 18.5,152.167 20.5,152.833 22.5,153.5C 23.2975,153.957 23.6309,154.624 23.5,155.5C 20.8333,155.5 18.1667,155.5 15.5,155.5C 15.8128,159.042 15.4794,162.375 14.5,165.5C 7.09499,152.28 2.09499,138.28 -0.5,123.5C -0.5,119.5 -0.5,115.5 -0.5,111.5 Z"/></g>
<g><path style="opacity:1" fill="#5f482a" d="M 95.5,106.5 C 94.6016,107.158 93.6016,107.824 92.5,108.5C 92.6667,108.833 92.8333,109.167 93,109.5C 94.7633,109.306 96.5967,109.306 98.5,109.5C 100.642,112.428 102.642,115.428 104.5,118.5C 101.709,121.627 98.3758,123.96 94.5,125.5C 93.5832,124.873 92.5832,124.539 91.5,124.5C 91.2671,122.938 90.6005,121.605 89.5,120.5C 89.5,117.5 89.5,114.5 89.5,111.5C 88.325,111.719 87.325,111.386 86.5,110.5C 88.3791,106.227 91.3791,104.894 95.5,106.5 Z"/></g>
<g><path style="opacity:1" fill="#6c542e" d="M 137.5,127.5 C 136.167,127.5 134.833,127.5 133.5,127.5C 132.553,123.4 131.22,119.4 129.5,115.5C 130.021,113.076 130.688,110.743 131.5,108.5C 133.938,107.114 136.271,107.447 138.5,109.5C 139.386,108.675 139.719,107.675 139.5,106.5C 140.5,106.5 141.5,106.5 142.5,106.5C 142.199,110.619 144.199,112.619 148.5,112.5C 148.023,113.478 147.357,114.311 146.5,115C 149.701,114.227 153.035,113.727 156.5,113.5C 156.33,114.822 156.663,115.989 157.5,117C 162.435,116.416 164.102,118.249 162.5,122.5C 156.615,121.485 150.782,120.152 145,118.5C 143.234,119.233 141.401,119.567 139.5,119.5C 138.833,122.167 138.167,124.833 137.5,127.5 Z"/></g>
<g><path style="opacity:1" fill="#50351e" d="M 92.5,102.5 C 93.5,102.5 94.5,102.5 95.5,102.5C 95.5,103.833 95.5,105.167 95.5,106.5C 91.3791,104.894 88.3791,106.227 86.5,110.5C 87.325,111.386 88.325,111.719 89.5,111.5C 89.5,114.5 89.5,117.5 89.5,120.5C 88.7354,120.077 87.9021,119.743 87,119.5C 81.5889,121.101 76.0889,121.601 70.5,121C 69.9781,120.439 69.6448,119.772 69.5,119C 70.6699,117.413 71.6699,115.747 72.5,114C 74.7513,114.207 77.0846,114.373 79.5,114.5C 79.5,113.5 79.5,112.5 79.5,111.5C 81.1667,111.5 82.8333,111.5 84.5,111.5C 84.5,109.833 84.5,108.167 84.5,106.5C 87.5692,106.015 90.2359,104.681 92.5,102.5 Z"/></g>
<g><path style="opacity:1" fill="#563c1d" d="M 140.5,101.5 C 140.539,102.583 140.873,103.583 141.5,104.5C 144.062,105.641 146.728,106.474 149.5,107C 153.823,110.673 158.823,113.006 164.5,114C 165.071,115.205 165.738,116.372 166.5,117.5C 168.123,116.524 169.457,117.024 170.5,119C 169.289,120.113 169.289,121.28 170.5,122.5C 169.5,123.167 168.5,123.833 167.5,124.5C 164.649,124.8 161.983,124.8 159.5,124.5C 155.4,124.476 151.4,123.809 147.5,122.5C 143.839,123.664 140.506,125.33 137.5,127.5C 138.167,124.833 138.833,122.167 139.5,119.5C 141.401,119.567 143.234,119.233 145,118.5C 150.782,120.152 156.615,121.485 162.5,122.5C 164.102,118.249 162.435,116.416 157.5,117C 156.663,115.989 156.33,114.822 156.5,113.5C 153.035,113.727 149.701,114.227 146.5,115C 147.357,114.311 148.023,113.478 148.5,112.5C 144.199,112.619 142.199,110.619 142.5,106.5C 141.5,106.5 140.5,106.5 139.5,106.5C 139.719,107.675 139.386,108.675 138.5,109.5C 136.271,107.447 133.938,107.114 131.5,108.5C 129.7,109.605 128.533,108.939 128,106.5C 127.667,110.167 127.333,113.833 127,117.5C 126.612,116.572 125.945,115.905 125,115.5C 122.324,116.614 119.824,117.948 117.5,119.5C 117.5,118.167 117.5,116.833 117.5,115.5C 122.045,115.626 124.045,113.626 123.5,109.5C 124.167,110.167 124.833,110.833 125.5,111.5C 126.067,108.788 126.401,106.121 126.5,103.5C 131.11,102.507 135.777,101.84 140.5,101.5 Z"/></g>
<g><path style="opacity:1" fill="#5d3f1b" d="M 95.5,102.5 C 98.1272,103.092 100.794,103.425 103.5,103.5C 103.286,105.144 103.62,106.644 104.5,108C 106.285,110.226 108.618,111.392 111.5,111.5C 112.702,115.048 113.369,118.715 113.5,122.5C 114.833,122.5 116.167,122.5 117.5,122.5C 117.5,121.5 117.5,120.5 117.5,119.5C 119.824,117.948 122.324,116.614 125,115.5C 125.945,115.905 126.612,116.572 127,117.5C 127.333,113.833 127.667,110.167 128,106.5C 128.533,108.939 129.7,109.605 131.5,108.5C 130.688,110.743 130.021,113.076 129.5,115.5C 131.22,119.4 132.553,123.4 133.5,127.5C 134.833,127.5 136.167,127.5 137.5,127.5C 137.338,129.527 137.505,131.527 138,133.5C 141.087,135.923 144.421,137.923 148,139.5C 150.489,138.394 152.989,137.394 155.5,136.5C 156.833,135.167 158.167,133.833 159.5,132.5C 159.703,134.39 159.037,135.89 157.5,137C 151.929,140.136 145.929,141.302 139.5,140.5C 138.5,139.833 137.5,139.167 136.5,138.5C 134.581,135.681 132.415,133.014 130,130.5C 128.727,128.286 127.727,125.953 127,123.5C 124.368,120.808 122.034,121.141 120,124.5C 119.918,127.748 118.418,130.081 115.5,131.5C 112.388,129.816 109.054,129.15 105.5,129.5C 105.5,130.833 105.5,132.167 105.5,133.5C 101.839,133.426 101.172,134.426 103.5,136.5C 102.37,137.622 101.703,138.956 101.5,140.5C 99.1093,143.163 96.2759,145.497 93,147.5C 90.8636,153.2 87.3636,158.034 82.5,162C 81.552,162.483 80.552,162.649 79.5,162.5C 79.5,161.5 79.5,160.5 79.5,159.5C 79.5,157.833 79.5,156.167 79.5,154.5C 79.5,150.833 79.5,147.167 79.5,143.5C 83.8839,143.826 88.2172,143.492 92.5,142.5C 94.6054,139.973 96.9387,137.64 99.5,135.5C 101.188,131.939 102.355,128.272 103,124.5C 100.305,126.89 97.1388,127.89 93.5,127.5C 93.1667,127.5 92.8333,127.5 92.5,127.5C 92.4431,126.391 92.1098,125.391 91.5,124.5C 92.5832,124.539 93.5832,124.873 94.5,125.5C 98.3758,123.96 101.709,121.627 104.5,118.5C 102.642,115.428 100.642,112.428 98.5,109.5C 96.5967,109.306 94.7633,109.306 93,109.5C 92.8333,109.167 92.6667,108.833 92.5,108.5C 93.6016,107.824 94.6016,107.158 95.5,106.5C 95.5,105.167 95.5,103.833 95.5,102.5 Z"/></g>
<g><path style="opacity:1" fill="#4c2e12" d="M 140.5,101.5 C 146.679,104.293 153.012,106.627 159.5,108.5C 159.5,109.5 159.5,110.5 159.5,111.5C 161.199,111.34 162.866,111.506 164.5,112C 168.858,115.088 173.524,117.588 178.5,119.5C 179.347,120.845 180.513,121.845 182,122.5C 182.608,124.154 183.108,125.821 183.5,127.5C 182.833,127.5 182.167,127.5 181.5,127.5C 181.99,125.052 181.157,123.385 179,122.5C 176.667,124.433 174.5,126.6 172.5,129C 169.167,129 165.833,129 162.5,129C 161.364,130.145 160.364,131.312 159.5,132.5C 158.167,133.833 156.833,135.167 155.5,136.5C 155.886,134.063 157.053,132.063 159,130.5C 159.495,128.527 159.662,126.527 159.5,124.5C 161.983,124.8 164.649,124.8 167.5,124.5C 168.5,123.833 169.5,123.167 170.5,122.5C 169.289,121.28 169.289,120.113 170.5,119C 169.457,117.024 168.123,116.524 166.5,117.5C 165.738,116.372 165.071,115.205 164.5,114C 158.823,113.006 153.823,110.673 149.5,107C 146.728,106.474 144.062,105.641 141.5,104.5C 140.873,103.583 140.539,102.583 140.5,101.5 Z"/></g>
<g><path style="opacity:1" fill="#3d2516" d="M 84.5,106.5 C 84.5,108.167 84.5,109.833 84.5,111.5C 82.8333,111.5 81.1667,111.5 79.5,111.5C 79.5,112.5 79.5,113.5 79.5,114.5C 77.0846,114.373 74.7513,114.207 72.5,114C 71.6699,115.747 70.6699,117.413 69.5,119C 69.6448,119.772 69.9781,120.439 70.5,121C 76.0889,121.601 81.5889,121.101 87,119.5C 87.9021,119.743 88.7354,120.077 89.5,120.5C 90.6005,121.605 91.2671,122.938 91.5,124.5C 92.1098,125.391 92.4431,126.391 92.5,127.5C 89.8386,125.512 86.8386,124.179 83.5,123.5C 78.8406,124.066 74.1739,124.566 69.5,125C 68.3909,126.813 69.0576,127.646 71.5,127.5C 71.6287,129.216 71.962,130.883 72.5,132.5C 70.3805,131.549 68.7138,130.049 67.5,128C 63.1794,127.501 58.8461,127.334 54.5,127.5C 56.4736,126.094 58.4736,124.594 60.5,123C 61.448,122.517 62.448,122.351 63.5,122.5C 63.281,121.325 63.6143,120.325 64.5,119.5C 67.3672,117.958 69.7006,115.791 71.5,113C 76.4078,111.879 80.7412,109.713 84.5,106.5 Z"/></g>
<g><path style="opacity:1" fill="#5c3529" d="M 72.5,96.5 C 70.6724,98.1614 68.6724,99.8281 66.5,101.5C 66.7093,102.086 67.0426,102.586 67.5,103C 64.9222,104.716 63.5889,107.216 63.5,110.5C 60.3882,113.448 57.3882,116.615 54.5,120C 55.0219,120.561 55.3552,121.228 55.5,122C 53.5621,123.431 52.2288,125.265 51.5,127.5C 49.857,127.52 48.5237,126.853 47.5,125.5C 45.2887,126.193 44.9554,127.359 46.5,129C 46.0541,130.726 45.2208,132.226 44,133.5C 43.6322,132.09 42.7989,131.09 41.5,130.5C 40.3331,132.079 38.9998,133.412 37.5,134.5C 37.5,133.5 37.5,132.5 37.5,131.5C 33.788,131.188 31.1214,132.688 29.5,136C 28.5,136.667 27.5,136.667 26.5,136C 27.0563,133.763 28.0563,131.763 29.5,130C 32.0512,129.998 34.0512,129.164 35.5,127.5C 38.1586,125.838 37.8252,124.504 34.5,123.5C 39.9595,121.326 41.9595,117.326 40.5,111.5C 41.8333,111.5 43.1667,111.5 44.5,111.5C 44.6204,107.354 46.1204,106.687 49,109.5C 54.5867,108.526 57.0867,105.193 56.5,99.5C 52.8499,99.3584 49.3499,100.025 46,101.5C 44.0543,101.237 43.3877,100.237 44,98.5C 49.108,97.5968 54.2747,96.7635 59.5,96C 62.0578,94.6201 62.0578,93.1201 59.5,91.5C 62.5888,89.1258 65.9222,88.4591 69.5,89.5C 68.7469,91.7534 67.4136,93.5867 65.5,95C 67.9204,95.2904 70.2537,95.7904 72.5,96.5 Z"/></g>
<g><path style="opacity:1" fill="#100905" d="M 92.5,127.5 C 92.8333,127.5 93.1667,127.5 93.5,127.5C 94.3468,129.029 95.0135,130.696 95.5,132.5C 94.5217,134.777 93.8551,137.11 93.5,139.5C 88.1804,139.754 82.8471,139.254 77.5,138C 75.5245,136.351 73.8578,134.518 72.5,132.5C 71.962,130.883 71.6287,129.216 71.5,127.5C 69.0576,127.646 68.3909,126.813 69.5,125C 74.1739,124.566 78.8406,124.066 83.5,123.5C 86.8386,124.179 89.8386,125.512 92.5,127.5 Z"/></g>
<g><path style="opacity:1" fill="#150d06" d="M 159.5,124.5 C 159.662,126.527 159.495,128.527 159,130.5C 157.053,132.063 155.886,134.063 155.5,136.5C 152.989,137.394 150.489,138.394 148,139.5C 144.421,137.923 141.087,135.923 138,133.5C 137.505,131.527 137.338,129.527 137.5,127.5C 140.506,125.33 143.839,123.664 147.5,122.5C 151.4,123.809 155.4,124.476 159.5,124.5 Z"/></g>
<g><path style="opacity:1" fill="#715023" d="M 136.5,138.5 C 130.497,135.828 124.164,134.828 117.5,135.5C 117.5,136.833 117.5,138.167 117.5,139.5C 115.516,139.617 113.85,138.95 112.5,137.5C 109.013,139.127 105.347,140.127 101.5,140.5C 101.703,138.956 102.37,137.622 103.5,136.5C 101.172,134.426 101.839,133.426 105.5,133.5C 105.5,132.167 105.5,130.833 105.5,129.5C 109.054,129.15 112.388,129.816 115.5,131.5C 118.418,130.081 119.918,127.748 120,124.5C 122.034,121.141 124.368,120.808 127,123.5C 127.727,125.953 128.727,128.286 130,130.5C 132.415,133.014 134.581,135.681 136.5,138.5 Z"/></g>
<g><path style="opacity:1" fill="#51371f" d="M 79.5,154.5 C 77.0882,154.306 76.0882,152.973 76.5,150.5C 72.8284,150.817 71.1617,149.151 71.5,145.5C 68.8333,144.833 66.1667,144.167 63.5,143.5C 63.238,142.022 63.5713,140.689 64.5,139.5C 65.747,137.956 67.0804,136.456 68.5,135C 64.0454,133.356 59.5454,131.856 55,130.5C 53.167,130.519 51.667,131.185 50.5,132.5C 51.241,130.646 52.241,128.979 53.5,127.5C 53.8333,127.5 54.1667,127.5 54.5,127.5C 58.8461,127.334 63.1794,127.501 67.5,128C 68.7138,130.049 70.3805,131.549 72.5,132.5C 73.8578,134.518 75.5245,136.351 77.5,138C 82.8471,139.254 88.1804,139.754 93.5,139.5C 93.8551,137.11 94.5217,134.777 95.5,132.5C 95.0135,130.696 94.3468,129.029 93.5,127.5C 97.1388,127.89 100.305,126.89 103,124.5C 102.355,128.272 101.188,131.939 99.5,135.5C 96.9387,137.64 94.6054,139.973 92.5,142.5C 88.2172,143.492 83.8839,143.826 79.5,143.5C 79.5,147.167 79.5,150.833 79.5,154.5 Z"/></g>
<g><path style="opacity:1" fill="#75552f" d="M 181.5,127.5 C 180.408,129.536 178.408,130.869 175.5,131.5C 173.055,133.812 170.055,135.146 166.5,135.5C 165.561,137.053 164.394,138.387 163,139.5C 160.814,139.966 158.648,140.299 156.5,140.5C 155.614,141.325 155.281,142.325 155.5,143.5C 150.069,143.081 144.736,143.081 139.5,143.5C 139.5,142.5 139.5,141.5 139.5,140.5C 145.929,141.302 151.929,140.136 157.5,137C 159.037,135.89 159.703,134.39 159.5,132.5C 160.364,131.312 161.364,130.145 162.5,129C 165.833,129 169.167,129 172.5,129C 174.5,126.6 176.667,124.433 179,122.5C 181.157,123.385 181.99,125.052 181.5,127.5 Z"/></g>
<g><path style="opacity:1" fill="#452511" d="M 51.5,127.5 C 52.1667,127.5 52.8333,127.5 53.5,127.5C 52.241,128.979 51.241,130.646 50.5,132.5C 49.8501,132.804 49.1835,133.137 48.5,133.5C 47.5991,137.047 46.2658,140.38 44.5,143.5C 43.5233,146.287 43.19,149.287 43.5,152.5C 40.9412,152.61 38.6079,151.944 36.5,150.5C 36.8333,149.833 37.1667,149.167 37.5,148.5C 35.464,145.786 34.1307,142.786 33.5,139.5C 34.8333,139.5 36.1667,139.5 37.5,139.5C 37.5,140.833 37.5,142.167 37.5,143.5C 38.675,143.719 39.675,143.386 40.5,142.5C 39.6906,140.929 39.3573,139.262 39.5,137.5C 36.7524,137.598 36.0857,136.598 37.5,134.5C 38.9998,133.412 40.3331,132.079 41.5,130.5C 42.7989,131.09 43.6322,132.09 44,133.5C 45.2208,132.226 46.0541,130.726 46.5,129C 44.9554,127.359 45.2887,126.193 47.5,125.5C 48.5237,126.853 49.857,127.52 51.5,127.5 Z"/></g>
<g><path style="opacity:1" fill="#a28459" d="M 178.5,135.5 C 179.768,137.905 180.435,140.572 180.5,143.5C 181.5,143.5 182.5,143.5 183.5,143.5C 183.5,144.167 183.5,144.833 183.5,145.5C 179.609,145.286 177.609,143.12 177.5,139C 176.969,137.282 176.302,137.115 175.5,138.5C 173.657,142.702 171.324,146.702 168.5,150.5C 167.095,151.994 165.429,152.994 163.5,153.5C 164.167,152.167 164.833,150.833 165.5,149.5C 165.18,146.102 165.513,142.768 166.5,139.5C 168.409,138.652 170.409,138.318 172.5,138.5C 172.33,137.178 172.663,136.011 173.5,135C 175.107,135.019 176.774,135.185 178.5,135.5 Z"/></g>
<g><path style="opacity:1" fill="#896636" d="M 136.5,138.5 C 137.5,139.167 138.5,139.833 139.5,140.5C 139.5,141.5 139.5,142.5 139.5,143.5C 137.544,141.852 135.211,141.185 132.5,141.5C 133.272,146.894 130.938,148.894 125.5,147.5C 118.963,145.611 112.297,145.444 105.5,147C 97.3107,150.855 90.644,156.521 85.5,164C 84.3922,165.677 84.3922,167.177 85.5,168.5C 85.5,169.5 85.5,170.5 85.5,171.5C 84.1667,171.5 82.8333,171.5 81.5,171.5C 81.7678,173.099 81.4345,174.432 80.5,175.5C 79.6236,175.631 78.9569,175.298 78.5,174.5C 77.58,170.829 76.2467,167.329 74.5,164C 75.2524,163.329 75.5858,162.496 75.5,161.5C 75.5,160.167 76.1667,159.5 77.5,159.5C 78.1667,159.5 78.8333,159.5 79.5,159.5C 79.5,160.5 79.5,161.5 79.5,162.5C 80.552,162.649 81.552,162.483 82.5,162C 87.3636,158.034 90.8636,153.2 93,147.5C 96.2759,145.497 99.1093,143.163 101.5,140.5C 105.347,140.127 109.013,139.127 112.5,137.5C 113.85,138.95 115.516,139.617 117.5,139.5C 117.5,138.167 117.5,136.833 117.5,135.5C 124.164,134.828 130.497,135.828 136.5,138.5 Z"/></g>
<g><path style="opacity:1" fill="#7f5f48" d="M 181.5,127.5 C 182.167,127.5 182.833,127.5 183.5,127.5C 184.338,127.842 184.672,128.508 184.5,129.5C 185.568,130.434 186.901,130.768 188.5,130.5C 188.303,134.806 190.303,136.806 194.5,136.5C 193.923,138.652 192.756,138.985 191,137.5C 190.228,138.849 189.061,139.682 187.5,140C 189.037,142.313 189.537,144.813 189,147.5C 188.023,146.226 187.189,146.226 186.5,147.5C 185.883,147.611 185.383,147.944 185,148.5C 184.802,146.618 184.302,144.952 183.5,143.5C 182.5,143.5 181.5,143.5 180.5,143.5C 180.435,140.572 179.768,137.905 178.5,135.5C 178.201,133.545 177.201,132.211 175.5,131.5C 178.408,130.869 180.408,129.536 181.5,127.5 Z"/></g>
<g><path style="opacity:1" fill="#63482d" d="M 79.5,154.5 C 79.5,156.167 79.5,157.833 79.5,159.5C 78.8333,159.5 78.1667,159.5 77.5,159.5C 76.5037,156.045 74.1704,154.212 70.5,154C 68.3196,151.988 65.9863,150.155 63.5,148.5C 60.7737,145.714 59.107,142.381 58.5,138.5C 57.1667,137.5 55.8333,136.5 54.5,135.5C 53.5197,136.981 52.353,138.315 51,139.5C 50.2588,138.359 49.4255,138.359 48.5,139.5C 47.5713,140.689 47.238,142.022 47.5,143.5C 46.5,143.5 45.5,143.5 44.5,143.5C 46.2658,140.38 47.5991,137.047 48.5,133.5C 49.1835,133.137 49.8501,132.804 50.5,132.5C 51.667,131.185 53.167,130.519 55,130.5C 59.5454,131.856 64.0454,133.356 68.5,135C 67.0804,136.456 65.747,137.956 64.5,139.5C 63.5713,140.689 63.238,142.022 63.5,143.5C 66.1667,144.167 68.8333,144.833 71.5,145.5C 71.1617,149.151 72.8284,150.817 76.5,150.5C 76.0882,152.973 77.0882,154.306 79.5,154.5 Z"/></g>
<g><path style="opacity:1" fill="#b0894f" d="M 139.5,143.5 C 140.964,146.798 143.297,149.298 146.5,151C 146.167,151.333 145.833,151.667 145.5,152C 147.425,151.865 149.425,151.698 151.5,151.5C 151.281,150.325 151.614,149.325 152.5,148.5C 156.667,150.802 161,151.135 165.5,149.5C 164.833,150.833 164.167,152.167 163.5,153.5C 162.292,154.234 160.959,154.567 159.5,154.5C 159.5,156.167 159.5,157.833 159.5,159.5C 157.473,159.338 155.473,159.505 153.5,160C 154.022,160.561 154.355,161.228 154.5,162C 153.491,163.168 152.491,164.335 151.5,165.5C 152.376,166.251 153.376,166.751 154.5,167C 152.545,167.953 150.878,169.287 149.5,171C 148.167,171.667 146.833,171.667 145.5,171C 146.056,170.617 146.389,170.117 146.5,169.5C 147.097,169.265 147.43,168.765 147.5,168C 146.417,164.483 144.75,161.316 142.5,158.5C 141.167,157.167 139.833,157.167 138.5,158.5C 137.95,160.657 137.283,162.657 136.5,164.5C 134.633,163.24 133.3,161.573 132.5,159.5C 132.421,158.07 132.754,156.736 133.5,155.5C 131.902,155.39 130.235,155.057 128.5,154.5C 127.833,153.5 127.167,152.5 126.5,151.5C 120.534,152.272 114.534,152.439 108.5,152C 109.5,152.333 110.5,152.667 111.5,153C 107.576,153.25 104.242,154.75 101.5,157.5C 102.243,158.182 102.909,158.849 103.5,159.5C 100.112,158.969 98.1124,160.303 97.5,163.5C 97.5,164.833 96.8333,165.5 95.5,165.5C 95.5,163.5 95.5,161.5 95.5,159.5C 94.1266,159.343 92.7932,159.51 91.5,160C 89.1118,162.629 87.1118,165.462 85.5,168.5C 84.3922,167.177 84.3922,165.677 85.5,164C 90.644,156.521 97.3107,150.855 105.5,147C 112.297,145.444 118.963,145.611 125.5,147.5C 130.938,148.894 133.272,146.894 132.5,141.5C 135.211,141.185 137.544,141.852 139.5,143.5 Z"/></g>
<g><path style="opacity:1" fill="#977f68" d="M 216.5,130.5 C 215.72,137.638 213.72,144.305 210.5,150.5C 202.5,150.5 194.5,150.5 186.5,150.5C 186.5,149.5 186.5,148.5 186.5,147.5C 187.189,146.226 188.023,146.226 189,147.5C 189.537,144.813 189.037,142.313 187.5,140C 189.061,139.682 190.228,138.849 191,137.5C 192.756,138.985 193.923,138.652 194.5,136.5C 199.307,136.697 201.974,134.363 202.5,129.5C 203.524,128.147 204.857,127.48 206.5,127.5C 208.06,127.481 209.56,127.148 211,126.5C 211.5,126.833 212,127.167 212.5,127.5C 211.833,128.167 211.167,128.833 210.5,129.5C 212.396,130.466 214.396,130.799 216.5,130.5 Z"/></g>
<g><path style="opacity:1" fill="#66422e" d="M 35.5,127.5 C 34.0512,129.164 32.0512,129.998 29.5,130C 28.0563,131.763 27.0563,133.763 26.5,136C 27.5,136.667 28.5,136.667 29.5,136C 31.1214,132.688 33.788,131.188 37.5,131.5C 37.5,132.5 37.5,133.5 37.5,134.5C 36.0857,136.598 36.7524,137.598 39.5,137.5C 39.3573,139.262 39.6906,140.929 40.5,142.5C 39.675,143.386 38.675,143.719 37.5,143.5C 37.5,142.167 37.5,140.833 37.5,139.5C 36.1667,139.5 34.8333,139.5 33.5,139.5C 34.1307,142.786 35.464,145.786 37.5,148.5C 37.1667,149.167 36.8333,149.833 36.5,150.5C 38.6079,151.944 40.9412,152.61 43.5,152.5C 43.19,149.287 43.5233,146.287 44.5,143.5C 44.7523,148.385 44.419,153.219 43.5,158C 44.0223,158.95 44.689,159.784 45.5,160.5C 43.8917,161.318 42.2251,161.985 40.5,162.5C 39.2622,159.832 39.2622,157.166 40.5,154.5C 39.675,153.614 38.675,153.281 37.5,153.5C 36.1667,153.5 34.8333,153.5 33.5,153.5C 33.5,152.5 33.5,151.5 33.5,150.5C 30.5253,150.693 28.0253,149.693 26,147.5C 23.9079,143.803 22.7412,139.803 22.5,135.5C 24.4824,133.403 25.4824,130.736 25.5,127.5C 28.8333,127.5 32.1667,127.5 35.5,127.5 Z"/></g>
<g><path style="opacity:1" fill="#8a6533" d="M 175.5,131.5 C 177.201,132.211 178.201,133.545 178.5,135.5C 176.774,135.185 175.107,135.019 173.5,135C 172.663,136.011 172.33,137.178 172.5,138.5C 170.409,138.318 168.409,138.652 166.5,139.5C 165.513,142.768 165.18,146.102 165.5,149.5C 161,151.135 156.667,150.802 152.5,148.5C 151.614,149.325 151.281,150.325 151.5,151.5C 149.425,151.698 147.425,151.865 145.5,152C 145.833,151.667 146.167,151.333 146.5,151C 143.297,149.298 140.964,146.798 139.5,143.5C 144.736,143.081 150.069,143.081 155.5,143.5C 155.281,142.325 155.614,141.325 156.5,140.5C 158.648,140.299 160.814,139.966 163,139.5C 164.394,138.387 165.561,137.053 166.5,135.5C 170.055,135.146 173.055,133.812 175.5,131.5 Z"/></g>
<g><path style="opacity:1" fill="#7a654a" d="M 77.5,159.5 C 76.1667,159.5 75.5,160.167 75.5,161.5C 71.4983,158.628 67.165,156.295 62.5,154.5C 60.1848,154.686 57.8515,155.02 55.5,155.5C 56.8532,156.524 57.5198,157.857 57.5,159.5C 59.6778,160.204 61.6778,160.537 63.5,160.5C 60.8333,161.833 58.1667,163.167 55.5,164.5C 59.3779,165.885 59.3779,167.051 55.5,168C 57.8082,169.867 60.4749,170.867 63.5,171C 60.8333,171.333 58.1667,171.667 55.5,172C 61.2579,172.485 66.9246,173.485 72.5,175C 66.829,175.073 61.1624,175.073 55.5,175C 61.8321,179.212 68.3321,179.379 75,175.5C 76.7659,176.233 78.5992,176.567 80.5,176.5C 81.5,176.5 82.5,176.5 83.5,176.5C 78.9093,177.892 74.2426,178.892 69.5,179.5C 62.0675,179.852 61.7341,181.352 68.5,184C 67.3474,185.883 65.6807,186.716 63.5,186.5C 63.4802,188.143 64.1468,189.476 65.5,190.5C 65.0431,191.298 64.3764,191.631 63.5,191.5C 61.4953,188.202 58.9953,185.202 56,182.5C 53.886,179.494 52.5526,176.16 52,172.5C 51.0922,170.561 49.5922,169.561 47.5,169.5C 47.5,171.833 47.5,174.167 47.5,176.5C 45.2417,176.775 44.9084,177.775 46.5,179.5C 45.4793,180.901 44.4793,182.235 43.5,183.5C 44.1502,177.831 43.6502,172.165 42,166.5C 39.7572,165.029 37.2572,164.029 34.5,163.5C 37.028,162.184 37.028,161.017 34.5,160C 36.8384,158.492 37.8384,156.325 37.5,153.5C 38.675,153.281 39.675,153.614 40.5,154.5C 39.2622,157.166 39.2622,159.832 40.5,162.5C 42.2251,161.985 43.8917,161.318 45.5,160.5C 44.689,159.784 44.0223,158.95 43.5,158C 44.419,153.219 44.7523,148.385 44.5,143.5C 45.5,143.5 46.5,143.5 47.5,143.5C 47.238,142.022 47.5713,140.689 48.5,139.5C 49.4255,138.359 50.2588,138.359 51,139.5C 52.353,138.315 53.5197,136.981 54.5,135.5C 55.8333,136.5 57.1667,137.5 58.5,138.5C 59.107,142.381 60.7737,145.714 63.5,148.5C 65.9863,150.155 68.3196,151.988 70.5,154C 74.1704,154.212 76.5037,156.045 77.5,159.5 Z"/></g>
<g><path style="opacity:1" fill="#cba76e" d="M 132.5,159.5 C 122.823,156.887 113.156,156.887 103.5,159.5C 102.909,158.849 102.243,158.182 101.5,157.5C 104.242,154.75 107.576,153.25 111.5,153C 110.5,152.667 109.5,152.333 108.5,152C 114.534,152.439 120.534,152.272 126.5,151.5C 127.167,152.5 127.833,153.5 128.5,154.5C 130.235,155.057 131.902,155.39 133.5,155.5C 132.754,156.736 132.421,158.07 132.5,159.5 Z"/></g>
<g><path style="opacity:0.986" fill="#a18f81" d="M 23.5,155.5 C 26.1667,155.5 28.8333,155.5 31.5,155.5C 31.5,160.167 31.5,164.833 31.5,169.5C 35.0785,170.244 37.0785,172.577 37.5,176.5C 37.0785,180.423 35.0785,182.756 31.5,183.5C 31.5,184.5 31.5,185.5 31.5,186.5C 24.7264,180.393 19.0598,173.393 14.5,165.5C 15.4794,162.375 15.8128,159.042 15.5,155.5C 18.1667,155.5 20.8333,155.5 23.5,155.5 Z"/></g>
<g><path style="opacity:1" fill="#ddbb84" d="M 146.5,169.5 C 143.873,170.092 141.206,170.425 138.5,170.5C 137.262,168.786 136.595,166.786 136.5,164.5C 137.283,162.657 137.95,160.657 138.5,158.5C 139.833,157.167 141.167,157.167 142.5,158.5C 144.75,161.316 146.417,164.483 147.5,168C 147.43,168.765 147.097,169.265 146.5,169.5 Z"/></g>
<g><path style="opacity:1" fill="#857359" d="M 183.5,143.5 C 184.302,144.952 184.802,146.618 185,148.5C 185.383,147.944 185.883,147.611 186.5,147.5C 186.5,148.5 186.5,149.5 186.5,150.5C 194.5,150.5 202.5,150.5 210.5,150.5C 204.693,166.306 195.359,179.64 182.5,190.5C 181.357,187.024 181.19,183.358 182,179.5C 182.809,175.191 183.975,171.024 185.5,167C 184.833,166.667 184.167,166.333 183.5,166C 185.107,164.951 185.773,163.451 185.5,161.5C 184.167,161.5 182.833,161.5 181.5,161.5C 183.183,156.337 183.85,151.004 183.5,145.5C 183.5,144.833 183.5,144.167 183.5,143.5 Z"/></g>
<g><path style="opacity:1" fill="#867457" d="M 75.5,161.5 C 75.5858,162.496 75.2524,163.329 74.5,164C 76.2467,167.329 77.58,170.829 78.5,174.5C 78.9569,175.298 79.6236,175.631 80.5,175.5C 80.5,175.833 80.5,176.167 80.5,176.5C 78.5992,176.567 76.7659,176.233 75,175.5C 68.3321,179.379 61.8321,179.212 55.5,175C 61.1624,175.073 66.829,175.073 72.5,175C 66.9246,173.485 61.2579,172.485 55.5,172C 58.1667,171.667 60.8333,171.333 63.5,171C 60.4749,170.867 57.8082,169.867 55.5,168C 59.3779,167.051 59.3779,165.885 55.5,164.5C 58.1667,163.167 60.8333,161.833 63.5,160.5C 61.6778,160.537 59.6778,160.204 57.5,159.5C 57.5198,157.857 56.8532,156.524 55.5,155.5C 57.8515,155.02 60.1848,154.686 62.5,154.5C 67.165,156.295 71.4983,158.628 75.5,161.5 Z"/></g>
<g><path style="opacity:1" fill="#392f23" d="M 130.5,163.5 C 135.028,166.167 136.695,170.167 135.5,175.5C 134.655,176.671 133.989,178.005 133.5,179.5C 132.949,182.237 131.949,184.904 130.5,187.5C 132.959,189.927 133.959,192.927 133.5,196.5C 138.709,196.369 140.375,198.703 138.5,203.5C 136.618,201.392 134.285,200.059 131.5,199.5C 128.476,200.73 125.476,200.73 122.5,199.5C 120.121,201.042 117.454,201.709 114.5,201.5C 109.291,201.161 104.124,200.494 99,199.5C 95.9967,199.743 94.83,201.41 95.5,204.5C 92.3552,204.507 89.6885,203.507 87.5,201.5C 87.5,200.5 87.5,199.5 87.5,198.5C 92.0177,198.03 96.351,196.863 100.5,195C 99.0267,194.29 98.3601,193.124 98.5,191.5C 99.5,191.5 100.5,191.5 101.5,191.5C 102.027,187.756 101.027,184.589 98.5,182C 98.6629,177.163 98.6629,172.33 98.5,167.5C 98.5,166.5 98.5,165.5 98.5,164.5C 109.14,163.625 119.806,163.291 130.5,163.5 Z"/></g>
<g><path style="opacity:1" fill="#a28b70" d="M 21.5,135.5 C 21.8333,135.5 22.1667,135.5 22.5,135.5C 22.7412,139.803 23.9079,143.803 26,147.5C 28.0253,149.693 30.5253,150.693 33.5,150.5C 33.5,151.5 33.5,152.5 33.5,153.5C 34.8333,153.5 36.1667,153.5 37.5,153.5C 37.8384,156.325 36.8384,158.492 34.5,160C 37.028,161.017 37.028,162.184 34.5,163.5C 37.2572,164.029 39.7572,165.029 42,166.5C 43.6502,172.165 44.1502,177.831 43.5,183.5C 45.1701,186.306 44.8368,188.806 42.5,191C 44.1066,192.049 44.7733,193.549 44.5,195.5C 45.5,195.5 46.5,195.5 47.5,195.5C 47.5,197.167 47.5,198.833 47.5,200.5C 41.377,196.766 36.0436,192.1 31.5,186.5C 31.5,185.5 31.5,184.5 31.5,183.5C 35.0785,182.756 37.0785,180.423 37.5,176.5C 37.0785,172.577 35.0785,170.244 31.5,169.5C 31.5,164.833 31.5,160.167 31.5,155.5C 31.5,154.5 31.5,153.5 31.5,152.5C 28.7531,152.813 26.0865,152.48 23.5,151.5C 23.7093,150.914 24.0426,150.414 24.5,150C 21.9441,145.528 20.9441,140.695 21.5,135.5 Z"/></g>
<g><path style="opacity:1" fill="#b99e73" d="M 95.5,165.5 C 95.5,166.5 95.5,167.5 95.5,168.5C 93.1799,170.226 90.5133,170.893 87.5,170.5C 87.5,172.5 87.5,174.5 87.5,176.5C 86.1667,176.5 84.8333,176.5 83.5,176.5C 82.5,176.5 81.5,176.5 80.5,176.5C 80.5,176.167 80.5,175.833 80.5,175.5C 81.4345,174.432 81.7678,173.099 81.5,171.5C 82.8333,171.5 84.1667,171.5 85.5,171.5C 85.5,170.5 85.5,169.5 85.5,168.5C 87.1118,165.462 89.1118,162.629 91.5,160C 92.7932,159.51 94.1266,159.343 95.5,159.5C 95.5,161.5 95.5,163.5 95.5,165.5 Z"/></g>
<g><path style="opacity:1" fill="#bda57a" d="M 175.5,138.5 C 176.648,142.298 178.315,145.798 180.5,149C 178.956,152.339 178.29,155.839 178.5,159.5C 177.5,159.5 176.5,159.5 175.5,159.5C 175.5,158.167 175.5,156.833 175.5,155.5C 171.995,154.891 169.328,156.058 167.5,159C 168.833,159.333 170.167,159.667 171.5,160C 167.234,161.087 163.234,162.754 159.5,165C 159.833,165.333 160.167,165.667 160.5,166C 158.866,166.494 157.199,166.66 155.5,166.5C 155.681,169.397 155.348,172.23 154.5,175C 154.818,177.375 156.151,178.542 158.5,178.5C 159.87,178.856 160.87,179.69 161.5,181C 159.987,182.879 159.321,185.046 159.5,187.5C 156.125,187.233 152.958,186.233 150,184.5C 148.211,185.409 146.377,185.576 144.5,185C 142.945,182.535 140.945,182.035 138.5,183.5C 138.407,179.88 138.407,175.546 138.5,170.5C 141.206,170.425 143.873,170.092 146.5,169.5C 146.389,170.117 146.056,170.617 145.5,171C 146.833,171.667 148.167,171.667 149.5,171C 150.878,169.287 152.545,167.953 154.5,167C 153.376,166.751 152.376,166.251 151.5,165.5C 152.491,164.335 153.491,163.168 154.5,162C 154.355,161.228 154.022,160.561 153.5,160C 155.473,159.505 157.473,159.338 159.5,159.5C 159.5,157.833 159.5,156.167 159.5,154.5C 160.959,154.567 162.292,154.234 163.5,153.5C 165.429,152.994 167.095,151.994 168.5,150.5C 171.324,146.702 173.657,142.702 175.5,138.5 Z"/></g>
<g><path style="opacity:1" fill="#100c08" d="M 111.5,165.5 C 118.139,164.828 124.472,165.828 130.5,168.5C 131.69,174.173 131.69,179.84 130.5,185.5C 126.231,186.803 121.897,187.803 117.5,188.5C 117.215,190.288 117.548,191.955 118.5,193.5C 120.332,194.248 121.999,195.248 123.5,196.5C 119.395,195.851 115.395,196.517 111.5,198.5C 110.167,198.167 108.833,197.833 107.5,197.5C 109.535,195.805 111.868,194.472 114.5,193.5C 115.631,191.926 115.798,190.259 115,188.5C 111.363,186.799 107.53,185.799 103.5,185.5C 101.731,181.007 101.231,176.341 102,171.5C 104.333,167.969 107.499,165.969 111.5,165.5 Z"/></g>
<g><path style="opacity:1" fill="#baa787" d="M 183.5,145.5 C 183.85,151.004 183.183,156.337 181.5,161.5C 180.105,165.664 178.438,169.664 176.5,173.5C 175.041,173.433 173.708,173.766 172.5,174.5C 170.296,176.362 167.629,177.362 164.5,177.5C 162.571,177.46 160.738,177.127 159,176.5C 158.536,177.094 158.369,177.761 158.5,178.5C 156.151,178.542 154.818,177.375 154.5,175C 155.348,172.23 155.681,169.397 155.5,166.5C 157.199,166.66 158.866,166.494 160.5,166C 160.167,165.667 159.833,165.333 159.5,165C 163.234,162.754 167.234,161.087 171.5,160C 170.167,159.667 168.833,159.333 167.5,159C 169.328,156.058 171.995,154.891 175.5,155.5C 175.5,156.833 175.5,158.167 175.5,159.5C 176.5,159.5 177.5,159.5 178.5,159.5C 178.29,155.839 178.956,152.339 180.5,149C 178.315,145.798 176.648,142.298 175.5,138.5C 176.302,137.115 176.969,137.282 177.5,139C 177.609,143.12 179.609,145.286 183.5,145.5 Z"/></g>
<g><path style="opacity:1" fill="#948060" d="M 95.5,168.5 C 94.6537,171.523 92.9871,174.023 90.5,176C 91.9561,176.423 92.4561,177.256 92,178.5C 90.414,179.376 88.914,180.376 87.5,181.5C 88.0253,182.192 88.6919,182.692 89.5,183C 86.9526,185.049 84.9526,187.549 83.5,190.5C 82.7836,189.689 81.9503,189.022 81,188.5C 79.0501,189.283 77.2168,190.283 75.5,191.5C 73.1758,189.846 70.8425,188.179 68.5,186.5C 68.8333,185.833 69.1667,185.167 69.5,184.5C 72.7468,183.35 76.0801,182.517 79.5,182C 76.1508,181.612 72.8175,181.779 69.5,182.5C 69.5,181.5 69.5,180.5 69.5,179.5C 74.2426,178.892 78.9093,177.892 83.5,176.5C 84.8333,176.5 86.1667,176.5 87.5,176.5C 87.5,174.5 87.5,172.5 87.5,170.5C 90.5133,170.893 93.1799,170.226 95.5,168.5 Z"/></g>
<g><path style="opacity:1" fill="#978463" d="M 132.5,159.5 C 133.3,161.573 134.633,163.24 136.5,164.5C 136.595,166.786 137.262,168.786 138.5,170.5C 138.407,175.546 138.407,179.88 138.5,183.5C 140.945,182.035 142.945,182.535 144.5,185C 146.377,185.576 148.211,185.409 150,184.5C 152.958,186.233 156.125,187.233 159.5,187.5C 159.321,185.046 159.987,182.879 161.5,181C 160.87,179.69 159.87,178.856 158.5,178.5C 158.369,177.761 158.536,177.094 159,176.5C 160.738,177.127 162.571,177.46 164.5,177.5C 167.629,177.362 170.296,176.362 172.5,174.5C 173.301,176.042 173.634,177.708 173.5,179.5C 172.5,179.5 171.5,179.5 170.5,179.5C 170.67,180.822 170.337,181.989 169.5,183C 166.867,184.106 164.867,185.94 163.5,188.5C 162.271,189.281 160.938,189.781 159.5,190C 159.833,190.333 160.167,190.667 160.5,191C 159.552,191.483 158.552,191.649 157.5,191.5C 157.69,193.959 156.69,195.626 154.5,196.5C 151.775,199.112 149.108,198.946 146.5,196C 143.188,192.901 141.521,189.067 141.5,184.5C 139.143,184.663 136.81,184.497 134.5,184C 135.444,181.281 135.777,178.448 135.5,175.5C 136.695,170.167 135.028,166.167 130.5,163.5C 123.502,162.662 116.335,161.995 109,161.5C 105.139,162.067 101.305,162.733 97.5,163.5C 98.1124,160.303 100.112,158.969 103.5,159.5C 113.156,156.887 122.823,156.887 132.5,159.5 Z"/></g>
<g><path style="opacity:1" fill="#7c6b4d" d="M 130.5,163.5 C 119.806,163.291 109.14,163.625 98.5,164.5C 98.5,165.5 98.5,166.5 98.5,167.5C 97.0337,168.347 96.2004,169.68 96,171.5C 95.5017,174.817 95.335,178.15 95.5,181.5C 93.8333,181.5 92.1667,181.5 90.5,181.5C 90.5,183.5 90.5,185.5 90.5,187.5C 86.6646,188.004 86.6646,189.004 90.5,190.5C 88.4883,192.341 86.155,193.341 83.5,193.5C 83.1107,196.553 83.7773,199.22 85.5,201.5C 85.5,202.833 85.5,204.167 85.5,205.5C 83.5,205.5 81.5,205.5 79.5,205.5C 75.4294,203.287 71.4294,200.787 67.5,198C 67.9574,197.586 68.2907,197.086 68.5,196.5C 67.1468,195.476 66.4802,194.143 66.5,192.5C 65.209,192.737 64.209,192.404 63.5,191.5C 64.3764,191.631 65.0431,191.298 65.5,190.5C 64.1468,189.476 63.4802,188.143 63.5,186.5C 65.6807,186.716 67.3474,185.883 68.5,184C 61.7341,181.352 62.0675,179.852 69.5,179.5C 69.5,180.5 69.5,181.5 69.5,182.5C 72.8175,181.779 76.1508,181.612 79.5,182C 76.0801,182.517 72.7468,183.35 69.5,184.5C 69.1667,185.167 68.8333,185.833 68.5,186.5C 70.8425,188.179 73.1758,189.846 75.5,191.5C 77.2168,190.283 79.0501,189.283 81,188.5C 81.9503,189.022 82.7836,189.689 83.5,190.5C 84.9526,187.549 86.9526,185.049 89.5,183C 88.6919,182.692 88.0253,182.192 87.5,181.5C 88.914,180.376 90.414,179.376 92,178.5C 92.4561,177.256 91.9561,176.423 90.5,176C 92.9871,174.023 94.6537,171.523 95.5,168.5C 95.5,167.5 95.5,166.5 95.5,165.5C 96.8333,165.5 97.5,164.833 97.5,163.5C 101.305,162.733 105.139,162.067 109,161.5C 116.335,161.995 123.502,162.662 130.5,163.5 Z"/></g>
<g><path style="opacity:1" fill="#60513a" d="M 98.5,167.5 C 98.6629,172.33 98.6629,177.163 98.5,182C 101.027,184.589 102.027,187.756 101.5,191.5C 100.5,191.5 99.5,191.5 98.5,191.5C 98.3601,193.124 99.0267,194.29 100.5,195C 96.351,196.863 92.0177,198.03 87.5,198.5C 87.5,199.5 87.5,200.5 87.5,201.5C 86.8333,201.5 86.1667,201.5 85.5,201.5C 83.7773,199.22 83.1107,196.553 83.5,193.5C 86.155,193.341 88.4883,192.341 90.5,190.5C 86.6646,189.004 86.6646,188.004 90.5,187.5C 90.5,185.5 90.5,183.5 90.5,181.5C 92.1667,181.5 93.8333,181.5 95.5,181.5C 95.335,178.15 95.5017,174.817 96,171.5C 96.2004,169.68 97.0337,168.347 98.5,167.5 Z"/></g>
<g><path style="opacity:1" fill="#745932" d="M 47.5,176.5 C 47.9863,178.807 47.9863,180.973 47.5,183C 48.448,183.483 49.448,183.649 50.5,183.5C 51.4539,187.229 51.7872,190.896 51.5,194.5C 55.2081,194.999 58.5415,196.332 61.5,198.5C 60.1152,199.551 59.1152,200.884 58.5,202.5C 60.0436,203.622 61.377,203.289 62.5,201.5C 63.4656,203.396 63.7989,205.396 63.5,207.5C 66.0685,207.738 67.7352,209.071 68.5,211.5C 61.0583,208.613 54.0583,204.946 47.5,200.5C 47.5,198.833 47.5,197.167 47.5,195.5C 46.5,195.5 45.5,195.5 44.5,195.5C 44.7733,193.549 44.1066,192.049 42.5,191C 44.8368,188.806 45.1701,186.306 43.5,183.5C 44.4793,182.235 45.4793,180.901 46.5,179.5C 44.9084,177.775 45.2417,176.775 47.5,176.5 Z"/></g>
<g><path style="opacity:1" fill="#594222" d="M 63.5,191.5 C 64.209,192.404 65.209,192.737 66.5,192.5C 66.4802,194.143 67.1468,195.476 68.5,196.5C 68.2907,197.086 67.9574,197.586 67.5,198C 71.4294,200.787 75.4294,203.287 79.5,205.5C 82.8668,208.494 86.8668,210.327 91.5,211C 93.8333,213 96.1667,215 98.5,217C 101.695,217.181 104.695,217.681 107.5,218.5C 103.167,218.5 98.8333,218.5 94.5,218.5C 85.7635,216.814 77.0969,214.481 68.5,211.5C 67.7352,209.071 66.0685,207.738 63.5,207.5C 63.7989,205.396 63.4656,203.396 62.5,201.5C 61.377,203.289 60.0436,203.622 58.5,202.5C 59.1152,200.884 60.1152,199.551 61.5,198.5C 58.5415,196.332 55.2081,194.999 51.5,194.5C 51.7872,190.896 51.4539,187.229 50.5,183.5C 49.448,183.649 48.448,183.483 47.5,183C 47.9863,180.973 47.9863,178.807 47.5,176.5C 47.5,174.167 47.5,171.833 47.5,169.5C 49.5922,169.561 51.0922,170.561 52,172.5C 52.5526,176.16 53.886,179.494 56,182.5C 58.9953,185.202 61.4953,188.202 63.5,191.5 Z"/></g>
<g><path style="opacity:1" fill="#6b522e" d="M 181.5,161.5 C 182.833,161.5 184.167,161.5 185.5,161.5C 185.773,163.451 185.107,164.951 183.5,166C 184.167,166.333 184.833,166.667 185.5,167C 183.975,171.024 182.809,175.191 182,179.5C 181.19,183.358 181.357,187.024 182.5,190.5C 174.489,198.509 165.156,204.509 154.5,208.5C 152.052,207.527 149.385,207.194 146.5,207.5C 146.351,206.448 146.517,205.448 147,204.5C 149.333,202.5 151.667,200.5 154,198.5C 154.464,197.906 154.631,197.239 154.5,196.5C 156.69,195.626 157.69,193.959 157.5,191.5C 158.552,191.649 159.552,191.483 160.5,191C 160.167,190.667 159.833,190.333 159.5,190C 160.938,189.781 162.271,189.281 163.5,188.5C 164.867,185.94 166.867,184.106 169.5,183C 170.337,181.989 170.67,180.822 170.5,179.5C 171.5,179.5 172.5,179.5 173.5,179.5C 173.634,177.708 173.301,176.042 172.5,174.5C 173.708,173.766 175.041,173.433 176.5,173.5C 178.438,169.664 180.105,165.664 181.5,161.5 Z"/></g>
<g><path style="opacity:1" fill="#5f5140" d="M 133.5,179.5 C 133.5,182.5 133.5,185.5 133.5,188.5C 134.822,188.33 135.989,188.663 137,189.5C 138.433,195.501 142.266,198.667 148.5,199C 144.761,201.14 141.261,203.64 138,206.5C 134.551,204.845 131.051,203.512 127.5,202.5C 127.5,205.5 127.5,208.5 127.5,211.5C 125.94,211.481 124.44,211.148 123,210.5C 121.108,213.39 120.275,213.056 120.5,209.5C 117.762,209.851 115.096,210.518 112.5,211.5C 111.571,210.311 111.238,208.978 111.5,207.5C 108.212,207.073 105.212,207.74 102.5,209.5C 99.0818,207.848 95.4151,207.015 91.5,207C 89.5578,205.618 88.2245,203.785 87.5,201.5C 89.6885,203.507 92.3552,204.507 95.5,204.5C 94.83,201.41 95.9967,199.743 99,199.5C 104.124,200.494 109.291,201.161 114.5,201.5C 117.454,201.709 120.121,201.042 122.5,199.5C 125.476,200.73 128.476,200.73 131.5,199.5C 134.285,200.059 136.618,201.392 138.5,203.5C 140.375,198.703 138.709,196.369 133.5,196.5C 133.959,192.927 132.959,189.927 130.5,187.5C 131.949,184.904 132.949,182.237 133.5,179.5 Z"/></g>
<g><path style="opacity:1" fill="#736148" d="M 135.5,175.5 C 135.777,178.448 135.444,181.281 134.5,184C 136.81,184.497 139.143,184.663 141.5,184.5C 141.521,189.067 143.188,192.901 146.5,196C 149.108,198.946 151.775,199.112 154.5,196.5C 154.631,197.239 154.464,197.906 154,198.5C 151.667,200.5 149.333,202.5 147,204.5C 146.517,205.448 146.351,206.448 146.5,207.5C 149.385,207.194 152.052,207.527 154.5,208.5C 144.705,213.531 134.372,216.865 123.5,218.5C 118.167,218.5 112.833,218.5 107.5,218.5C 104.695,217.681 101.695,217.181 98.5,217C 96.1667,215 93.8333,213 91.5,211C 86.8668,210.327 82.8668,208.494 79.5,205.5C 81.5,205.5 83.5,205.5 85.5,205.5C 85.5,204.167 85.5,202.833 85.5,201.5C 86.1667,201.5 86.8333,201.5 87.5,201.5C 88.2245,203.785 89.5578,205.618 91.5,207C 95.4151,207.015 99.0818,207.848 102.5,209.5C 105.212,207.74 108.212,207.073 111.5,207.5C 111.238,208.978 111.571,210.311 112.5,211.5C 115.096,210.518 117.762,209.851 120.5,209.5C 120.275,213.056 121.108,213.39 123,210.5C 124.44,211.148 125.94,211.481 127.5,211.5C 127.5,208.5 127.5,205.5 127.5,202.5C 131.051,203.512 134.551,204.845 138,206.5C 141.261,203.64 144.761,201.14 148.5,199C 142.266,198.667 138.433,195.501 137,189.5C 135.989,188.663 134.822,188.33 133.5,188.5C 133.5,185.5 133.5,182.5 133.5,179.5C 133.989,178.005 134.655,176.671 135.5,175.5 Z"/></g>
</svg>
