<?xml version="1.0" encoding="UTF-8"?>
<!DOCTYPE svg PUBLIC "-//W3C//DTD SVG 1.1//EN" "http://www.w3.org/Graphics/SVG/1.1/DTD/svg11.dtd">
<svg xmlns="http://www.w3.org/2000/svg" version="1.1" width="192px" height="192px" style="shape-rendering:geometricPrecision; text-rendering:geometricPrecision; image-rendering:optimizeQuality; fill-rule:evenodd; clip-rule:evenodd" xmlns:xlink="http://www.w3.org/1999/xlink">
<g><path style="opacity:0.976" fill="#fdfdfd" d="M 82.5,-0.5 C 91.1667,-0.5 99.8333,-0.5 108.5,-0.5C 154.5,8.83333 182.167,36.5 191.5,82.5C 191.5,85.5 191.5,88.5 191.5,91.5C 190.288,92.2299 189.288,93.2299 188.5,94.5C 188.167,94 187.833,93.5 187.5,93C 185.666,87.179 183.999,81.3457 182.5,75.5C 181.952,73.3736 181.285,71.3736 180.5,69.5C 177.681,61.2316 174.348,53.0649 170.5,45C 168.17,41.672 165.504,38.672 162.5,36C 161.333,35.8333 160.167,35.6667 159,35.5C 155.255,36.6906 151.755,38.3572 148.5,40.5C 139.741,47.9786 131.407,55.9786 123.5,64.5C 121.343,65.0505 119.343,65.7171 117.5,66.5C 100.423,66.8184 83.423,66.4851 66.5,65.5C 62.6564,61.2054 58.3231,57.3721 53.5,54C 50.099,51.7907 46.599,49.6241 43,47.5C 37.3521,45.1304 31.5188,43.9638 25.5,44C 22.9598,46.2047 20.7932,48.7047 19,51.5C 12.8941,65.0276 7.39409,78.6942 2.5,92.5C 1.71482,94.3736 1.04816,96.3736 0.5,98.5C 0.767809,100.099 0.434475,101.432 -0.5,102.5C -0.5,95.8333 -0.5,89.1667 -0.5,82.5C 8.83333,36.5 36.5,8.83333 82.5,-0.5 Z"/></g>
<g><path style="opacity:0.991" fill="#070708" d="M 180.5,69.5 C 180.025,72.0821 180.692,74.0821 182.5,75.5C 183.999,81.3457 185.666,87.179 187.5,93C 187.833,93.5 188.167,94 188.5,94.5C 189.288,93.2299 190.288,92.2299 191.5,91.5C 191.5,97.1667 191.5,102.833 191.5,108.5C 190.833,110.833 190.167,113.167 189.5,115.5C 189.481,113.94 189.148,112.44 188.5,111C 183.703,104.431 179.37,97.4308 175.5,90C 173.659,81.8108 171.659,73.6441 169.5,65.5C 167.303,62.5344 165.97,59.201 165.5,55.5C 163.297,52.7993 161.297,49.9659 159.5,47C 157.447,46.6753 155.447,47.0087 153.5,48C 144.728,55.8604 136.395,64.1937 128.5,73C 126.196,73.8952 123.862,74.7285 121.5,75.5C 102.824,76.4445 84.1576,76.9445 65.5,77C 61.9387,73.8604 58.6054,70.527 55.5,67C 51.2371,65.123 47.5704,62.4564 44.5,59C 40.9376,58.2181 37.6043,56.8848 34.5,55C 32.1902,54.5034 29.8568,54.3367 27.5,54.5C 23.5324,65.1157 19.5324,75.7824 15.5,86.5C 13.6921,87.9179 13.0254,89.9179 13.5,92.5C 9.2475,103.398 6.2475,114.731 4.5,126.5C 2.20607,120.656 0.539403,114.656 -0.5,108.5C -0.5,106.5 -0.5,104.5 -0.5,102.5C 0.434475,101.432 0.767809,100.099 0.5,98.5C 2.30794,97.0821 2.97461,95.0821 2.5,92.5C 7.39409,78.6942 12.8941,65.0276 19,51.5C 20.7932,48.7047 22.9598,46.2047 25.5,44C 31.5188,43.9638 37.3521,45.1304 43,47.5C 46.599,49.6241 50.099,51.7907 53.5,54C 58.3231,57.3721 62.6564,61.2054 66.5,65.5C 74.6394,66.8314 83.1394,67.4981 92,67.5C 100.673,67.4998 109.173,67.1664 117.5,66.5C 119.343,65.7171 121.343,65.0505 123.5,64.5C 131.407,55.9786 139.741,47.9786 148.5,40.5C 151.755,38.3572 155.255,36.6906 159,35.5C 160.167,35.6667 161.333,35.8333 162.5,36C 165.504,38.672 168.17,41.672 170.5,45C 174.348,53.0649 177.681,61.2316 180.5,69.5 Z"/></g>
<g><path style="opacity:0.995" fill="#b6d8fd" d="M 189.5,115.5 C 178.6,158.069 151.6,183.402 108.5,191.5C 99.8333,191.5 91.1667,191.5 82.5,191.5C 43.9758,184.899 17.9758,163.233 4.5,126.5C 6.2475,114.731 9.2475,103.398 13.5,92.5C 14.2852,90.6264 14.9518,88.6264 15.5,86.5C 19.5324,75.7824 23.5324,65.1157 27.5,54.5C 29.8568,54.3367 32.1902,54.5034 34.5,55C 37.6043,56.8848 40.9376,58.2181 44.5,59C 47.5704,62.4564 51.2371,65.123 55.5,67C 58.6054,70.527 61.9387,73.8604 65.5,77C 84.1576,76.9445 102.824,76.4445 121.5,75.5C 123.862,74.7285 126.196,73.8952 128.5,73C 136.395,64.1937 144.728,55.8604 153.5,48C 155.447,47.0087 157.447,46.6753 159.5,47C 161.297,49.9659 163.297,52.7993 165.5,55.5C 165.97,59.201 167.303,62.5344 169.5,65.5C 171.659,73.6441 173.659,81.8108 175.5,90C 179.37,97.4308 183.703,104.431 188.5,111C 189.148,112.44 189.481,113.94 189.5,115.5 Z"/></g>
<g><path style="opacity:1" fill="#5b5b5b" d="M 66.5,65.5 C 83.423,66.4851 100.423,66.8184 117.5,66.5C 109.173,67.1664 100.673,67.4998 92,67.5C 83.1394,67.4981 74.6394,66.8314 66.5,65.5 Z"/></g>
<g><path style="opacity:1" fill="#676767" d="M 180.5,69.5 C 181.285,71.3736 181.952,73.3736 182.5,75.5C 180.692,74.0821 180.025,72.0821 180.5,69.5 Z"/></g>
<g><path style="opacity:1" fill="#515864" d="M 15.5,86.5 C 14.9518,88.6264 14.2852,90.6264 13.5,92.5C 13.0254,89.9179 13.6921,87.9179 15.5,86.5 Z"/></g>
<g><path style="opacity:1" fill="#9a9a9a" d="M 2.5,92.5 C 2.97461,95.0821 2.30794,97.0821 0.5,98.5C 1.04816,96.3736 1.71482,94.3736 2.5,92.5 Z"/></g>
<g><path style="opacity:1" fill="#0a0b0c" d="M 143.5,106.5 C 151.14,106.295 152.807,109.128 148.5,115C 147.667,115.167 146.833,115.333 146,115.5C 144.113,115.031 142.613,114.031 141.5,112.5C 140.021,109.743 140.687,107.743 143.5,106.5 Z"/></g>
<g><path style="opacity:1" fill="#606b79" d="M 22.5,109.5 C 20.3792,109.325 18.3792,109.659 16.5,110.5C 16.9704,109.307 17.9704,108.64 19.5,108.5C 20.7261,108.52 21.7261,108.853 22.5,109.5 Z"/></g>
<g><path style="opacity:1" fill="#070708" d="M 22.5,109.5 C 25.6207,111.223 27.9541,113.723 29.5,117C 29.2308,118.607 28.3974,119.774 27,120.5C 26.7638,122.764 26.2638,124.931 25.5,127C 29.9651,133.61 28.1317,137.777 20,139.5C 14.522,138.931 13.1887,136.264 16,131.5C 16.7504,130.874 17.5838,130.374 18.5,130C 11.8333,126.333 11.8333,122.667 18.5,119C 16.8138,117.353 15.4804,115.519 14.5,113.5C 14.4534,111.962 15.1201,110.962 16.5,110.5C 18.3792,109.659 20.3792,109.325 22.5,109.5 Z"/></g>
<g><path style="opacity:1" fill="#050506" d="M 126.5,114.5 C 128.379,113.659 130.379,113.325 132.5,113.5C 136.154,121.037 134.154,126.537 126.5,130C 123.438,130.741 120.438,130.575 117.5,129.5C 115.396,130.519 113.396,131.519 111.5,132.5C 108.721,132.721 106.054,132.388 103.5,131.5C 98.2375,128.603 97.2375,124.603 100.5,119.5C 102.098,118.515 103.765,118.349 105.5,119C 106.155,120.487 107.155,121.653 108.5,122.5C 108.676,120.328 108.843,117.995 109,115.5C 117.743,108.564 122.576,110.564 123.5,121.5C 123.974,118.783 124.974,116.45 126.5,114.5 Z"/></g>
<g><path style="opacity:1" fill="#6b798a" d="M 132.5,113.5 C 130.379,113.325 128.379,113.659 126.5,114.5C 126.97,113.307 127.97,112.64 129.5,112.5C 130.726,112.52 131.726,112.853 132.5,113.5 Z"/></g>
<g><path style="opacity:1" fill="#0b0c0d" d="M 83.5,124.5 C 81.3792,124.675 79.3792,124.341 77.5,123.5C 75.6231,122.341 75.1231,120.674 76,118.5C 80.386,114.317 83.886,114.984 86.5,120.5C 85.7142,122.041 84.7142,123.374 83.5,124.5 Z"/></g>
<g><path style="opacity:1" fill="#6c7c8e" d="M 77.5,123.5 C 79.3792,124.341 81.3792,124.675 83.5,124.5C 82.7261,125.147 81.7261,125.48 80.5,125.5C 78.9704,125.36 77.9704,124.693 77.5,123.5 Z"/></g>
<g><path style="opacity:1" fill="#4b545d" d="M 103.5,131.5 C 106.054,132.388 108.721,132.721 111.5,132.5C 110.378,133.156 109.045,133.489 107.5,133.5C 105.667,133.415 104.334,132.748 103.5,131.5 Z"/></g>
</svg>
