<?xml version="1.0" encoding="UTF-8"?>
<!DOCTYPE svg PUBLIC "-//W3C//DTD SVG 1.1//EN" "http://www.w3.org/Graphics/SVG/1.1/DTD/svg11.dtd">
<svg xmlns="http://www.w3.org/2000/svg" version="1.1" width="160px" height="160px" style="shape-rendering:geometricPrecision; text-rendering:geometricPrecision; image-rendering:optimizeQuality; fill-rule:evenodd; clip-rule:evenodd" xmlns:xlink="http://www.w3.org/1999/xlink">
<g><path style="opacity:0.598" fill="#141005" d="M 70.5,5.5 C 108.42,3.7808 134.753,20.2808 149.5,55C 159.828,92.6908 148.828,122.358 116.5,144C 80.0627,161.234 48.2294,155.067 21,125.5C 4.25778,102.363 0.924442,77.3625 11,50.5C 23.2912,25.3577 43.1246,10.3577 70.5,5.5 Z"/></g>
<g><path style="opacity:1" fill="#f6d12d" d="M 88.5,8.5 C 118.814,13.3039 138.981,30.3039 149,59.5C 156.63,96.3918 144.463,124.558 112.5,144C 77.1897,159.075 47.0231,152.242 22,123.5C 14.0386,112.781 9.53863,100.781 8.5,87.5C 8.09137,53.4709 23.0914,28.9709 53.5,14C 64.8043,9.90609 76.471,8.07276 88.5,8.5 Z"/></g>
<g><path style="opacity:1" fill="#1d1809" d="M 92.5,142.5 C 58.3486,148.17 33.8486,135.17 19,103.5C 9.13631,73.7629 15.9696,48.5963 39.5,28C 66.1186,10.1275 92.7852,10.1275 119.5,28C 144.502,50.3216 150.669,77.1549 138,108.5C 128.381,127.289 113.215,138.622 92.5,142.5 Z"/></g>
<g><path style="opacity:1" fill="#fd940b" d="M 98.5,19.5 C 100.833,20.1667 103.167,20.8333 105.5,21.5C 99.8429,27.1535 93.8429,32.4869 87.5,37.5C 84.8728,36.9084 82.2062,36.5751 79.5,36.5C 86.0218,31.0678 92.3551,25.4011 98.5,19.5 Z"/></g>
<g><path style="opacity:1" fill="#fdad45" d="M 87.5,18.5 C 90.8599,18.6159 94.1933,18.9492 97.5,19.5C 97.8333,19.5 98.1667,19.5 98.5,19.5C 92.3551,25.4011 86.0218,31.0678 79.5,36.5C 75.9634,37.5397 72.63,38.8731 69.5,40.5C 67.2143,40.595 65.2143,41.2616 63.5,42.5C 61.079,42.8782 58.7457,43.5448 56.5,44.5C 66.2231,35.1106 76.5565,26.4439 87.5,18.5 Z"/></g>
<g><path style="opacity:1" fill="#fd930a" d="M 67.5,17.5 C 68.1667,17.5 68.8333,17.5 69.5,17.5C 75.69,17.1771 81.69,17.5104 87.5,18.5C 76.5565,26.4439 66.2231,35.1106 56.5,44.5C 53.9906,45.9213 51.6572,47.5879 49.5,49.5C 47.326,49.7497 45.6594,50.7497 44.5,52.5C 39.8333,55.1667 36.1667,58.8333 33.5,63.5C 31.8089,64.8637 30.1423,66.197 28.5,67.5C 26.6316,68.2632 24.9649,69.2632 23.5,70.5C 22.2921,71.2341 20.9587,71.5674 19.5,71.5C 22.5178,53.3098 31.5178,38.8098 46.5,28C 53.3132,23.9267 60.3132,20.4267 67.5,17.5 Z"/></g>
<g><path style="opacity:1" fill="#c57a1e" d="M 69.5,17.5 C 76.3209,16.3454 83.3209,16.1787 90.5,17C 93.1909,17.1558 95.5242,17.9891 97.5,19.5C 94.1933,18.9492 90.8599,18.6159 87.5,18.5C 81.69,17.5104 75.69,17.1771 69.5,17.5 Z"/></g>
<g><path style="opacity:1" fill="#fcac45" d="M 105.5,21.5 C 108.032,22.5957 110.365,23.9291 112.5,25.5C 110.745,26.0722 109.078,26.9055 107.5,28C 103.307,31.3651 99.3068,34.8651 95.5,38.5C 92.8728,37.9084 90.2062,37.5751 87.5,37.5C 93.8429,32.4869 99.8429,27.1535 105.5,21.5 Z"/></g>
<g><path style="opacity:1" fill="#fa9107" d="M 112.5,25.5 C 121.167,30.8333 128.167,37.8333 133.5,46.5C 133.586,47.4959 133.252,48.3292 132.5,49C 129.935,51.0795 127.268,52.9128 124.5,54.5C 122.507,52.5332 120.507,50.5332 118.5,48.5C 118.167,48.6667 117.833,48.8333 117.5,49C 121.794,52.5577 121.46,53.7244 116.5,52.5C 112.516,51.5875 108.349,50.9208 104,50.5C 101.578,50.4824 99.4115,51.1491 97.5,52.5C 95.8228,51.8131 94.1561,51.1465 92.5,50.5C 90.8243,48.1663 88.491,47.1663 85.5,47.5C 85.5,47.1667 85.5,46.8333 85.5,46.5C 88.192,44.1377 90.8587,41.8044 93.5,39.5C 94.391,40.1098 95.391,40.4431 96.5,40.5C 96.1667,39.8333 95.8333,39.1667 95.5,38.5C 99.3068,34.8651 103.307,31.3651 107.5,28C 109.078,26.9055 110.745,26.0722 112.5,25.5 Z"/></g>
<g><path style="opacity:1" fill="#f4db5b" d="M 88.5,8.5 C 76.471,8.07276 64.8043,9.90609 53.5,14C 23.0914,28.9709 8.09137,53.4709 8.5,87.5C 6.23057,49.2509 23.2306,23.4176 59.5,10C 69.1971,7.41964 78.8638,6.91964 88.5,8.5 Z"/></g>
<g><path style="opacity:1" fill="#bf6e06" d="M 67.5,17.5 C 60.3132,20.4267 53.3132,23.9267 46.5,28C 31.5178,38.8098 22.5178,53.3098 19.5,71.5C 18.1765,72.8499 17.1765,72.6833 16.5,71C 22.1046,42.2302 39.1046,24.3968 67.5,17.5 Z"/></g>
<g><path style="opacity:1" fill="#774a12" d="M 79.5,36.5 C 82.2062,36.5751 84.8728,36.9084 87.5,37.5C 90.2062,37.5751 92.8728,37.9084 95.5,38.5C 95.8333,39.1667 96.1667,39.8333 96.5,40.5C 95.391,40.4431 94.391,40.1098 93.5,39.5C 90.7628,39.5987 88.0961,39.2653 85.5,38.5C 81.1829,38.0834 77.1829,38.7501 73.5,40.5C 72.0413,40.4326 70.7079,40.7659 69.5,41.5C 69.5,41.1667 69.5,40.8333 69.5,40.5C 72.63,38.8731 75.9634,37.5397 79.5,36.5 Z"/></g>
<g><path style="opacity:1" fill="#f68c04" d="M 85.5,38.5 C 81.618,43.0664 76.9513,46.3997 71.5,48.5C 69.4471,48.4021 67.7804,49.0687 66.5,50.5C 63.7515,51.974 61.4182,53.974 59.5,56.5C 58.8333,56.8333 58.1667,57.1667 57.5,57.5C 57.5858,56.5041 57.2524,55.6708 56.5,55C 62.9717,51.0219 68.6384,46.1886 73.5,40.5C 77.1829,38.7501 81.1829,38.0834 85.5,38.5 Z"/></g>
<g><path style="opacity:1" fill="#f3a43c" d="M 85.5,38.5 C 88.0961,39.2653 90.7628,39.5987 93.5,39.5C 90.8587,41.8044 88.192,44.1377 85.5,46.5C 83.5853,46.2155 81.9187,46.5489 80.5,47.5C 77.6085,48.4025 74.6085,48.7359 71.5,48.5C 76.9513,46.3997 81.618,43.0664 85.5,38.5 Z"/></g>
<g><path style="opacity:1" fill="#1e1509" d="M 69.5,40.5 C 69.5,40.8333 69.5,41.1667 69.5,41.5C 67.7162,41.8925 66.0495,42.5592 64.5,43.5C 63.8333,43.5 63.5,43.1667 63.5,42.5C 65.2143,41.2616 67.2143,40.595 69.5,40.5 Z"/></g>
<g><path style="opacity:1" fill="#774403" d="M 96.5,40.5 C 102.677,40.3019 108.344,41.8019 113.5,45C 110.439,44.2098 107.273,43.3764 104,42.5C 103.167,42.6667 102.333,42.8333 101.5,43C 103.007,43.8373 103.507,45.0039 103,46.5C 100.665,44.5998 98.498,42.5998 96.5,40.5 Z"/></g>
<g><path style="opacity:1" fill="#734916" d="M 63.5,42.5 C 63.5,43.1667 63.8333,43.5 64.5,43.5C 57.6525,48.3505 52.6525,54.6838 49.5,62.5C 50.1667,63.1667 50.8333,63.8333 51.5,64.5C 49.9058,67.9913 49.2391,71.658 49.5,75.5C 49.2267,77.451 49.8934,78.951 51.5,80C 49.9981,84.1505 50.3315,88.1505 52.5,92C 51.2559,92.4561 50.4226,91.9561 50,90.5C 48.8436,86.5602 48.0103,82.5602 47.5,78.5C 47.5751,75.7938 47.9084,73.1272 48.5,70.5C 49.6303,67.8033 49.6303,65.1367 48.5,62.5C 49.9263,55.5618 53.593,50.0618 59.5,46C 56.1484,46.8291 52.8151,47.9958 49.5,49.5C 51.6572,47.5879 53.9906,45.9213 56.5,44.5C 58.7457,43.5448 61.079,42.8782 63.5,42.5 Z"/></g>
<g><path style="opacity:1" fill="#64533d" d="M 85.5,47.5 C 88.491,47.1663 90.8243,48.1663 92.5,50.5C 89.9823,49.7362 87.649,48.7362 85.5,47.5 Z"/></g>
<g><path style="opacity:0.996" fill="#615a4b" d="M 80.5,47.5 C 82.3885,48.322 84.3885,49.1553 86.5,50C 79.8415,49.1709 73.1749,49.3376 66.5,50.5C 67.7804,49.0687 69.4471,48.4021 71.5,48.5C 74.6085,48.7359 77.6085,48.4025 80.5,47.5 Z"/></g>
<g><path style="opacity:1" fill="#faac45" d="M 133.5,46.5 C 139.584,55.4847 142.584,65.4847 142.5,76.5C 136.233,80.7607 130.233,85.4273 124.5,90.5C 124.337,88.1432 124.503,85.8098 125,83.5C 126.481,82.5291 127.315,81.1958 127.5,79.5C 129.869,77.2627 131.202,74.4294 131.5,71C 130.946,68.1764 130.446,65.343 130,62.5C 129.578,60.5743 128.411,59.5743 126.5,59.5C 126.167,58.8333 125.833,58.1667 125.5,57.5C 124.89,56.609 124.557,55.609 124.5,54.5C 127.268,52.9128 129.935,51.0795 132.5,49C 133.252,48.3292 133.586,47.4959 133.5,46.5 Z"/></g>
<g><path style="opacity:1" fill="#f2a43d" d="M 48.5,62.5 C 41.8518,67.4756 35.1851,72.4756 28.5,77.5C 28.31,73.9682 28.9767,70.6348 30.5,67.5C 32.2624,66.7377 33.2624,65.4044 33.5,63.5C 37.5,60.1667 41.1667,56.5 44.5,52.5C 45.6594,50.7497 47.326,49.7497 49.5,49.5C 52.8151,47.9958 56.1484,46.8291 59.5,46C 53.593,50.0618 49.9263,55.5618 48.5,62.5 Z"/></g>
<g><path style="opacity:1" fill="#cabda0" d="M 85.5,46.5 C 85.5,46.8333 85.5,47.1667 85.5,47.5C 87.649,48.7362 89.9823,49.7362 92.5,50.5C 93.5478,52.5338 95.2145,53.8671 97.5,54.5C 99.5851,53.229 101.752,52.229 104,51.5C 104.833,51.6667 105.667,51.8333 106.5,52C 105.328,52.4186 104.328,53.0853 103.5,54C 103.833,54.1667 104.167,54.3333 104.5,54.5C 108.288,52.7442 112.288,52.0775 116.5,52.5C 118.072,53.6873 119.739,54.6873 121.5,55.5C 118.695,56.3195 115.695,56.8195 112.5,57C 117.275,57.3458 121.942,58.1791 126.5,59.5C 129.808,65.9853 130.142,72.652 127.5,79.5C 125.704,80.7927 124.037,82.2927 122.5,84C 120.655,85.128 118.655,85.628 116.5,85.5C 116.389,84.8826 116.056,84.3826 115.5,84C 118.266,82.629 120.599,80.7957 122.5,78.5C 124.572,75.752 126.239,72.752 127.5,69.5C 126.312,67.7377 124.645,66.7377 122.5,66.5C 116.55,63.748 110.216,62.9147 103.5,64C 102.944,64.3826 102.611,64.8826 102.5,65.5C 99.8318,64.5433 98.3318,62.5433 98,59.5C 97.3457,58.3044 96.8457,58.3044 96.5,59.5C 100.727,69.0736 103.06,79.0736 103.5,89.5C 100.102,89.8204 96.7683,89.487 93.5,88.5C 96.5972,87.8055 96.9305,86.8055 94.5,85.5C 94.1667,83.8333 93.8333,82.1667 93.5,80.5C 94.242,74.5211 94.5753,68.5211 94.5,62.5C 91.8728,61.9084 89.2062,61.5751 86.5,61.5C 81.1667,61.5 75.8333,61.5 70.5,61.5C 66.4702,61.799 62.6368,62.799 59,64.5C 58.3985,61.7795 58.5651,59.1128 59.5,56.5C 67.6644,54.2936 75.9977,53.1269 84.5,53C 78.6394,52.2797 72.806,52.4463 67,53.5C 66.1667,53.3333 65.3333,53.1667 64.5,53C 65.3805,52.2917 66.0472,51.4584 66.5,50.5C 73.1749,49.3376 79.8415,49.1709 86.5,50C 84.3885,49.1553 82.3885,48.322 80.5,47.5C 81.9187,46.5489 83.5853,46.2155 85.5,46.5 Z"/></g>
<g><path style="opacity:1" fill="#67523a" d="M 92.5,50.5 C 94.1561,51.1465 95.8228,51.8131 97.5,52.5C 99.4115,51.1491 101.578,50.4824 104,50.5C 108.349,50.9208 112.516,51.5875 116.5,52.5C 112.288,52.0775 108.288,52.7442 104.5,54.5C 104.167,54.3333 103.833,54.1667 103.5,54C 104.328,53.0853 105.328,52.4186 106.5,52C 105.667,51.8333 104.833,51.6667 104,51.5C 101.752,52.229 99.5851,53.229 97.5,54.5C 95.2145,53.8671 93.5478,52.5338 92.5,50.5 Z"/></g>
<g><path style="opacity:1" fill="#774711" d="M 124.5,54.5 C 124.557,55.609 124.89,56.609 125.5,57.5C 123.801,57.4729 122.467,56.8062 121.5,55.5C 119.739,54.6873 118.072,53.6873 116.5,52.5C 121.46,53.7244 121.794,52.5577 117.5,49C 117.833,48.8333 118.167,48.6667 118.5,48.5C 120.507,50.5332 122.507,52.5332 124.5,54.5 Z"/></g>
<g><path style="opacity:1" fill="#635948" d="M 66.5,50.5 C 66.0472,51.4584 65.3805,52.2917 64.5,53C 65.3333,53.1667 66.1667,53.3333 67,53.5C 72.806,52.4463 78.6394,52.2797 84.5,53C 75.9977,53.1269 67.6644,54.2936 59.5,56.5C 61.4182,53.974 63.7515,51.974 66.5,50.5 Z"/></g>
<g><path style="opacity:1" fill="#f79b29" d="M 73.5,40.5 C 68.6384,46.1886 62.9717,51.0219 56.5,55C 57.2524,55.6708 57.5858,56.5041 57.5,57.5C 57.7583,61.3669 57.0916,65.0336 55.5,68.5C 54.5655,69.5676 54.2322,70.901 54.5,72.5C 53.078,73.925 51.4113,74.925 49.5,75.5C 49.2391,71.658 49.9058,67.9913 51.5,64.5C 50.8333,63.8333 50.1667,63.1667 49.5,62.5C 52.6525,54.6838 57.6525,48.3505 64.5,43.5C 66.0495,42.5592 67.7162,41.8925 69.5,41.5C 70.7079,40.7659 72.0413,40.4326 73.5,40.5 Z"/></g>
<g><path style="opacity:1" fill="#544b3a" d="M 121.5,55.5 C 122.467,56.8062 123.801,57.4729 125.5,57.5C 125.833,58.1667 126.167,58.8333 126.5,59.5C 121.942,58.1791 117.275,57.3458 112.5,57C 115.695,56.8195 118.695,56.3195 121.5,55.5 Z"/></g>
<g><path style="opacity:1" fill="#694212" d="M 44.5,52.5 C 41.1667,56.5 37.5,60.1667 33.5,63.5C 36.1667,58.8333 39.8333,55.1667 44.5,52.5 Z"/></g>
<g><path style="opacity:1" fill="#090909" d="M 70.5,61.5 C 75.8333,61.5 81.1667,61.5 86.5,61.5C 86.3284,62.4916 86.6618,63.1583 87.5,63.5C 91.0526,76.9253 86.0526,82.4253 72.5,80C 67.4936,75.4673 65.827,69.9673 67.5,63.5C 68.5,62.8333 69.5,62.1667 70.5,61.5 Z"/></g>
<g><path style="opacity:1" fill="#fb8d04" d="M 48.5,62.5 C 49.6303,65.1367 49.6303,67.8033 48.5,70.5C 41.8549,75.1496 35.5216,80.1496 29.5,85.5C 29.1667,85.5 28.8333,85.5 28.5,85.5C 28.5,82.8333 28.5,80.1667 28.5,77.5C 35.1851,72.4756 41.8518,67.4756 48.5,62.5 Z"/></g>
<g><path style="opacity:1" fill="#f0f0f0" d="M 88.5,80.5 C 79.5666,83.9079 71.2332,82.9079 63.5,77.5C 63.573,75.9731 62.9063,74.9731 61.5,74.5C 60.2488,71.5943 59.7488,68.5943 60,65.5C 62.3015,64.1328 64.8015,63.4661 67.5,63.5C 65.827,69.9673 67.4936,75.4673 72.5,80C 86.0526,82.4253 91.0526,76.9253 87.5,63.5C 88.6719,62.2947 90.0052,62.2947 91.5,63.5C 92.6609,67.7953 92.8275,72.1287 92,76.5C 90.8978,77.949 89.7311,79.2823 88.5,80.5 Z"/></g>
<g><path style="opacity:1" fill="#151414" d="M 122.5,66.5 C 123.961,73.9282 121.128,78.5948 114,80.5C 111.077,80.2048 108.743,78.8715 107,76.5C 105.81,72.6192 105.143,68.6192 105,64.5C 104.329,65.2524 103.496,65.5858 102.5,65.5C 102.611,64.8826 102.944,64.3826 103.5,64C 110.216,62.9147 116.55,63.748 122.5,66.5 Z"/></g>
<g><path style="opacity:1" fill="#e4e4e4" d="M 81.5,64.5 C 82.8221,64.33 83.9887,64.6634 85,65.5C 85.6667,67.5 85.6667,69.5 85,71.5C 84,72.8333 83,72.8333 82,71.5C 81.5034,69.1902 81.3367,66.8568 81.5,64.5 Z"/></g>
<g><path style="opacity:1" fill="#eaeaea" d="M 122.5,66.5 C 124.645,66.7377 126.312,67.7377 127.5,69.5C 126.239,72.752 124.572,75.752 122.5,78.5C 119.412,80.3751 116.078,81.7085 112.5,82.5C 112.158,81.6618 111.492,81.3284 110.5,81.5C 108.574,79.7073 106.241,78.7073 103.5,78.5C 103.15,75.2785 102.483,72.1118 101.5,69C 101.648,67.7441 101.982,66.5774 102.5,65.5C 103.496,65.5858 104.329,65.2524 105,64.5C 105.143,68.6192 105.81,72.6192 107,76.5C 108.743,78.8715 111.077,80.2048 114,80.5C 121.128,78.5948 123.961,73.9282 122.5,66.5 Z"/></g>
<g><path style="opacity:0.996" fill="#423016" d="M 33.5,63.5 C 33.2624,65.4044 32.2624,66.7377 30.5,67.5C 29.8333,67.5 29.1667,67.5 28.5,67.5C 30.1423,66.197 31.8089,64.8637 33.5,63.5 Z"/></g>
<g><path style="opacity:1" fill="#e7e7e7" d="M 117.5,66.5 C 119.484,66.484 120.484,67.484 120.5,69.5C 120.547,71.0004 119.881,72.0004 118.5,72.5C 117.534,70.604 117.201,68.604 117.5,66.5 Z"/></g>
<g><path style="opacity:1" fill="#69665d" d="M 59.5,56.5 C 58.5651,59.1128 58.3985,61.7795 59,64.5C 62.6368,62.799 66.4702,61.799 70.5,61.5C 69.5,62.1667 68.5,62.8333 67.5,63.5C 64.8015,63.4661 62.3015,64.1328 60,65.5C 59.7488,68.5943 60.2488,71.5943 61.5,74.5C 59.9186,72.3263 58.4186,69.9929 57,67.5C 56.7679,68.7375 56.2679,69.7375 55.5,70.5C 55.5,69.8333 55.5,69.1667 55.5,68.5C 57.0916,65.0336 57.7583,61.3669 57.5,57.5C 58.1667,57.1667 58.8333,56.8333 59.5,56.5 Z"/></g>
<g><path style="opacity:1" fill="#ebebeb" d="M 70.5,67.5 C 71.6491,67.7911 72.3158,68.6244 72.5,70C 71.7062,73.1215 70.7062,73.1215 69.5,70C 69.7432,69.0979 70.0766,68.2646 70.5,67.5 Z"/></g>
<g><path style="opacity:1" fill="#e7e7e7" d="M 107.5,68.5 C 108.586,68.62 109.253,69.2867 109.5,70.5C 109.167,71.1667 108.833,71.8333 108.5,72.5C 107.571,71.3112 107.238,69.9778 107.5,68.5 Z"/></g>
<g><path style="opacity:1" fill="#436c34" d="M 28.5,67.5 C 29.1667,67.5 29.8333,67.5 30.5,67.5C 28.9767,70.6348 28.31,73.9682 28.5,77.5C 28.5,80.1667 28.5,82.8333 28.5,85.5C 27.5128,80.6946 27.1795,75.6946 27.5,70.5C 26.1667,70.5 24.8333,70.5 23.5,70.5C 24.9649,69.2632 26.6316,68.2632 28.5,67.5 Z"/></g>
<g><path style="opacity:1" fill="#fcaa3f" d="M 48.5,70.5 C 47.9084,73.1272 47.5751,75.7938 47.5,78.5C 43.041,81.787 38.7077,85.287 34.5,89C 33.255,89.7914 31.9217,90.2914 30.5,90.5C 29.962,88.8828 29.6287,87.2161 29.5,85.5C 35.5216,80.1496 41.8549,75.1496 48.5,70.5 Z"/></g>
<g><path style="opacity:1" fill="#34b45a" d="M 23.5,70.5 C 24.8333,70.5 26.1667,70.5 27.5,70.5C 27.1795,75.6946 27.5128,80.6946 28.5,85.5C 28.4095,88.1522 29.0762,90.4855 30.5,92.5C 29.1667,93.5 27.8333,94.5 26.5,95.5C 22.9744,89.4064 21.141,82.7398 21,75.5C 20.1073,83.3221 21.6073,90.6555 25.5,97.5C 23.9731,97.427 22.9731,98.0937 22.5,99.5C 21.609,100.11 20.609,100.443 19.5,100.5C 16.9028,91.7095 15.9028,82.7095 16.5,73.5C 17.9305,73.5792 19.2638,73.2458 20.5,72.5C 22.2527,74.641 23.2527,73.9743 23.5,70.5 Z"/></g>
<g><path style="opacity:1" fill="#bebebe" d="M 75.5,75.5 C 76.675,75.281 77.675,75.6143 78.5,76.5C 76.9483,77.7979 75.9483,77.4646 75.5,75.5 Z"/></g>
<g><path style="opacity:1" fill="#6a563d" d="M 126.5,59.5 C 128.411,59.5743 129.578,60.5743 130,62.5C 130.446,65.343 130.946,68.1764 131.5,71C 131.202,74.4294 129.869,77.2627 127.5,79.5C 130.142,72.652 129.808,65.9853 126.5,59.5 Z"/></g>
<g><path style="opacity:1" fill="#fc930a" d="M 142.5,76.5 C 142.5,80.5 142.5,84.5 142.5,88.5C 128.24,99.1283 114.573,110.462 101.5,122.5C 100.2,119.976 100.2,117.309 101.5,114.5C 104.94,112.9 108.274,111.067 111.5,109C 113.037,107.89 113.703,106.39 113.5,104.5C 116.167,103.833 117.833,102.167 118.5,99.5C 119.906,99.0269 120.573,98.0269 120.5,96.5C 122.014,94.636 123.347,92.636 124.5,90.5C 130.233,85.4273 136.233,80.7607 142.5,76.5 Z"/></g>
<g><path style="opacity:1" fill="#f98c02" d="M 54.5,72.5 C 54.3531,77.2142 54.6864,81.8809 55.5,86.5C 56.3234,89.4802 57.6567,92.1469 59.5,94.5C 59.427,96.0269 60.0937,97.0269 61.5,97.5C 62.4151,99.7541 63.7484,101.754 65.5,103.5C 61.1941,107.635 56.6941,111.635 52,115.5C 51.1841,114.177 50.0174,113.511 48.5,113.5C 40.3077,108.313 34.3077,101.313 30.5,92.5C 30.5,91.8333 30.5,91.1667 30.5,90.5C 31.9217,90.2914 33.255,89.7914 34.5,89C 38.7077,85.287 43.041,81.787 47.5,78.5C 48.0103,82.5602 48.8436,86.5602 50,90.5C 50.4226,91.9561 51.2559,92.4561 52.5,92C 50.3315,88.1505 49.9981,84.1505 51.5,80C 49.8934,78.951 49.2267,77.451 49.5,75.5C 51.4113,74.925 53.078,73.925 54.5,72.5 Z"/></g>
<g><path style="opacity:1" fill="#503b26" d="M 55.5,68.5 C 55.5,69.1667 55.5,69.8333 55.5,70.5C 55.335,73.8499 55.5017,77.1832 56,80.5C 59.0142,78.4656 59.1809,76.1322 56.5,73.5C 56.8333,73.1667 57.1667,72.8333 57.5,72.5C 58.8554,75.2109 60.1888,77.8776 61.5,80.5C 60.5768,79.6971 59.5768,79.5304 58.5,80C 57.0735,82.0454 56.0735,84.2121 55.5,86.5C 54.6864,81.8809 54.3531,77.2142 54.5,72.5C 54.2322,70.901 54.5655,69.5676 55.5,68.5 Z"/></g>
<g><path style="opacity:1" fill="#8c4c02" d="M 61.5,80.5 C 62.5,80.8333 63.1667,81.5 63.5,82.5C 64.7345,84.3983 64.4011,86.065 62.5,87.5C 59.9078,89.0361 58.9078,91.3695 59.5,94.5C 57.6567,92.1469 56.3234,89.4802 55.5,86.5C 56.0735,84.2121 57.0735,82.0454 58.5,80C 59.5768,79.5304 60.5768,79.6971 61.5,80.5 Z"/></g>
<g><path style="opacity:1" fill="#5f5c54" d="M 122.5,78.5 C 120.599,80.7957 118.266,82.629 115.5,84C 116.056,84.3826 116.389,84.8826 116.5,85.5C 114.596,85.2624 113.262,84.2624 112.5,82.5C 116.078,81.7085 119.412,80.3751 122.5,78.5 Z"/></g>
<g><path style="opacity:1" fill="#5e5a50" d="M 63.5,77.5 C 71.2332,82.9079 79.5666,83.9079 88.5,80.5C 81.3814,84.3086 74.0481,84.4752 66.5,81C 64.9371,80.2411 63.9371,79.0744 63.5,77.5 Z"/></g>
<g><path style="opacity:1" fill="#124c23" d="M 26.5,95.5 C 26.5,96.5 26.5,97.5 26.5,98.5C 25.8333,98.5 25.5,98.1667 25.5,97.5C 21.6073,90.6555 20.1073,83.3221 21,75.5C 21.141,82.7398 22.9744,89.4064 26.5,95.5 Z"/></g>
<g><path style="opacity:1" fill="#c5b797" d="M 61.5,74.5 C 62.9063,74.9731 63.573,75.9731 63.5,77.5C 63.9371,79.0744 64.9371,80.2411 66.5,81C 74.0481,84.4752 81.3814,84.3086 88.5,80.5C 89.4959,80.5858 90.3292,80.2524 91,79.5C 91.4955,81.4727 91.6621,83.4727 91.5,85.5C 89.302,85.1201 87.6354,85.7868 86.5,87.5C 83.4816,87.3354 80.4816,87.502 77.5,88C 79.5,88.3333 81.5,88.6667 83.5,89C 82.7476,89.6708 82.4142,90.5041 82.5,91.5C 82.1667,91.5 81.8333,91.5 81.5,91.5C 77.375,94.4526 73.375,97.6193 69.5,101C 68.552,101.483 67.552,101.649 66.5,101.5C 64.8333,100.167 63.1667,98.8333 61.5,97.5C 60.0937,97.0269 59.427,96.0269 59.5,94.5C 58.9078,91.3695 59.9078,89.0361 62.5,87.5C 64.0443,87.2969 65.3777,86.6302 66.5,85.5C 67.7678,86.4279 69.1011,86.5946 70.5,86C 68.1136,84.8068 65.7802,83.6401 63.5,82.5C 63.1667,81.5 62.5,80.8333 61.5,80.5C 60.1888,77.8776 58.8554,75.2109 57.5,72.5C 57.1667,72.8333 56.8333,73.1667 56.5,73.5C 59.1809,76.1322 59.0142,78.4656 56,80.5C 55.5017,77.1832 55.335,73.8499 55.5,70.5C 56.2679,69.7375 56.7679,68.7375 57,67.5C 58.4186,69.9929 59.9186,72.3263 61.5,74.5 Z"/></g>
<g><path style="opacity:1" fill="#52402f" d="M 63.5,82.5 C 65.7802,83.6401 68.1136,84.8068 70.5,86C 69.1011,86.5946 67.7678,86.4279 66.5,85.5C 65.3777,86.6302 64.0443,87.2969 62.5,87.5C 64.4011,86.065 64.7345,84.3983 63.5,82.5 Z"/></g>
<g><path style="opacity:1" fill="#6a6152" d="M 86.5,61.5 C 89.2062,61.5751 91.8728,61.9084 94.5,62.5C 94.5753,68.5211 94.242,74.5211 93.5,80.5C 93.8333,82.1667 94.1667,83.8333 94.5,85.5C 96.9305,86.8055 96.5972,87.8055 93.5,88.5C 96.7683,89.487 100.102,89.8204 103.5,89.5C 100.024,90.6433 96.3575,90.8099 92.5,90C 91.6634,88.9887 91.33,87.8221 91.5,86.5C 89.7839,86.6287 88.1172,86.962 86.5,87.5C 87.6354,85.7868 89.302,85.1201 91.5,85.5C 91.6621,83.4727 91.4955,81.4727 91,79.5C 90.3292,80.2524 89.4959,80.5858 88.5,80.5C 89.7311,79.2823 90.8978,77.949 92,76.5C 92.8275,72.1287 92.6609,67.7953 91.5,63.5C 90.0052,62.2947 88.6719,62.2947 87.5,63.5C 86.6618,63.1583 86.3284,62.4916 86.5,61.5 Z"/></g>
<g><path style="opacity:1" fill="#21201d" d="M 101.5,85.5 C 102.713,86.4971 102.546,87.4971 101,88.5C 100.53,87.4232 100.697,86.4232 101.5,85.5 Z"/></g>
<g><path style="opacity:1" fill="#4a3f2f" d="M 86.5,87.5 C 85.5,89.1667 84.1667,90.5 82.5,91.5C 82.4142,90.5041 82.7476,89.6708 83.5,89C 81.5,88.6667 79.5,88.3333 77.5,88C 80.4816,87.502 83.4816,87.3354 86.5,87.5 Z"/></g>
<g><path style="opacity:1" fill="#5f5343" d="M 102.5,65.5 C 101.982,66.5774 101.648,67.7441 101.5,69C 102.483,72.1118 103.15,75.2785 103.5,78.5C 106.241,78.7073 108.574,79.7073 110.5,81.5C 109.504,81.4142 108.671,81.7476 108,82.5C 107.29,81.0267 106.124,80.3601 104.5,80.5C 103.38,85.0575 105.047,87.8908 109.5,89C 112.754,91.7506 113.088,94.5839 110.5,97.5C 111.464,91.4771 109.131,88.8104 103.5,89.5C 103.06,79.0736 100.727,69.0736 96.5,59.5C 96.8457,58.3044 97.3457,58.3044 98,59.5C 98.3318,62.5433 99.8318,64.5433 102.5,65.5 Z"/></g>
<g><path style="opacity:1" fill="#3e562b" d="M 28.5,85.5 C 28.8333,85.5 29.1667,85.5 29.5,85.5C 29.6287,87.2161 29.962,88.8828 30.5,90.5C 30.5,91.1667 30.5,91.8333 30.5,92.5C 29.0762,90.4855 28.4095,88.1522 28.5,85.5 Z"/></g>
<g><path style="opacity:1" fill="#6e4f2a" d="M 127.5,79.5 C 127.315,81.1958 126.481,82.5291 125,83.5C 124.503,85.8098 124.337,88.1432 124.5,90.5C 123.347,92.636 122.014,94.636 120.5,96.5C 120.539,95.4168 120.873,94.4168 121.5,93.5C 119.822,90.8053 118.156,88.1386 116.5,85.5C 118.655,85.628 120.655,85.128 122.5,84C 124.037,82.2927 125.704,80.7927 127.5,79.5 Z"/></g>
<g><path style="opacity:1" fill="#ae7b3c" d="M 103.5,89.5 C 109.131,88.8104 111.464,91.4771 110.5,97.5C 109.713,99.1042 108.38,99.7709 106.5,99.5C 103.531,100.329 100.531,100.495 97.5,100C 98.3366,98.9887 98.67,97.8221 98.5,96.5C 100.75,96.8186 102.75,96.3186 104.5,95C 100.466,92.3478 96.1329,91.8478 91.5,93.5C 90.2021,95.0517 90.5354,96.0517 92.5,96.5C 92.5,97.8333 92.5,99.1667 92.5,100.5C 87.2264,99.5891 83.893,96.5891 82.5,91.5C 84.1667,90.5 85.5,89.1667 86.5,87.5C 88.1172,86.962 89.7839,86.6287 91.5,86.5C 91.33,87.8221 91.6634,88.9887 92.5,90C 96.3575,90.8099 100.024,90.6433 103.5,89.5 Z"/></g>
<g><path style="opacity:1" fill="#fead45" d="M 142.5,88.5 C 141.87,92.0477 140.87,95.3811 139.5,98.5C 139.103,97.475 138.437,97.3083 137.5,98C 126.839,107.651 115.839,116.818 104.5,125.5C 103.167,124.833 102.167,123.833 101.5,122.5C 114.573,110.462 128.24,99.1283 142.5,88.5 Z"/></g>
<g><path style="opacity:1" fill="#d4c9b0" d="M 110.5,81.5 C 111.492,81.3284 112.158,81.6618 112.5,82.5C 113.262,84.2624 114.596,85.2624 116.5,85.5C 118.156,88.1386 119.822,90.8053 121.5,93.5C 120.873,94.4168 120.539,95.4168 120.5,96.5C 120.573,98.0269 119.906,99.0269 118.5,99.5C 116.5,100.833 114.833,102.5 113.5,104.5C 111.181,104.992 109.181,105.992 107.5,107.5C 97.8547,110.723 88.5213,110.057 79.5,105.5C 81.6489,107.746 84.3156,109.246 87.5,110C 91.3563,110.177 95.023,110.677 98.5,111.5C 91.017,111.909 83.6836,111.242 76.5,109.5C 73.6689,108.921 71.3356,107.588 69.5,105.5C 68.5,104.167 67.5,102.833 66.5,101.5C 67.552,101.649 68.552,101.483 69.5,101C 73.375,97.6193 77.375,94.4526 81.5,91.5C 81.4773,98.6827 85.1439,102.016 92.5,101.5C 92.2627,102.791 92.596,103.791 93.5,104.5C 95.817,105.534 96.817,104.534 96.5,101.5C 99.5184,101.665 102.518,101.498 105.5,101C 106.056,100.617 106.389,100.117 106.5,99.5C 108.38,99.7709 109.713,99.1042 110.5,97.5C 113.088,94.5839 112.754,91.7506 109.5,89C 105.047,87.8908 103.38,85.0575 104.5,80.5C 106.124,80.3601 107.29,81.0267 108,82.5C 108.671,81.7476 109.504,81.4142 110.5,81.5 Z"/></g>
<g><path style="opacity:0.998" fill="#16130e" d="M 98.5,96.5 C 98.1667,96.5 97.8333,96.5 97.5,96.5C 96.1667,96.5 94.8333,96.5 93.5,96.5C 93.1667,96.5 92.8333,96.5 92.5,96.5C 90.5354,96.0517 90.2021,95.0517 91.5,93.5C 96.1329,91.8478 100.466,92.3478 104.5,95C 102.75,96.3186 100.75,96.8186 98.5,96.5 Z"/></g>
<g><path style="opacity:1" fill="#0c9e33" d="M 30.5,92.5 C 34.3077,101.313 40.3077,108.313 48.5,113.5C 49.1667,114.5 49.8333,115.5 50.5,116.5C 48.7041,117.793 47.0375,119.293 45.5,121C 46.3805,121.708 47.0472,122.542 47.5,123.5C 45.9731,123.573 44.9731,122.906 44.5,121.5C 43.4154,119.413 41.7488,118.08 39.5,117.5C 33.4635,112.458 29.1302,106.124 26.5,98.5C 26.5,97.5 26.5,96.5 26.5,95.5C 27.8333,94.5 29.1667,93.5 30.5,92.5 Z"/></g>
<g><path style="opacity:1" fill="#725533" d="M 81.5,91.5 C 81.8333,91.5 82.1667,91.5 82.5,91.5C 83.893,96.5891 87.2264,99.5891 92.5,100.5C 92.5,99.1667 92.5,97.8333 92.5,96.5C 92.8333,96.5 93.1667,96.5 93.5,96.5C 93.5,99.1667 93.5,101.833 93.5,104.5C 92.596,103.791 92.2627,102.791 92.5,101.5C 85.1439,102.016 81.4773,98.6827 81.5,91.5 Z"/></g>
<g><path style="opacity:1" fill="#e7e7e8" d="M 93.5,96.5 C 94.8333,96.5 96.1667,96.5 97.5,96.5C 96.4594,99.3914 95.1261,102.058 93.5,104.5C 93.5,101.833 93.5,99.1667 93.5,96.5 Z"/></g>
<g><path style="opacity:1" fill="#64482d" d="M 61.5,97.5 C 63.1667,98.8333 64.8333,100.167 66.5,101.5C 67.5,102.833 68.5,104.167 69.5,105.5C 67.9382,105.267 66.6049,104.6 65.5,103.5C 63.7484,101.754 62.4151,99.7541 61.5,97.5 Z"/></g>
<g><path style="opacity:1" fill="#5d4c38" d="M 97.5,96.5 C 97.8333,96.5 98.1667,96.5 98.5,96.5C 98.67,97.8221 98.3366,98.9887 97.5,100C 100.531,100.495 103.531,100.329 106.5,99.5C 106.389,100.117 106.056,100.617 105.5,101C 102.518,101.498 99.5184,101.665 96.5,101.5C 96.817,104.534 95.817,105.534 93.5,104.5C 95.1261,102.058 96.4594,99.3914 97.5,96.5 Z"/></g>
<g><path style="opacity:1" fill="#fc9309" d="M 139.5,98.5 C 135.745,112.023 128.078,122.69 116.5,130.5C 111.756,130.457 107.756,128.79 104.5,125.5C 115.839,116.818 126.839,107.651 137.5,98C 138.437,97.3083 139.103,97.475 139.5,98.5 Z"/></g>
<g><path style="opacity:1" fill="#5e3813" d="M 118.5,99.5 C 117.833,102.167 116.167,103.833 113.5,104.5C 114.833,102.5 116.5,100.833 118.5,99.5 Z"/></g>
<g><path style="opacity:1" fill="#00b338" d="M 25.5,97.5 C 25.5,98.1667 25.8333,98.5 26.5,98.5C 29.1302,106.124 33.4635,112.458 39.5,117.5C 40.5,119.167 41.8333,120.5 43.5,121.5C 42.5,123.167 41.1667,124.5 39.5,125.5C 32.2294,117.893 26.5627,109.227 22.5,99.5C 22.9731,98.0937 23.9731,97.427 25.5,97.5 Z"/></g>
<g><path style="opacity:1" fill="#5d594e" d="M 79.5,105.5 C 77.4559,104.969 75.7893,103.802 74.5,102C 76.7715,102.077 78.4382,103.243 79.5,105.5 Z"/></g>
<g><path style="opacity:1" fill="#f6a53c" d="M 65.5,103.5 C 66.6049,104.6 67.9382,105.267 69.5,105.5C 71.3356,107.588 73.6689,108.921 76.5,109.5C 78.9557,111.868 81.9557,112.868 85.5,112.5C 86.9516,113.302 88.6183,113.802 90.5,114C 86.346,115.034 82.346,116.368 78.5,118C 84.178,117.606 89.5113,116.106 94.5,113.5C 95.3382,113.842 95.6716,114.508 95.5,115.5C 94.5655,116.568 94.2322,117.901 94.5,119.5C 92.9275,120.687 91.2608,121.687 89.5,122.5C 88.8333,122.5 88.1667,122.5 87.5,122.5C 77.6594,122.948 67.9927,121.948 58.5,119.5C 56.3155,117.415 53.6489,116.415 50.5,116.5C 49.8333,115.5 49.1667,114.5 48.5,113.5C 50.0174,113.511 51.1841,114.177 52,115.5C 56.6941,111.635 61.1941,107.635 65.5,103.5 Z"/></g>
<g><path style="opacity:1" fill="#514b41" d="M 79.5,105.5 C 88.5213,110.057 97.8547,110.723 107.5,107.5C 104.943,109.607 101.943,110.941 98.5,111.5C 95.023,110.677 91.3563,110.177 87.5,110C 84.3156,109.246 81.6489,107.746 79.5,105.5 Z"/></g>
<g><path style="opacity:1" fill="#675a49" d="M 76.5,109.5 C 83.6836,111.242 91.017,111.909 98.5,111.5C 97.467,113.509 96.467,114.843 95.5,115.5C 95.6716,114.508 95.3382,113.842 94.5,113.5C 91.6085,112.597 88.6085,112.264 85.5,112.5C 81.9557,112.868 78.9557,111.868 76.5,109.5 Z"/></g>
<g><path style="opacity:1" fill="#7e551f" d="M 85.5,112.5 C 88.6085,112.264 91.6085,112.597 94.5,113.5C 89.5113,116.106 84.178,117.606 78.5,118C 82.346,116.368 86.346,115.034 90.5,114C 88.6183,113.802 86.9516,113.302 85.5,112.5 Z"/></g>
<g><path style="opacity:1" fill="#00862b" d="M 22.5,99.5 C 26.5627,109.227 32.2294,117.893 39.5,125.5C 39.5,125.833 39.5,126.167 39.5,126.5C 38.8333,126.5 38.5,126.833 38.5,127.5C 29.4619,120.431 23.1286,111.431 19.5,100.5C 20.609,100.443 21.609,100.11 22.5,99.5 Z"/></g>
<g><path style="opacity:1" fill="#3ec468" d="M 50.5,116.5 C 53.6489,116.415 56.3155,117.415 58.5,119.5C 61.4488,121.461 64.7821,122.627 68.5,123C 73.4889,123.499 78.4889,123.666 83.5,123.5C 81.4728,126.194 79.1395,128.527 76.5,130.5C 74.4727,130.338 72.4727,130.505 70.5,131C 71.7932,131.49 73.1266,131.657 74.5,131.5C 71.4797,134.516 68.1464,137.183 64.5,139.5C 55.4114,136.457 47.078,132.124 39.5,126.5C 39.5,126.167 39.5,125.833 39.5,125.5C 41.1667,124.5 42.5,123.167 43.5,121.5C 43.8333,121.5 44.1667,121.5 44.5,121.5C 44.9731,122.906 45.9731,123.573 47.5,123.5C 47.0472,122.542 46.3805,121.708 45.5,121C 47.0375,119.293 48.7041,117.793 50.5,116.5 Z"/></g>
<g><path style="opacity:1" fill="#004c17" d="M 39.5,117.5 C 41.7488,118.08 43.4154,119.413 44.5,121.5C 44.1667,121.5 43.8333,121.5 43.5,121.5C 41.8333,120.5 40.5,119.167 39.5,117.5 Z"/></g>
<g><path style="opacity:1" fill="#28421a" d="M 94.5,119.5 C 96.0174,119.511 97.1841,120.177 98,121.5C 98.3153,123.586 98.8153,125.586 99.5,127.5C 96.994,128.75 94.3274,129.416 91.5,129.5C 93.2905,128.609 95.1239,127.609 97,126.5C 97.6667,125.167 97.6667,123.833 97,122.5C 94.6062,121.864 92.1062,121.864 89.5,122.5C 91.2608,121.687 92.9275,120.687 94.5,119.5 Z"/></g>
<g><path style="opacity:1" fill="#494c20" d="M 58.5,119.5 C 67.9927,121.948 77.6594,122.948 87.5,122.5C 86.4324,123.434 85.099,123.768 83.5,123.5C 78.4889,123.666 73.4889,123.499 68.5,123C 64.7821,122.627 61.4488,121.461 58.5,119.5 Z"/></g>
<g><path style="opacity:1" fill="#04b23a" d="M 91.5,129.5 C 86.4932,129.751 81.4932,130.084 76.5,130.5C 79.1395,128.527 81.4728,126.194 83.5,123.5C 85.099,123.768 86.4324,123.434 87.5,122.5C 88.1667,122.5 88.8333,122.5 89.5,122.5C 92.1062,121.864 94.6062,121.864 97,122.5C 97.6667,123.833 97.6667,125.167 97,126.5C 95.1239,127.609 93.2905,128.609 91.5,129.5 Z"/></g>
<g><path style="opacity:1" fill="#1d5d31" d="M 47.5,123.5 C 49.9279,124.212 52.2612,125.212 54.5,126.5C 55.521,127.002 55.6877,127.668 55,128.5C 52.1761,127.182 49.6761,125.515 47.5,123.5 Z"/></g>
<g><path style="opacity:1" fill="#b36b12" d="M 113.5,104.5 C 113.703,106.39 113.037,107.89 111.5,109C 108.274,111.067 104.94,112.9 101.5,114.5C 100.2,117.309 100.2,119.976 101.5,122.5C 102.167,123.833 103.167,124.833 104.5,125.5C 107.756,128.79 111.756,130.457 116.5,130.5C 114.66,132.669 112.326,134.002 109.5,134.5C 106.833,132.833 104.167,131.167 101.5,129.5C 100.833,128.833 100.167,128.167 99.5,127.5C 98.8153,125.586 98.3153,123.586 98,121.5C 97.1841,120.177 96.0174,119.511 94.5,119.5C 94.2322,117.901 94.5655,116.568 95.5,115.5C 96.467,114.843 97.467,113.509 98.5,111.5C 101.943,110.941 104.943,109.607 107.5,107.5C 109.181,105.992 111.181,104.992 113.5,104.5 Z"/></g>
<g><path style="opacity:1" fill="#206536" d="M 60.5,128.5 C 60.56,127.957 60.8933,127.624 61.5,127.5C 63.6608,128.035 65.6608,128.868 67.5,130C 65.0405,130.239 62.7072,129.739 60.5,128.5 Z"/></g>
<g><path style="opacity:1" fill="#3ca15c" d="M 39.5,126.5 C 47.078,132.124 55.4114,136.457 64.5,139.5C 65.1667,140.167 65.8333,140.833 66.5,141.5C 55.7595,139.463 46.4261,134.796 38.5,127.5C 38.5,126.833 38.8333,126.5 39.5,126.5 Z"/></g>
<g><path style="opacity:1" fill="#04571d" d="M 91.5,129.5 C 91.5,130.167 91.1667,130.5 90.5,130.5C 85.213,131.342 79.8797,131.676 74.5,131.5C 73.1266,131.657 71.7932,131.49 70.5,131C 72.4727,130.505 74.4727,130.338 76.5,130.5C 81.4932,130.084 86.4932,129.751 91.5,129.5 Z"/></g>
<g><path style="opacity:1" fill="#3dc367" d="M 99.5,127.5 C 100.167,128.167 100.833,128.833 101.5,129.5C 95.3334,133.094 89.6668,137.427 84.5,142.5C 82.1667,142.5 79.8333,142.5 77.5,142.5C 81.8333,138.5 86.1667,134.5 90.5,130.5C 91.1667,130.5 91.5,130.167 91.5,129.5C 94.3274,129.416 96.994,128.75 99.5,127.5 Z"/></g>
<g><path style="opacity:1" fill="#00b138" d="M 101.5,129.5 C 104.167,131.167 106.833,132.833 109.5,134.5C 107.572,136.474 105.239,137.974 102.5,139C 98.8368,139.572 95.5035,140.738 92.5,142.5C 89.8333,142.5 87.1667,142.5 84.5,142.5C 89.6668,137.427 95.3334,133.094 101.5,129.5 Z"/></g>
<g><path style="opacity:1" fill="#02b239" d="M 90.5,130.5 C 86.1667,134.5 81.8333,138.5 77.5,142.5C 73.6286,142.815 69.9619,142.482 66.5,141.5C 65.8333,140.833 65.1667,140.167 64.5,139.5C 68.1464,137.183 71.4797,134.516 74.5,131.5C 79.8797,131.676 85.213,131.342 90.5,130.5 Z"/></g>
</svg>
