<?xml version="1.0" encoding="UTF-8"?>
<!DOCTYPE svg PUBLIC "-//W3C//DTD SVG 1.1//EN" "http://www.w3.org/Graphics/SVG/1.1/DTD/svg11.dtd">
<svg xmlns="http://www.w3.org/2000/svg" version="1.1" width="200px" height="200px" style="shape-rendering:geometricPrecision; text-rendering:geometricPrecision; image-rendering:optimizeQuality; fill-rule:evenodd; clip-rule:evenodd" xmlns:xlink="http://www.w3.org/1999/xlink">
<g><path style="opacity:1" fill="#110e11" d="M 130.5,33.5 C 132.654,43.6305 134.987,53.6305 137.5,63.5C 137.351,64.552 137.517,65.552 138,66.5C 142.142,72.4417 146.975,77.775 152.5,82.5C 154.218,88.7228 157.718,93.7228 163,97.5C 164.394,99.3875 165.56,101.388 166.5,103.5C 166.33,104.822 166.663,105.989 167.5,107C 167,107.5 166.5,108 166,108.5C 165.667,111.833 165.333,115.167 165,118.5C 163.481,120.556 162.647,122.89 162.5,125.5C 163.467,128.771 163.8,131.937 163.5,135C 158.35,138.733 155.85,143.899 156,150.5C 154.139,151.873 152.306,152.206 150.5,151.5C 154.263,143.04 156.93,134.207 158.5,125C 158.167,124.167 157.833,123.333 157.5,122.5C 155.15,123.861 152.816,125.194 150.5,126.5C 149.833,127.167 149.167,127.833 148.5,128.5C 148.083,127.876 147.416,127.543 146.5,127.5C 141.767,128.742 137.101,130.076 132.5,131.5C 131.833,132.5 131.167,133.5 130.5,134.5C 130.265,133.903 129.765,133.57 129,133.5C 126.459,134.007 123.959,134.674 121.5,135.5C 125.221,141.535 128.887,147.535 132.5,153.5C 131.614,154.776 130.614,154.776 129.5,153.5C 125.732,148.965 122.732,143.965 120.5,138.5C 116.527,134.172 112.527,129.838 108.5,125.5C 105.229,124.802 101.896,124.802 98.5,125.5C 98.6621,123.473 98.4955,121.473 98,119.5C 96.8545,118.316 95.6879,118.316 94.5,119.5C 93.3778,118.053 91.8778,117.053 90,116.5C 89.3923,114.846 88.8923,113.179 88.5,111.5C 96.279,115.442 103.946,119.609 111.5,124C 116.364,129.26 122.364,130.927 129.5,129C 138.516,125.825 147.516,122.492 156.5,119C 162.729,111.432 162.563,103.932 156,96.5C 153.017,87.5085 147.684,80.1751 140,74.5C 136.389,68.556 132.389,62.8893 128,57.5C 126.209,52.2172 124.542,46.8839 123,41.5C 121.542,39.04 119.709,36.8734 117.5,35C 100.867,22.9258 82.5334,19.2591 62.5,24C 57.8397,28.3344 52.5063,31.6677 46.5,34C 35.2981,41.5877 31.1314,52.0877 34,65.5C 32.9365,69.9822 30.2698,72.9822 26,74.5C 25.51,75.7932 25.3433,77.1266 25.5,78.5C 24.0001,77.3748 22.6668,76.0414 21.5,74.5C 20.0887,67.6333 21.422,61.3 25.5,55.5C 26.4584,55.0472 27.2917,54.3805 28,53.5C 30.2763,48.6082 32.7763,43.9415 35.5,39.5C 37.0222,38.8091 38.0222,37.6424 38.5,36C 35.765,32.6757 33.4317,29.1757 31.5,25.5C 31.8417,24.6618 32.5084,24.3284 33.5,24.5C 35.4541,28.032 38.1208,31.032 41.5,33.5C 50.604,26.7811 60.604,21.9478 71.5,19C 76.8229,18.5006 82.1563,18.334 87.5,18.5C 98.2839,20.3961 108.284,24.2294 117.5,30C 119.966,32.4786 122.299,34.9786 124.5,37.5C 126.561,42.8446 128.728,48.1779 131,53.5C 132.058,45.8677 130.558,38.8677 126.5,32.5C 125.872,29.91 124.705,27.5766 123,25.5C 116.601,18.4258 109.101,12.9258 100.5,9C 98.8659,8.50649 97.1992,8.33982 95.5,8.5C 91.1795,7.83419 86.6795,7.50086 82,7.5C 75.5858,7.28855 69.4191,7.95522 63.5,9.5C 60.8333,9.5 58.1667,9.5 55.5,9.5C 58.3695,7.20567 61.7029,5.87234 65.5,5.5C 92.4694,-0.409036 113.969,7.59096 130,29.5C 130.49,30.7932 130.657,32.1266 130.5,33.5 Z"/></g>
<g><path style="opacity:0.995" fill="#0149aa" d="M 85.5,-0.5 C 94.8333,-0.5 104.167,-0.5 113.5,-0.5C 158.717,8.04978 186.717,34.7164 197.5,79.5C 197.5,92.8333 197.5,106.167 197.5,119.5C 197.435,122.428 196.768,125.095 195.5,127.5C 190.735,125.618 186.068,123.452 181.5,121C 177.629,116.093 174.129,110.926 171,105.5C 169.89,103.963 168.39,103.297 166.5,103.5C 165.56,101.388 164.394,99.3875 163,97.5C 157.718,93.7228 154.218,88.7228 152.5,82.5C 146.975,77.775 142.142,72.4417 138,66.5C 137.517,65.552 137.351,64.552 137.5,63.5C 137.042,60.6062 137.709,58.1062 139.5,56C 137.277,55.3483 136.11,53.8483 136,51.5C 135.639,45.404 134.805,39.404 133.5,33.5C 132.5,33.5 131.5,33.5 130.5,33.5C 130.657,32.1266 130.49,30.7932 130,29.5C 113.969,7.59096 92.4694,-0.409036 65.5,5.5C 71.9843,2.8791 78.651,0.8791 85.5,-0.5 Z"/></g>
<g><path style="opacity:1" fill="#c6c490" d="M 95.5,8.5 C 84.8149,8.38971 74.1482,8.72304 63.5,9.5C 69.4191,7.95522 75.5858,7.28855 82,7.5C 86.6795,7.50086 91.1795,7.83419 95.5,8.5 Z"/></g>
<g><path style="opacity:0.976" fill="#fdfc8e" d="M 72.5,17.5 C 67.3672,18.0645 62.3672,19.2312 57.5,21C 53.9048,23.9993 50.0714,26.4993 46,28.5C 43.4791,29.6733 40.9791,29.6733 38.5,28.5C 37.6299,26.3737 36.6299,24.3737 35.5,22.5C 40.1295,17.8486 45.4628,14.1819 51.5,11.5C 61.1712,11.0437 70.8379,10.877 80.5,11C 76.9716,11.089 73.6382,11.7556 70.5,13C 78.5109,13.3427 86.5109,13.8427 94.5,14.5C 97.0891,14.1492 99.5891,13.4825 102,12.5C 102.833,12.6667 103.667,12.8333 104.5,13C 103.941,13.7247 103.608,14.5581 103.5,15.5C 104.547,17.0564 105.214,18.7231 105.5,20.5C 103.609,20.1717 102.109,19.505 101,18.5C 97.733,20.014 94.8996,19.3474 92.5,16.5C 85.5237,15.3356 78.5237,15.1689 71.5,16C 72.056,16.3826 72.3893,16.8826 72.5,17.5 Z"/></g>
<g><path style="opacity:1" fill="#f8f795" d="M 95.5,8.5 C 97.1992,8.33982 98.8659,8.50649 100.5,9C 109.101,12.9258 116.601,18.4258 123,25.5C 124.705,27.5766 125.872,29.91 126.5,32.5C 126.923,34.7812 126.256,36.4479 124.5,37.5C 122.299,34.9786 119.966,32.4786 117.5,30C 108.284,24.2294 98.2839,20.3961 87.5,18.5C 85.777,17.1999 83.6103,16.5332 81,16.5C 78.1158,16.6055 75.2825,16.9388 72.5,17.5C 72.3893,16.8826 72.056,16.3826 71.5,16C 78.5237,15.1689 85.5237,15.3356 92.5,16.5C 94.8996,19.3474 97.733,20.014 101,18.5C 102.109,19.505 103.609,20.1717 105.5,20.5C 105.214,18.7231 104.547,17.0564 103.5,15.5C 103.608,14.5581 103.941,13.7247 104.5,13C 103.667,12.8333 102.833,12.6667 102,12.5C 99.5891,13.4825 97.0891,14.1492 94.5,14.5C 86.5109,13.8427 78.5109,13.3427 70.5,13C 73.6382,11.7556 76.9716,11.089 80.5,11C 70.8379,10.877 61.1712,11.0437 51.5,11.5C 52.5137,10.3263 53.847,9.6596 55.5,9.5C 58.1667,9.5 60.8333,9.5 63.5,9.5C 74.1482,8.72304 84.8149,8.38971 95.5,8.5 Z"/></g>
<g><path style="opacity:1" fill="#dfdd96" d="M 87.5,18.5 C 82.1563,18.334 76.8229,18.5006 71.5,19C 60.604,21.9478 50.604,26.7811 41.5,33.5C 38.1208,31.032 35.4541,28.032 33.5,24.5C 33.8333,23.5 34.5,22.8333 35.5,22.5C 36.6299,24.3737 37.6299,26.3737 38.5,28.5C 40.9791,29.6733 43.4791,29.6733 46,28.5C 50.0714,26.4993 53.9048,23.9993 57.5,21C 62.3672,19.2312 67.3672,18.0645 72.5,17.5C 75.2825,16.9388 78.1158,16.6055 81,16.5C 83.6103,16.5332 85.777,17.1999 87.5,18.5 Z"/></g>
<g><path style="opacity:1" fill="#f1c7b7" d="M 88.5,111.5 C 86.0353,109.163 83.0353,107.663 79.5,107C 65.2651,105.821 51.5984,102.488 38.5,97C 32.6774,91.7105 28.3441,85.5438 25.5,78.5C 25.3433,77.1266 25.51,75.7932 26,74.5C 30.2698,72.9822 32.9365,69.9822 34,65.5C 31.1314,52.0877 35.2981,41.5877 46.5,34C 52.5063,31.6677 57.8397,28.3344 62.5,24C 82.5334,19.2591 100.867,22.9258 117.5,35C 119.709,36.8734 121.542,39.04 123,41.5C 124.542,46.8839 126.209,52.2172 128,57.5C 132.389,62.8893 136.389,68.556 140,74.5C 147.684,80.1751 153.017,87.5085 156,96.5C 162.563,103.932 162.729,111.432 156.5,119C 147.516,122.492 138.516,125.825 129.5,129C 122.364,130.927 116.364,129.26 111.5,124C 103.946,119.609 96.279,115.442 88.5,111.5 Z"/></g>
<g><path style="opacity:0.991" fill="#0149ab" d="M 31.5,25.5 C 33.4317,29.1757 35.765,32.6757 38.5,36C 38.0222,37.6424 37.0222,38.8091 35.5,39.5C 33.6814,40.5845 32.0147,41.9178 30.5,43.5C 28.82,47.5524 27.1533,51.5524 25.5,55.5C 21.422,61.3 20.0887,67.6333 21.5,74.5C 26.7683,92.5056 38.7683,103.172 57.5,106.5C 65.7396,107.591 73.7396,109.425 81.5,112C 84.563,113.525 87.2297,115.525 89.5,118C 91.1545,118.608 92.8211,119.108 94.5,119.5C 95.209,120.404 96.209,120.737 97.5,120.5C 97.762,121.978 97.4287,123.311 96.5,124.5C 93.5067,125.833 91.1734,127.833 89.5,130.5C 84.8656,135.305 80.3656,140.305 76,145.5C 74.2138,148.736 72.7138,152.07 71.5,155.5C 70.0512,157.611 69.0512,159.944 68.5,162.5C 67.2505,163.778 65.7505,164.778 64,165.5C 61.816,170.569 59.4827,175.569 57,180.5C 56.0467,183.432 55.5467,186.432 55.5,189.5C 24.2172,173.539 5.55055,148.206 -0.5,113.5C -0.5,104.167 -0.5,94.8333 -0.5,85.5C 3.33665,61.8251 14.0033,41.8251 31.5,25.5 Z"/></g>
<g><path style="opacity:1" fill="#dede9f" d="M 126.5,32.5 C 130.558,38.8677 132.058,45.8677 131,53.5C 128.728,48.1779 126.561,42.8446 124.5,37.5C 126.256,36.4479 126.923,34.7812 126.5,32.5 Z"/></g>
<g><path style="opacity:1" fill="#0c397c" d="M 35.5,39.5 C 32.7763,43.9415 30.2763,48.6082 28,53.5C 27.2917,54.3805 26.4584,55.0472 25.5,55.5C 27.1533,51.5524 28.82,47.5524 30.5,43.5C 32.0147,41.9178 33.6814,40.5845 35.5,39.5 Z"/></g>
<g><path style="opacity:1" fill="#0a3e8a" d="M 130.5,33.5 C 131.5,33.5 132.5,33.5 133.5,33.5C 134.805,39.404 135.639,45.404 136,51.5C 136.11,53.8483 137.277,55.3483 139.5,56C 137.709,58.1062 137.042,60.6062 137.5,63.5C 134.987,53.6305 132.654,43.6305 130.5,33.5 Z"/></g>
<g><path style="opacity:1" fill="#e4e5e4" d="M 26.5,58.5 C 30.9757,58.8222 32.4757,61.1556 31,65.5C 29.5498,69.6712 26.8831,71.0046 23,69.5C 22.5172,68.552 22.3505,67.552 22.5,66.5C 24.4672,66.7394 26.3005,66.4061 28,65.5C 28.6004,62.9047 28.1004,60.5713 26.5,58.5 Z"/></g>
<g><path style="opacity:1" fill="#130f0e" d="M 101.5,61.5 C 111.681,59.8414 115.181,63.8414 112,73.5C 110.363,75.8102 108.196,77.3102 105.5,78C 100.833,78.6667 96.1667,78.6667 91.5,78C 89.6441,74.7155 88.8107,71.2155 89,67.5C 93.2092,65.3863 97.3759,63.3863 101.5,61.5 Z"/></g>
<g><path style="opacity:1" fill="#dfddde" d="M 105.5,64.5 C 107.167,64.5 108.833,64.5 110.5,64.5C 109.114,73.0531 104.114,76.8864 95.5,76C 92.9586,74.1516 91.9586,71.6516 92.5,68.5C 94.905,68.1336 97.2383,67.4669 99.5,66.5C 100.167,66.8333 100.833,67.1667 101.5,67.5C 100.652,69.4086 100.318,71.4086 100.5,73.5C 104.257,73.7136 104.924,72.7136 102.5,70.5C 103.025,69.8076 103.692,69.3076 104.5,69C 103.257,67.184 103.59,65.684 105.5,64.5 Z"/></g>
<g><path style="opacity:1" fill="#2b1b18" d="M 40.5,87.5 C 46.5092,87.3338 52.5092,87.5005 58.5,88C 61.2101,89.0152 63.5434,90.5152 65.5,92.5C 65.1667,92.8333 64.8333,93.1667 64.5,93.5C 57.9271,89.2093 50.7604,87.876 43,89.5C 41.6244,89.3158 40.7911,88.6491 40.5,87.5 Z"/></g>
<g><path style="opacity:0.748" fill="#0a051b" d="M 197.5,79.5 C 198.167,81.5 198.833,83.5 199.5,85.5C 199.5,94.8333 199.5,104.167 199.5,113.5C 198.833,115.5 198.167,117.5 197.5,119.5C 197.5,106.167 197.5,92.8333 197.5,79.5 Z"/></g>
<g><path style="opacity:1" fill="#100d18" d="M 21.5,74.5 C 22.6668,76.0414 24.0001,77.3748 25.5,78.5C 28.3441,85.5438 32.6774,91.7105 38.5,97C 51.5984,102.488 65.2651,105.821 79.5,107C 83.0353,107.663 86.0353,109.163 88.5,111.5C 88.8923,113.179 89.3923,114.846 90,116.5C 91.8778,117.053 93.3778,118.053 94.5,119.5C 92.8211,119.108 91.1545,118.608 89.5,118C 87.2297,115.525 84.563,113.525 81.5,112C 73.7396,109.425 65.7396,107.591 57.5,106.5C 38.7683,103.172 26.7683,92.5056 21.5,74.5 Z"/></g>
<g><path style="opacity:0.992" fill="#111020" d="M 193.5,135.5 C 178.6,171.395 151.934,192.395 113.5,198.5C 106.833,198.5 100.167,198.5 93.5,198.5C 95.4517,189.217 94.9517,179.884 92,170.5C 89.7132,167.928 88.5465,164.928 88.5,161.5C 83.1573,159.746 78.324,157.079 74,153.5C 73.2917,154.381 72.4584,155.047 71.5,155.5C 72.7138,152.07 74.2138,148.736 76,145.5C 80.3656,140.305 84.8656,135.305 89.5,130.5C 89.9114,132.772 91.078,133.105 93,131.5C 94.605,132.101 95.9384,133.101 97,134.5C 98.9068,134.579 100.907,134.246 103,133.5C 104.049,135.107 105.549,135.773 107.5,135.5C 107.227,133.042 108.227,131.375 110.5,130.5C 111.132,132.737 112.465,134.403 114.5,135.5C 115.555,138.178 116.888,140.678 118.5,143C 116.866,143.494 115.199,143.66 113.5,143.5C 113.5,145.833 113.5,148.167 113.5,150.5C 118.427,151.082 122.76,152.915 126.5,156C 126.095,156.945 125.428,157.612 124.5,158C 126.506,160.842 127.839,164.008 128.5,167.5C 129.251,166.624 129.751,165.624 130,164.5C 131.632,170.091 133.632,175.424 136,180.5C 137.845,178.913 139.845,177.579 142,176.5C 144.595,178.146 147.428,178.813 150.5,178.5C 150.167,175.5 151.5,174.167 154.5,174.5C 154.223,169.767 154.557,165.1 155.5,160.5C 153.089,156.768 154.089,153.935 158.5,152C 157.209,149.91 157.876,148.576 160.5,148C 159.833,147.667 159.167,147.333 158.5,147C 159.337,145.989 159.67,144.822 159.5,143.5C 161.564,143.313 163.564,142.813 165.5,142C 164.524,135.924 164.19,129.758 164.5,123.5C 165.873,123.657 167.207,123.49 168.5,123C 167.216,121.703 167.383,120.536 169,119.5C 169.497,121.81 169.663,124.143 169.5,126.5C 172.14,128.008 174.473,127.674 176.5,125.5C 178.403,127.562 180.737,128.896 183.5,129.5C 184.853,130.685 186.02,132.019 187,133.5C 188.583,133.507 190.249,133.174 192,132.5C 192.232,133.737 192.732,134.737 193.5,135.5 Z"/></g>
<g><path style="opacity:1" fill="#0f0f1b" d="M 166.5,103.5 C 168.39,103.297 169.89,103.963 171,105.5C 174.129,110.926 177.629,116.093 181.5,121C 186.068,123.452 190.735,125.618 195.5,127.5C 195.416,130.327 194.75,132.994 193.5,135.5C 192.732,134.737 192.232,133.737 192,132.5C 190.249,133.174 188.583,133.507 187,133.5C 186.02,132.019 184.853,130.685 183.5,129.5C 180.737,128.896 178.403,127.562 176.5,125.5C 174.473,127.674 172.14,128.008 169.5,126.5C 169.663,124.143 169.497,121.81 169,119.5C 167.383,120.536 167.216,121.703 168.5,123C 167.207,123.49 165.873,123.657 164.5,123.5C 164.19,129.758 164.524,135.924 165.5,142C 163.564,142.813 161.564,143.313 159.5,143.5C 159.67,144.822 159.337,145.989 158.5,147C 159.167,147.333 159.833,147.667 160.5,148C 157.876,148.576 157.209,149.91 158.5,152C 154.089,153.935 153.089,156.768 155.5,160.5C 154.557,165.1 154.223,169.767 154.5,174.5C 151.5,174.167 150.167,175.5 150.5,178.5C 147.428,178.813 144.595,178.146 142,176.5C 139.845,177.579 137.845,178.913 136,180.5C 133.632,175.424 131.632,170.091 130,164.5C 129.751,165.624 129.251,166.624 128.5,167.5C 127.839,164.008 126.506,160.842 124.5,158C 125.428,157.612 126.095,156.945 126.5,156C 122.76,152.915 118.427,151.082 113.5,150.5C 113.5,148.167 113.5,145.833 113.5,143.5C 115.199,143.66 116.866,143.494 118.5,143C 116.888,140.678 115.555,138.178 114.5,135.5C 112.465,134.403 111.132,132.737 110.5,130.5C 108.227,131.375 107.227,133.042 107.5,135.5C 105.549,135.773 104.049,135.107 103,133.5C 100.907,134.246 98.9068,134.579 97,134.5C 95.9384,133.101 94.605,132.101 93,131.5C 91.078,133.105 89.9114,132.772 89.5,130.5C 91.1734,127.833 93.5067,125.833 96.5,124.5C 97.4287,123.311 97.762,121.978 97.5,120.5C 96.209,120.737 95.209,120.404 94.5,119.5C 95.6879,118.316 96.8545,118.316 98,119.5C 98.4955,121.473 98.6621,123.473 98.5,125.5C 101.896,124.802 105.229,124.802 108.5,125.5C 112.527,129.838 116.527,134.172 120.5,138.5C 122.732,143.965 125.732,148.965 129.5,153.5C 130.614,154.776 131.614,154.776 132.5,153.5C 133.232,150.02 134.565,146.686 136.5,143.5C 135.294,139.962 133.294,136.962 130.5,134.5C 131.167,133.5 131.833,132.5 132.5,131.5C 132.446,134.967 133.946,137.634 137,139.5C 137.781,140.729 138.281,142.062 138.5,143.5C 134.477,150.514 134.643,157.514 139,164.5C 139.687,166.555 140.854,168.221 142.5,169.5C 144.784,167.317 146.118,164.65 146.5,161.5C 147.84,158.57 149.174,155.57 150.5,152.5C 150.5,152.167 150.5,151.833 150.5,151.5C 152.306,152.206 154.139,151.873 156,150.5C 155.85,143.899 158.35,138.733 163.5,135C 163.8,131.937 163.467,128.771 162.5,125.5C 162.647,122.89 163.481,120.556 165,118.5C 165.333,115.167 165.667,111.833 166,108.5C 166.5,108 167,107.5 167.5,107C 166.663,105.989 166.33,104.822 166.5,103.5 Z"/></g>
<g><path style="opacity:1" fill="#1e1f3a" d="M 150.5,126.5 C 150.66,128.199 150.494,129.866 150,131.5C 147.595,135.04 145.762,138.874 144.5,143C 146.348,146.33 148.348,149.497 150.5,152.5C 149.174,155.57 147.84,158.57 146.5,161.5C 147.527,157.554 147.694,153.554 147,149.5C 144.705,147.874 143.205,145.707 142.5,143C 144.399,138.047 146.399,133.214 148.5,128.5C 149.167,127.833 149.833,127.167 150.5,126.5 Z"/></g>
<g><path style="opacity:1" fill="#f2f2f1" d="M 130.5,134.5 C 133.294,136.962 135.294,139.962 136.5,143.5C 134.565,146.686 133.232,150.02 132.5,153.5C 128.887,147.535 125.221,141.535 121.5,135.5C 123.959,134.674 126.459,134.007 129,133.5C 129.765,133.57 130.265,133.903 130.5,134.5 Z"/></g>
<g><path style="opacity:1" fill="#f4f3f2" d="M 150.5,151.5 C 150.5,151.833 150.5,152.167 150.5,152.5C 148.348,149.497 146.348,146.33 144.5,143C 145.762,138.874 147.595,135.04 150,131.5C 150.494,129.866 150.66,128.199 150.5,126.5C 152.816,125.194 155.15,123.861 157.5,122.5C 157.833,123.333 158.167,124.167 158.5,125C 156.93,134.207 154.263,143.04 150.5,151.5 Z"/></g>
<g><path style="opacity:1" fill="#6d73cc" d="M 148.5,128.5 C 146.399,133.214 144.399,138.047 142.5,143C 143.205,145.707 144.705,147.874 147,149.5C 147.694,153.554 147.527,157.554 146.5,161.5C 146.118,164.65 144.784,167.317 142.5,169.5C 140.854,168.221 139.687,166.555 139,164.5C 134.643,157.514 134.477,150.514 138.5,143.5C 138.281,142.062 137.781,140.729 137,139.5C 133.946,137.634 132.446,134.967 132.5,131.5C 137.101,130.076 141.767,128.742 146.5,127.5C 147.416,127.543 148.083,127.876 148.5,128.5 Z"/></g>
<g><path style="opacity:0.985" fill="#0f0f1b" d="M 85.5,198.5 C 74.7494,197.65 64.7494,194.65 55.5,189.5C 55.5467,186.432 56.0467,183.432 57,180.5C 59.4827,175.569 61.816,170.569 64,165.5C 65.7505,164.778 67.2505,163.778 68.5,162.5C 68.3505,163.552 68.5172,164.552 69,165.5C 70.6667,164.167 72.3333,162.833 74,161.5C 75.6975,163.274 77.5308,164.941 79.5,166.5C 80.324,164.252 81.324,164.086 82.5,166C 82.1667,166.333 81.8333,166.667 81.5,167C 83.5524,167.93 85.0524,169.43 86,171.5C 88.9512,180.265 90.1179,189.265 89.5,198.5C 88.1667,198.5 86.8333,198.5 85.5,198.5 Z"/></g>
<g><path style="opacity:0.987" fill="#04040b" d="M 113.5,198.5 C 113.5,198.833 113.5,199.167 113.5,199.5C 104.167,199.5 94.8333,199.5 85.5,199.5C 85.5,199.167 85.5,198.833 85.5,198.5C 86.8333,198.5 88.1667,198.5 89.5,198.5C 90.1179,189.265 88.9512,180.265 86,171.5C 85.0524,169.43 83.5524,167.93 81.5,167C 81.8333,166.667 82.1667,166.333 82.5,166C 81.324,164.086 80.324,164.252 79.5,166.5C 77.5308,164.941 75.6975,163.274 74,161.5C 72.3333,162.833 70.6667,164.167 69,165.5C 68.5172,164.552 68.3505,163.552 68.5,162.5C 69.0512,159.944 70.0512,157.611 71.5,155.5C 72.4584,155.047 73.2917,154.381 74,153.5C 78.324,157.079 83.1573,159.746 88.5,161.5C 88.5465,164.928 89.7132,167.928 92,170.5C 94.9517,179.884 95.4517,189.217 93.5,198.5C 100.167,198.5 106.833,198.5 113.5,198.5 Z"/></g>
</svg>
