<?xml version="1.0" encoding="UTF-8"?>
<!DOCTYPE svg PUBLIC "-//W3C//DTD SVG 1.1//EN" "http://www.w3.org/Graphics/SVG/1.1/DTD/svg11.dtd">
<svg xmlns="http://www.w3.org/2000/svg" version="1.1" width="297px" height="297px" style="shape-rendering:geometricPrecision; text-rendering:geometricPrecision; image-rendering:optimizeQuality; fill-rule:evenodd; clip-rule:evenodd" xmlns:xlink="http://www.w3.org/1999/xlink">
<g><path style="opacity:0.99" fill="#eddddb" d="M 130.5,-0.5 C 142.167,-0.5 153.833,-0.5 165.5,-0.5C 228.473,9.62817 270.306,44.9615 291,105.5C 293.278,113.877 295.111,122.21 296.5,130.5C 296.5,142.167 296.5,153.833 296.5,165.5C 290.211,209.758 268.877,244.758 232.5,270.5C 232.334,260.828 232.5,251.161 233,241.5C 233.106,237.61 233.939,233.943 235.5,230.5C 235.5,230.167 235.5,229.833 235.5,229.5C 236.419,226.673 238.086,224.34 240.5,222.5C 242.455,221.677 244.455,221.51 246.5,222C 245.167,222.667 245.167,223.333 246.5,224C 249.817,224.498 253.15,224.665 256.5,224.5C 256.5,221.833 256.5,219.167 256.5,216.5C 254.023,216.949 252.023,216.283 250.5,214.5C 253.167,213.833 254.833,212.167 255.5,209.5C 261.104,208.546 266.771,208.212 272.5,208.5C 272.666,200.493 272.5,192.493 272,184.5C 269.168,178.227 268.668,171.727 270.5,165C 270.596,162.193 269.596,159.86 267.5,158C 268.233,156.234 268.567,154.401 268.5,152.5C 269.822,152.33 270.989,152.663 272,153.5C 272.5,145.173 272.666,136.84 272.5,128.5C 269.167,128.5 265.833,128.5 262.5,128.5C 262.66,130.199 262.494,131.866 262,133.5C 260.579,130.991 258.912,128.657 257,126.5C 256.5,111.17 256.333,95.837 256.5,80.5C 251.167,80.5 245.833,80.5 240.5,80.5C 239.021,76.2616 237.688,71.9283 236.5,67.5C 237.072,65.3127 237.072,62.9794 236.5,60.5C 237.833,60.5 239.167,60.5 240.5,60.5C 240.5,59.1667 240.5,57.8333 240.5,56.5C 235.498,56.4782 235.165,55.1448 239.5,52.5C 240.497,45.8665 240.83,39.1998 240.5,32.5C 235.167,32.5 229.833,32.5 224.5,32.5C 224.5,31.1667 224.5,29.8333 224.5,28.5C 213.833,28.5 203.167,28.5 192.5,28.5C 192.5,32.5 192.5,36.5 192.5,40.5C 187.318,40.5573 187.318,41.224 192.5,42.5C 191.311,43.4287 189.978,43.762 188.5,43.5C 188.5,44.5 188.5,45.5 188.5,46.5C 184.618,47.2386 180.951,48.5719 177.5,50.5C 172.062,48.6124 166.395,47.9458 160.5,48.5C 160.796,54.2733 160.796,59.9399 160.5,65.5C 154.804,66.5759 149.804,68.9092 145.5,72.5C 142.287,72.19 139.287,72.5233 136.5,73.5C 133.833,73.5 131.167,73.5 128.5,73.5C 112.675,72.5036 96.6754,72.1703 80.5,72.5C 80.5,64.5 80.5,56.5 80.5,48.5C 74.3423,48.0201 68.3423,48.6868 62.5,50.5C 57.6434,48.5475 52.81,47.8808 48,48.5C 47.5,49 47,49.5 46.5,50C 42.8484,50.4986 39.1817,50.6653 35.5,50.5C 60.773,21.6953 92.4396,4.69534 130.5,-0.5 Z"/></g>
<g><path style="opacity:1" fill="#ecddd6" d="M 240.5,222.5 C 240.709,221.078 241.209,219.745 242,218.5C 245.336,214.332 248.836,210.332 252.5,206.5C 255.323,205.008 256.99,202.674 257.5,199.5C 261.567,195.462 263.733,190.462 264,184.5C 264.229,174.644 264.729,164.811 265.5,155C 263.052,146.322 260.218,137.822 257,129.5C 255.408,125.979 253.575,122.646 251.5,119.5C 243.945,102.347 237.445,84.6801 232,66.5C 231.007,62.5577 230.34,58.5577 230,54.5C 229.208,51.8936 227.708,49.8936 225.5,48.5C 224.175,44.1905 222.842,39.8572 221.5,35.5C 218.451,33.534 215.118,33.034 211.5,34C 206.803,38.9656 201.803,43.4656 196.5,47.5C 195.833,47.8333 195.167,48.1667 194.5,48.5C 187.304,57.4355 177.97,62.7688 166.5,64.5C 164.621,65.3414 162.621,65.6747 160.5,65.5C 160.796,59.9399 160.796,54.2733 160.5,48.5C 166.395,47.9458 172.062,48.6124 177.5,50.5C 180.951,48.5719 184.618,47.2386 188.5,46.5C 188.5,45.5 188.5,44.5 188.5,43.5C 189.978,43.762 191.311,43.4287 192.5,42.5C 187.318,41.224 187.318,40.5573 192.5,40.5C 192.5,36.5 192.5,32.5 192.5,28.5C 203.167,28.5 213.833,28.5 224.5,28.5C 224.5,29.8333 224.5,31.1667 224.5,32.5C 229.833,32.5 235.167,32.5 240.5,32.5C 240.83,39.1998 240.497,45.8665 239.5,52.5C 235.165,55.1448 235.498,56.4782 240.5,56.5C 240.5,57.8333 240.5,59.1667 240.5,60.5C 239.167,60.5 237.833,60.5 236.5,60.5C 237.072,62.9794 237.072,65.3127 236.5,67.5C 237.688,71.9283 239.021,76.2616 240.5,80.5C 245.833,80.5 251.167,80.5 256.5,80.5C 256.333,95.837 256.5,111.17 257,126.5C 258.912,128.657 260.579,130.991 262,133.5C 262.494,131.866 262.66,130.199 262.5,128.5C 265.833,128.5 269.167,128.5 272.5,128.5C 272.666,136.84 272.5,145.173 272,153.5C 270.989,152.663 269.822,152.33 268.5,152.5C 268.567,154.401 268.233,156.234 267.5,158C 269.596,159.86 270.596,162.193 270.5,165C 268.668,171.727 269.168,178.227 272,184.5C 272.5,192.493 272.666,200.493 272.5,208.5C 266.771,208.212 261.104,208.546 255.5,209.5C 254.833,212.167 253.167,213.833 250.5,214.5C 252.023,216.283 254.023,216.949 256.5,216.5C 256.5,219.167 256.5,221.833 256.5,224.5C 253.15,224.665 249.817,224.498 246.5,224C 245.167,223.333 245.167,222.667 246.5,222C 244.455,221.51 242.455,221.677 240.5,222.5 Z"/></g>
<g><path style="opacity:1" fill="#c6b4ae" d="M 225.5,48.5 C 225.167,48.5 224.833,48.5 224.5,48.5C 221.922,47.7459 219.256,47.7459 216.5,48.5C 213.948,51.0043 210.782,52.671 207,53.5C 206.239,50.5693 204.406,48.9026 201.5,48.5C 200.735,48.9234 199.902,49.2568 199,49.5C 198.645,48.4909 197.812,47.8243 196.5,47.5C 201.803,43.4656 206.803,38.9656 211.5,34C 215.118,33.034 218.451,33.534 221.5,35.5C 222.842,39.8572 224.175,44.1905 225.5,48.5 Z"/></g>
<g><path style="opacity:1" fill="#ecdcd4" d="M 128.5,73.5 C 127.694,74.7281 126.694,75.7281 125.5,76.5C 113.242,81.3189 100.909,81.6522 88.5,77.5C 85.7081,75.9423 82.7081,74.609 79.5,73.5C 69.808,65.9869 59.4746,59.4869 48.5,54C 43.1771,53.5006 37.8437,53.334 32.5,53.5C 33.1667,52.1667 34.1667,51.1667 35.5,50.5C 39.1817,50.6653 42.8484,50.4986 46.5,50C 47,49.5 47.5,49 48,48.5C 52.81,47.8808 57.6434,48.5475 62.5,50.5C 68.3423,48.6868 74.3423,48.0201 80.5,48.5C 80.5,56.5 80.5,64.5 80.5,72.5C 96.6754,72.1703 112.675,72.5036 128.5,73.5 Z"/></g>
<g><path style="opacity:1" fill="#8d7265" d="M 32.5,53.5 C 37.8437,53.334 43.1771,53.5006 48.5,54C 59.4746,59.4869 69.808,65.9869 79.5,73.5C 82.7081,74.609 85.7081,75.9423 88.5,77.5C 88.5,78.1667 88.5,78.8333 88.5,79.5C 84.8981,79.5326 81.8981,78.1993 79.5,75.5C 77.9745,75.9943 76.6412,76.661 75.5,77.5C 72.8864,77.0749 70.8864,75.7416 69.5,73.5C 65.1149,72.3206 60.7815,70.9873 56.5,69.5C 54.7923,69.7028 53.459,70.5362 52.5,72C 53.7234,74.0521 54.7234,76.2188 55.5,78.5C 56.5237,79.8532 57.857,80.5198 59.5,80.5C 59.3505,81.552 59.5172,82.552 60,83.5C 62.1184,84.2829 63.6184,85.6162 64.5,87.5C 61.9039,86.7347 59.2372,86.4013 56.5,86.5C 56.762,85.0222 56.4287,83.6888 55.5,82.5C 54.8076,83.0253 54.3076,83.6919 54,84.5C 52.3005,83.5939 50.4672,83.2606 48.5,83.5C 48.3379,81.4727 48.5045,79.4727 49,77.5C 49.6543,78.6956 50.1543,78.6956 50.5,77.5C 48.8287,75.4902 48.162,73.1569 48.5,70.5C 47.5,70.5 46.5,70.5 45.5,70.5C 45.6567,69.1266 45.49,67.7932 45,66.5C 43.4345,67.0606 42.1011,66.3939 41,64.5C 41.3443,66.2576 41.8443,68.0909 42.5,70C 42.1667,70.8333 41.8333,71.6667 41.5,72.5C 40.1375,70.988 39.8042,69.488 40.5,68C 37.3174,63.8863 34.1507,63.7196 31,67.5C 30.3046,74.9559 30.8046,82.2892 32.5,89.5C 33.5,89.5 34.5,89.5 35.5,89.5C 35.0074,91.8056 34.6741,94.139 34.5,96.5C 35.5,96.5 36.5,96.5 37.5,96.5C 37.9402,99.3798 38.9402,102.046 40.5,104.5C 39.5,104.5 38.5,104.5 37.5,104.5C 34.0566,97.0174 30.8899,89.3508 28,81.5C 27.5004,74.5079 27.3337,67.5079 27.5,60.5C 28.9213,57.9906 30.5879,55.6572 32.5,53.5 Z"/></g>
<g><path style="opacity:1" fill="#b99c95" d="M 196.5,47.5 C 197.812,47.8243 198.645,48.4909 199,49.5C 199.902,49.2568 200.735,48.9234 201.5,48.5C 200.916,55.4498 201.082,62.4498 202,69.5C 202.419,70.6721 203.085,71.6721 204,72.5C 206.228,70.8866 208.728,70.22 211.5,70.5C 211.192,68.076 211.526,65.7427 212.5,63.5C 213.736,62.7542 215.07,62.4208 216.5,62.5C 216.5,57.8333 216.5,53.1667 216.5,48.5C 219.256,47.7459 221.922,47.7459 224.5,48.5C 224.5,51.1667 224.5,53.8333 224.5,56.5C 225.5,56.5 226.5,56.5 227.5,56.5C 228.671,62.2019 229.671,68.0352 230.5,74C 229.437,78.1895 229.437,82.3562 230.5,86.5C 228.951,88.9017 228.284,91.5683 228.5,94.5C 227.167,94.5 225.833,94.5 224.5,94.5C 223.209,94.7373 222.209,94.404 221.5,93.5C 223.606,93.321 225.272,92.321 226.5,90.5C 223.968,87.0334 223.968,83.5334 226.5,80C 226.043,79.586 225.709,79.086 225.5,78.5C 226.415,77.6721 227.081,76.6721 227.5,75.5C 226.349,73.6746 225.682,71.6746 225.5,69.5C 220.78,69.7746 220.446,68.9412 224.5,67C 222.553,66.0087 220.553,65.6753 218.5,66C 217.729,68.577 216.729,71.077 215.5,73.5C 212.93,74.6343 210.264,75.4677 207.5,76C 206.869,78.099 205.869,79.9323 204.5,81.5C 204.167,81.5 203.833,81.5 203.5,81.5C 201.833,81.5 200.167,81.5 198.5,81.5C 198.116,79.0706 197.449,76.7373 196.5,74.5C 198.453,68.9262 199.12,62.9262 198.5,56.5C 195.5,56.5 192.5,56.5 189.5,56.5C 190.793,54.7041 192.293,53.0375 194,51.5C 194.483,50.552 194.649,49.552 194.5,48.5C 195.167,48.1667 195.833,47.8333 196.5,47.5 Z"/></g>
<g><path style="opacity:1" fill="#c3a7a5" d="M 201.5,48.5 C 204.406,48.9026 206.239,50.5693 207,53.5C 210.782,52.671 213.948,51.0043 216.5,48.5C 216.5,53.1667 216.5,57.8333 216.5,62.5C 215.07,62.4208 213.736,62.7542 212.5,63.5C 211.526,65.7427 211.192,68.076 211.5,70.5C 208.728,70.22 206.228,70.8866 204,72.5C 203.085,71.6721 202.419,70.6721 202,69.5C 201.082,62.4498 200.916,55.4498 201.5,48.5 Z"/></g>
<g><path style="opacity:1" fill="#aa9484" d="M 189.5,56.5 C 192.5,56.5 195.5,56.5 198.5,56.5C 199.12,62.9262 198.453,68.9262 196.5,74.5C 192.466,74.4955 188.466,74.1621 184.5,73.5C 184.5,73.1667 184.5,72.8333 184.5,72.5C 187.579,72.7399 190.579,72.4066 193.5,71.5C 194.833,67.5 194.833,63.5 193.5,59.5C 192.833,59.1667 192.167,58.8333 191.5,58.5C 188.878,59.9522 187.212,62.1188 186.5,65C 183.308,65.6966 181.308,67.53 180.5,70.5C 178.896,69.713 178.229,68.3797 178.5,66.5C 180.484,66.6168 182.15,65.9501 183.5,64.5C 185.984,62.0411 187.984,59.3745 189.5,56.5 Z"/></g>
<g><path style="opacity:1" fill="#d7c9c4" d="M 166.5,64.5 C 168.555,65.5588 169.889,67.2254 170.5,69.5C 168.266,68.5531 165.932,67.8864 163.5,67.5C 157.478,68.1764 151.811,69.843 146.5,72.5C 147.109,75.8784 145.776,77.8784 142.5,78.5C 144.385,76.9468 145.385,74.9468 145.5,72.5C 149.804,68.9092 154.804,66.5759 160.5,65.5C 162.621,65.6747 164.621,65.3414 166.5,64.5 Z"/></g>
<g><path style="opacity:1" fill="#96816e" d="M 184.5,72.5 C 182.847,72.3404 181.514,71.6737 180.5,70.5C 181.308,67.53 183.308,65.6966 186.5,65C 187.212,62.1188 188.878,59.9522 191.5,58.5C 192.167,58.8333 192.833,59.1667 193.5,59.5C 194.833,63.5 194.833,67.5 193.5,71.5C 190.579,72.4066 187.579,72.7399 184.5,72.5 Z"/></g>
<g><path style="opacity:1" fill="#c4b5a7" d="M 194.5,48.5 C 194.649,49.552 194.483,50.552 194,51.5C 192.293,53.0375 190.793,54.7041 189.5,56.5C 187.984,59.3745 185.984,62.0411 183.5,64.5C 182.15,65.9501 180.484,66.6168 178.5,66.5C 178.229,68.3797 178.896,69.713 180.5,70.5C 181.514,71.6737 182.847,72.3404 184.5,72.5C 184.5,72.8333 184.5,73.1667 184.5,73.5C 179.797,71.9276 175.13,70.5942 170.5,69.5C 169.889,67.2254 168.555,65.5588 166.5,64.5C 177.97,62.7688 187.304,57.4355 194.5,48.5 Z"/></g>
<g><path style="opacity:1" fill="#86665d" d="M 48.5,83.5 C 48.5,84.5 48.5,85.5 48.5,86.5C 37.8539,86.6707 37.8539,87.1707 48.5,88C 46.5273,88.4955 44.5273,88.6621 42.5,88.5C 42.3433,89.8734 42.51,91.2068 43,92.5C 44.1068,91.2881 44.6068,91.6214 44.5,93.5C 44.0726,97.0043 44.0726,100.671 44.5,104.5C 43.1667,104.5 41.8333,104.5 40.5,104.5C 38.9402,102.046 37.9402,99.3798 37.5,96.5C 36.5,96.5 35.5,96.5 34.5,96.5C 34.6741,94.139 35.0074,91.8056 35.5,89.5C 34.5,89.5 33.5,89.5 32.5,89.5C 30.8046,82.2892 30.3046,74.9559 31,67.5C 34.1507,63.7196 37.3174,63.8863 40.5,68C 39.8042,69.488 40.1375,70.988 41.5,72.5C 41.8333,71.6667 42.1667,70.8333 42.5,70C 41.8443,68.0909 41.3443,66.2576 41,64.5C 42.1011,66.3939 43.4345,67.0606 45,66.5C 45.49,67.7932 45.6567,69.1266 45.5,70.5C 46.5,70.5 47.5,70.5 48.5,70.5C 48.162,73.1569 48.8287,75.4902 50.5,77.5C 50.1543,78.6956 49.6543,78.6956 49,77.5C 48.5045,79.4727 48.3379,81.4727 48.5,83.5 Z"/></g>
<g><path style="opacity:1" fill="#b18e89" d="M 221.5,93.5 C 217.958,93.8128 214.625,93.4794 211.5,92.5C 214.247,92.8134 216.914,92.48 219.5,91.5C 216.903,84.5274 211.903,81.1941 204.5,81.5C 205.869,79.9323 206.869,78.099 207.5,76C 210.264,75.4677 212.93,74.6343 215.5,73.5C 216.729,71.077 217.729,68.577 218.5,66C 220.553,65.6753 222.553,66.0087 224.5,67C 220.446,68.9412 220.78,69.7746 225.5,69.5C 225.682,71.6746 226.349,73.6746 227.5,75.5C 227.081,76.6721 226.415,77.6721 225.5,78.5C 225.709,79.086 226.043,79.586 226.5,80C 223.968,83.5334 223.968,87.0334 226.5,90.5C 225.272,92.321 223.606,93.321 221.5,93.5 Z"/></g>
<g><path style="opacity:1" fill="#bcaea6" d="M 136.5,73.5 C 139.287,72.5233 142.287,72.19 145.5,72.5C 145.385,74.9468 144.385,76.9468 142.5,78.5C 141.833,78.5 141.167,78.5 140.5,78.5C 139.833,78.5 139.167,78.5 138.5,78.5C 138.423,77.2502 137.756,76.4169 136.5,76C 141.797,74.8658 141.797,74.0325 136.5,73.5 Z"/></g>
<g><path style="opacity:1" fill="#a2928a" d="M 128.5,73.5 C 131.167,73.5 133.833,73.5 136.5,73.5C 141.797,74.0325 141.797,74.8658 136.5,76C 137.756,76.4169 138.423,77.2502 138.5,78.5C 135.156,79.5075 131.823,80.5075 128.5,81.5C 128.36,79.8762 129.027,78.7096 130.5,78C 128.975,76.9914 127.308,76.4914 125.5,76.5C 126.694,75.7281 127.694,74.7281 128.5,73.5 Z"/></g>
<g><path style="opacity:1" fill="#e8d9d0" d="M 170.5,69.5 C 175.13,70.5942 179.797,71.9276 184.5,73.5C 186.54,74.9422 188.873,75.9422 191.5,76.5C 192.854,79.0673 192.52,81.4006 190.5,83.5C 191.851,86.1934 193.518,88.6934 195.5,91C 191.848,91.4986 188.182,91.6653 184.5,91.5C 180.833,92.1667 177.167,92.8333 173.5,93.5C 173.167,93.5 172.833,93.5 172.5,93.5C 169.784,93.6785 167.117,94.1785 164.5,95C 163.663,96.0113 163.33,97.1779 163.5,98.5C 162.5,98.5 161.5,98.5 160.5,98.5C 160.5,100.5 160.5,102.5 160.5,104.5C 155.733,104.191 151.066,104.691 146.5,106C 144.963,107.11 144.297,108.61 144.5,110.5C 138.972,111.074 134.972,113.741 132.5,118.5C 127.259,119.945 121.926,121.112 116.5,122C 112.588,125.713 110.255,124.88 109.5,119.5C 109.695,116.782 110.695,114.449 112.5,112.5C 112.833,111.833 113.167,111.167 113.5,110.5C 119.12,109.85 124.12,107.85 128.5,104.5C 131.702,103.953 134.702,102.953 137.5,101.5C 144.08,101.602 146.413,98.6022 144.5,92.5C 139.208,91.5052 133.875,91.1718 128.5,91.5C 128.5,89.1667 128.5,86.8333 128.5,84.5C 133.545,84.4628 137.545,82.4628 140.5,78.5C 141.167,78.5 141.833,78.5 142.5,78.5C 145.776,77.8784 147.109,75.8784 146.5,72.5C 151.811,69.843 157.478,68.1764 163.5,67.5C 165.932,67.8864 168.266,68.5531 170.5,69.5 Z"/></g>
<g><path style="opacity:1" fill="#eee3dc" d="M 184.5,91.5 C 177.129,91.7647 169.796,91.4314 162.5,90.5C 159.606,92.9637 156.606,93.1303 153.5,91C 154.167,90.3333 154.833,89.6667 155.5,89C 153.479,86.9855 151.812,84.6521 150.5,82C 150.905,81.0546 151.572,80.3879 152.5,80C 151.833,79.3333 151.167,78.6667 150.5,78C 155.627,77.3574 160.96,75.5241 166.5,72.5C 174.873,73.4778 181.206,77.4778 185.5,84.5C 185.833,85.1667 186.167,85.8333 186.5,86.5C 185.453,88.0564 184.786,89.7231 184.5,91.5 Z"/></g>
<g><path style="opacity:0.991" fill="#ecddda" d="M 27.5,60.5 C 27.3337,67.5079 27.5004,74.5079 28,81.5C 30.8899,89.3508 34.0566,97.0174 37.5,104.5C 37.9926,106.806 38.3259,109.139 38.5,111.5C 42.4034,122.956 47.07,133.956 52.5,144.5C 52.7878,147.939 53.4544,151.272 54.5,154.5C 55.7105,159.251 57.7105,163.584 60.5,167.5C 62.1461,174.464 64.6461,181.131 68,187.5C 68.4955,189.473 68.6621,191.473 68.5,193.5C 68.5,196.167 68.5,198.833 68.5,201.5C 68.5,201.833 68.5,202.167 68.5,202.5C 68.154,208.888 67.3207,215.222 66,221.5C 61.7202,235.146 56.8869,248.479 51.5,261.5C 22.1195,236.075 4.78617,204.075 -0.5,165.5C -0.5,153.833 -0.5,142.167 -0.5,130.5C 3.15419,104.866 12.4875,81.5326 27.5,60.5 Z"/></g>
<g><path style="opacity:1" fill="#958372" d="M 125.5,76.5 C 127.308,76.4914 128.975,76.9914 130.5,78C 129.027,78.7096 128.36,79.8762 128.5,81.5C 125.777,82.3519 123.11,83.5186 120.5,85C 119.177,85.8159 118.511,86.9826 118.5,88.5C 117.761,88.369 117.094,88.5357 116.5,89C 114.451,91.5934 112.285,94.0934 110,96.5C 109.536,95.9056 109.369,95.2389 109.5,94.5C 112.564,91.7548 114.897,88.4214 116.5,84.5C 109.232,82.6947 101.565,81.8614 93.5,82C 91.6854,81.2432 90.0188,80.4098 88.5,79.5C 88.5,78.8333 88.5,78.1667 88.5,77.5C 100.909,81.6522 113.242,81.3189 125.5,76.5 Z"/></g>
<g><path style="opacity:1" fill="#64463d" d="M 210.5,91.5 C 209.508,91.6716 208.842,91.3382 208.5,90.5C 207.222,89.2505 206.222,87.7505 205.5,86C 203.1,85.8142 200.766,85.3142 198.5,84.5C 204.1,82.9104 209.434,83.4104 214.5,86C 218.657,90.6427 217.324,92.476 210.5,91.5 Z"/></g>
<g><path style="opacity:1" fill="#7e6057" d="M 203.5,81.5 C 203.833,81.5 204.167,81.5 204.5,81.5C 211.903,81.1941 216.903,84.5274 219.5,91.5C 216.914,92.48 214.247,92.8134 211.5,92.5C 210.833,92.5 210.5,92.1667 210.5,91.5C 217.324,92.476 218.657,90.6427 214.5,86C 209.434,83.4104 204.1,82.9104 198.5,84.5C 200.766,85.3142 203.1,85.8142 205.5,86C 206.222,87.7505 207.222,89.2505 208.5,90.5C 207.167,90.5 205.833,90.5 204.5,90.5C 203.345,88.1749 201.345,87.0082 198.5,87C 196.963,85.8904 196.297,84.3904 196.5,82.5C 199.059,82.8016 201.393,82.4682 203.5,81.5 Z"/></g>
<g><path style="opacity:1" fill="#9c847a" d="M 198.5,81.5 C 200.167,81.5 201.833,81.5 203.5,81.5C 201.393,82.4682 199.059,82.8016 196.5,82.5C 196.297,84.3904 196.963,85.8904 198.5,87C 201.345,87.0082 203.345,88.1749 204.5,90.5C 200.882,90.2925 197.548,89.2925 194.5,87.5C 193.887,84.0306 195.221,82.0306 198.5,81.5 Z"/></g>
<g><path style="opacity:1" fill="#846654" d="M 64.5,87.5 C 66.561,90.0493 67.561,93.0493 67.5,96.5C 60.5445,95.8859 53.5445,95.8859 46.5,96.5C 46.7148,94.8212 46.0481,93.8212 44.5,93.5C 44.6068,91.6214 44.1068,91.2881 43,92.5C 42.51,91.2068 42.3433,89.8734 42.5,88.5C 44.5273,88.6621 46.5273,88.4955 48.5,88C 37.8539,87.1707 37.8539,86.6707 48.5,86.5C 48.5,85.5 48.5,84.5 48.5,83.5C 50.4672,83.2606 52.3005,83.5939 54,84.5C 54.3076,83.6919 54.8076,83.0253 55.5,82.5C 56.4287,83.6888 56.762,85.0222 56.5,86.5C 59.2372,86.4013 61.9039,86.7347 64.5,87.5 Z"/></g>
<g><path style="opacity:1" fill="#bfaa9b" d="M 138.5,78.5 C 132.858,81.5616 127.191,84.7283 121.5,88C 119.887,90.2276 119.22,92.7276 119.5,95.5C 122.5,94.8333 125.5,94.1667 128.5,93.5C 125.75,95.1653 123.083,96.8319 120.5,98.5C 117.428,98.8174 114.428,98.4841 111.5,97.5C 114.284,94.8203 116.618,91.8203 118.5,88.5C 118.511,86.9826 119.177,85.8159 120.5,85C 123.11,83.5186 125.777,82.3519 128.5,81.5C 131.823,80.5075 135.156,79.5075 138.5,78.5 Z"/></g>
<g><path style="opacity:1" fill="#8b6d56" d="M 88.5,79.5 C 90.0188,80.4098 91.6854,81.2432 93.5,82C 101.565,81.8614 109.232,82.6947 116.5,84.5C 115.022,84.238 113.689,84.5713 112.5,85.5C 109.885,89.7829 106.885,93.7829 103.5,97.5C 102.808,96.9747 102.308,96.3081 102,95.5C 100.173,98.1603 98.0059,100.494 95.5,102.5C 94.914,102.291 94.414,101.957 94,101.5C 93.5439,102.744 94.0439,103.577 95.5,104C 91.4896,104.357 87.4896,104.19 83.5,103.5C 82.605,96.1738 79.7716,89.8404 75,84.5C 74.2967,82.0709 74.4634,79.7375 75.5,77.5C 76.6412,76.661 77.9745,75.9943 79.5,75.5C 81.8981,78.1993 84.8981,79.5326 88.5,79.5 Z"/></g>
<g><path style="opacity:1" fill="#ddccbc" d="M 138.5,78.5 C 139.167,78.5 139.833,78.5 140.5,78.5C 137.545,82.4628 133.545,84.4628 128.5,84.5C 128.5,86.8333 128.5,89.1667 128.5,91.5C 128.5,92.1667 128.5,92.8333 128.5,93.5C 125.5,94.1667 122.5,94.8333 119.5,95.5C 119.22,92.7276 119.887,90.2276 121.5,88C 127.191,84.7283 132.858,81.5616 138.5,78.5 Z"/></g>
<g><path style="opacity:1" fill="#c6b8b0" d="M 128.5,91.5 C 133.875,91.1718 139.208,91.5052 144.5,92.5C 146.413,98.6022 144.08,101.602 137.5,101.5C 138.287,99.8958 139.62,99.2291 141.5,99.5C 142.035,96.7615 141.035,94.9282 138.5,94C 135.183,93.5017 131.85,93.335 128.5,93.5C 128.5,92.8333 128.5,92.1667 128.5,91.5 Z"/></g>
<g><path style="opacity:1" fill="#d8c2b7" d="M 184.5,73.5 C 188.466,74.1621 192.466,74.4955 196.5,74.5C 197.449,76.7373 198.116,79.0706 198.5,81.5C 195.221,82.0306 193.887,84.0306 194.5,87.5C 197.548,89.2925 200.882,90.2925 204.5,90.5C 205.833,90.5 207.167,90.5 208.5,90.5C 208.842,91.3382 209.508,91.6716 210.5,91.5C 210.5,92.1667 210.833,92.5 211.5,92.5C 214.625,93.4794 217.958,93.8128 221.5,93.5C 222.209,94.404 223.209,94.7373 224.5,94.5C 224.5,94.8333 224.5,95.1667 224.5,95.5C 218.176,94.7676 211.842,94.1009 205.5,93.5C 206.469,96.9836 208.469,99.817 211.5,102C 217.363,103.551 223.03,105.551 228.5,108C 230.81,108.497 233.143,108.663 235.5,108.5C 235.552,106.097 235.219,103.764 234.5,101.5C 238.408,104.095 240.075,107.762 239.5,112.5C 235.768,113.663 232.435,112.829 229.5,110C 223.691,108.376 218.025,106.542 212.5,104.5C 211.833,104.5 211.167,104.5 210.5,104.5C 209.833,104.5 209.167,104.5 208.5,104.5C 206.772,100.357 204.106,97.0241 200.5,94.5C 191.682,93.5067 182.682,93.1734 173.5,93.5C 177.167,92.8333 180.833,92.1667 184.5,91.5C 188.182,91.6653 191.848,91.4986 195.5,91C 193.518,88.6934 191.851,86.1934 190.5,83.5C 192.52,81.4006 192.854,79.0673 191.5,76.5C 188.873,75.9422 186.54,74.9422 184.5,73.5 Z"/></g>
<g><path style="opacity:1" fill="#b39f96" d="M 172.5,93.5 C 172.833,93.5 173.167,93.5 173.5,93.5C 182.682,93.1734 191.682,93.5067 200.5,94.5C 191.827,94.3336 183.16,94.5002 174.5,95C 171.916,97.1344 172.25,98.9677 175.5,100.5C 174.051,101.172 172.718,101.839 171.5,102.5C 170.5,102.833 169.833,103.5 169.5,104.5C 164.047,106.635 158.38,108.135 152.5,109C 150.595,110.421 148.595,111.588 146.5,112.5C 147.625,110.871 148.959,109.371 150.5,108C 154.324,107.567 157.657,106.401 160.5,104.5C 163.25,103.809 165.917,102.809 168.5,101.5C 169.547,100.078 169.547,98.5777 168.5,97C 169.686,95.5879 171.019,94.4212 172.5,93.5 Z"/></g>
<g><path style="opacity:1" fill="#805e45" d="M 80.5,80.5 C 84.4416,80.5924 87.9416,81.9257 91,84.5C 94.8125,85.1459 98.6458,85.6459 102.5,86C 103.376,87.5848 104.709,88.5848 106.5,89C 102.556,91.5502 98.2225,93.0502 93.5,93.5C 92.6143,94.325 92.281,95.325 92.5,96.5C 91.1667,96.5 89.8333,96.5 88.5,96.5C 88.6463,98.9424 87.813,99.6091 86,98.5C 84.6503,94.5825 82.9836,90.9159 81,87.5C 80.5034,85.1902 80.3367,82.8568 80.5,80.5 Z"/></g>
<g><path style="opacity:1" fill="#7e6e65" d="M 128.5,93.5 C 131.85,93.335 135.183,93.5017 138.5,94C 141.035,94.9282 142.035,96.7615 141.5,99.5C 139.62,99.2291 138.287,99.8958 137.5,101.5C 134.702,102.953 131.702,103.953 128.5,104.5C 131.047,103.001 133.714,101.501 136.5,100C 137.717,96.9828 136.55,95.4828 133,95.5C 128.722,96.1114 124.555,97.1114 120.5,98.5C 123.083,96.8319 125.75,95.1653 128.5,93.5 Z"/></g>
<g><path style="opacity:1" fill="#94705f" d="M 69.5,96.5 C 74.1222,96.5327 75.4555,99.0327 73.5,104C 78.076,108.76 82.4093,112.926 86.5,116.5C 82.8735,120.374 81.2068,125.04 81.5,130.5C 81.0984,133.477 80.0984,136.143 78.5,138.5C 78.1788,136.952 77.1788,136.285 75.5,136.5C 75.2208,133.882 74.5541,131.382 73.5,129C 74.4231,126.959 74.7564,124.792 74.5,122.5C 81.6553,119.886 82.322,116.053 76.5,111C 69.0385,112.53 65.8719,109.696 67,102.5C 69.0162,101.045 69.8495,99.0448 69.5,96.5 Z"/></g>
<g><path style="opacity:1" fill="#a38c83" d="M 200.5,94.5 C 204.106,97.0241 206.772,100.357 208.5,104.5C 205.802,102.793 203.469,100.793 201.5,98.5C 201.196,97.8501 200.863,97.1835 200.5,96.5C 192.521,95.3351 184.521,95.1684 176.5,96C 176.043,96.414 175.709,96.914 175.5,97.5C 177.297,98.6951 178.297,100.362 178.5,102.5C 176.167,102.5 173.833,102.5 171.5,102.5C 172.718,101.839 174.051,101.172 175.5,100.5C 172.25,98.9677 171.916,97.1344 174.5,95C 183.16,94.5002 191.827,94.3336 200.5,94.5 Z"/></g>
<g><path style="opacity:1" fill="#8a6c64" d="M 201.5,98.5 C 195.691,97.8758 190.024,97.8758 184.5,98.5C 184.245,101.016 183.411,103.35 182,105.5C 179.674,105.88 177.841,106.88 176.5,108.5C 173.763,108.401 171.096,108.735 168.5,109.5C 168.629,107.784 168.962,106.117 169.5,104.5C 169.833,103.5 170.5,102.833 171.5,102.5C 173.833,102.5 176.167,102.5 178.5,102.5C 178.297,100.362 177.297,98.6951 175.5,97.5C 175.709,96.914 176.043,96.414 176.5,96C 184.521,95.1684 192.521,95.3351 200.5,96.5C 200.863,97.1835 201.196,97.8501 201.5,98.5 Z"/></g>
<g><path style="opacity:1" fill="#65524a" d="M 128.5,104.5 C 127.5,104.5 126.5,104.5 125.5,104.5C 123.017,101.621 120.017,101.121 116.5,103C 114.963,104.11 114.297,105.61 114.5,107.5C 115.833,107.5 117.167,107.5 118.5,107.5C 116.735,108.461 114.735,108.795 112.5,108.5C 113.284,103.711 115.95,100.377 120.5,98.5C 124.555,97.1114 128.722,96.1114 133,95.5C 136.55,95.4828 137.717,96.9828 136.5,100C 133.714,101.501 131.047,103.001 128.5,104.5 Z"/></g>
<g><path style="opacity:1" fill="#866150" d="M 44.5,93.5 C 46.0481,93.8212 46.7148,94.8212 46.5,96.5C 53.5445,95.8859 60.5445,95.8859 67.5,96.5C 68.1667,96.5 68.8333,96.5 69.5,96.5C 69.8495,99.0448 69.0162,101.045 67,102.5C 65.8719,109.696 69.0385,112.53 76.5,111C 82.322,116.053 81.6553,119.886 74.5,122.5C 73.5263,120.915 72.0263,119.915 70,119.5C 69.5172,118.552 69.3505,117.552 69.5,116.5C 67.8762,116.64 66.7096,115.973 66,114.5C 64.4981,117.229 63.6648,119.896 63.5,122.5C 62.1585,120.995 60.4918,120.328 58.5,120.5C 57.29,116.486 54.4566,114.486 50,114.5C 49.228,114.645 48.5613,114.978 48,115.5C 45.0282,112.115 42.5282,108.449 40.5,104.5C 41.8333,104.5 43.1667,104.5 44.5,104.5C 44.0726,100.671 44.0726,97.0043 44.5,93.5 Z"/></g>
<g><path style="opacity:1" fill="#c2aea3" d="M 224.5,48.5 C 224.833,48.5 225.167,48.5 225.5,48.5C 227.708,49.8936 229.208,51.8936 230,54.5C 230.34,58.5577 231.007,62.5577 232,66.5C 237.445,84.6801 243.945,102.347 251.5,119.5C 250.504,119.414 249.671,119.748 249,120.5C 248.751,119.376 248.251,118.376 247.5,117.5C 246.673,119.162 245.507,120.495 244,121.5C 236.396,116.518 228.229,112.685 219.5,110C 216.734,108.629 214.401,106.796 212.5,104.5C 218.025,106.542 223.691,108.376 229.5,110C 232.435,112.829 235.768,113.663 239.5,112.5C 240.075,107.762 238.408,104.095 234.5,101.5C 231.962,98.3189 228.629,96.3189 224.5,95.5C 224.5,95.1667 224.5,94.8333 224.5,94.5C 225.833,94.5 227.167,94.5 228.5,94.5C 228.284,91.5683 228.951,88.9017 230.5,86.5C 229.437,82.3562 229.437,78.1895 230.5,74C 229.671,68.0352 228.671,62.2019 227.5,56.5C 226.5,56.5 225.5,56.5 224.5,56.5C 224.5,53.8333 224.5,51.1667 224.5,48.5 Z"/></g>
<g><path style="opacity:1" fill="#7e5953" d="M 201.5,98.5 C 203.469,100.793 205.802,102.793 208.5,104.5C 209.167,104.5 209.833,104.5 210.5,104.5C 211.167,105.5 211.833,106.5 212.5,107.5C 210.517,107.157 209.183,107.824 208.5,109.5C 199.584,108.529 190.584,108.196 181.5,108.5C 179.833,108.5 178.167,108.5 176.5,108.5C 177.841,106.88 179.674,105.88 182,105.5C 183.411,103.35 184.245,101.016 184.5,98.5C 190.024,97.8758 195.691,97.8758 201.5,98.5 Z"/></g>
<g><path style="opacity:1" fill="#d2c2b8" d="M 172.5,93.5 C 171.019,94.4212 169.686,95.5879 168.5,97C 169.547,98.5777 169.547,100.078 168.5,101.5C 165.917,102.809 163.25,103.809 160.5,104.5C 160.5,102.5 160.5,100.5 160.5,98.5C 161.5,98.5 162.5,98.5 163.5,98.5C 163.33,97.1779 163.663,96.0113 164.5,95C 167.117,94.1785 169.784,93.6785 172.5,93.5 Z"/></g>
<g><path style="opacity:1" fill="#f0dbd0" d="M 224.5,95.5 C 228.629,96.3189 231.962,98.3189 234.5,101.5C 235.219,103.764 235.552,106.097 235.5,108.5C 233.143,108.663 230.81,108.497 228.5,108C 223.03,105.551 217.363,103.551 211.5,102C 208.469,99.817 206.469,96.9836 205.5,93.5C 211.842,94.1009 218.176,94.7676 224.5,95.5 Z"/></g>
<g><path style="opacity:1" fill="#9e8075" d="M 118.5,88.5 C 116.618,91.8203 114.284,94.8203 111.5,97.5C 114.428,98.4841 117.428,98.8174 120.5,98.5C 115.95,100.377 113.284,103.711 112.5,108.5C 114.735,108.795 116.735,108.461 118.5,107.5C 120.954,106.773 123.287,105.773 125.5,104.5C 126.5,104.5 127.5,104.5 128.5,104.5C 124.12,107.85 119.12,109.85 113.5,110.5C 111.199,111.06 108.866,111.56 106.5,112C 105.177,112.816 104.511,113.983 104.5,115.5C 103.309,117.327 101.975,118.993 100.5,120.5C 100.5,118.833 100.5,117.167 100.5,115.5C 103.044,114.005 104.377,111.672 104.5,108.5C 103.301,102.882 104.968,98.2158 109.5,94.5C 109.369,95.2389 109.536,95.9056 110,96.5C 112.285,94.0934 114.451,91.5934 116.5,89C 117.094,88.5357 117.761,88.369 118.5,88.5 Z"/></g>
<g><path style="opacity:1" fill="#543b34" d="M 125.5,104.5 C 123.287,105.773 120.954,106.773 118.5,107.5C 117.167,107.5 115.833,107.5 114.5,107.5C 114.297,105.61 114.963,104.11 116.5,103C 120.017,101.121 123.017,101.621 125.5,104.5 Z"/></g>
<g><path style="opacity:1" fill="#987865" d="M 75.5,77.5 C 74.4634,79.7375 74.2967,82.0709 75,84.5C 79.7716,89.8404 82.605,96.1738 83.5,103.5C 87.4896,104.19 91.4896,104.357 95.5,104C 94.0439,103.577 93.5439,102.744 94,101.5C 94.414,101.957 94.914,102.291 95.5,102.5C 98.0059,100.494 100.173,98.1603 102,95.5C 102.308,96.3081 102.808,96.9747 103.5,97.5C 106.885,93.7829 109.885,89.7829 112.5,85.5C 113.689,84.5713 115.022,84.238 116.5,84.5C 114.897,88.4214 112.564,91.7548 109.5,94.5C 104.968,98.2158 103.301,102.882 104.5,108.5C 104.377,111.672 103.044,114.005 100.5,115.5C 100.421,114.07 100.754,112.736 101.5,111.5C 100.902,110.205 100.402,108.872 100,107.5C 98.2859,108.925 96.9525,108.592 96,106.5C 93.2185,108.052 91.5518,110.385 91,113.5C 89.3853,114.386 87.8853,115.386 86.5,116.5C 82.4093,112.926 78.076,108.76 73.5,104C 75.4555,99.0327 74.1222,96.5327 69.5,96.5C 68.8333,96.5 68.1667,96.5 67.5,96.5C 67.561,93.0493 66.561,90.0493 64.5,87.5C 63.6184,85.6162 62.1184,84.2829 60,83.5C 59.5172,82.552 59.3505,81.552 59.5,80.5C 57.857,80.5198 56.5237,79.8532 55.5,78.5C 54.7234,76.2188 53.7234,74.0521 52.5,72C 53.459,70.5362 54.7923,69.7028 56.5,69.5C 60.7815,70.9873 65.1149,72.3206 69.5,73.5C 70.8864,75.7416 72.8864,77.0749 75.5,77.5 Z"/></g>
<g><path style="opacity:1" fill="#4f2d28" d="M 181.5,108.5 C 190.584,108.196 199.584,108.529 208.5,109.5C 210.973,109.088 212.306,110.088 212.5,112.5C 211.833,112.5 211.167,112.5 210.5,112.5C 209.5,112.5 208.5,112.5 207.5,112.5C 206.942,111.21 205.942,110.377 204.5,110C 192.692,109.137 181.026,109.97 169.5,112.5C 169.611,111.883 169.944,111.383 170.5,111C 174.28,110.082 177.946,109.249 181.5,108.5 Z"/></g>
<g><path style="opacity:1" fill="#321411" d="M 207.5,112.5 C 195.846,111.193 184.179,111.36 172.5,113C 168.857,114.775 165.19,116.608 161.5,118.5C 160.893,118.376 160.56,118.043 160.5,117.5C 161.827,115.818 163.494,114.485 165.5,113.5C 166.708,112.766 168.041,112.433 169.5,112.5C 181.026,109.97 192.692,109.137 204.5,110C 205.942,110.377 206.942,111.21 207.5,112.5 Z"/></g>
<g><path style="opacity:1" fill="#9a7968" d="M 37.5,104.5 C 38.5,104.5 39.5,104.5 40.5,104.5C 42.5282,108.449 45.0282,112.115 48,115.5C 48.5613,114.978 49.228,114.645 50,114.5C 54.4566,114.486 57.29,116.486 58.5,120.5C 54.1667,119.833 49.8333,119.167 45.5,118.5C 44.6182,116.916 43.7848,115.249 43,113.5C 41.8904,111.963 40.3904,111.297 38.5,111.5C 38.3259,109.139 37.9926,106.806 37.5,104.5 Z"/></g>
<g><path style="opacity:1" fill="#786157" d="M 168.5,109.5 C 162.422,112.2 156.089,114.533 149.5,116.5C 145.486,122.514 140.486,127.514 134.5,131.5C 135.449,129.263 136.116,126.929 136.5,124.5C 139.19,121.635 142.523,119.469 146.5,118C 147.842,115.108 150.175,113.775 153.5,114C 154.167,112.667 155.167,111.667 156.5,111C 160.51,110.499 164.51,109.999 168.5,109.5 Z"/></g>
<g><path style="opacity:1" fill="#967f76" d="M 169.5,104.5 C 168.962,106.117 168.629,107.784 168.5,109.5C 164.51,109.999 160.51,110.499 156.5,111C 155.167,111.667 154.167,112.667 153.5,114C 150.175,113.775 147.842,115.108 146.5,118C 142.523,119.469 139.19,121.635 136.5,124.5C 134.079,126.238 131.412,127.571 128.5,128.5C 129.527,126.806 130.861,125.473 132.5,124.5C 136.797,120.214 141.463,116.214 146.5,112.5C 148.595,111.588 150.595,110.421 152.5,109C 158.38,108.135 164.047,106.635 169.5,104.5 Z"/></g>
<g><path style="opacity:1" fill="#584036" d="M 176.5,108.5 C 178.167,108.5 179.833,108.5 181.5,108.5C 177.946,109.249 174.28,110.082 170.5,111C 169.944,111.383 169.611,111.883 169.5,112.5C 168.041,112.433 166.708,112.766 165.5,113.5C 160.681,114.873 156.015,116.539 151.5,118.5C 147.713,123.203 143.38,127.203 138.5,130.5C 134.506,133.002 131.506,136.336 129.5,140.5C 129.386,136.386 131.052,133.386 134.5,131.5C 140.486,127.514 145.486,122.514 149.5,116.5C 156.089,114.533 162.422,112.2 168.5,109.5C 171.096,108.735 173.763,108.401 176.5,108.5 Z"/></g>
<g><path style="opacity:1" fill="#220b05" d="M 207.5,112.5 C 208.5,112.5 209.5,112.5 210.5,112.5C 211.29,113.794 212.29,114.961 213.5,116C 215.653,117.628 217.987,118.961 220.5,120C 219.833,120.333 219.167,120.667 218.5,121C 220.833,122 223.167,123 225.5,124C 226.38,125.356 226.714,126.856 226.5,128.5C 227.036,131.698 226.369,134.365 224.5,136.5C 224.5,137.5 224.5,138.5 224.5,139.5C 221.482,139.665 218.482,139.498 215.5,139C 213.52,137.175 211.187,136.341 208.5,136.5C 208.5,135.5 208.5,134.5 208.5,133.5C 205.951,133.613 203.618,132.946 201.5,131.5C 200.228,132.046 198.894,132.379 197.5,132.5C 190.618,130.736 183.618,130.069 176.5,130.5C 176.819,128.25 176.319,126.25 175,124.5C 171.564,129.636 166.731,132.303 160.5,132.5C 160.5,134.5 160.5,136.5 160.5,138.5C 155.425,140.498 150.092,141.831 144.5,142.5C 144.5,140.5 144.5,138.5 144.5,136.5C 138.609,136.395 138.275,135.395 143.5,133.5C 144.666,131.833 144.666,130.166 143.5,128.5C 148.375,123.628 154.041,119.962 160.5,117.5C 160.56,118.043 160.893,118.376 161.5,118.5C 165.19,116.608 168.857,114.775 172.5,113C 184.179,111.36 195.846,111.193 207.5,112.5 Z"/></g>
<g><path style="opacity:1" fill="#1d0903" d="M 224.5,136.5 C 221.728,136.78 219.228,136.113 217,134.5C 216.692,135.308 216.192,135.975 215.5,136.5C 213.807,131.474 210.474,128.141 205.5,126.5C 201.025,126.033 196.692,125.033 192.5,123.5C 187.208,122.505 181.875,122.172 176.5,122.5C 176.5,121.167 176.5,119.833 176.5,118.5C 181.833,118.5 187.167,118.5 192.5,118.5C 192.5,117.5 192.5,116.5 192.5,115.5C 197.729,115.996 202.562,115.996 207,115.5C 210.688,120.336 214.522,125.169 218.5,130C 220.473,130.495 222.473,130.662 224.5,130.5C 224.5,132.5 224.5,134.5 224.5,136.5 Z"/></g>
<g><path style="opacity:1" fill="#d4c0b7" d="M 160.5,104.5 C 157.657,106.401 154.324,107.567 150.5,108C 148.959,109.371 147.625,110.871 146.5,112.5C 145.127,112.343 143.793,112.51 142.5,113C 134.571,119.721 125.571,124.387 115.5,127C 112.854,127.497 110.187,127.664 107.5,127.5C 107.577,123.123 108.077,118.79 109,114.5C 109.816,113.177 110.983,112.511 112.5,112.5C 110.695,114.449 109.695,116.782 109.5,119.5C 110.255,124.88 112.588,125.713 116.5,122C 121.926,121.112 127.259,119.945 132.5,118.5C 134.972,113.741 138.972,111.074 144.5,110.5C 144.297,108.61 144.963,107.11 146.5,106C 151.066,104.691 155.733,104.191 160.5,104.5 Z"/></g>
<g><path style="opacity:1" fill="#3b2419" d="M 165.5,113.5 C 163.494,114.485 161.827,115.818 160.5,117.5C 154.041,119.962 148.375,123.628 143.5,128.5C 142.18,129.942 140.514,130.608 138.5,130.5C 143.38,127.203 147.713,123.203 151.5,118.5C 156.015,116.539 160.681,114.873 165.5,113.5 Z"/></g>
<g><path style="opacity:1" fill="#ae897e" d="M 45.5,118.5 C 49.8333,119.167 54.1667,119.833 58.5,120.5C 59.2499,125.493 60.0833,130.493 61,135.5C 63.1223,136.22 63.6223,137.387 62.5,139C 59.2072,139.826 55.8738,140.326 52.5,140.5C 54.1016,138.926 56.1016,138.259 58.5,138.5C 60.7738,128.319 56.9405,122.319 47,120.5C 45.9701,120.164 45.4701,119.497 45.5,118.5 Z"/></g>
<g><path style="opacity:1" fill="#7a604e" d="M 76.5,203.5 C 78.2624,203.357 79.9291,203.691 81.5,204.5C 85.0697,199.462 87.0697,193.795 87.5,187.5C 86.5,182.167 85.5,176.833 84.5,171.5C 86.1567,162.838 88.6567,154.504 92,146.5C 93.9196,139.213 95.4196,131.88 96.5,124.5C 93.3762,124.943 91.0429,126.61 89.5,129.5C 86.9187,132.404 85.252,135.737 84.5,139.5C 80.8298,141.892 77.1631,144.392 73.5,147C 70.5184,147.498 67.5184,147.665 64.5,147.5C 64.6399,145.876 63.9733,144.71 62.5,144C 60.1667,143.333 57.8333,143.333 55.5,144C 54.1797,147.435 54.513,150.768 56.5,154C 56.3166,155.684 55.6499,155.85 54.5,154.5C 53.4544,151.272 52.7878,147.939 52.5,144.5C 52.5,143.5 52.5,142.5 52.5,141.5C 59.1893,142.098 65.856,142.598 72.5,143C 75.2739,142.376 77.2739,140.876 78.5,138.5C 80.0984,136.143 81.0984,133.477 81.5,130.5C 83.7589,126.405 86.9256,123.072 91,120.5C 92.9562,120.784 95.1229,120.784 97.5,120.5C 99.2221,128.047 98.0554,135.047 94,141.5C 91.7217,150.943 89.8884,160.443 88.5,170C 88.9541,171.622 89.9541,172.788 91.5,173.5C 91.8333,175.333 92.1667,177.167 92.5,179C 91.268,188.634 89.768,198.134 88,207.5C 87,209.167 85.6667,210.5 84,211.5C 78.5426,211.544 76.0426,208.877 76.5,203.5 Z"/></g>
<g><path style="opacity:1" fill="#906760" d="M 74.5,122.5 C 74.7564,124.792 74.4231,126.959 73.5,129C 74.5541,131.382 75.2208,133.882 75.5,136.5C 77.1788,136.285 78.1788,136.952 78.5,138.5C 77.2739,140.876 75.2739,142.376 72.5,143C 65.856,142.598 59.1893,142.098 52.5,141.5C 52.5,141.167 52.5,140.833 52.5,140.5C 55.8738,140.326 59.2072,139.826 62.5,139C 63.6223,137.387 63.1223,136.22 61,135.5C 60.0833,130.493 59.2499,125.493 58.5,120.5C 60.4918,120.328 62.1585,120.995 63.5,122.5C 63.6648,119.896 64.4981,117.229 66,114.5C 66.7096,115.973 67.8762,116.64 69.5,116.5C 69.3505,117.552 69.5172,118.552 70,119.5C 72.0263,119.915 73.5263,120.915 74.5,122.5 Z"/></g>
<g><path style="opacity:1" fill="#280f0a" d="M 224.5,139.5 C 224.36,141.124 225.027,142.29 226.5,143C 223.833,143.667 223.833,144.333 226.5,145C 222.961,146.504 219.295,146.837 215.5,146C 214.636,144.863 213.636,143.53 212.5,142C 208.728,141.594 205.061,140.761 201.5,139.5C 200.614,138.675 200.281,137.675 200.5,136.5C 197.833,136.5 195.167,136.5 192.5,136.5C 192.5,135.5 192.5,134.5 192.5,133.5C 183.781,133.203 175.114,133.703 166.5,135C 166.167,135.333 165.833,135.667 165.5,136C 166.833,136.333 168.167,136.667 169.5,137C 168.62,138.356 168.286,139.856 168.5,141.5C 165.679,141.539 163.012,142.205 160.5,143.5C 159.389,145.386 158.389,147.053 157.5,148.5C 153.473,149.139 149.473,149.972 145.5,151C 144.594,152.699 144.261,154.533 144.5,156.5C 141.833,156.167 139.167,155.833 136.5,155.5C 136.48,153.857 137.147,152.524 138.5,151.5C 137.998,150.479 137.332,150.312 136.5,151C 135.809,152.067 135.309,153.234 135,154.5C 134.667,154.167 134.333,153.833 134,153.5C 132.589,155.65 131.755,157.984 131.5,160.5C 130.5,160.5 129.5,160.5 128.5,160.5C 128.819,155.637 128.486,150.97 127.5,146.5C 128.167,144.5 128.833,142.5 129.5,140.5C 131.506,136.336 134.506,133.002 138.5,130.5C 140.514,130.608 142.18,129.942 143.5,128.5C 144.666,130.166 144.666,131.833 143.5,133.5C 138.275,135.395 138.609,136.395 144.5,136.5C 144.5,138.5 144.5,140.5 144.5,142.5C 150.092,141.831 155.425,140.498 160.5,138.5C 160.5,136.5 160.5,134.5 160.5,132.5C 166.731,132.303 171.564,129.636 175,124.5C 176.319,126.25 176.819,128.25 176.5,130.5C 183.618,130.069 190.618,130.736 197.5,132.5C 198.894,132.379 200.228,132.046 201.5,131.5C 203.618,132.946 205.951,133.613 208.5,133.5C 208.5,134.5 208.5,135.5 208.5,136.5C 211.187,136.341 213.52,137.175 215.5,139C 218.482,139.498 221.482,139.665 224.5,139.5 Z"/></g>
<g><path style="opacity:1" fill="#bda79a" d="M 113.5,110.5 C 113.167,111.167 112.833,111.833 112.5,112.5C 110.983,112.511 109.816,113.177 109,114.5C 108.077,118.79 107.577,123.123 107.5,127.5C 110.187,127.664 112.854,127.497 115.5,127C 125.571,124.387 134.571,119.721 142.5,113C 143.793,112.51 145.127,112.343 146.5,112.5C 141.463,116.214 136.797,120.214 132.5,124.5C 129.692,124.969 127.358,126.303 125.5,128.5C 118.998,129.612 112.831,131.612 107,134.5C 105.379,134.275 104.212,133.442 103.5,132C 103.545,126.5 103.878,121 104.5,115.5C 104.511,113.983 105.177,112.816 106.5,112C 108.866,111.56 111.199,111.06 113.5,110.5 Z"/></g>
<g><path style="opacity:1" fill="#bd9e95" d="M 38.5,111.5 C 40.3904,111.297 41.8904,111.963 43,113.5C 43.7848,115.249 44.6182,116.916 45.5,118.5C 45.4701,119.497 45.9701,120.164 47,120.5C 56.9405,122.319 60.7738,128.319 58.5,138.5C 56.1016,138.259 54.1016,138.926 52.5,140.5C 52.5,140.833 52.5,141.167 52.5,141.5C 52.5,142.5 52.5,143.5 52.5,144.5C 47.07,133.956 42.4034,122.956 38.5,111.5 Z"/></g>
<g><path style="opacity:1" fill="#5c4530" d="M 76.5,203.5 C 76.5,203.167 76.5,202.833 76.5,202.5C 78.4832,202.843 79.8166,202.176 80.5,200.5C 81.5,200.5 82.5,200.5 83.5,200.5C 84.1563,196.838 84.823,193.172 85.5,189.5C 83.184,185.084 81.8507,180.251 81.5,175C 83.6824,167.053 85.0158,158.887 85.5,150.5C 85.1667,149.833 84.8333,149.167 84.5,148.5C 83.3331,150.079 81.9998,151.412 80.5,152.5C 79.9232,149.45 81.0899,147.45 84,146.5C 84.4966,144.19 84.6633,141.857 84.5,139.5C 85.252,135.737 86.9187,132.404 89.5,129.5C 91.0429,126.61 93.3762,124.943 96.5,124.5C 95.4196,131.88 93.9196,139.213 92,146.5C 88.6567,154.504 86.1567,162.838 84.5,171.5C 85.5,176.833 86.5,182.167 87.5,187.5C 87.0697,193.795 85.0697,199.462 81.5,204.5C 79.9291,203.691 78.2624,203.357 76.5,203.5 Z"/></g>
<g><path style="opacity:1" fill="#62463a" d="M 212.5,107.5 C 215.28,109.321 217.946,111.321 220.5,113.5C 226.747,118.391 233.08,123.391 239.5,128.5C 243.24,132.376 245.24,137.042 245.5,142.5C 243.831,140.408 242.164,138.408 240.5,136.5C 237.256,130.95 232.923,126.617 227.5,123.5C 224.703,121.205 222.036,118.705 219.5,116C 216.408,116.107 214.075,114.941 212.5,112.5C 212.306,110.088 210.973,109.088 208.5,109.5C 209.183,107.824 210.517,107.157 212.5,107.5 Z"/></g>
<g><path style="opacity:1" fill="#2d120f" d="M 226.5,128.5 C 228.672,129.801 231.005,130.801 233.5,131.5C 234.072,134.945 235.572,137.945 238,140.5C 238.667,145.5 238.667,150.5 238,155.5C 234.431,156.02 230.598,156.353 226.5,156.5C 226.047,155.542 225.381,154.708 224.5,154C 226.962,152.784 229.629,152.118 232.5,152C 224.521,152.165 216.521,152.331 208.5,152.5C 208.5,149.833 208.5,147.167 208.5,144.5C 203.647,144.454 198.98,143.454 194.5,141.5C 188.537,140.504 182.537,140.171 176.5,140.5C 176.5,141.833 176.5,143.167 176.5,144.5C 171.676,144.888 169.676,147.555 170.5,152.5C 167.167,152.5 163.833,152.5 160.5,152.5C 160.5,151.167 160.5,149.833 160.5,148.5C 159.5,148.5 158.5,148.5 157.5,148.5C 158.389,147.053 159.389,145.386 160.5,143.5C 163.012,142.205 165.679,141.539 168.5,141.5C 168.286,139.856 168.62,138.356 169.5,137C 168.167,136.667 166.833,136.333 165.5,136C 165.833,135.667 166.167,135.333 166.5,135C 175.114,133.703 183.781,133.203 192.5,133.5C 192.5,134.5 192.5,135.5 192.5,136.5C 195.167,136.5 197.833,136.5 200.5,136.5C 200.281,137.675 200.614,138.675 201.5,139.5C 205.061,140.761 208.728,141.594 212.5,142C 213.636,143.53 214.636,144.863 215.5,146C 219.295,146.837 222.961,146.504 226.5,145C 223.833,144.333 223.833,143.667 226.5,143C 225.027,142.29 224.36,141.124 224.5,139.5C 224.5,138.5 224.5,137.5 224.5,136.5C 226.369,134.365 227.036,131.698 226.5,128.5 Z"/></g>
<g><path style="opacity:1" fill="#7a5d50" d="M 220.5,113.5 C 232.607,115.292 241.273,121.625 246.5,132.5C 248.697,135.466 250.03,138.799 250.5,142.5C 250.5,143.833 249.833,144.5 248.5,144.5C 247.71,143.599 246.71,142.932 245.5,142.5C 245.24,137.042 243.24,132.376 239.5,128.5C 233.08,123.391 226.747,118.391 220.5,113.5 Z"/></g>
<g><path style="opacity:1" fill="#341515" d="M 226.5,156.5 C 228.369,157.165 230.369,157.831 232.5,158.5C 229.274,159.385 226.274,160.719 223.5,162.5C 219.77,161.181 218.437,162.348 219.5,166C 216.855,167.287 215.855,169.453 216.5,172.5C 208.567,174.086 200.567,175.419 192.5,176.5C 192.5,179.167 192.5,181.833 192.5,184.5C 181.913,184.864 181.913,185.864 192.5,187.5C 183.833,188.833 175.167,188.833 166.5,187.5C 169.309,184.962 172.643,183.962 176.5,184.5C 176.5,183.167 176.5,181.833 176.5,180.5C 173.167,180.5 169.833,180.5 166.5,180.5C 166.762,179.022 166.429,177.689 165.5,176.5C 164.513,179.768 164.18,183.102 164.5,186.5C 163.167,186.5 161.833,186.5 160.5,186.5C 160.5,184.167 160.5,181.833 160.5,179.5C 156.958,179.813 153.625,179.479 150.5,178.5C 150.294,176.451 149.461,176.117 148,177.5C 147.506,175.866 147.34,174.199 147.5,172.5C 146.5,172.5 145.5,172.5 144.5,172.5C 144.5,167.167 144.5,161.833 144.5,156.5C 144.261,154.533 144.594,152.699 145.5,151C 149.473,149.972 153.473,149.139 157.5,148.5C 158.5,148.5 159.5,148.5 160.5,148.5C 160.5,149.833 160.5,151.167 160.5,152.5C 163.833,152.5 167.167,152.5 170.5,152.5C 169.676,147.555 171.676,144.888 176.5,144.5C 176.5,143.167 176.5,141.833 176.5,140.5C 182.537,140.171 188.537,140.504 194.5,141.5C 198.98,143.454 203.647,144.454 208.5,144.5C 208.5,147.167 208.5,149.833 208.5,152.5C 216.521,152.331 224.521,152.165 232.5,152C 229.629,152.118 226.962,152.784 224.5,154C 225.381,154.708 226.047,155.542 226.5,156.5 Z"/></g>
<g><path style="opacity:1" fill="#a98f7e" d="M 104.5,115.5 C 103.878,121 103.545,126.5 103.5,132C 104.212,133.442 105.379,134.275 107,134.5C 112.831,131.612 118.998,129.612 125.5,128.5C 127.358,126.303 129.692,124.969 132.5,124.5C 130.861,125.473 129.527,126.806 128.5,128.5C 127.15,129.483 126.15,130.816 125.5,132.5C 124.205,133.098 122.872,133.598 121.5,134C 118.448,137.716 114.781,140.716 110.5,143C 108.959,144.579 107.792,146.413 107,148.5C 106.667,147.833 106.333,147.167 106,146.5C 104.04,148.785 101.874,150.785 99.5,152.5C 99.1667,151.167 98.8333,149.833 98.5,148.5C 99.1699,144.49 99.8366,140.49 100.5,136.5C 100.5,131.167 100.5,125.833 100.5,120.5C 101.975,118.993 103.309,117.327 104.5,115.5 Z"/></g>
<g><path style="opacity:1" fill="#9a8476" d="M 210.5,104.5 C 211.167,104.5 211.833,104.5 212.5,104.5C 214.401,106.796 216.734,108.629 219.5,110C 228.229,112.685 236.396,116.518 244,121.5C 245.507,120.495 246.673,119.162 247.5,117.5C 248.251,118.376 248.751,119.376 249,120.5C 249.671,119.748 250.504,119.414 251.5,119.5C 253.575,122.646 255.408,125.979 257,129.5C 260.218,137.822 263.052,146.322 265.5,155C 264.729,164.811 264.229,174.644 264,184.5C 263.733,190.462 261.567,195.462 257.5,199.5C 258.138,197.54 258.138,195.707 257.5,194C 258.211,192.745 259.044,191.579 260,190.5C 262.404,177.848 261.904,165.348 258.5,153C 260.324,149.656 259.657,147.156 256.5,145.5C 254.034,142.59 252.034,139.257 250.5,135.5C 249.412,134.066 248.078,133.066 246.5,132.5C 241.273,121.625 232.607,115.292 220.5,113.5C 217.946,111.321 215.28,109.321 212.5,107.5C 211.833,106.5 211.167,105.5 210.5,104.5 Z"/></g>
<g><path style="opacity:1" fill="#654a39" d="M 84.5,139.5 C 84.6633,141.857 84.4966,144.19 84,146.5C 81.0899,147.45 79.9232,149.45 80.5,152.5C 74.8807,151.991 69.5473,152.824 64.5,155C 62.3941,159.033 61.0608,163.199 60.5,167.5C 57.7105,163.584 55.7105,159.251 54.5,154.5C 55.6499,155.85 56.3166,155.684 56.5,154C 54.513,150.768 54.1797,147.435 55.5,144C 57.8333,143.333 60.1667,143.333 62.5,144C 63.9733,144.71 64.6399,145.876 64.5,147.5C 67.5184,147.665 70.5184,147.498 73.5,147C 77.1631,144.392 80.8298,141.892 84.5,139.5 Z"/></g>
<g><path style="opacity:1" fill="#553927" d="M 240.5,136.5 C 242.164,138.408 243.831,140.408 245.5,142.5C 247.756,152.375 248.59,162.375 248,172.5C 247.261,174.889 246.095,176.889 244.5,178.5C 243.624,178.631 242.957,178.298 242.5,177.5C 245.445,163.669 244.778,150.002 240.5,136.5 Z"/></g>
<g><path style="opacity:1" fill="#48291d" d="M 227.5,123.5 C 232.923,126.617 237.256,130.95 240.5,136.5C 244.778,150.002 245.445,163.669 242.5,177.5C 242.957,178.298 243.624,178.631 244.5,178.5C 243.456,180.815 242.123,182.815 240.5,184.5C 240.808,182.076 240.474,179.743 239.5,177.5C 236.305,176.171 235.972,174.505 238.5,172.5C 236.476,169.794 233.81,168.461 230.5,168.5C 230.721,167.265 231.388,166.265 232.5,165.5C 235.167,164.833 237.833,164.167 240.5,163.5C 242.062,153.18 240.895,143.18 237,133.5C 233.629,130.297 230.462,126.964 227.5,123.5 Z"/></g>
<g><path style="opacity:1" fill="#694c37" d="M 245.5,142.5 C 246.71,142.932 247.71,143.599 248.5,144.5C 248.077,145.265 247.743,146.098 247.5,147C 250.398,156.645 251.232,166.811 250,177.5C 248.833,178.667 247.667,179.833 246.5,181C 246.833,181.333 247.167,181.667 247.5,182C 245.781,183.87 244.781,186.037 244.5,188.5C 242.726,189.37 241.393,190.703 240.5,192.5C 240.5,189.833 240.5,187.167 240.5,184.5C 242.123,182.815 243.456,180.815 244.5,178.5C 246.095,176.889 247.261,174.889 248,172.5C 248.59,162.375 247.756,152.375 245.5,142.5 Z"/></g>
<g><path style="opacity:1" fill="#836b58" d="M 246.5,132.5 C 248.078,133.066 249.412,134.066 250.5,135.5C 252.034,139.257 254.034,142.59 256.5,145.5C 256.297,151.765 256.963,157.932 258.5,164C 258.025,165.763 257.358,167.43 256.5,169C 257.009,175.127 257.342,181.294 257.5,187.5C 256.571,192.319 254.904,196.652 252.5,200.5C 249.235,204.023 245.902,207.689 242.5,211.5C 241.824,210.398 241.158,209.398 240.5,208.5C 240.5,207.167 240.5,205.833 240.5,204.5C 241.552,204.649 242.552,204.483 243.5,204C 246.747,200.091 248.08,195.591 247.5,190.5C 248.397,191.598 249.23,191.598 250,190.5C 255.013,176.419 255.847,161.919 252.5,147C 254.37,144.371 253.704,142.871 250.5,142.5C 250.03,138.799 248.697,135.466 246.5,132.5 Z"/></g>
<g><path style="opacity:1" fill="#31130f" d="M 127.5,146.5 C 128.486,150.97 128.819,155.637 128.5,160.5C 129.5,160.5 130.5,160.5 131.5,160.5C 131.755,157.984 132.589,155.65 134,153.5C 134.333,153.833 134.667,154.167 135,154.5C 135.309,153.234 135.809,152.067 136.5,151C 137.332,150.312 137.998,150.479 138.5,151.5C 137.147,152.524 136.48,153.857 136.5,155.5C 139.167,155.833 141.833,156.167 144.5,156.5C 144.5,161.833 144.5,167.167 144.5,172.5C 145.5,172.5 146.5,172.5 147.5,172.5C 147.34,174.199 147.506,175.866 148,177.5C 149.461,176.117 150.294,176.451 150.5,178.5C 148.864,179.246 147.197,178.912 145.5,177.5C 144.614,176.675 144.281,175.675 144.5,174.5C 141.552,174.777 138.719,174.444 136,173.5C 131.397,177.542 126.564,178.042 121.5,175C 118.927,169.534 118.927,164.034 121.5,158.5C 120.923,155.45 122.09,153.45 125,152.5C 125.037,150.026 125.87,148.026 127.5,146.5 Z"/></g>
<g><path style="opacity:1" fill="#7b554e" d="M 118.5,154.5 C 114.47,164.548 114.636,174.548 119,184.5C 119.708,185.381 120.542,186.047 121.5,186.5C 121.539,187.583 121.873,188.583 122.5,189.5C 126.878,193.219 131.211,196.886 135.5,200.5C 140.03,206.511 146.03,210.345 153.5,212C 155.037,213.11 155.703,214.61 155.5,216.5C 154.325,216.281 153.325,216.614 152.5,217.5C 157.305,218.236 161.638,220.07 165.5,223C 168.571,223.147 171.404,223.98 174,225.5C 174.417,224.244 175.25,223.577 176.5,223.5C 176.5,224.167 176.5,224.833 176.5,225.5C 175.167,226.5 175.167,227.5 176.5,228.5C 167.32,225.455 157.987,223.288 148.5,222C 144.989,217.823 141.156,213.989 137,210.5C 135.676,208.172 134.343,205.839 133,203.5C 132.282,204.451 131.449,204.617 130.5,204C 129.267,202.333 127.933,200.833 126.5,199.5C 124.616,195.114 121.783,191.448 118,188.5C 115.186,184.372 112.853,180.039 111,175.5C 111.482,170.922 112.149,166.255 113,161.5C 113.938,158.402 115.772,156.069 118.5,154.5 Z"/></g>
<g><path style="opacity:1" fill="#785e48" d="M 250.5,142.5 C 253.704,142.871 254.37,144.371 252.5,147C 255.847,161.919 255.013,176.419 250,190.5C 249.23,191.598 248.397,191.598 247.5,190.5C 248.303,189.577 248.47,188.577 248,187.5C 246.989,188.337 245.822,188.67 244.5,188.5C 244.781,186.037 245.781,183.87 247.5,182C 247.167,181.667 246.833,181.333 246.5,181C 247.667,179.833 248.833,178.667 250,177.5C 251.232,166.811 250.398,156.645 247.5,147C 247.743,146.098 248.077,145.265 248.5,144.5C 249.833,144.5 250.5,143.833 250.5,142.5 Z"/></g>
<g><path style="opacity:1" fill="#8f7865" d="M 256.5,145.5 C 259.657,147.156 260.324,149.656 258.5,153C 261.904,165.348 262.404,177.848 260,190.5C 259.044,191.579 258.211,192.745 257.5,194C 258.138,195.707 258.138,197.54 257.5,199.5C 256.99,202.674 255.323,205.008 252.5,206.5C 253.833,204.5 253.833,202.5 252.5,200.5C 254.904,196.652 256.571,192.319 257.5,187.5C 257.342,181.294 257.009,175.127 256.5,169C 257.358,167.43 258.025,165.763 258.5,164C 256.963,157.932 256.297,151.765 256.5,145.5 Z"/></g>
<g><path style="opacity:1" fill="#431b1a" d="M 226.5,168.5 C 225.84,173.43 223.84,177.764 220.5,181.5C 218.604,182.466 216.604,182.799 214.5,182.5C 214.192,186.009 212.192,187.676 208.5,187.5C 208.5,189.167 208.5,190.833 208.5,192.5C 207.543,195.168 205.543,196.668 202.5,197C 188.464,199.728 174.798,198.895 161.5,194.5C 160.534,192.604 160.201,190.604 160.5,188.5C 164.836,189.424 169.003,190.758 173,192.5C 178.451,192.266 183.951,192.266 189.5,192.5C 192.557,192.607 194.891,191.44 196.5,189C 199.681,188.29 202.681,187.957 205.5,188C 206.097,186.111 206.431,184.278 206.5,182.5C 210.77,179.56 215.437,177.56 220.5,176.5C 221.167,173.833 221.833,171.167 222.5,168.5C 223.833,168.5 225.167,168.5 226.5,168.5 Z"/></g>
<g><path style="opacity:1" fill="#49211d" d="M 226.5,168.5 C 227.833,168.5 229.167,168.5 230.5,168.5C 233.81,168.461 236.476,169.794 238.5,172.5C 235.972,174.505 236.305,176.171 239.5,177.5C 240.474,179.743 240.808,182.076 240.5,184.5C 239.833,184.5 239.167,184.5 238.5,184.5C 237.833,184.5 237.167,184.5 236.5,184.5C 236.762,183.022 236.429,181.689 235.5,180.5C 233.082,179.543 230.916,178.209 229,176.5C 228.667,178.047 229.167,179.38 230.5,180.5C 229.687,181.814 228.687,182.981 227.5,184C 224.167,184.333 220.833,184.667 217.5,185C 216.663,186.011 216.33,187.178 216.5,188.5C 213.632,189.353 210.965,190.686 208.5,192.5C 208.5,190.833 208.5,189.167 208.5,187.5C 212.192,187.676 214.192,186.009 214.5,182.5C 216.604,182.799 218.604,182.466 220.5,181.5C 223.84,177.764 225.84,173.43 226.5,168.5 Z"/></g>
<g><path style="opacity:1" fill="#473423" d="M 80.5,152.5 C 80.5,153.833 80.5,155.167 80.5,156.5C 79.448,156.351 78.448,156.517 77.5,157C 74.6447,159.864 72.1447,163.03 70,166.5C 69.5026,169.146 69.3359,171.813 69.5,174.5C 69.3893,175.117 69.056,175.617 68.5,176C 69.2822,178.74 69.7822,181.574 70,184.5C 70.9246,185.047 71.7579,185.713 72.5,186.5C 71.2515,189.494 71.2515,192.494 72.5,195.5C 74.0709,196.309 75.7376,196.643 77.5,196.5C 77.0882,198.973 78.0882,200.306 80.5,200.5C 79.8166,202.176 78.4832,202.843 76.5,202.5C 75.5041,202.586 74.6708,202.252 74,201.5C 73.1135,198.125 71.2802,195.458 68.5,193.5C 68.6621,191.473 68.4955,189.473 68,187.5C 64.6461,181.131 62.1461,174.464 60.5,167.5C 61.0608,163.199 62.3941,159.033 64.5,155C 69.5473,152.824 74.8807,151.991 80.5,152.5 Z"/></g>
<g><path style="opacity:1" fill="#3f2c1b" d="M 80.5,200.5 C 80.239,196.508 80.9056,192.674 82.5,189C 82.183,186.672 81.0163,184.839 79,183.5C 78.231,180.901 78.3977,178.401 79.5,176C 78.5697,174.806 77.9031,173.473 77.5,172C 78.7689,169.916 79.7689,167.749 80.5,165.5C 77.7938,165.575 75.1272,165.908 72.5,166.5C 71.5879,169.276 70.5879,171.943 69.5,174.5C 69.3359,171.813 69.5026,169.146 70,166.5C 72.1447,163.03 74.6447,159.864 77.5,157C 78.448,156.517 79.448,156.351 80.5,156.5C 80.5,155.167 80.5,153.833 80.5,152.5C 81.9998,151.412 83.3331,150.079 84.5,148.5C 84.8333,149.167 85.1667,149.833 85.5,150.5C 85.0158,158.887 83.6824,167.053 81.5,175C 81.8507,180.251 83.184,185.084 85.5,189.5C 84.823,193.172 84.1563,196.838 83.5,200.5C 82.5,200.5 81.5,200.5 80.5,200.5 Z"/></g>
<g><path style="opacity:1" fill="#372414" d="M 80.5,200.5 C 78.0882,200.306 77.0882,198.973 77.5,196.5C 75.7376,196.643 74.0709,196.309 72.5,195.5C 71.2515,192.494 71.2515,189.494 72.5,186.5C 71.7579,185.713 70.9246,185.047 70,184.5C 69.7822,181.574 69.2822,178.74 68.5,176C 69.056,175.617 69.3893,175.117 69.5,174.5C 70.5879,171.943 71.5879,169.276 72.5,166.5C 75.1272,165.908 77.7938,165.575 80.5,165.5C 79.7689,167.749 78.7689,169.916 77.5,172C 77.9031,173.473 78.5697,174.806 79.5,176C 78.3977,178.401 78.231,180.901 79,183.5C 81.0163,184.839 82.183,186.672 82.5,189C 80.9056,192.674 80.239,196.508 80.5,200.5 Z"/></g>
<g><path style="opacity:1" fill="#8b6f5d" d="M 100.5,115.5 C 100.5,117.167 100.5,118.833 100.5,120.5C 100.5,125.833 100.5,131.167 100.5,136.5C 99.4138,136.62 98.7472,137.287 98.5,138.5C 98.08,142.226 97.08,145.726 95.5,149C 96.3091,150.784 96.9757,152.617 97.5,154.5C 96.7315,159.713 95.7315,164.88 94.5,170C 95.6014,172.035 96.268,174.202 96.5,176.5C 95.4617,179.461 95.4617,182.461 96.5,185.5C 94.5919,191.09 94.2586,196.757 95.5,202.5C 94.3831,205.07 93.5497,207.737 93,210.5C 92.6532,212.18 91.6532,213.18 90,213.5C 85.79,212.87 81.6233,212.036 77.5,211C 76.1966,207.896 74.5299,205.063 72.5,202.5C 71.7893,200.158 70.456,199.825 68.5,201.5C 68.5,198.833 68.5,196.167 68.5,193.5C 71.2802,195.458 73.1135,198.125 74,201.5C 74.6708,202.252 75.5041,202.586 76.5,202.5C 76.5,202.833 76.5,203.167 76.5,203.5C 76.0426,208.877 78.5426,211.544 84,211.5C 85.6667,210.5 87,209.167 88,207.5C 89.768,198.134 91.268,188.634 92.5,179C 92.1667,177.167 91.8333,175.333 91.5,173.5C 89.9541,172.788 88.9541,171.622 88.5,170C 89.8884,160.443 91.7217,150.943 94,141.5C 98.0554,135.047 99.2221,128.047 97.5,120.5C 95.1229,120.784 92.9562,120.784 91,120.5C 86.9256,123.072 83.7589,126.405 81.5,130.5C 81.2068,125.04 82.8735,120.374 86.5,116.5C 87.8853,115.386 89.3853,114.386 91,113.5C 91.5518,110.385 93.2185,108.052 96,106.5C 96.9525,108.592 98.2859,108.925 100,107.5C 100.402,108.872 100.902,110.205 101.5,111.5C 100.754,112.736 100.421,114.07 100.5,115.5 Z"/></g>
<g><path style="opacity:1" fill="#8d6c63" d="M 136.5,124.5 C 136.116,126.929 135.449,129.263 134.5,131.5C 131.052,133.386 129.386,136.386 129.5,140.5C 125.828,145.185 122.161,149.852 118.5,154.5C 115.772,156.069 113.938,158.402 113,161.5C 112.149,166.255 111.482,170.922 111,175.5C 112.853,180.039 115.186,184.372 118,188.5C 121.783,191.448 124.616,195.114 126.5,199.5C 125.185,201.135 125.185,202.801 126.5,204.5C 129.441,206.787 132.108,209.287 134.5,212C 136.226,213.53 138.226,214.53 140.5,215C 142.839,221.001 147.172,225.001 153.5,227C 154.5,228 155.5,229 156.5,230C 155.619,230.708 154.953,231.542 154.5,232.5C 153.244,232.096 152.077,231.429 151,230.5C 148.958,232.043 146.792,233.376 144.5,234.5C 144.141,232.234 144.808,230.401 146.5,229C 145.259,227.302 143.926,225.802 142.5,224.5C 140.941,223.171 139.275,221.838 137.5,220.5C 136.376,215.279 135.542,215.279 135,220.5C 134.29,214.475 131.29,210.142 126,207.5C 124.158,203.378 122.325,199.378 120.5,195.5C 119.448,195.649 118.448,195.483 117.5,195C 116.667,192.833 115.167,191.333 113,190.5C 112.808,188.423 112.308,186.423 111.5,184.5C 110.808,185.025 110.308,185.692 110,186.5C 108.246,184.75 106.079,184.083 103.5,184.5C 103.74,181.421 103.407,178.421 102.5,175.5C 103.458,166.745 106.791,159.079 112.5,152.5C 112.457,151.584 112.124,150.917 111.5,150.5C 112.088,148.795 112.421,147.128 112.5,145.5C 116.256,144.645 119.923,143.645 123.5,142.5C 124.783,137.648 126.45,132.981 128.5,128.5C 131.412,127.571 134.079,126.238 136.5,124.5 Z"/></g>
<g><path style="opacity:1" fill="#3a1815" d="M 210.5,112.5 C 211.167,112.5 211.833,112.5 212.5,112.5C 214.075,114.941 216.408,116.107 219.5,116C 222.036,118.705 224.703,121.205 227.5,123.5C 230.462,126.964 233.629,130.297 237,133.5C 240.895,143.18 242.062,153.18 240.5,163.5C 237.833,164.167 235.167,164.833 232.5,165.5C 231.388,166.265 230.721,167.265 230.5,168.5C 229.167,168.5 227.833,168.5 226.5,168.5C 225.167,168.5 223.833,168.5 222.5,168.5C 221.833,171.167 221.167,173.833 220.5,176.5C 215.437,177.56 210.77,179.56 206.5,182.5C 206.431,184.278 206.097,186.111 205.5,188C 202.681,187.957 199.681,188.29 196.5,189C 194.891,191.44 192.557,192.607 189.5,192.5C 183.951,192.266 178.451,192.266 173,192.5C 169.003,190.758 164.836,189.424 160.5,188.5C 156.207,188.077 152.374,186.411 149,183.5C 148.383,182.551 148.549,181.718 149.5,181C 143.059,177.364 137.392,178.364 132.5,184C 131.207,184.49 129.873,184.657 128.5,184.5C 126.757,183.952 124.757,182.952 122.5,181.5C 121.863,179.697 120.697,178.364 119,177.5C 117.582,172.572 117.249,167.572 118,162.5C 118.74,160.681 119.907,159.348 121.5,158.5C 118.927,164.034 118.927,169.534 121.5,175C 126.564,178.042 131.397,177.542 136,173.5C 138.719,174.444 141.552,174.777 144.5,174.5C 144.281,175.675 144.614,176.675 145.5,177.5C 147.197,178.912 148.864,179.246 150.5,178.5C 153.625,179.479 156.958,179.813 160.5,179.5C 160.5,181.833 160.5,184.167 160.5,186.5C 161.833,186.5 163.167,186.5 164.5,186.5C 164.18,183.102 164.513,179.768 165.5,176.5C 166.429,177.689 166.762,179.022 166.5,180.5C 169.833,180.5 173.167,180.5 176.5,180.5C 176.5,181.833 176.5,183.167 176.5,184.5C 172.643,183.962 169.309,184.962 166.5,187.5C 175.167,188.833 183.833,188.833 192.5,187.5C 181.913,185.864 181.913,184.864 192.5,184.5C 192.5,181.833 192.5,179.167 192.5,176.5C 200.567,175.419 208.567,174.086 216.5,172.5C 215.855,169.453 216.855,167.287 219.5,166C 218.437,162.348 219.77,161.181 223.5,162.5C 226.274,160.719 229.274,159.385 232.5,158.5C 230.369,157.831 228.369,157.165 226.5,156.5C 230.598,156.353 234.431,156.02 238,155.5C 238.667,150.5 238.667,145.5 238,140.5C 235.572,137.945 234.072,134.945 233.5,131.5C 231.005,130.801 228.672,129.801 226.5,128.5C 226.714,126.856 226.38,125.356 225.5,124C 223.167,123 220.833,122 218.5,121C 219.167,120.667 219.833,120.333 220.5,120C 217.987,118.961 215.653,117.628 213.5,116C 212.29,114.961 211.29,113.794 210.5,112.5 Z"/></g>
<g><path style="opacity:1" fill="#502b25" d="M 129.5,140.5 C 128.833,142.5 128.167,144.5 127.5,146.5C 125.87,148.026 125.037,150.026 125,152.5C 122.09,153.45 120.923,155.45 121.5,158.5C 119.907,159.348 118.74,160.681 118,162.5C 117.249,167.572 117.582,172.572 119,177.5C 120.697,178.364 121.863,179.697 122.5,181.5C 124.757,182.952 126.757,183.952 128.5,184.5C 130.277,185.6 132.277,186.434 134.5,187C 135.823,187.816 136.489,188.983 136.5,190.5C 136.5,191.167 136.5,191.833 136.5,192.5C 132.667,191.039 128.667,189.872 124.5,189C 123.922,187.583 122.922,186.75 121.5,186.5C 120.542,186.047 119.708,185.381 119,184.5C 114.636,174.548 114.47,164.548 118.5,154.5C 122.161,149.852 125.828,145.185 129.5,140.5 Z"/></g>
<g><path style="opacity:1" fill="#927367" d="M 111.5,150.5 C 112.124,150.917 112.457,151.584 112.5,152.5C 106.791,159.079 103.458,166.745 102.5,175.5C 103.407,178.421 103.74,181.421 103.5,184.5C 106.079,184.083 108.246,184.75 110,186.5C 110.308,185.692 110.808,185.025 111.5,184.5C 112.308,186.423 112.808,188.423 113,190.5C 115.167,191.333 116.667,192.833 117.5,195C 118.448,195.483 119.448,195.649 120.5,195.5C 122.325,199.378 124.158,203.378 126,207.5C 131.29,210.142 134.29,214.475 135,220.5C 135.542,215.279 136.376,215.279 137.5,220.5C 139.275,221.838 140.941,223.171 142.5,224.5C 139.306,224.73 136.306,224.064 133.5,222.5C 132.833,222.833 132.167,223.167 131.5,223.5C 132.309,225.071 132.643,226.738 132.5,228.5C 131.167,228.5 129.833,228.5 128.5,228.5C 128.5,229.833 128.5,231.167 128.5,232.5C 125.833,232.5 123.167,232.5 120.5,232.5C 120.36,230.876 121.027,229.71 122.5,229C 120.842,228.275 120.342,227.108 121,225.5C 123.473,224.88 125.973,224.214 128.5,223.5C 127.5,222.833 126.5,222.167 125.5,221.5C 125.987,220.554 126.32,219.554 126.5,218.5C 126.233,214.763 125.066,211.097 123,207.5C 119.01,205.51 116.51,202.343 115.5,198C 114.552,197.517 113.552,197.351 112.5,197.5C 112.079,195.09 110.746,193.257 108.5,192C 111.063,191.237 111.063,190.737 108.5,190.5C 104.879,194.839 101.879,194.505 99.5,189.5C 99.347,182.642 99.847,175.642 101,168.5C 102.893,165.382 104.226,162.049 105,158.5C 107.425,155.947 109.592,153.28 111.5,150.5 Z"/></g>
<g><path style="opacity:1" fill="#4d1f1d" d="M 236.5,184.5 C 233.325,185.865 229.992,186.865 226.5,187.5C 225.194,189.931 224.194,189.597 223.5,186.5C 219.792,187.374 217.125,189.54 215.5,193C 212.607,193.941 210.274,195.607 208.5,198C 208.905,198.945 209.572,199.612 210.5,200C 205.806,202.413 200.806,203.08 195.5,202C 196.5,201.667 197.5,201.333 198.5,201C 193.861,201.29 189.194,201.79 184.5,202.5C 179.829,202.037 175.163,201.537 170.5,201C 168.946,199.252 167.28,199.085 165.5,200.5C 158.904,198.081 152.904,194.581 147.5,190C 143.891,190.238 140.225,190.405 136.5,190.5C 136.489,188.983 135.823,187.816 134.5,187C 132.277,186.434 130.277,185.6 128.5,184.5C 129.873,184.657 131.207,184.49 132.5,184C 137.392,178.364 143.059,177.364 149.5,181C 148.549,181.718 148.383,182.551 149,183.5C 152.374,186.411 156.207,188.077 160.5,188.5C 160.201,190.604 160.534,192.604 161.5,194.5C 174.798,198.895 188.464,199.728 202.5,197C 205.543,196.668 207.543,195.168 208.5,192.5C 210.965,190.686 213.632,189.353 216.5,188.5C 216.33,187.178 216.663,186.011 217.5,185C 220.833,184.667 224.167,184.333 227.5,184C 228.687,182.981 229.687,181.814 230.5,180.5C 229.167,179.38 228.667,178.047 229,176.5C 230.916,178.209 233.082,179.543 235.5,180.5C 236.429,181.689 236.762,183.022 236.5,184.5 Z"/></g>
<g><path style="opacity:1" fill="#582623" d="M 236.5,184.5 C 235.515,188.261 233.515,191.428 230.5,194C 226.928,193.213 223.594,193.713 220.5,195.5C 216.045,205.156 209.212,208.489 200,205.5C 197.028,206.026 194.528,207.359 192.5,209.5C 187.208,210.495 181.875,210.828 176.5,210.5C 171.047,210.635 165.714,209.968 160.5,208.5C 158.488,207.476 156.822,205.976 155.5,204C 154.207,203.51 152.873,203.343 151.5,203.5C 151.649,202.448 151.483,201.448 151,200.5C 149.22,198.707 147.387,197.04 145.5,195.5C 142.893,194.682 140.226,194.182 137.5,194C 136.944,193.617 136.611,193.117 136.5,192.5C 136.5,191.833 136.5,191.167 136.5,190.5C 140.225,190.405 143.891,190.238 147.5,190C 152.904,194.581 158.904,198.081 165.5,200.5C 167.28,199.085 168.946,199.252 170.5,201C 175.163,201.537 179.829,202.037 184.5,202.5C 189.194,201.79 193.861,201.29 198.5,201C 197.5,201.333 196.5,201.667 195.5,202C 200.806,203.08 205.806,202.413 210.5,200C 209.572,199.612 208.905,198.945 208.5,198C 210.274,195.607 212.607,193.941 215.5,193C 217.125,189.54 219.792,187.374 223.5,186.5C 224.194,189.597 225.194,189.931 226.5,187.5C 229.992,186.865 233.325,185.865 236.5,184.5 Z"/></g>
<g><path style="opacity:1" fill="#643631" d="M 121.5,186.5 C 122.922,186.75 123.922,187.583 124.5,189C 128.667,189.872 132.667,191.039 136.5,192.5C 136.611,193.117 136.944,193.617 137.5,194C 140.226,194.182 142.893,194.682 145.5,195.5C 147.387,197.04 149.22,198.707 151,200.5C 151.483,201.448 151.649,202.448 151.5,203.5C 152.873,203.343 154.207,203.51 155.5,204C 156.822,205.976 158.488,207.476 160.5,208.5C 160.5,209.5 160.5,210.5 160.5,211.5C 155.587,208.722 150.253,207.055 144.5,206.5C 142.293,203.235 139.293,201.235 135.5,200.5C 131.211,196.886 126.878,193.219 122.5,189.5C 121.873,188.583 121.539,187.583 121.5,186.5 Z"/></g>
<g><path style="opacity:1" fill="#7c4845" d="M 238.5,184.5 C 239.167,184.5 239.833,184.5 240.5,184.5C 240.5,187.167 240.5,189.833 240.5,192.5C 240.5,195.167 240.5,197.833 240.5,200.5C 239.022,200.238 237.689,200.571 236.5,201.5C 234.249,205.795 230.916,208.961 226.5,211C 224.845,212.444 224.178,214.278 224.5,216.5C 224.5,218.167 224.5,219.833 224.5,221.5C 222.523,222.149 220.69,222.149 219,221.5C 216.859,223.035 214.692,223.369 212.5,222.5C 212.87,218.814 211.537,217.814 208.5,219.5C 208.833,218.833 209.167,218.167 209.5,217.5C 213.369,213.305 218.035,210.305 223.5,208.5C 224.653,205.848 226.487,203.848 229,202.5C 230.481,199.89 231.648,197.223 232.5,194.5C 235.421,191.758 237.421,188.425 238.5,184.5 Z"/></g>
<g><path style="opacity:1" fill="#96796b" d="M 128.5,128.5 C 126.45,132.981 124.783,137.648 123.5,142.5C 119.923,143.645 116.256,144.645 112.5,145.5C 112.421,147.128 112.088,148.795 111.5,150.5C 109.592,153.28 107.425,155.947 105,158.5C 104.226,162.049 102.893,165.382 101,168.5C 99.847,175.642 99.347,182.642 99.5,189.5C 101.879,194.505 104.879,194.839 108.5,190.5C 111.063,190.737 111.063,191.237 108.5,192C 110.746,193.257 112.079,195.09 112.5,197.5C 113.552,197.351 114.552,197.517 115.5,198C 116.51,202.343 119.01,205.51 123,207.5C 125.066,211.097 126.233,214.763 126.5,218.5C 126.32,219.554 125.987,220.554 125.5,221.5C 126.5,222.167 127.5,222.833 128.5,223.5C 125.973,224.214 123.473,224.88 121,225.5C 120.342,227.108 120.842,228.275 122.5,229C 121.027,229.71 120.36,230.876 120.5,232.5C 115.025,231.919 109.858,232.586 105,234.5C 102.544,232.679 99.7107,232.012 96.5,232.5C 95.5,232.5 94.5,232.5 93.5,232.5C 92.9346,228.361 91.1013,225.028 88,222.5C 86.05,224.571 83.8833,224.905 81.5,223.5C 80.6733,225.162 79.5067,226.495 78,227.5C 76.6287,223.562 75.1287,219.895 73.5,216.5C 73.4599,211.807 73.1266,207.141 72.5,202.5C 74.5299,205.063 76.1966,207.896 77.5,211C 81.6233,212.036 85.79,212.87 90,213.5C 91.6532,213.18 92.6532,212.18 93,210.5C 93.5497,207.737 94.3831,205.07 95.5,202.5C 94.2586,196.757 94.5919,191.09 96.5,185.5C 95.4617,182.461 95.4617,179.461 96.5,176.5C 96.268,174.202 95.6014,172.035 94.5,170C 95.7315,164.88 96.7315,159.713 97.5,154.5C 96.9757,152.617 96.3091,150.784 95.5,149C 97.08,145.726 98.08,142.226 98.5,138.5C 98.7472,137.287 99.4138,136.62 100.5,136.5C 99.8366,140.49 99.1699,144.49 98.5,148.5C 98.8333,149.833 99.1667,151.167 99.5,152.5C 101.874,150.785 104.04,148.785 106,146.5C 106.333,147.167 106.667,147.833 107,148.5C 107.792,146.413 108.959,144.579 110.5,143C 114.781,140.716 118.448,137.716 121.5,134C 122.872,133.598 124.205,133.098 125.5,132.5C 126.15,130.816 127.15,129.483 128.5,128.5 Z"/></g>
<g><path style="opacity:1" fill="#652d29" d="M 236.5,184.5 C 237.167,184.5 237.833,184.5 238.5,184.5C 237.421,188.425 235.421,191.758 232.5,194.5C 230.548,197.127 227.881,198.46 224.5,198.5C 224.762,199.978 224.429,201.311 223.5,202.5C 221.474,203.37 220.141,204.87 219.5,207C 215.702,207.928 212.202,209.428 209,211.5C 208.692,210.692 208.192,210.025 207.5,209.5C 202.667,211.243 197.667,211.91 192.5,211.5C 192.5,212.5 192.5,213.5 192.5,214.5C 187.167,214.5 181.833,214.5 176.5,214.5C 176.5,213.167 176.5,211.833 176.5,210.5C 181.875,210.828 187.208,210.495 192.5,209.5C 194.528,207.359 197.028,206.026 200,205.5C 209.212,208.489 216.045,205.156 220.5,195.5C 223.594,193.713 226.928,193.213 230.5,194C 233.515,191.428 235.515,188.261 236.5,184.5 Z"/></g>
<g><path style="opacity:1" fill="#6e3531" d="M 232.5,194.5 C 231.648,197.223 230.481,199.89 229,202.5C 226.487,203.848 224.653,205.848 223.5,208.5C 218.035,210.305 213.369,213.305 209.5,217.5C 208.739,216.609 207.739,215.942 206.5,215.5C 197.101,215.61 187.767,215.61 178.5,215.5C 176.143,215.663 173.81,215.497 171.5,215C 168.176,212.752 164.509,211.586 160.5,211.5C 160.5,210.5 160.5,209.5 160.5,208.5C 165.714,209.968 171.047,210.635 176.5,210.5C 176.5,211.833 176.5,213.167 176.5,214.5C 181.833,214.5 187.167,214.5 192.5,214.5C 192.5,213.5 192.5,212.5 192.5,211.5C 197.667,211.91 202.667,211.243 207.5,209.5C 208.192,210.025 208.692,210.692 209,211.5C 212.202,209.428 215.702,207.928 219.5,207C 220.141,204.87 221.474,203.37 223.5,202.5C 224.429,201.311 224.762,199.978 224.5,198.5C 227.881,198.46 230.548,197.127 232.5,194.5 Z"/></g>
<g><path style="opacity:1" fill="#825c55" d="M 247.5,190.5 C 248.08,195.591 246.747,200.091 243.5,204C 242.552,204.483 241.552,204.649 240.5,204.5C 240.5,205.833 240.5,207.167 240.5,208.5C 241.053,210.939 241.053,213.273 240.5,215.5C 238.955,216.452 237.288,216.785 235.5,216.5C 231.833,216.5 228.167,216.5 224.5,216.5C 224.178,214.278 224.845,212.444 226.5,211C 230.916,208.961 234.249,205.795 236.5,201.5C 237.689,200.571 239.022,200.238 240.5,200.5C 240.5,197.833 240.5,195.167 240.5,192.5C 241.393,190.703 242.726,189.37 244.5,188.5C 245.822,188.67 246.989,188.337 248,187.5C 248.47,188.577 248.303,189.577 247.5,190.5 Z"/></g>
<g><path style="opacity:1" fill="#826d64" d="M 252.5,200.5 C 253.833,202.5 253.833,204.5 252.5,206.5C 248.836,210.332 245.336,214.332 242,218.5C 241.209,219.745 240.709,221.078 240.5,222.5C 238.086,224.34 236.419,226.673 235.5,229.5C 234.624,229.631 233.957,229.298 233.5,228.5C 234.924,226.709 236.258,224.875 237.5,223C 236.833,222.667 236.167,222.333 235.5,222C 236.138,220.293 236.138,218.46 235.5,216.5C 237.288,216.785 238.955,216.452 240.5,215.5C 241.053,213.273 241.053,210.939 240.5,208.5C 241.158,209.398 241.824,210.398 242.5,211.5C 245.902,207.689 249.235,204.023 252.5,200.5 Z"/></g>
<g><path style="opacity:1" fill="#724034" d="M 178.5,215.5 C 187.767,215.61 197.101,215.61 206.5,215.5C 207.739,215.942 208.739,216.609 209.5,217.5C 209.167,218.167 208.833,218.833 208.5,219.5C 207.852,221.586 206.352,222.586 204,222.5C 195.984,222.538 187.818,222.371 179.5,222C 178.263,221.768 177.263,221.268 176.5,220.5C 176.365,218.446 177.032,216.779 178.5,215.5 Z"/></g>
<g><path style="opacity:1" fill="#794642" d="M 135.5,200.5 C 139.293,201.235 142.293,203.235 144.5,206.5C 150.253,207.055 155.587,208.722 160.5,211.5C 164.509,211.586 168.176,212.752 171.5,215C 173.81,215.497 176.143,215.663 178.5,215.5C 177.032,216.779 176.365,218.446 176.5,220.5C 175.761,220.369 175.094,220.536 174.5,221C 175.381,221.708 176.047,222.542 176.5,223.5C 175.25,223.577 174.417,224.244 174,225.5C 171.404,223.98 168.571,223.147 165.5,223C 161.638,220.07 157.305,218.236 152.5,217.5C 153.325,216.614 154.325,216.281 155.5,216.5C 155.703,214.61 155.037,213.11 153.5,212C 146.03,210.345 140.03,206.511 135.5,200.5 Z"/></g>
<g><path style="opacity:1" fill="#b19f90" d="M 68.5,202.5 C 70.2343,204.322 71.2343,206.655 71.5,209.5C 69.8434,217.106 68.51,224.773 67.5,232.5C 66.5,232.5 65.5,232.5 64.5,232.5C 65.2682,237.221 64.1015,241.221 61,244.5C 58.1528,251.253 56.3195,257.92 55.5,264.5C 53.7697,263.974 52.4363,262.974 51.5,261.5C 56.8869,248.479 61.7202,235.146 66,221.5C 67.3207,215.222 68.154,208.888 68.5,202.5 Z"/></g>
<g><path style="opacity:1" fill="#794b3d" d="M 212.5,222.5 C 210.659,223.402 209.326,224.736 208.5,226.5C 197.795,226.763 187.128,226.43 176.5,225.5C 176.5,224.833 176.5,224.167 176.5,223.5C 176.047,222.542 175.381,221.708 174.5,221C 175.094,220.536 175.761,220.369 176.5,220.5C 177.263,221.268 178.263,221.768 179.5,222C 187.818,222.371 195.984,222.538 204,222.5C 206.352,222.586 207.852,221.586 208.5,219.5C 211.537,217.814 212.87,218.814 212.5,222.5 Z"/></g>
<g><path style="opacity:1" fill="#8a645b" d="M 126.5,199.5 C 127.933,200.833 129.267,202.333 130.5,204C 131.449,204.617 132.282,204.451 133,203.5C 134.343,205.839 135.676,208.172 137,210.5C 141.156,213.989 144.989,217.823 148.5,222C 157.987,223.288 167.32,225.455 176.5,228.5C 176.5,229.167 176.5,229.833 176.5,230.5C 174.621,230.393 174.288,230.893 175.5,232C 173.833,232.167 172.167,232.333 170.5,232.5C 164.963,231.601 159.63,231.601 154.5,232.5C 154.953,231.542 155.619,230.708 156.5,230C 155.5,229 154.5,228 153.5,227C 147.172,225.001 142.839,221.001 140.5,215C 138.226,214.53 136.226,213.53 134.5,212C 132.108,209.287 129.441,206.787 126.5,204.5C 125.185,202.801 125.185,201.135 126.5,199.5 Z"/></g>
<g><path style="opacity:1" fill="#7e5846" d="M 176.5,225.5 C 187.128,226.43 197.795,226.763 208.5,226.5C 208.34,228.199 208.506,229.866 209,231.5C 210.292,230.209 211.458,230.209 212.5,231.5C 204.684,232.492 196.684,232.826 188.5,232.5C 185.193,232.937 182.193,232.27 179.5,230.5C 179.511,231.441 179.011,232.108 178,232.5C 176.97,232.164 176.47,231.497 176.5,230.5C 176.5,229.833 176.5,229.167 176.5,228.5C 175.167,227.5 175.167,226.5 176.5,225.5 Z"/></g>
<g><path style="opacity:1" fill="#765b50" d="M 224.5,216.5 C 228.167,216.5 231.833,216.5 235.5,216.5C 236.138,218.46 236.138,220.293 235.5,222C 236.167,222.333 236.833,222.667 237.5,223C 236.258,224.875 234.924,226.709 233.5,228.5C 233.957,229.298 234.624,229.631 235.5,229.5C 235.5,229.833 235.5,230.167 235.5,230.5C 233.248,230.916 231.748,232.249 231,234.5C 228.845,243.08 227.178,251.747 226,260.5C 225.617,259.944 225.117,259.611 224.5,259.5C 224.5,257.5 224.5,255.5 224.5,253.5C 222.403,252.647 220.403,252.647 218.5,253.5C 216.726,253.113 215.059,252.447 213.5,251.5C 211.675,252.571 210.508,251.904 210,249.5C 208.576,253.297 208.076,257.297 208.5,261.5C 208.5,264.5 208.5,267.5 208.5,270.5C 205.833,270.5 203.167,270.5 200.5,270.5C 200.5,271.833 200.5,273.167 200.5,274.5C 197.839,273.841 195.506,272.508 193.5,270.5C 192.158,272.005 190.492,272.672 188.5,272.5C 188.174,269.689 187.341,267.022 186,264.5C 185.316,265.784 185.483,266.951 186.5,268C 185.906,268.464 185.239,268.631 184.5,268.5C 184.5,267.167 184.5,265.833 184.5,264.5C 181.833,264.5 179.167,264.5 176.5,264.5C 176.5,262.5 176.5,260.5 176.5,258.5C 180.5,258.5 184.5,258.5 188.5,258.5C 188.5,259.833 188.5,261.167 188.5,262.5C 189.833,262.5 191.167,262.5 192.5,262.5C 192.5,257.833 192.5,253.167 192.5,248.5C 196.514,248.666 200.514,248.499 204.5,248C 208.905,243.899 212.905,239.399 216.5,234.5C 215.148,233.476 213.815,232.476 212.5,231.5C 211.458,230.209 210.292,230.209 209,231.5C 208.506,229.866 208.34,228.199 208.5,226.5C 209.326,224.736 210.659,223.402 212.5,222.5C 214.692,223.369 216.859,223.035 219,221.5C 220.69,222.149 222.523,222.149 224.5,221.5C 224.5,219.833 224.5,218.167 224.5,216.5 Z"/></g>
<g><path style="opacity:1" fill="#816557" d="M 154.5,232.5 C 159.63,231.601 164.963,231.601 170.5,232.5C 172.167,232.333 173.833,232.167 175.5,232C 174.288,230.893 174.621,230.393 176.5,230.5C 176.47,231.497 176.97,232.164 178,232.5C 179.011,232.108 179.511,231.441 179.5,230.5C 182.193,232.27 185.193,232.937 188.5,232.5C 188.386,236.467 186.552,237.8 183,236.5C 181.107,237.196 179.274,238.03 177.5,239C 177.957,239.414 178.291,239.914 178.5,240.5C 177.035,243.289 174.868,245.289 172,246.5C 170.324,245.939 168.991,244.939 168,243.5C 164.84,246.074 164.84,248.741 168,251.5C 169.557,250.795 170.723,251.461 171.5,253.5C 173.045,254.452 174.712,254.785 176.5,254.5C 176.5,255.5 176.5,256.5 176.5,257.5C 173.482,257.335 170.482,257.502 167.5,258C 166.708,261.909 165.041,262.409 162.5,259.5C 162.977,258.522 163.643,257.689 164.5,257C 163.069,256.535 161.903,255.701 161,254.5C 160.51,255.793 160.343,257.127 160.5,258.5C 159.178,258.67 158.011,258.337 157,257.5C 156.217,259.433 156.717,260.933 158.5,262C 157.906,262.464 157.239,262.631 156.5,262.5C 153.71,262.249 150.71,262.249 147.5,262.5C 146.5,262.5 145.5,262.5 144.5,262.5C 144.708,260.08 144.374,257.747 143.5,255.5C 145.011,249.788 146.678,244.122 148.5,238.5C 147.563,236.712 146.23,235.379 144.5,234.5C 146.792,233.376 148.958,232.043 151,230.5C 152.077,231.429 153.244,232.096 154.5,232.5 Z"/></g>
<g><path style="opacity:1" fill="#a08d7a" d="M 72.5,202.5 C 73.1266,207.141 73.4599,211.807 73.5,216.5C 72.8826,216.611 72.3826,216.944 72,217.5C 71.4533,221.16 70.9533,224.827 70.5,228.5C 70.6493,230.32 71.3159,231.82 72.5,233C 71.7476,233.671 71.4142,234.504 71.5,235.5C 70.5489,236.919 70.2155,238.585 70.5,240.5C 69.5,240.5 68.5,240.5 67.5,240.5C 67.6495,241.552 67.4828,242.552 67,243.5C 65.3035,244.364 64.1368,245.697 63.5,247.5C 64.1332,252.003 64.2998,256.669 64,261.5C 61.8064,263.365 59.6397,265.032 57.5,266.5C 56.5,266.167 55.8333,265.5 55.5,264.5C 56.3195,257.92 58.1528,251.253 61,244.5C 64.1015,241.221 65.2682,237.221 64.5,232.5C 65.5,232.5 66.5,232.5 67.5,232.5C 68.51,224.773 69.8434,217.106 71.5,209.5C 71.2343,206.655 70.2343,204.322 68.5,202.5C 68.5,202.167 68.5,201.833 68.5,201.5C 70.456,199.825 71.7893,200.158 72.5,202.5 Z"/></g>
<g><path style="opacity:1" fill="#937d66" d="M 73.5,216.5 C 75.1287,219.895 76.6287,223.562 78,227.5C 79.5067,226.495 80.6733,225.162 81.5,223.5C 83.8833,224.905 86.05,224.571 88,222.5C 91.1013,225.028 92.9346,228.361 93.5,232.5C 90.8741,240.324 89.5407,248.324 89.5,256.5C 87.6096,256.297 86.1096,256.963 85,258.5C 84.6924,257.692 84.1924,257.025 83.5,256.5C 82.7348,257.612 81.7348,258.279 80.5,258.5C 80.5,255.167 80.5,251.833 80.5,248.5C 84.0794,248.234 84.4127,246.901 81.5,244.5C 80.8333,245.167 80.1667,245.833 79.5,246.5C 76.853,243.82 75.5196,244.487 75.5,248.5C 74.325,248.719 73.325,248.386 72.5,247.5C 75.151,245.196 75.151,242.863 72.5,240.5C 74.2161,238.085 74.7161,235.418 74,232.5C 73.6232,233.942 72.7899,234.942 71.5,235.5C 71.4142,234.504 71.7476,233.671 72.5,233C 71.3159,231.82 70.6493,230.32 70.5,228.5C 70.9533,224.827 71.4533,221.16 72,217.5C 72.3826,216.944 72.8826,216.611 73.5,216.5 Z"/></g>
<g><path style="opacity:1" fill="#8a7760" d="M 93.5,232.5 C 94.5,232.5 95.5,232.5 96.5,232.5C 96.5,239.833 96.5,247.167 96.5,254.5C 103.199,255.207 109.532,254.207 115.5,251.5C 115.833,252.167 116.167,252.833 116.5,253.5C 114.294,258.252 112.961,263.252 112.5,268.5C 114.717,270.08 117.384,271.08 120.5,271.5C 117.914,272.48 115.247,272.813 112.5,272.5C 112.5,275.167 112.5,277.833 112.5,280.5C 107.167,280.5 101.833,280.5 96.5,280.5C 96.5,282.833 96.5,285.167 96.5,287.5C 87.3191,284.576 78.6524,280.576 70.5,275.5C 70.5,274.5 70.5,273.5 70.5,272.5C 75.295,272.036 77.6283,269.369 77.5,264.5C 78.5,264.5 79.5,264.5 80.5,264.5C 80.5,262.5 80.5,260.5 80.5,258.5C 81.7348,258.279 82.7348,257.612 83.5,256.5C 84.1924,257.025 84.6924,257.692 85,258.5C 86.1096,256.963 87.6096,256.297 89.5,256.5C 89.5407,248.324 90.8741,240.324 93.5,232.5 Z"/></g>
<g><path style="opacity:1" fill="#8f7660" d="M 96.5,232.5 C 99.7107,232.012 102.544,232.679 105,234.5C 109.858,232.586 115.025,231.919 120.5,232.5C 123.167,232.5 125.833,232.5 128.5,232.5C 129.655,232.578 130.988,232.912 132.5,233.5C 131.421,235.543 129.754,236.876 127.5,237.5C 127.167,238.5 126.833,239.5 126.5,240.5C 128.113,245.008 128.779,249.674 128.5,254.5C 128.824,258.555 128.491,262.555 127.5,266.5C 123.418,264.654 119.085,263.987 114.5,264.5C 114.843,266.483 114.176,267.817 112.5,268.5C 112.961,263.252 114.294,258.252 116.5,253.5C 116.167,252.833 115.833,252.167 115.5,251.5C 109.532,254.207 103.199,255.207 96.5,254.5C 96.5,247.167 96.5,239.833 96.5,232.5 Z"/></g>
<g><path style="opacity:1" fill="#75594a" d="M 212.5,231.5 C 213.815,232.476 215.148,233.476 216.5,234.5C 212.905,239.399 208.905,243.899 204.5,248C 200.514,248.499 196.514,248.666 192.5,248.5C 192.5,253.167 192.5,257.833 192.5,262.5C 191.167,262.5 189.833,262.5 188.5,262.5C 188.5,261.167 188.5,259.833 188.5,258.5C 184.5,258.5 180.5,258.5 176.5,258.5C 176.5,258.167 176.5,257.833 176.5,257.5C 176.5,256.5 176.5,255.5 176.5,254.5C 174.712,254.785 173.045,254.452 171.5,253.5C 170.723,251.461 169.557,250.795 168,251.5C 164.84,248.741 164.84,246.074 168,243.5C 168.991,244.939 170.324,245.939 172,246.5C 174.868,245.289 177.035,243.289 178.5,240.5C 178.291,239.914 177.957,239.414 177.5,239C 179.274,238.03 181.107,237.196 183,236.5C 186.552,237.8 188.386,236.467 188.5,232.5C 196.684,232.826 204.684,232.492 212.5,231.5 Z"/></g>
<g><path style="opacity:1" fill="#886d5b" d="M 142.5,224.5 C 143.926,225.802 145.259,227.302 146.5,229C 144.808,230.401 144.141,232.234 144.5,234.5C 146.23,235.379 147.563,236.712 148.5,238.5C 146.678,244.122 145.011,249.788 143.5,255.5C 144.374,257.747 144.708,260.08 144.5,262.5C 142.365,264.369 139.698,265.036 136.5,264.5C 136.36,262.876 137.027,261.71 138.5,261C 136.527,260.505 134.527,260.338 132.5,260.5C 132.5,258.5 132.5,256.5 132.5,254.5C 131.167,254.5 129.833,254.5 128.5,254.5C 128.779,249.674 128.113,245.008 126.5,240.5C 126.833,239.5 127.167,238.5 127.5,237.5C 129.754,236.876 131.421,235.543 132.5,233.5C 130.988,232.912 129.655,232.578 128.5,232.5C 128.5,231.167 128.5,229.833 128.5,228.5C 129.833,228.5 131.167,228.5 132.5,228.5C 132.643,226.738 132.309,225.071 131.5,223.5C 132.167,223.167 132.833,222.833 133.5,222.5C 136.306,224.064 139.306,224.73 142.5,224.5 Z"/></g>
<g><path style="opacity:0.993" fill="#937f6f" d="M 80.5,258.5 C 80.5,260.5 80.5,262.5 80.5,264.5C 79.5,264.5 78.5,264.5 77.5,264.5C 77.6283,269.369 75.295,272.036 70.5,272.5C 70.5,273.5 70.5,274.5 70.5,275.5C 65.9924,272.747 61.6591,269.747 57.5,266.5C 59.6397,265.032 61.8064,263.365 64,261.5C 64.2998,256.669 64.1332,252.003 63.5,247.5C 64.1368,245.697 65.3035,244.364 67,243.5C 67.4828,242.552 67.6495,241.552 67.5,240.5C 68.5,240.5 69.5,240.5 70.5,240.5C 70.2155,238.585 70.5489,236.919 71.5,235.5C 72.7899,234.942 73.6232,233.942 74,232.5C 74.7161,235.418 74.2161,238.085 72.5,240.5C 75.151,242.863 75.151,245.196 72.5,247.5C 73.325,248.386 74.325,248.719 75.5,248.5C 75.5196,244.487 76.853,243.82 79.5,246.5C 80.1667,245.833 80.8333,245.167 81.5,244.5C 84.4127,246.901 84.0794,248.234 80.5,248.5C 80.5,251.833 80.5,255.167 80.5,258.5 Z"/></g>
<g><path style="opacity:1" fill="#7c6658" d="M 235.5,230.5 C 233.939,233.943 233.106,237.61 233,241.5C 232.5,251.161 232.334,260.828 232.5,270.5C 228.795,273.526 224.795,276.192 220.5,278.5C 219.356,274.602 220.356,271.268 223.5,268.5C 225.026,270.658 226.526,270.325 228,267.5C 228.483,266.552 228.649,265.552 228.5,264.5C 227.167,264.5 225.833,264.5 224.5,264.5C 224.5,262.833 224.5,261.167 224.5,259.5C 225.117,259.611 225.617,259.944 226,260.5C 227.178,251.747 228.845,243.08 231,234.5C 231.748,232.249 233.248,230.916 235.5,230.5 Z"/></g>
<g><path style="opacity:1" fill="#856e5f" d="M 128.5,254.5 C 129.833,254.5 131.167,254.5 132.5,254.5C 132.5,256.5 132.5,258.5 132.5,260.5C 134.527,260.338 136.527,260.505 138.5,261C 137.027,261.71 136.36,262.876 136.5,264.5C 139.698,265.036 142.365,264.369 144.5,262.5C 145.5,262.5 146.5,262.5 147.5,262.5C 147.918,263.222 148.584,263.722 149.5,264C 146.536,264.84 146.203,265.84 148.5,267C 147.406,268.78 146.406,270.614 145.5,272.5C 144.571,271.311 144.238,269.978 144.5,268.5C 140.414,267.846 137.081,269.012 134.5,272C 127.732,273.616 125.398,277.782 127.5,284.5C 128.429,283.311 128.762,281.978 128.5,280.5C 129.978,280.238 131.311,280.571 132.5,281.5C 131.568,283.795 130.735,286.129 130,288.5C 129.25,289.126 128.416,289.626 127.5,290C 128.406,291.699 128.739,293.533 128.5,295.5C 117.34,294.377 106.674,291.71 96.5,287.5C 96.5,285.167 96.5,282.833 96.5,280.5C 101.833,280.5 107.167,280.5 112.5,280.5C 112.5,277.833 112.5,275.167 112.5,272.5C 115.247,272.813 117.914,272.48 120.5,271.5C 117.384,271.08 114.717,270.08 112.5,268.5C 114.176,267.817 114.843,266.483 114.5,264.5C 119.085,263.987 123.418,264.654 127.5,266.5C 128.491,262.555 128.824,258.555 128.5,254.5 Z"/></g>
<g><path style="opacity:1" fill="#7b615a" d="M 176.5,257.5 C 176.5,257.833 176.5,258.167 176.5,258.5C 176.5,260.5 176.5,262.5 176.5,264.5C 179.167,264.5 181.833,264.5 184.5,264.5C 184.5,265.833 184.5,267.167 184.5,268.5C 185.778,270.544 185.612,272.544 184,274.5C 181.865,272.722 179.365,272.055 176.5,272.5C 176.5,275.167 176.5,277.833 176.5,280.5C 175.167,280.5 173.833,280.5 172.5,280.5C 172.241,274.622 169.241,271.289 163.5,270.5C 164.028,269.153 164.195,267.819 164,266.5C 162.511,268.332 160.678,269.165 158.5,269C 158.888,267.192 158.888,265.525 158.5,264C 157.584,263.722 156.918,263.222 156.5,262.5C 157.239,262.631 157.906,262.464 158.5,262C 156.717,260.933 156.217,259.433 157,257.5C 158.011,258.337 159.178,258.67 160.5,258.5C 160.343,257.127 160.51,255.793 161,254.5C 161.903,255.701 163.069,256.535 164.5,257C 163.643,257.689 162.977,258.522 162.5,259.5C 165.041,262.409 166.708,261.909 167.5,258C 170.482,257.502 173.482,257.335 176.5,257.5 Z"/></g>
<g><path style="opacity:1" fill="#735f54" d="M 208.5,261.5 C 210.048,261.821 210.715,262.821 210.5,264.5C 211.5,264.5 212.5,264.5 213.5,264.5C 212.317,269.754 211.65,275.088 211.5,280.5C 204.137,280.169 196.803,280.503 189.5,281.5C 187.585,284.151 186.085,283.817 185,280.5C 184.578,283.76 183.078,286.426 180.5,288.5C 179.784,287.689 178.95,287.022 178,286.5C 176.403,287.885 174.57,288.551 172.5,288.5C 170.86,284.514 169.194,280.514 167.5,276.5C 166.271,275.719 164.938,275.219 163.5,275C 164.684,273.855 164.684,272.688 163.5,271.5C 163.5,271.167 163.5,270.833 163.5,270.5C 169.241,271.289 172.241,274.622 172.5,280.5C 173.833,280.5 175.167,280.5 176.5,280.5C 176.5,277.833 176.5,275.167 176.5,272.5C 179.365,272.055 181.865,272.722 184,274.5C 185.612,272.544 185.778,270.544 184.5,268.5C 185.239,268.631 185.906,268.464 186.5,268C 185.483,266.951 185.316,265.784 186,264.5C 187.341,267.022 188.174,269.689 188.5,272.5C 190.492,272.672 192.158,272.005 193.5,270.5C 195.506,272.508 197.839,273.841 200.5,274.5C 200.5,273.167 200.5,271.833 200.5,270.5C 203.167,270.5 205.833,270.5 208.5,270.5C 208.5,267.5 208.5,264.5 208.5,261.5 Z"/></g>
<g><path style="opacity:1" fill="#7e675c" d="M 156.5,262.5 C 156.918,263.222 157.584,263.722 158.5,264C 158.888,265.525 158.888,267.192 158.5,269C 160.678,269.165 162.511,268.332 164,266.5C 164.195,267.819 164.028,269.153 163.5,270.5C 163.5,270.833 163.5,271.167 163.5,271.5C 161.574,272.242 159.741,273.242 158,274.5C 155.606,273.864 153.106,273.864 150.5,274.5C 149.998,277.841 148.664,280.841 146.5,283.5C 148.873,287.53 150.206,291.863 150.5,296.5C 143.833,296.5 137.167,296.5 130.5,296.5C 130.158,295.662 129.492,295.328 128.5,295.5C 128.739,293.533 128.406,291.699 127.5,290C 128.416,289.626 129.25,289.126 130,288.5C 130.735,286.129 131.568,283.795 132.5,281.5C 131.311,280.571 129.978,280.238 128.5,280.5C 128.762,281.978 128.429,283.311 127.5,284.5C 125.398,277.782 127.732,273.616 134.5,272C 137.081,269.012 140.414,267.846 144.5,268.5C 144.238,269.978 144.571,271.311 145.5,272.5C 146.406,270.614 147.406,268.78 148.5,267C 146.203,265.84 146.536,264.84 149.5,264C 148.584,263.722 147.918,263.222 147.5,262.5C 150.71,262.249 153.71,262.249 156.5,262.5 Z"/></g>
<g><path style="opacity:0.977" fill="#74604e" d="M 224.5,259.5 C 224.5,261.167 224.5,262.833 224.5,264.5C 225.833,264.5 227.167,264.5 228.5,264.5C 228.649,265.552 228.483,266.552 228,267.5C 226.526,270.325 225.026,270.658 223.5,268.5C 220.356,271.268 219.356,274.602 220.5,278.5C 203.126,287.736 184.793,293.736 165.5,296.5C 160.5,296.5 155.5,296.5 150.5,296.5C 150.206,291.863 148.873,287.53 146.5,283.5C 148.664,280.841 149.998,277.841 150.5,274.5C 153.106,273.864 155.606,273.864 158,274.5C 159.741,273.242 161.574,272.242 163.5,271.5C 164.684,272.688 164.684,273.855 163.5,275C 164.938,275.219 166.271,275.719 167.5,276.5C 169.194,280.514 170.86,284.514 172.5,288.5C 174.57,288.551 176.403,287.885 178,286.5C 178.95,287.022 179.784,287.689 180.5,288.5C 183.078,286.426 184.578,283.76 185,280.5C 186.085,283.817 187.585,284.151 189.5,281.5C 196.803,280.503 204.137,280.169 211.5,280.5C 211.65,275.088 212.317,269.754 213.5,264.5C 212.5,264.5 211.5,264.5 210.5,264.5C 210.715,262.821 210.048,261.821 208.5,261.5C 208.076,257.297 208.576,253.297 210,249.5C 210.508,251.904 211.675,252.571 213.5,251.5C 215.059,252.447 216.726,253.113 218.5,253.5C 220.403,252.647 222.403,252.647 224.5,253.5C 224.5,255.5 224.5,257.5 224.5,259.5 Z"/></g>
</svg>
